<?xml version="1.0" encoding="UTF-8" standalone="no"?>
<!DOCTYPE svg PUBLIC "-//W3C//DTD SVG 1.1//EN" "http://www.w3.org/Graphics/SVG/1.1/DTD/svg11.dtd">
<svg viewBox="0 0 317 53" version="1.1" xmlns="http://www.w3.org/2000/svg" xmlns:xlink="http://www.w3.org/1999/xlink" xml:space="preserve" xmlns:serif="http://www.serif.com/" style="fill-rule:evenodd;clip-rule:evenodd;stroke-linejoin:round;stroke-miterlimit:2;">
    <g transform="matrix(1,0,0,1,-85,-110)">
        <g transform="matrix(1.16981,0,0,1.00101,-1166.64,-2.802)">
            <g id="title1" transform="matrix(0.854837,0,0,0.998994,997.284,2.79918)">
                <g transform="matrix(6.64216,0,0,6.64216,-257.885,-419.505)">
                    <g transform="matrix(1,0,0,1,-1.05387,0)">
                        <path d="M59.502,80.59C59.526,80.638 59.685,80.956 59.704,80.994C59.752,81.091 59.759,81.187 59.726,81.283C59.692,81.38 59.627,81.452 59.531,81.5C59.434,81.548 59.337,81.556 59.238,81.522C59.139,81.488 59.063,81.423 59.01,81.327C58.967,81.24 58.897,81.11 58.801,80.937C58.753,80.84 58.744,80.743 58.775,80.644C58.807,80.545 58.871,80.472 58.967,80.423C59.063,80.375 59.165,80.368 59.27,80.402C59.376,80.436 59.454,80.498 59.502,80.59ZM54.147,81.5C54.147,81.389 54.187,81.294 54.266,81.215C54.346,81.135 54.441,81.096 54.552,81.096L57.688,81.096C57.702,81.096 57.713,81.088 57.72,81.074C57.728,81.059 57.726,81.047 57.717,81.038L57.717,81.031C57.669,80.939 57.66,80.844 57.691,80.745C57.723,80.646 57.784,80.573 57.876,80.525C57.972,80.476 58.07,80.469 58.168,80.503C58.267,80.537 58.343,80.602 58.396,80.698C58.42,80.741 58.454,80.805 58.497,80.89C58.541,80.974 58.574,81.038 58.598,81.081C58.647,81.177 58.654,81.274 58.62,81.37C58.586,81.467 58.521,81.536 58.425,81.58C58.386,81.599 58.358,81.611 58.338,81.616C58.295,81.626 58.271,81.645 58.266,81.674C58.242,81.756 58.194,81.824 58.121,81.88C58.049,81.935 57.967,81.963 57.876,81.963L54.552,81.963C54.441,81.963 54.346,81.922 54.266,81.84C54.187,81.758 54.147,81.662 54.147,81.551L54.147,81.5ZM59.516,83.502C59.516,83.613 59.475,83.709 59.393,83.791C59.311,83.873 59.215,83.914 59.104,83.914L57.218,83.914C57.175,83.914 57.153,83.933 57.153,83.972C57.143,84.718 56.963,85.319 56.611,85.775C56.259,86.23 55.717,86.564 54.985,86.776C54.874,86.809 54.768,86.797 54.667,86.74C54.566,86.682 54.496,86.597 54.458,86.487L54.429,86.4C54.395,86.294 54.405,86.193 54.458,86.096C54.511,86 54.59,85.935 54.696,85.901C55.207,85.737 55.573,85.505 55.795,85.204C56.016,84.903 56.132,84.49 56.141,83.965C56.141,83.931 56.122,83.914 56.084,83.914L53.713,83.914C53.602,83.914 53.506,83.873 53.424,83.791C53.342,83.709 53.301,83.613 53.301,83.502L53.301,83.451C53.301,83.341 53.342,83.245 53.424,83.166C53.506,83.086 53.602,83.047 53.713,83.047L59.104,83.047C59.215,83.047 59.311,83.086 59.393,83.166C59.475,83.245 59.516,83.341 59.516,83.451L59.516,83.502Z" style="fill:rgb(150,150,150);fill-rule:nonzero;"/>
                        <path d="M54.072,82.445C53.987,82.397 53.908,82.335 53.834,82.259C53.639,82.059 53.545,81.822 53.545,81.551L53.545,81.502L54.147,82.102L53.545,81.5C53.545,81.224 53.642,80.987 53.84,80.789C54.038,80.591 54.276,80.493 54.552,80.493L57.142,80.493C57.229,80.272 57.38,80.105 57.595,79.992C57.599,79.99 57.603,79.988 57.606,79.986C57.855,79.862 58.108,79.846 58.363,79.933C58.417,79.951 58.468,79.973 58.516,79.999C58.571,79.956 58.631,79.918 58.698,79.885C58.938,79.765 59.189,79.744 59.453,79.828C59.722,79.913 59.913,80.077 60.035,80.309C60.037,80.313 60.039,80.317 60.04,80.32L60.243,80.725C60.369,80.977 60.382,81.23 60.294,81.482C60.208,81.728 60.046,81.916 59.8,82.039C59.551,82.163 59.299,82.179 59.043,82.092C58.982,82.071 58.923,82.045 58.869,82.014C58.825,82.047 58.777,82.077 58.725,82.103C58.664,82.198 58.585,82.283 58.488,82.358C58.445,82.39 58.401,82.419 58.355,82.445L59.104,82.445C59.375,82.445 59.612,82.539 59.813,82.734C60.018,82.933 60.118,83.173 60.118,83.451L60.118,83.453C60.118,83.474 60.106,83.502 60.085,83.535L60.118,83.502C60.118,83.775 60.021,84.015 59.819,84.217C59.617,84.419 59.378,84.516 59.104,84.516L57.72,84.516C57.639,85.169 57.423,85.709 57.088,86.143C56.668,86.687 56.03,87.1 55.16,87.352C54.884,87.436 54.62,87.406 54.368,87.262C54.137,87.13 53.977,86.938 53.889,86.684C53.888,86.682 53.887,86.679 53.886,86.677L53.857,86.59C53.857,86.588 53.856,86.585 53.855,86.582C53.769,86.311 53.794,86.053 53.93,85.806C54.06,85.57 54.254,85.41 54.512,85.328C54.878,85.211 55.151,85.062 55.31,84.847C55.379,84.752 55.43,84.642 55.467,84.516L53.713,84.516C53.44,84.516 53.2,84.419 52.998,84.217C52.796,84.015 52.699,83.775 52.699,83.502L52.699,83.453L53.301,84.054L52.699,83.451C52.699,83.173 52.799,82.933 53.005,82.734C53.205,82.539 53.442,82.445 53.713,82.445L54.072,82.445ZM59.316,83.854L59.516,84.054L59.316,83.854C59.343,83.836 59.369,83.816 59.393,83.791C59.475,83.709 59.516,83.613 59.516,83.502L59.516,83.451C59.516,83.341 59.475,83.245 59.393,83.166C59.311,83.086 59.215,83.047 59.104,83.047L53.713,83.047C53.602,83.047 53.506,83.086 53.424,83.166C53.342,83.245 53.301,83.341 53.301,83.451L53.301,83.502C53.301,83.613 53.342,83.709 53.424,83.791C53.506,83.873 53.602,83.914 53.713,83.914L56.084,83.914C56.122,83.914 56.141,83.931 56.141,83.965C56.132,84.49 56.016,84.903 55.795,85.204C55.573,85.505 55.207,85.737 54.696,85.901C54.59,85.935 54.511,86 54.458,86.096C54.405,86.193 54.395,86.294 54.429,86.4L54.458,86.487C54.496,86.597 54.566,86.682 54.667,86.74C54.768,86.797 54.874,86.809 54.985,86.776C55.717,86.564 56.259,86.23 56.611,85.775C56.963,85.319 57.143,84.718 57.153,83.972C57.153,83.933 57.175,83.914 57.218,83.914L59.104,83.914C59.182,83.914 59.252,83.894 59.316,83.854ZM59.502,80.59C59.454,80.498 59.376,80.436 59.27,80.402C59.165,80.368 59.063,80.375 58.967,80.423C58.871,80.472 58.807,80.545 58.775,80.644C58.744,80.743 58.753,80.84 58.801,80.937C58.897,81.11 58.967,81.24 59.01,81.327C59.063,81.423 59.139,81.488 59.238,81.522C59.337,81.556 59.434,81.548 59.531,81.5C59.627,81.452 59.692,81.38 59.726,81.283C59.759,81.187 59.752,81.091 59.704,80.994L59.502,80.59ZM57.241,81.096C57.167,81.024 57.115,80.989 57.115,81.031C57.115,81.053 57.116,81.075 57.118,81.096L54.552,81.096C54.441,81.096 54.346,81.135 54.266,81.215C54.187,81.294 54.147,81.389 54.147,81.5L54.147,81.551C54.147,81.662 54.187,81.758 54.266,81.84C54.346,81.922 54.441,81.963 54.552,81.963L57.876,81.963C57.967,81.963 58.049,81.935 58.121,81.88C58.194,81.824 58.242,81.756 58.266,81.674C58.271,81.645 58.295,81.626 58.338,81.616C58.358,81.611 58.386,81.599 58.425,81.58C58.521,81.536 58.586,81.467 58.62,81.37C58.654,81.274 58.647,81.177 58.598,81.081C58.574,81.038 58.541,80.974 58.497,80.89C58.454,80.805 58.42,80.741 58.396,80.698C58.343,80.602 58.267,80.537 58.168,80.503C58.07,80.469 57.972,80.476 57.876,80.525C57.784,80.573 57.723,80.646 57.691,80.745C57.66,80.844 57.669,80.939 57.717,81.031L57.717,81.038C57.726,81.047 57.728,81.059 57.72,81.074C57.713,81.088 57.702,81.096 57.688,81.096L57.241,81.096Z" style="fill:rgb(150,150,150);"/>
                    </g>
                    <g transform="matrix(1,0,0,1,-0.451661,0)">
                        <path d="M66.251,82.049C66.362,82.069 66.449,82.124 66.512,82.216C66.574,82.307 66.593,82.408 66.569,82.519C66.275,83.839 65.739,84.824 64.961,85.475C64.183,86.125 63.057,86.537 61.583,86.711C61.467,86.725 61.365,86.697 61.276,86.627C61.187,86.558 61.133,86.465 61.113,86.349L61.099,86.241C61.08,86.135 61.104,86.039 61.171,85.952C61.239,85.865 61.328,85.815 61.438,85.8C62.72,85.651 63.679,85.318 64.315,84.803C64.951,84.287 65.396,83.476 65.652,82.367C65.676,82.257 65.736,82.169 65.832,82.104C65.929,82.039 66.032,82.016 66.143,82.035L66.251,82.049ZM65.724,81.652C65.632,81.695 65.537,81.701 65.438,81.67C65.34,81.639 65.266,81.577 65.218,81.486C65.194,81.442 65.16,81.379 65.117,81.294C65.073,81.21 65.04,81.146 65.016,81.103C64.967,81.011 64.959,80.916 64.99,80.817C65.022,80.719 65.083,80.645 65.175,80.597C65.271,80.549 65.369,80.542 65.467,80.575C65.566,80.609 65.642,80.674 65.695,80.77C65.719,80.814 65.753,80.878 65.796,80.962C65.839,81.046 65.873,81.11 65.897,81.153C65.945,81.25 65.953,81.346 65.919,81.442C65.885,81.539 65.82,81.609 65.724,81.652ZM66.801,80.662C66.825,80.71 66.984,81.028 67.003,81.067C67.051,81.163 67.058,81.259 67.025,81.356C66.991,81.452 66.926,81.524 66.829,81.573C66.733,81.621 66.636,81.628 66.537,81.594C66.438,81.56 66.362,81.495 66.309,81.399C66.266,81.312 66.196,81.182 66.1,81.009C66.051,80.912 66.043,80.815 66.074,80.716C66.106,80.617 66.169,80.544 66.266,80.496C66.362,80.448 66.463,80.44 66.569,80.474C66.675,80.508 66.752,80.57 66.801,80.662ZM61.149,83.581C61.039,83.562 60.951,83.507 60.886,83.415C60.821,83.324 60.8,83.223 60.824,83.112L60.831,83.061C60.851,82.95 60.911,82.861 61.012,82.794C61.113,82.726 61.219,82.705 61.33,82.729C61.6,82.777 62.125,82.878 62.905,83.032C63.016,83.052 63.102,83.108 63.162,83.202C63.222,83.296 63.24,83.401 63.216,83.516L63.209,83.567C63.185,83.678 63.126,83.765 63.032,83.827C62.938,83.89 62.838,83.912 62.732,83.892C61.812,83.709 61.284,83.606 61.149,83.581ZM63.31,81.276C63.421,81.295 63.508,81.353 63.57,81.45C63.633,81.546 63.652,81.65 63.628,81.76L63.614,81.825C63.594,81.936 63.538,82.023 63.444,82.086C63.35,82.148 63.248,82.167 63.137,82.143C62.539,82.023 61.99,81.919 61.489,81.833C61.378,81.813 61.29,81.758 61.225,81.666C61.16,81.575 61.137,81.474 61.157,81.363L61.171,81.305C61.19,81.194 61.248,81.105 61.345,81.038C61.441,80.97 61.544,80.946 61.655,80.965C62.137,81.047 62.689,81.151 63.31,81.276Z" style="fill:rgb(150,150,150);fill-rule:nonzero;"/>
                        <path d="M61.157,81.965L61.109,81.904C60.955,81.888 60.811,81.813 60.71,81.693C60.599,81.561 60.55,81.388 60.575,81.219L60.573,81.216L60.583,81.176C60.634,80.917 60.77,80.704 60.999,80.544C61.234,80.38 61.488,80.325 61.756,80.372C62.241,80.454 62.796,80.558 63.421,80.684L63.423,80.685C63.7,80.735 63.918,80.88 64.075,81.121C64.23,81.359 64.276,81.615 64.217,81.888C64.216,81.89 64.204,81.945 64.204,81.945C64.153,82.217 64.011,82.431 63.778,82.587C63.699,82.639 63.618,82.679 63.535,82.708C63.584,82.758 63.629,82.814 63.669,82.877C63.815,83.105 63.864,83.359 63.806,83.639L63.565,83.835L63.209,84.169L63.797,83.695C63.739,83.965 63.595,84.176 63.366,84.328C63.134,84.483 62.886,84.532 62.624,84.485C62.621,84.484 62.618,84.484 62.615,84.483C61.707,84.302 61.184,84.2 61.046,84.175L61.044,84.174C60.771,84.126 60.555,83.989 60.395,83.764C60.232,83.536 60.177,83.284 60.231,83.009L60.235,82.977L60.831,83.663L60.238,82.958C60.286,82.684 60.428,82.459 60.678,82.293C60.745,82.248 60.814,82.212 60.883,82.184C60.829,82.135 60.779,82.079 60.734,82.015C60.572,81.787 60.515,81.536 60.563,81.26C60.533,81.435 60.581,81.615 60.696,81.751C60.81,81.887 60.979,81.965 61.157,81.965C61.294,81.965 61.423,81.918 61.525,81.839C62.006,81.922 62.53,82.021 63.097,82.135C63.114,82.163 63.132,82.189 63.153,82.213C63.267,82.349 63.436,82.428 63.614,82.428L63.558,82.359C63.407,82.341 63.267,82.266 63.168,82.149C63.267,82.163 63.359,82.142 63.444,82.086C63.538,82.023 63.594,81.936 63.614,81.825L63.628,81.76C63.652,81.65 63.633,81.546 63.57,81.45C63.508,81.353 63.421,81.295 63.31,81.276C62.689,81.151 62.137,81.047 61.655,80.965C61.544,80.946 61.441,80.97 61.345,81.038C61.248,81.105 61.19,81.194 61.171,81.305L61.157,81.363C61.137,81.474 61.16,81.575 61.225,81.666C61.286,81.752 61.367,81.806 61.469,81.829C61.396,81.87 61.314,81.897 61.227,81.905L61.157,81.965ZM63.924,82.342C63.774,82.426 63.623,82.428 63.614,82.428C63.727,82.428 63.833,82.396 63.924,82.342ZM61.149,83.581C61.284,83.606 61.812,83.709 62.732,83.892C62.838,83.912 62.938,83.89 63.032,83.827C63.126,83.765 63.185,83.678 63.209,83.567L63.216,83.516C63.24,83.401 63.222,83.296 63.162,83.202C63.102,83.108 63.016,83.052 62.905,83.032C62.125,82.878 61.6,82.777 61.33,82.729C61.219,82.705 61.113,82.726 61.012,82.794C60.911,82.861 60.851,82.95 60.831,83.061L60.824,83.112C60.8,83.223 60.821,83.324 60.886,83.415C60.951,83.507 61.039,83.562 61.149,83.581ZM65.08,82.171C64.913,82.082 64.783,81.949 64.689,81.774C64.663,81.727 64.627,81.659 64.581,81.57C64.542,81.493 64.511,81.435 64.489,81.395C64.487,81.391 64.485,81.387 64.483,81.383C64.356,81.143 64.334,80.894 64.416,80.635C64.497,80.379 64.657,80.189 64.894,80.064C64.898,80.062 64.902,80.06 64.905,80.058C65.154,79.934 65.407,79.918 65.662,80.005C65.716,80.024 65.767,80.046 65.815,80.071C65.87,80.028 65.93,79.99 65.996,79.957C66.236,79.837 66.488,79.816 66.752,79.9C67.02,79.986 67.211,80.15 67.333,80.381C67.335,80.385 67.337,80.389 67.339,80.393L67.542,80.797C67.668,81.05 67.681,81.302 67.593,81.555C67.51,81.792 67.356,81.975 67.125,82.098C67.189,82.269 67.2,82.452 67.158,82.647C67.158,82.648 67.157,82.649 67.157,82.65C66.829,84.122 66.215,85.212 65.348,85.937C64.495,86.649 63.269,87.119 61.654,87.309C61.372,87.343 61.122,87.272 60.904,87.101C60.695,86.937 60.565,86.72 60.519,86.448C60.518,86.442 60.517,86.435 60.516,86.429C60.516,86.429 60.503,86.332 60.504,86.335C60.457,86.06 60.52,85.808 60.696,85.582C60.864,85.366 61.085,85.239 61.361,85.203C61.363,85.203 61.366,85.202 61.369,85.202C62.509,85.069 63.369,84.794 63.935,84.335C64.481,83.892 64.845,83.185 65.064,82.236C65.069,82.214 65.074,82.192 65.08,82.171ZM66.251,82.049L66.143,82.035C66.032,82.016 65.929,82.039 65.832,82.104C65.736,82.169 65.676,82.257 65.652,82.367C65.396,83.476 64.951,84.287 64.315,84.803C63.679,85.318 62.72,85.651 61.438,85.8C61.328,85.815 61.239,85.865 61.171,85.952C61.104,86.039 61.08,86.135 61.099,86.241L61.113,86.349C61.133,86.465 61.187,86.558 61.276,86.627C61.365,86.697 61.467,86.725 61.583,86.711C63.057,86.537 64.183,86.125 64.961,85.475C65.739,84.824 66.275,83.839 66.569,82.519C66.593,82.408 66.574,82.307 66.512,82.216C66.449,82.124 66.362,82.069 66.251,82.049ZM65.724,81.652C65.82,81.609 65.885,81.539 65.919,81.442C65.953,81.346 65.945,81.25 65.897,81.153C65.873,81.11 65.839,81.046 65.796,80.962C65.753,80.878 65.719,80.814 65.695,80.77C65.642,80.674 65.566,80.609 65.467,80.575C65.369,80.542 65.271,80.549 65.175,80.597C65.083,80.645 65.022,80.719 64.99,80.817C64.959,80.916 64.967,81.011 65.016,81.103C65.04,81.146 65.073,81.21 65.117,81.294C65.16,81.379 65.194,81.442 65.218,81.486C65.266,81.577 65.34,81.639 65.438,81.67C65.537,81.701 65.632,81.695 65.724,81.652ZM66.801,80.662C66.752,80.57 66.675,80.508 66.569,80.474C66.463,80.44 66.362,80.448 66.266,80.496C66.169,80.544 66.106,80.617 66.074,80.716C66.043,80.815 66.051,80.912 66.1,81.009C66.196,81.182 66.266,81.312 66.309,81.399C66.362,81.495 66.438,81.56 66.537,81.594C66.636,81.628 66.733,81.621 66.829,81.573C66.926,81.524 66.991,81.452 67.025,81.356C67.058,81.259 67.051,81.163 67.003,81.067L66.801,80.662Z" style="fill:rgb(150,150,150);"/>
                    </g>
                    <path d="M68.21,84.044L68.166,84.001C68.085,83.928 68.041,83.836 68.036,83.722C68.032,83.609 68.065,83.512 68.137,83.43C68.725,82.75 69.113,81.963 69.301,81.067C69.325,80.951 69.382,80.857 69.471,80.785C69.56,80.713 69.662,80.679 69.778,80.684L69.872,80.684C69.983,80.693 70.074,80.74 70.146,80.825C70.219,80.909 70.245,81.006 70.226,81.117L70.204,81.269C70.195,81.312 70.209,81.334 70.248,81.334L73.08,81.334C73.191,81.334 73.286,81.375 73.366,81.457C73.445,81.539 73.485,81.635 73.485,81.746C73.471,83.326 73.111,84.509 72.405,85.294C71.699,86.079 70.58,86.561 69.048,86.74C68.932,86.754 68.83,86.725 68.741,86.653C68.652,86.581 68.598,86.487 68.578,86.371L68.571,86.313C68.552,86.202 68.575,86.104 68.64,86.017C68.705,85.93 68.79,85.88 68.896,85.865C70.168,85.696 71.071,85.321 71.606,84.738C71.635,84.709 71.633,84.685 71.599,84.665C71.194,84.458 70.669,84.208 70.024,83.914C69.922,83.866 69.854,83.789 69.818,83.683C69.782,83.577 69.79,83.476 69.843,83.379L69.908,83.264C69.961,83.162 70.042,83.092 70.15,83.054C70.258,83.015 70.366,83.02 70.472,83.068C70.958,83.295 71.498,83.555 72.09,83.849C72.119,83.863 72.143,83.851 72.163,83.813C72.322,83.394 72.42,82.876 72.459,82.259C72.459,82.22 72.44,82.201 72.401,82.201L70.002,82.201C69.959,82.192 69.93,82.208 69.915,82.252C69.665,82.897 69.294,83.488 68.802,84.022C68.725,84.104 68.629,84.148 68.513,84.152C68.398,84.157 68.296,84.121 68.21,84.044Z" style="fill:rgb(150,150,150);fill-rule:nonzero;"/>
                    <path d="M68.21,84.646L68.112,84.6C67.985,84.589 67.864,84.537 67.768,84.452C67.56,84.269 67.447,84.035 67.435,83.748C67.423,83.472 67.508,83.235 67.683,83.035C68.203,82.433 68.545,81.736 68.711,80.944C68.765,80.686 68.893,80.478 69.092,80.317C69.295,80.152 69.527,80.073 69.788,80.081L69.872,80.081C69.889,80.081 69.907,80.082 69.924,80.084C70.198,80.108 70.425,80.224 70.604,80.433C70.684,80.526 70.744,80.626 70.782,80.732L73.08,80.732C73.359,80.732 73.599,80.832 73.798,81.037C73.993,81.238 74.087,81.475 74.087,81.746C74.087,81.748 74.087,81.75 74.087,81.751C74.071,83.513 73.639,84.822 72.853,85.697C72.065,86.573 70.829,87.138 69.119,87.338C68.834,87.372 68.582,87.299 68.362,87.121C68.156,86.954 68.029,86.737 67.984,86.47C68.033,86.76 68.284,86.973 68.578,86.973C68.755,86.973 68.923,86.895 69.038,86.76C69.044,86.753 69.05,86.746 69.055,86.739C70.584,86.56 71.7,86.078 72.405,85.294C73.111,84.509 73.471,83.326 73.485,81.746C73.485,81.635 73.445,81.539 73.366,81.457C73.286,81.375 73.191,81.334 73.08,81.334L70.248,81.334C70.209,81.334 70.195,81.312 70.204,81.269L70.226,81.117C70.245,81.006 70.219,80.909 70.146,80.825C70.074,80.74 69.983,80.693 69.872,80.684L69.778,80.684C69.662,80.679 69.56,80.713 69.471,80.785C69.382,80.857 69.325,80.951 69.301,81.067C69.113,81.963 68.725,82.75 68.137,83.43C68.065,83.512 68.032,83.609 68.036,83.722C68.041,83.836 68.085,83.928 68.166,84.001L68.21,84.044C68.296,84.121 68.398,84.157 68.513,84.152C68.613,84.148 68.699,84.115 68.77,84.054C68.768,84.059 68.766,84.065 68.765,84.071C68.759,84.119 68.747,84.167 68.73,84.214C68.658,84.404 68.496,84.542 68.304,84.587C68.248,84.625 68.21,84.646 68.21,84.646ZM68.578,86.973L68.516,86.913C68.247,86.888 68.025,86.686 67.978,86.416C67.928,86.131 67.991,85.878 68.158,85.656C68.324,85.434 68.544,85.305 68.815,85.268L68.817,85.268C69.506,85.177 70.074,85.028 70.515,84.805C70.289,84.698 70.042,84.584 69.774,84.462C69.771,84.461 69.768,84.459 69.765,84.458C69.634,84.395 69.525,84.314 69.437,84.213C69.375,84.286 69.311,84.358 69.246,84.43C69.244,84.432 69.243,84.433 69.241,84.435C69.053,84.634 68.82,84.742 68.538,84.754C68.261,84.766 68.018,84.679 67.81,84.494C67.92,84.592 68.062,84.646 68.21,84.646C68.46,84.646 68.684,84.492 68.773,84.258C68.803,84.178 68.815,84.095 68.811,84.013C69.298,83.48 69.666,82.894 69.915,82.252C69.93,82.208 69.959,82.192 70.002,82.201L72.401,82.201C72.44,82.201 72.459,82.22 72.459,82.259C72.42,82.876 72.322,83.394 72.163,83.813C72.143,83.851 72.119,83.863 72.09,83.849C71.498,83.555 70.958,83.295 70.472,83.068C70.366,83.02 70.258,83.015 70.15,83.054C70.042,83.092 69.961,83.162 69.908,83.264L69.843,83.379C69.79,83.476 69.782,83.577 69.818,83.683C69.854,83.789 69.922,83.866 70.024,83.914C70.669,84.208 71.194,84.458 71.599,84.665C71.633,84.685 71.635,84.709 71.606,84.738C71.071,85.321 70.168,85.696 68.896,85.865C68.79,85.88 68.705,85.93 68.64,86.017C68.575,86.104 68.552,86.202 68.571,86.313L68.578,86.371C68.598,86.487 68.652,86.581 68.741,86.653C68.828,86.724 68.929,86.753 69.042,86.74C68.864,86.931 68.578,86.973 68.578,86.973ZM71.321,82.803C71.464,82.872 71.611,82.943 71.761,83.016C71.775,82.947 71.787,82.876 71.798,82.803L71.321,82.803Z" style="fill:rgb(150,150,150);"/>
                    <path d="M78.443,86.653C78.332,86.658 78.237,86.619 78.157,86.537C78.078,86.455 78.038,86.359 78.038,86.248L78.038,81.356C78.038,81.245 78.079,81.15 78.161,81.07C78.243,80.991 78.339,80.951 78.45,80.951L78.63,80.951C78.741,80.951 78.838,80.991 78.92,81.07C79.001,81.15 79.042,81.245 79.042,81.356L79.042,85.59C79.042,85.629 79.062,85.643 79.1,85.634C79.5,85.523 79.813,85.31 80.04,84.994C80.266,84.679 80.425,84.234 80.517,83.661C80.536,83.55 80.591,83.461 80.683,83.394C80.774,83.326 80.873,83.3 80.979,83.314L81.08,83.329C81.191,83.343 81.283,83.395 81.355,83.484C81.427,83.573 81.454,83.673 81.434,83.784C81.165,85.615 80.167,86.571 78.443,86.653ZM75.133,86.385L75.046,86.255C74.988,86.159 74.973,86.059 74.999,85.955C75.026,85.852 75.087,85.771 75.183,85.713C75.574,85.472 75.827,85.142 75.942,84.723C76.058,84.304 76.116,83.536 76.116,82.418L76.116,81.356C76.116,81.245 76.155,81.15 76.235,81.07C76.314,80.991 76.41,80.951 76.52,80.951L76.694,80.951C76.805,80.951 76.9,80.991 76.979,81.07C77.059,81.15 77.098,81.245 77.098,81.356L77.098,82.418C77.098,83.304 77.055,84.007 76.968,84.525C76.882,85.042 76.742,85.453 76.549,85.757C76.357,86.06 76.079,86.318 75.718,86.53C75.617,86.588 75.511,86.603 75.4,86.577C75.289,86.55 75.2,86.487 75.133,86.385Z" style="fill:rgb(150,150,150);fill-rule:nonzero;"/>
                    <path d="M77.569,80.854C77.614,80.778 77.672,80.706 77.741,80.638C77.942,80.444 78.179,80.349 78.45,80.349L78.63,80.349C78.902,80.349 79.139,80.444 79.339,80.638C79.545,80.838 79.645,81.078 79.645,81.356L79.645,84.492C79.774,84.252 79.862,83.942 79.922,83.566C79.922,83.563 79.923,83.561 79.923,83.558C79.97,83.289 80.104,83.072 80.326,82.909C80.552,82.742 80.798,82.682 81.06,82.717C81.062,82.718 81.063,82.718 81.064,82.718C81.064,82.718 81.163,82.732 81.161,82.732C81.427,82.767 81.649,82.89 81.823,83.105C82.009,83.335 82.077,83.593 82.03,83.874C81.872,84.944 81.484,85.75 80.901,86.309C80.306,86.879 79.5,87.205 78.471,87.254C78.47,87.254 78.47,87.254 78.469,87.254C78.18,87.267 77.932,87.17 77.725,86.957C77.53,86.756 77.436,86.519 77.436,86.248L77.436,85.197C77.337,85.547 77.209,85.841 77.058,86.079C76.817,86.459 76.474,86.785 76.023,87.049C76.021,87.051 76.019,87.052 76.017,87.053C75.776,87.19 75.524,87.226 75.26,87.163C75.001,87.101 74.789,86.956 74.632,86.719L74.545,86.589C74.54,86.581 74.535,86.573 74.53,86.565C74.384,86.322 74.349,86.068 74.416,85.806C74.482,85.548 74.63,85.344 74.872,85.198C75.122,85.042 75.287,84.833 75.362,84.563C75.469,84.173 75.513,83.458 75.513,82.418L75.513,81.356C75.513,81.08 75.611,80.842 75.809,80.644C76.007,80.447 76.244,80.349 76.52,80.349L76.694,80.349C76.97,80.349 77.207,80.447 77.405,80.644C77.471,80.71 77.525,80.78 77.569,80.854ZM78.443,86.653C80.167,86.571 81.165,85.615 81.434,83.784C81.454,83.673 81.427,83.573 81.355,83.484C81.283,83.395 81.191,83.343 81.08,83.329L80.979,83.314C80.873,83.3 80.774,83.326 80.683,83.394C80.591,83.461 80.536,83.55 80.517,83.661C80.425,84.234 80.266,84.679 80.04,84.994C79.813,85.31 79.5,85.523 79.1,85.634C79.062,85.643 79.042,85.629 79.042,85.59L79.042,81.356C79.042,81.245 79.001,81.15 78.92,81.07C78.838,80.991 78.741,80.951 78.63,80.951L78.45,80.951C78.339,80.951 78.243,80.991 78.161,81.07C78.079,81.15 78.038,81.245 78.038,81.356L78.038,86.248C78.038,86.359 78.078,86.455 78.157,86.537C78.237,86.619 78.332,86.658 78.443,86.653ZM75.133,86.385C75.2,86.487 75.289,86.55 75.4,86.577C75.511,86.603 75.617,86.588 75.718,86.53C76.079,86.318 76.357,86.06 76.549,85.757C76.742,85.453 76.882,85.042 76.968,84.525C77.055,84.007 77.098,83.304 77.098,82.418L77.098,81.356C77.098,81.245 77.059,81.15 76.979,81.07C76.9,80.991 76.805,80.951 76.694,80.951L76.52,80.951C76.41,80.951 76.314,80.991 76.235,81.07C76.155,81.15 76.116,81.245 76.116,81.356L76.116,82.418C76.116,83.536 76.058,84.304 75.942,84.723C75.827,85.142 75.574,85.472 75.183,85.713C75.087,85.771 75.026,85.852 74.999,85.955C74.973,86.059 74.988,86.159 75.046,86.255L75.133,86.385Z" style="fill:rgb(150,150,150);"/>
                    <g transform="matrix(1,0,0,1,2.70996,0)">
                        <path d="M89.709,87.043C89.598,87.043 89.503,87.002 89.423,86.92C89.344,86.838 89.304,86.742 89.304,86.631L89.304,81.096C89.304,80.985 89.344,80.888 89.423,80.806C89.503,80.725 89.598,80.684 89.709,80.684L91.364,80.684C91.465,80.684 91.55,80.719 91.62,80.788C91.69,80.858 91.725,80.944 91.725,81.045C91.725,81.122 91.715,81.238 91.696,81.392C91.691,81.406 91.695,81.421 91.707,81.435C91.719,81.45 91.732,81.457 91.747,81.457L92.26,81.457C92.274,81.457 92.285,81.45 92.292,81.435C92.3,81.421 92.301,81.406 92.296,81.392C92.281,81.363 92.261,81.318 92.234,81.258C92.208,81.198 92.188,81.153 92.173,81.124C92.13,81.028 92.13,80.932 92.173,80.835C92.216,80.739 92.289,80.674 92.39,80.64L92.462,80.619C92.573,80.58 92.683,80.585 92.791,80.633C92.899,80.681 92.978,80.758 93.026,80.864C93.132,81.096 93.209,81.271 93.257,81.392C93.276,81.435 93.305,81.457 93.344,81.457L93.965,81.457C94.004,81.457 94.035,81.438 94.059,81.399C94.18,81.192 94.278,81.004 94.355,80.835C94.408,80.729 94.487,80.65 94.59,80.597C94.694,80.544 94.801,80.532 94.912,80.561L94.97,80.575C95.076,80.604 95.154,80.667 95.205,80.763C95.255,80.859 95.256,80.956 95.208,81.052C95.199,81.071 95.173,81.124 95.132,81.211C95.091,81.298 95.059,81.363 95.035,81.406C95.03,81.416 95.031,81.427 95.038,81.439C95.046,81.451 95.056,81.457 95.071,81.457L95.562,81.457C95.668,81.457 95.76,81.494 95.837,81.569C95.914,81.644 95.953,81.734 95.953,81.84C95.953,81.946 95.914,82.036 95.837,82.111C95.76,82.186 95.668,82.223 95.562,82.223L94.717,82.223C94.678,82.223 94.659,82.245 94.659,82.288C94.693,82.616 94.748,82.948 94.825,83.285C94.835,83.324 94.854,83.329 94.883,83.3C94.941,83.242 95.028,83.15 95.143,83.025C95.215,82.943 95.305,82.903 95.411,82.906C95.517,82.908 95.601,82.95 95.664,83.032C95.741,83.124 95.778,83.229 95.776,83.347C95.773,83.465 95.733,83.569 95.656,83.661C95.449,83.897 95.273,84.08 95.129,84.21C95.105,84.234 95.1,84.268 95.114,84.311C95.297,84.812 95.524,85.258 95.794,85.648C95.953,85.87 95.972,86.099 95.851,86.335L95.779,86.479C95.736,86.566 95.667,86.617 95.573,86.631C95.479,86.646 95.401,86.614 95.338,86.537C94.943,86.026 94.613,85.404 94.348,84.669C94.083,83.934 93.907,83.138 93.821,82.281C93.821,82.242 93.799,82.223 93.756,82.223L93.64,82.223C93.602,82.223 93.565,82.24 93.532,82.273C93.474,82.331 93.38,82.423 93.25,82.548C93.221,82.567 93.221,82.596 93.25,82.635C93.924,83.531 94.262,84.531 94.262,85.634C94.262,86.169 94.211,86.528 94.11,86.711C94.009,86.894 93.823,86.985 93.553,86.985C93.332,86.985 93.033,86.978 92.657,86.964C92.542,86.959 92.444,86.915 92.365,86.833C92.285,86.752 92.243,86.653 92.238,86.537L92.231,86.335C92.231,86.32 92.225,86.31 92.213,86.302C92.201,86.295 92.19,86.296 92.18,86.306C91.925,86.475 91.744,86.59 91.638,86.653C91.542,86.711 91.441,86.721 91.335,86.685C91.229,86.649 91.152,86.581 91.104,86.479L91.089,86.443C91.041,86.342 91.035,86.237 91.071,86.129C91.107,86.02 91.176,85.942 91.277,85.894C92.043,85.494 92.662,85.024 93.134,84.485C93.163,84.451 93.17,84.417 93.156,84.384C93.127,84.302 93.093,84.213 93.055,84.116C93.035,84.078 93.011,84.073 92.982,84.102C92.578,84.497 92.122,84.839 91.617,85.128C91.597,85.138 91.573,85.147 91.544,85.157C91.501,85.167 91.472,85.191 91.458,85.229C91.347,85.518 91.116,85.684 90.764,85.728C90.653,85.742 90.554,85.713 90.468,85.641C90.381,85.569 90.325,85.477 90.301,85.366L90.294,85.352C90.265,85.203 90.357,85.07 90.569,84.955C90.67,84.897 90.721,84.731 90.721,84.456C90.721,84.239 90.686,84.046 90.616,83.878C90.546,83.709 90.415,83.507 90.222,83.271C90.217,83.261 90.209,83.259 90.197,83.264C90.185,83.268 90.179,83.276 90.179,83.285L90.179,86.631C90.179,86.742 90.139,86.838 90.059,86.92C89.98,87.002 89.885,87.043 89.774,87.043L89.709,87.043ZM93.3,85.338C93.055,85.612 92.751,85.884 92.39,86.154C92.375,86.173 92.38,86.188 92.404,86.198C92.848,86.217 93.086,86.226 93.12,86.226C93.206,86.226 93.267,86.19 93.3,86.118C93.334,86.046 93.351,85.88 93.351,85.619C93.351,85.499 93.349,85.41 93.344,85.352C93.344,85.342 93.338,85.335 93.326,85.33C93.314,85.326 93.305,85.328 93.3,85.338ZM91.031,83.061C91.017,83.1 91.019,83.133 91.038,83.162C91.289,83.495 91.446,83.837 91.508,84.189C91.518,84.227 91.54,84.237 91.573,84.217C92.002,83.977 92.361,83.726 92.65,83.466C92.674,83.442 92.677,83.413 92.657,83.379C92.648,83.365 92.627,83.333 92.596,83.285C92.565,83.237 92.539,83.198 92.52,83.17C92.491,83.131 92.46,83.126 92.426,83.155C92.137,83.329 91.949,83.437 91.862,83.48C91.766,83.529 91.665,83.533 91.559,83.495C91.453,83.456 91.376,83.386 91.328,83.285C91.284,83.189 91.281,83.091 91.317,82.993C91.353,82.894 91.422,82.82 91.523,82.772C91.836,82.628 92.137,82.457 92.426,82.259C92.436,82.249 92.439,82.241 92.437,82.234C92.434,82.227 92.428,82.223 92.419,82.223L91.711,82.223C91.633,82.223 91.568,82.206 91.515,82.172C91.477,82.153 91.45,82.16 91.436,82.194C91.301,82.522 91.166,82.811 91.031,83.061ZM90.179,81.471L90.179,82.967C90.179,82.977 90.183,82.982 90.193,82.982C90.203,82.982 90.21,82.979 90.215,82.974C90.484,82.478 90.701,81.975 90.865,81.464C90.875,81.426 90.86,81.406 90.822,81.406L90.244,81.406C90.2,81.406 90.179,81.428 90.179,81.471Z" style="fill:rgb(150,150,150);fill-rule:nonzero;"/>
                        <path d="M91.891,80.235C91.979,80.164 92.082,80.108 92.199,80.069C92.205,80.067 92.211,80.065 92.217,80.063C92.217,80.063 92.279,80.045 92.275,80.046C92.531,79.96 92.785,79.971 93.036,80.083C93.285,80.193 93.463,80.372 93.573,80.613C93.612,80.698 93.647,80.775 93.678,80.846C93.727,80.754 93.77,80.667 93.808,80.585C93.811,80.579 93.814,80.572 93.817,80.566C93.929,80.341 94.096,80.173 94.316,80.061C94.556,79.938 94.804,79.911 95.06,79.977L95.114,79.991C95.122,79.993 95.129,79.994 95.136,79.996C95.407,80.073 95.608,80.235 95.738,80.483C95.81,80.62 95.847,80.757 95.85,80.895C95.999,80.939 96.135,81.019 96.256,81.136C96.456,81.33 96.555,81.565 96.555,81.84C96.555,82.115 96.456,82.35 96.256,82.543C96.215,82.583 96.173,82.618 96.129,82.65C96.13,82.651 96.131,82.652 96.132,82.653C96.302,82.859 96.383,83.095 96.378,83.359C96.372,83.618 96.286,83.848 96.117,84.049C96.114,84.052 96.112,84.055 96.109,84.058C95.996,84.187 95.892,84.3 95.796,84.4C95.936,84.73 96.099,85.031 96.285,85.3C96.586,85.721 96.617,86.156 96.39,86.605L96.318,86.749C96.181,87.023 95.962,87.181 95.665,87.226C95.348,87.275 95.082,87.177 94.871,86.917C94.868,86.913 94.865,86.909 94.862,86.906C94.821,86.852 94.78,86.798 94.74,86.742C94.709,86.847 94.674,86.934 94.637,87.002C94.436,87.365 94.089,87.587 93.553,87.587C93.326,87.587 93.02,87.58 92.634,87.565L92.632,87.565C92.356,87.554 92.123,87.449 91.932,87.253C91.917,87.237 91.902,87.22 91.887,87.203C91.649,87.327 91.4,87.344 91.14,87.255C90.971,87.198 90.831,87.107 90.72,86.983C90.673,87.112 90.597,87.231 90.491,87.34C90.292,87.545 90.052,87.645 89.774,87.645L89.709,87.645C89.431,87.645 89.191,87.545 88.991,87.34C88.797,87.139 88.702,86.902 88.702,86.631L88.702,81.096C88.702,80.824 88.797,80.588 88.991,80.387C89.191,80.182 89.431,80.081 89.709,80.081L91.364,80.081C91.562,80.081 91.738,80.133 91.891,80.235ZM91.104,87.082L91.052,87.044C90.937,87.037 90.828,86.997 90.737,86.932C90.735,86.939 90.733,86.946 90.731,86.952C90.835,87.035 90.966,87.082 91.104,87.082ZM91.104,87.082C91.31,87.082 91.502,86.976 91.613,86.801C91.629,86.776 91.643,86.75 91.654,86.723C91.651,86.706 91.649,86.689 91.646,86.672C91.633,86.704 91.617,86.735 91.598,86.765C91.496,86.926 91.324,87.029 91.136,87.044C91.115,87.068 91.104,87.082 91.104,87.082ZM89.709,87.043L89.774,87.043C89.885,87.043 89.98,87.002 90.059,86.92C90.139,86.838 90.179,86.742 90.179,86.631L90.179,83.285C90.179,83.276 90.185,83.268 90.197,83.264C90.209,83.259 90.217,83.261 90.222,83.271C90.415,83.507 90.546,83.709 90.616,83.878C90.686,84.046 90.721,84.239 90.721,84.456C90.721,84.731 90.67,84.897 90.569,84.955C90.357,85.07 90.265,85.203 90.294,85.352L90.301,85.366C90.325,85.477 90.381,85.569 90.468,85.641C90.554,85.713 90.653,85.742 90.764,85.728C91.116,85.684 91.347,85.518 91.458,85.229C91.472,85.191 91.501,85.167 91.544,85.157C91.573,85.147 91.597,85.138 91.617,85.128C92.122,84.839 92.578,84.497 92.982,84.102C93.011,84.073 93.035,84.078 93.055,84.116C93.093,84.213 93.127,84.302 93.156,84.384C93.17,84.417 93.163,84.451 93.134,84.485C92.662,85.024 92.043,85.494 91.277,85.894C91.176,85.942 91.107,86.02 91.071,86.129C91.035,86.237 91.041,86.342 91.089,86.443L91.104,86.479C91.152,86.581 91.229,86.649 91.335,86.685C91.441,86.721 91.542,86.711 91.638,86.653C91.744,86.59 91.925,86.475 92.18,86.306C92.19,86.296 92.201,86.295 92.213,86.302C92.225,86.31 92.231,86.32 92.231,86.335L92.238,86.537C92.243,86.653 92.285,86.752 92.365,86.833C92.444,86.915 92.542,86.959 92.657,86.964C93.033,86.978 93.332,86.985 93.553,86.985C93.823,86.985 94.009,86.894 94.11,86.711C94.211,86.528 94.262,86.169 94.262,85.634C94.262,84.531 93.924,83.531 93.25,82.635C93.221,82.596 93.221,82.567 93.25,82.548C93.38,82.423 93.474,82.331 93.532,82.273C93.565,82.24 93.602,82.223 93.64,82.223L93.756,82.223C93.799,82.223 93.821,82.242 93.821,82.281C93.907,83.138 94.083,83.934 94.348,84.669C94.613,85.404 94.943,86.026 95.338,86.537C95.401,86.614 95.479,86.646 95.573,86.631C95.667,86.617 95.736,86.566 95.779,86.479L95.851,86.335C95.972,86.099 95.953,85.87 95.794,85.648C95.524,85.258 95.297,84.812 95.114,84.311C95.1,84.268 95.105,84.234 95.129,84.21C95.273,84.08 95.449,83.897 95.656,83.661C95.733,83.569 95.773,83.465 95.776,83.347C95.778,83.229 95.741,83.124 95.664,83.032C95.601,82.95 95.517,82.908 95.411,82.906C95.305,82.903 95.215,82.943 95.143,83.025C95.028,83.15 94.941,83.242 94.883,83.3C94.854,83.329 94.835,83.324 94.825,83.285C94.748,82.948 94.693,82.616 94.659,82.288C94.659,82.245 94.678,82.223 94.717,82.223L95.562,82.223C95.668,82.223 95.76,82.186 95.837,82.111C95.914,82.036 95.953,81.946 95.953,81.84C95.953,81.734 95.914,81.644 95.837,81.569C95.76,81.494 95.668,81.457 95.562,81.457L95.071,81.457C95.056,81.457 95.046,81.451 95.038,81.439C95.031,81.427 95.03,81.416 95.035,81.406C95.059,81.363 95.091,81.298 95.132,81.211C95.173,81.124 95.199,81.071 95.208,81.052C95.256,80.956 95.255,80.859 95.205,80.763C95.154,80.667 95.076,80.604 94.97,80.575L94.912,80.561C94.801,80.532 94.694,80.544 94.59,80.597C94.487,80.65 94.408,80.729 94.355,80.835C94.278,81.004 94.18,81.192 94.059,81.399C94.035,81.438 94.004,81.457 93.965,81.457L93.344,81.457C93.305,81.457 93.276,81.435 93.257,81.392C93.209,81.271 93.132,81.096 93.026,80.864C92.978,80.758 92.899,80.681 92.791,80.633C92.683,80.585 92.573,80.58 92.462,80.619L92.39,80.64C92.289,80.674 92.216,80.739 92.173,80.835C92.13,80.932 92.13,81.028 92.173,81.124C92.188,81.153 92.208,81.198 92.234,81.258C92.261,81.318 92.281,81.363 92.296,81.392C92.301,81.406 92.3,81.421 92.292,81.435C92.285,81.45 92.274,81.457 92.26,81.457L91.747,81.457C91.732,81.457 91.719,81.45 91.707,81.435C91.695,81.421 91.691,81.406 91.696,81.392C91.715,81.238 91.725,81.122 91.725,81.045C91.725,80.944 91.69,80.858 91.62,80.788C91.55,80.719 91.465,80.684 91.364,80.684L89.709,80.684C89.598,80.684 89.503,80.725 89.423,80.806C89.344,80.888 89.304,80.985 89.304,81.096L89.304,86.631C89.304,86.742 89.344,86.838 89.423,86.92C89.503,87.002 89.598,87.043 89.709,87.043ZM93.3,85.338C93.305,85.328 93.314,85.326 93.326,85.33C93.338,85.335 93.344,85.342 93.344,85.352C93.349,85.41 93.351,85.499 93.351,85.619C93.351,85.88 93.334,86.046 93.3,86.118C93.267,86.19 93.206,86.226 93.12,86.226C93.086,86.226 92.848,86.217 92.404,86.198C92.38,86.188 92.375,86.173 92.39,86.154C92.751,85.884 93.055,85.612 93.3,85.338ZM91.031,83.061C91.166,82.811 91.301,82.522 91.436,82.194C91.45,82.16 91.477,82.153 91.515,82.172C91.568,82.206 91.633,82.223 91.711,82.223L92.419,82.223C92.428,82.223 92.434,82.227 92.437,82.234C92.439,82.241 92.436,82.249 92.426,82.259C92.137,82.457 91.836,82.628 91.523,82.772C91.422,82.82 91.353,82.894 91.317,82.993C91.281,83.091 91.284,83.189 91.328,83.285C91.376,83.386 91.453,83.456 91.559,83.495C91.665,83.533 91.766,83.529 91.862,83.48C91.949,83.437 92.137,83.329 92.426,83.155C92.46,83.126 92.491,83.131 92.52,83.17C92.539,83.198 92.565,83.237 92.596,83.285C92.627,83.333 92.648,83.365 92.657,83.379C92.677,83.413 92.674,83.442 92.65,83.466C92.361,83.726 92.002,83.977 91.573,84.217C91.54,84.237 91.518,84.227 91.508,84.189C91.446,83.837 91.289,83.495 91.038,83.162C91.019,83.133 91.017,83.1 91.031,83.061ZM90.179,81.471C90.179,81.428 90.2,81.406 90.244,81.406L90.822,81.406C90.86,81.406 90.875,81.426 90.865,81.464C90.701,81.975 90.484,82.478 90.215,82.974C90.21,82.979 90.203,82.982 90.193,82.982C90.183,82.982 90.179,82.977 90.179,82.967L90.179,81.471Z" style="fill:rgb(150,150,150);"/>
                    </g>
                    <g transform="matrix(1,0,0,1,1.20443,0)">
                        <path d="M87.671,80.698C87.772,80.66 87.876,80.66 87.982,80.698C88.088,80.737 88.165,80.804 88.213,80.9C88.232,80.934 88.259,80.985 88.292,81.052C88.326,81.12 88.356,81.181 88.383,81.236C88.409,81.292 88.435,81.344 88.459,81.392C88.502,81.488 88.502,81.585 88.459,81.681C88.415,81.777 88.345,81.845 88.249,81.883C88.148,81.922 88.048,81.921 87.949,81.88C87.85,81.839 87.779,81.77 87.736,81.674L87.497,81.175C87.449,81.084 87.443,80.99 87.479,80.893C87.516,80.797 87.579,80.732 87.671,80.698ZM82.309,85.88C82.203,85.88 82.112,85.842 82.038,85.768C81.963,85.693 81.926,85.603 81.926,85.497C81.926,85.391 81.963,85.3 82.038,85.226C82.112,85.151 82.203,85.114 82.309,85.114L83.48,85.114C83.518,85.114 83.537,85.092 83.537,85.048L83.537,84.738C83.537,84.699 83.518,84.68 83.48,84.68L82.612,84.68C82.502,84.68 82.405,84.639 82.323,84.557C82.241,84.475 82.2,84.379 82.2,84.268L82.2,81.934C82.2,81.862 82.226,81.8 82.276,81.75C82.327,81.699 82.388,81.674 82.461,81.674C82.47,81.674 82.479,81.669 82.486,81.659C82.493,81.65 82.494,81.64 82.489,81.63C82.427,81.467 82.35,81.281 82.258,81.074C82.22,80.978 82.221,80.882 82.262,80.788C82.303,80.694 82.371,80.633 82.468,80.604C82.574,80.57 82.677,80.576 82.779,80.622C82.88,80.668 82.952,80.741 82.995,80.843C83.125,81.132 83.229,81.389 83.306,81.616C83.321,81.654 83.349,81.674 83.393,81.674L83.689,81.674C83.728,81.674 83.742,81.654 83.732,81.616C83.679,81.476 83.595,81.271 83.48,81.002C83.441,80.905 83.443,80.81 83.487,80.716C83.53,80.622 83.6,80.561 83.696,80.532C83.802,80.498 83.906,80.504 84.007,80.55C84.108,80.596 84.18,80.669 84.224,80.77C84.373,81.117 84.489,81.411 84.571,81.652C84.576,81.666 84.583,81.674 84.592,81.674C84.602,81.674 84.612,81.669 84.621,81.659C84.756,81.385 84.877,81.115 84.983,80.85C85.026,80.739 85.099,80.657 85.203,80.604C85.307,80.551 85.414,80.539 85.525,80.568L85.539,80.568C85.645,80.592 85.723,80.654 85.774,80.752C85.825,80.851 85.831,80.951 85.792,81.052C85.686,81.312 85.602,81.507 85.539,81.638C85.534,81.642 85.534,81.65 85.539,81.659C85.544,81.669 85.551,81.674 85.561,81.674C85.623,81.674 85.675,81.694 85.716,81.735C85.757,81.776 85.778,81.828 85.778,81.89L85.778,82.331C85.778,82.341 85.784,82.349 85.796,82.357C85.808,82.364 85.819,82.365 85.828,82.36C85.876,82.331 85.932,82.314 85.994,82.31L86.233,82.288C86.271,82.288 86.291,82.266 86.291,82.223C86.276,81.939 86.264,81.495 86.255,80.893C86.255,80.782 86.294,80.686 86.374,80.604C86.453,80.522 86.548,80.481 86.659,80.481L86.739,80.481C86.849,80.481 86.947,80.521 87.031,80.601C87.116,80.68 87.158,80.775 87.158,80.886C87.167,81.459 87.18,81.878 87.194,82.143C87.194,82.182 87.216,82.201 87.259,82.201L88.22,82.115C88.331,82.105 88.429,82.137 88.513,82.212C88.597,82.287 88.644,82.379 88.654,82.49C88.659,82.601 88.624,82.701 88.549,82.79C88.474,82.879 88.382,82.929 88.271,82.938L87.317,83.018C87.278,83.018 87.259,83.04 87.259,83.083C87.288,83.463 87.324,83.808 87.367,84.116C87.367,84.126 87.373,84.132 87.385,84.134C87.398,84.137 87.406,84.133 87.411,84.123C87.483,84.008 87.582,83.82 87.707,83.56C87.755,83.459 87.83,83.386 87.931,83.343C88.032,83.3 88.136,83.3 88.242,83.343C88.348,83.386 88.421,83.46 88.462,83.563C88.503,83.667 88.5,83.769 88.451,83.871C88.215,84.391 87.941,84.849 87.628,85.244C87.603,85.277 87.596,85.316 87.606,85.359C87.717,85.774 87.811,85.981 87.888,85.981C87.95,85.981 88.006,85.721 88.054,85.2C88.064,85.109 88.109,85.04 88.191,84.994C88.273,84.949 88.357,84.945 88.444,84.983C88.55,85.032 88.632,85.105 88.69,85.204C88.748,85.303 88.772,85.41 88.762,85.525C88.709,86.031 88.612,86.407 88.469,86.653C88.327,86.898 88.162,87.021 87.974,87.021C87.526,87.021 87.17,86.706 86.905,86.075C86.886,86.041 86.862,86.039 86.833,86.067C86.486,86.356 86.098,86.612 85.669,86.833C85.563,86.886 85.454,86.897 85.34,86.866C85.227,86.835 85.137,86.771 85.069,86.674L85.069,86.667C85.012,86.576 84.996,86.481 85.022,86.382C85.049,86.283 85.11,86.207 85.207,86.154C85.722,85.894 86.177,85.574 86.572,85.193C86.606,85.159 86.618,85.123 86.609,85.085C86.498,84.574 86.411,83.933 86.348,83.162C86.348,83.129 86.327,83.112 86.283,83.112L86.052,83.126C85.97,83.136 85.896,83.121 85.828,83.083C85.819,83.073 85.808,83.072 85.796,83.079C85.784,83.086 85.778,83.097 85.778,83.112L85.778,84.268C85.778,84.379 85.737,84.475 85.655,84.557C85.573,84.639 85.476,84.68 85.366,84.68L84.527,84.68C84.484,84.68 84.462,84.699 84.462,84.738L84.462,85.048C84.462,85.087 84.484,85.106 84.527,85.106L85.539,85.106C85.645,85.106 85.735,85.145 85.81,85.222C85.885,85.299 85.922,85.391 85.922,85.497C85.922,85.603 85.885,85.693 85.81,85.768C85.735,85.842 85.645,85.88 85.539,85.88L84.527,85.88C84.484,85.88 84.462,85.901 84.462,85.945L84.462,86.66C84.462,86.771 84.423,86.866 84.343,86.945C84.264,87.025 84.168,87.065 84.058,87.065L83.949,87.065C83.838,87.065 83.742,87.025 83.66,86.945C83.578,86.866 83.537,86.771 83.537,86.66L83.537,85.945C83.537,85.901 83.518,85.88 83.48,85.88L82.309,85.88ZM84.441,82.44L84.441,82.801C84.441,82.844 84.462,82.866 84.506,82.866L84.947,82.866C84.99,82.866 85.012,82.844 85.012,82.801L85.012,82.44C85.012,82.396 84.99,82.375 84.947,82.375L84.506,82.375C84.462,82.375 84.441,82.396 84.441,82.44ZM84.441,83.56L84.441,83.95C84.441,83.989 84.462,84.008 84.506,84.008L84.947,84.008C84.99,84.008 85.012,83.989 85.012,83.95L85.012,83.56C85.012,83.516 84.99,83.495 84.947,83.495L84.506,83.495C84.462,83.495 84.441,83.516 84.441,83.56ZM82.995,82.44L82.995,82.801C82.995,82.844 83.017,82.866 83.06,82.866L83.501,82.866C83.545,82.866 83.566,82.844 83.566,82.801L83.566,82.44C83.566,82.396 83.545,82.375 83.501,82.375L83.06,82.375C83.017,82.375 82.995,82.396 82.995,82.44ZM83.501,84.008C83.545,84.008 83.566,83.989 83.566,83.95L83.566,83.56C83.566,83.516 83.545,83.495 83.501,83.495L83.06,83.495C83.017,83.495 82.995,83.516 82.995,83.56L82.995,83.95C82.995,83.989 83.017,84.008 83.06,84.008L83.501,84.008Z" style="fill:rgb(150,150,150);fill-rule:nonzero;"/>
                        <path d="M81.703,84.719C81.632,84.581 81.598,84.43 81.598,84.268L81.598,81.934C81.598,81.744 81.652,81.577 81.757,81.432C81.741,81.394 81.725,81.356 81.707,81.317C81.704,81.311 81.702,81.304 81.699,81.298C81.598,81.044 81.602,80.795 81.71,80.548C81.825,80.283 82.019,80.111 82.289,80.029C82.54,79.95 82.786,79.965 83.027,80.074C83.077,80.096 83.124,80.121 83.168,80.15C83.265,80.062 83.382,79.998 83.517,79.957C83.769,79.878 84.015,79.893 84.255,80.001C84.409,80.071 84.535,80.167 84.633,80.289C84.715,80.2 84.814,80.127 84.929,80.068C85.168,79.946 85.416,79.918 85.672,79.984L85.673,79.981C85.798,80.009 85.909,80.057 86.006,80.123C86.192,79.959 86.41,79.879 86.659,79.879L86.739,79.879C86.998,79.879 87.228,79.966 87.428,80.147C87.438,80.142 87.449,80.138 87.459,80.134C87.696,80.045 87.939,80.042 88.187,80.132C88.442,80.225 88.626,80.388 88.743,80.615C88.766,80.655 88.795,80.711 88.831,80.783C88.866,80.854 88.898,80.918 88.926,80.977C88.951,81.029 88.975,81.077 88.997,81.123C89.001,81.13 89.004,81.137 89.008,81.145C89.118,81.39 89.125,81.635 89.028,81.88C89.16,82.039 89.235,82.225 89.254,82.438C89.254,82.447 89.255,82.455 89.255,82.464C89.267,82.727 89.188,82.965 89.011,83.177C88.997,83.194 88.982,83.21 88.968,83.225C88.988,83.262 89.006,83.301 89.022,83.342C89.126,83.606 89.119,83.866 88.998,84.124C88.939,84.252 88.879,84.378 88.816,84.499C88.98,84.598 89.111,84.732 89.21,84.9C89.331,85.107 89.383,85.332 89.362,85.575C89.362,85.58 89.362,85.584 89.361,85.588C89.297,86.203 89.163,86.656 88.991,86.954C88.711,87.439 88.345,87.624 87.974,87.624C87.49,87.624 87.047,87.41 86.692,86.926C86.457,87.085 86.208,87.233 85.946,87.368C85.943,87.37 85.941,87.371 85.938,87.372C85.694,87.494 85.441,87.519 85.18,87.446C85.055,87.412 84.943,87.36 84.843,87.29C84.82,87.318 84.795,87.345 84.769,87.371C84.571,87.569 84.334,87.667 84.058,87.667L83.949,87.667C83.678,87.667 83.441,87.572 83.241,87.378C83.035,87.178 82.935,86.938 82.935,86.66L82.935,86.482L82.309,86.482C82.036,86.482 81.804,86.385 81.612,86.193C81.42,86.001 81.324,85.769 81.324,85.497C81.324,85.224 81.42,84.992 81.612,84.8C81.641,84.77 81.671,84.743 81.703,84.719ZM83.211,83.495L83.06,83.495C83.017,83.495 82.995,83.516 82.995,83.56L82.995,83.95C82.995,83.989 83.017,84.008 83.06,84.008L83.209,84.008C83.231,84.023 83.255,84.037 83.281,84.05C83.307,84.037 83.331,84.023 83.353,84.008L83.501,84.008C83.545,84.008 83.566,83.989 83.566,83.95L83.566,83.56C83.566,83.516 83.545,83.495 83.501,83.495L83.35,83.495C83.337,83.485 83.322,83.477 83.307,83.468L83.254,83.468C83.239,83.477 83.225,83.485 83.211,83.495ZM86.115,81.846C86.113,81.845 86.111,81.843 86.109,81.842C86.099,81.862 86.09,81.881 86.082,81.899C86.052,81.96 86.013,82.015 85.965,82.063C86.026,82.002 86.081,81.93 86.115,81.846ZM81.912,81.806C81.922,81.837 81.935,81.868 81.951,81.9C81.942,81.882 81.934,81.864 81.927,81.845C81.922,81.832 81.917,81.819 81.912,81.806ZM84.657,83.495L84.506,83.495C84.462,83.495 84.441,83.516 84.441,83.56L84.441,83.95C84.441,83.989 84.462,84.008 84.506,84.008L84.654,84.008C84.676,84.023 84.7,84.037 84.726,84.05C84.752,84.037 84.776,84.023 84.798,84.008L84.947,84.008C84.99,84.008 85.012,83.989 85.012,83.95L85.012,83.56C85.012,83.516 84.99,83.495 84.947,83.495L84.795,83.495C84.782,83.485 84.768,83.477 84.753,83.468L84.699,83.468C84.684,83.477 84.67,83.485 84.657,83.495ZM87.671,80.698C87.579,80.732 87.516,80.797 87.479,80.893C87.443,80.99 87.449,81.084 87.497,81.175L87.736,81.674C87.779,81.77 87.85,81.839 87.949,81.88C88.048,81.921 88.148,81.922 88.249,81.883C88.345,81.845 88.415,81.777 88.459,81.681C88.502,81.585 88.502,81.488 88.459,81.392C88.435,81.344 88.409,81.292 88.383,81.236C88.356,81.181 88.326,81.12 88.292,81.052C88.259,80.985 88.232,80.934 88.213,80.9C88.165,80.804 88.088,80.737 87.982,80.698C87.876,80.66 87.772,80.66 87.671,80.698ZM84.578,87.015C84.572,87.007 84.566,86.998 84.56,86.989C84.545,86.965 84.531,86.94 84.518,86.916C84.535,86.953 84.555,86.986 84.578,87.015ZM84.03,85.494C84.02,85.484 84.011,85.473 84.002,85.463C83.993,85.474 83.983,85.486 83.974,85.497C83.983,85.507 83.992,85.517 84,85.528C84.01,85.517 84.02,85.505 84.03,85.494ZM84.441,82.619C84.44,82.619 84.44,82.62 84.44,82.62C84.44,82.621 84.44,82.621 84.441,82.622L84.441,82.801C84.441,82.844 84.462,82.866 84.506,82.866L84.625,82.866C84.636,82.875 84.648,82.884 84.661,82.893L84.791,82.893C84.804,82.884 84.816,82.875 84.828,82.866L84.947,82.866C84.99,82.866 85.012,82.844 85.012,82.801L85.012,82.622C85.012,82.621 85.012,82.621 85.012,82.62C85.012,82.62 85.012,82.619 85.012,82.619L85.012,82.44C85.012,82.396 84.99,82.375 84.947,82.375L84.828,82.375C84.797,82.351 84.764,82.329 84.726,82.311C84.689,82.329 84.655,82.351 84.625,82.375L84.506,82.375C84.462,82.375 84.441,82.396 84.441,82.44L84.441,82.619ZM87.174,84.846C87.205,84.806 87.236,84.766 87.266,84.725C87.221,84.716 87.181,84.703 87.143,84.688C87.153,84.742 87.163,84.795 87.174,84.846ZM85.063,87.269C85.048,87.25 85.005,87.197 84.95,87.131C84.932,87.164 84.912,87.196 84.89,87.227C84.974,87.256 85.042,87.266 85.063,87.269ZM86.728,82.67C86.742,82.682 86.755,82.694 86.767,82.707C86.782,82.684 86.799,82.662 86.816,82.642C86.814,82.64 86.812,82.639 86.81,82.637C86.799,82.627 86.788,82.617 86.778,82.606C86.762,82.629 86.745,82.65 86.728,82.67ZM85.645,86.845C85.633,86.884 85.617,86.922 85.597,86.958C85.492,87.147 85.295,87.266 85.079,87.269C85.073,87.274 85.069,87.277 85.069,87.277C85.294,87.277 85.5,87.152 85.604,86.953C85.622,86.917 85.636,86.881 85.647,86.844C85.655,86.841 85.662,86.837 85.669,86.833C86.098,86.612 86.486,86.356 86.833,86.067C86.862,86.039 86.886,86.041 86.905,86.075C87.17,86.706 87.526,87.021 87.974,87.021C88.162,87.021 88.327,86.898 88.469,86.653C88.612,86.407 88.709,86.031 88.762,85.525C88.772,85.41 88.748,85.303 88.69,85.204C88.632,85.105 88.55,85.032 88.444,84.983C88.357,84.945 88.273,84.949 88.191,84.994C88.109,85.04 88.064,85.109 88.054,85.2C88.006,85.721 87.95,85.981 87.888,85.981C87.811,85.981 87.717,85.774 87.606,85.359C87.596,85.316 87.603,85.277 87.628,85.244C87.941,84.849 88.215,84.391 88.451,83.871C88.5,83.769 88.503,83.667 88.462,83.563C88.421,83.46 88.348,83.386 88.242,83.343C88.136,83.3 88.032,83.3 87.931,83.343C87.83,83.386 87.755,83.459 87.707,83.56C87.582,83.82 87.483,84.008 87.411,84.123C87.406,84.133 87.398,84.137 87.385,84.134C87.373,84.132 87.367,84.126 87.367,84.116C87.324,83.808 87.288,83.463 87.259,83.083C87.259,83.04 87.278,83.018 87.317,83.018L88.271,82.938C88.382,82.929 88.474,82.879 88.549,82.79C88.624,82.701 88.659,82.601 88.654,82.49C88.644,82.379 88.597,82.287 88.513,82.212C88.429,82.137 88.331,82.105 88.22,82.115L87.259,82.201C87.216,82.201 87.194,82.182 87.194,82.143C87.18,81.878 87.167,81.459 87.158,80.886C87.158,80.775 87.116,80.68 87.031,80.601C86.947,80.521 86.849,80.481 86.739,80.481L86.659,80.481C86.548,80.481 86.453,80.522 86.374,80.604C86.294,80.686 86.255,80.782 86.255,80.893C86.264,81.495 86.276,81.939 86.291,82.223C86.291,82.266 86.271,82.288 86.233,82.288L85.994,82.31C85.932,82.314 85.876,82.331 85.828,82.36C85.819,82.365 85.808,82.364 85.796,82.357C85.784,82.349 85.778,82.341 85.778,82.331L85.778,81.89C85.778,81.828 85.757,81.776 85.716,81.735C85.675,81.694 85.623,81.674 85.561,81.674C85.551,81.674 85.544,81.669 85.539,81.659C85.534,81.65 85.534,81.642 85.539,81.638C85.602,81.507 85.686,81.312 85.792,81.052C85.831,80.951 85.825,80.851 85.774,80.752C85.723,80.654 85.645,80.592 85.539,80.568L85.525,80.568C85.414,80.539 85.307,80.551 85.203,80.604C85.099,80.657 85.026,80.739 84.983,80.85C84.877,81.115 84.756,81.385 84.621,81.659C84.612,81.669 84.602,81.674 84.592,81.674C84.583,81.674 84.576,81.666 84.571,81.652C84.489,81.411 84.373,81.117 84.224,80.77C84.18,80.669 84.108,80.596 84.007,80.55C83.906,80.504 83.802,80.498 83.696,80.532C83.6,80.561 83.53,80.622 83.487,80.716C83.443,80.81 83.441,80.905 83.48,81.002C83.595,81.271 83.679,81.476 83.732,81.616C83.742,81.654 83.728,81.674 83.689,81.674L83.393,81.674C83.349,81.674 83.321,81.654 83.306,81.616C83.229,81.389 83.125,81.132 82.995,80.843C82.952,80.741 82.88,80.668 82.779,80.622C82.677,80.576 82.574,80.57 82.468,80.604C82.371,80.633 82.303,80.694 82.262,80.788C82.221,80.882 82.22,80.978 82.258,81.074C82.35,81.281 82.427,81.467 82.489,81.63C82.494,81.64 82.493,81.65 82.486,81.659C82.479,81.669 82.47,81.674 82.461,81.674C82.388,81.674 82.327,81.699 82.276,81.75C82.226,81.8 82.2,81.862 82.2,81.934L82.2,84.268C82.2,84.379 82.241,84.475 82.323,84.557C82.405,84.639 82.502,84.68 82.612,84.68L83.48,84.68C83.518,84.68 83.537,84.699 83.537,84.738L83.537,85.048C83.537,85.092 83.518,85.114 83.48,85.114L82.309,85.114C82.203,85.114 82.112,85.151 82.038,85.226C81.963,85.3 81.926,85.391 81.926,85.497C81.926,85.603 81.963,85.693 82.038,85.768C82.112,85.842 82.203,85.88 82.309,85.88L83.48,85.88C83.518,85.88 83.537,85.901 83.537,85.945L83.537,86.66C83.537,86.771 83.578,86.866 83.66,86.945C83.742,87.025 83.838,87.065 83.949,87.065L84.058,87.065C84.168,87.065 84.264,87.025 84.343,86.945C84.423,86.866 84.462,86.771 84.462,86.66L84.462,85.945C84.462,85.901 84.484,85.88 84.527,85.88L85.539,85.88C85.645,85.88 85.735,85.842 85.81,85.768C85.885,85.693 85.922,85.603 85.922,85.497C85.922,85.391 85.885,85.299 85.81,85.222C85.735,85.145 85.645,85.106 85.539,85.106L84.527,85.106C84.484,85.106 84.462,85.087 84.462,85.048L84.462,84.738C84.462,84.699 84.484,84.68 84.527,84.68L85.366,84.68C85.476,84.68 85.573,84.639 85.655,84.557C85.737,84.475 85.778,84.379 85.778,84.268L85.778,83.112C85.778,83.097 85.784,83.086 85.796,83.079C85.808,83.072 85.819,83.073 85.828,83.083C85.896,83.121 85.97,83.136 86.052,83.126L86.283,83.112C86.327,83.112 86.348,83.129 86.348,83.162C86.411,83.933 86.498,84.574 86.609,85.085C86.618,85.123 86.606,85.159 86.572,85.193C86.177,85.574 85.722,85.894 85.207,86.154C85.11,86.207 85.049,86.283 85.022,86.382C84.996,86.481 85.012,86.576 85.069,86.667L85.069,86.674C85.137,86.771 85.227,86.835 85.34,86.866C85.445,86.895 85.546,86.888 85.645,86.845ZM85.069,87.277C85.069,87.277 85.067,87.274 85.064,87.269C85.001,87.269 84.94,87.258 84.882,87.239C84.88,87.241 84.879,87.243 84.877,87.245C84.939,87.266 85.003,87.277 85.069,87.277ZM82.995,82.619C82.995,82.619 82.995,82.62 82.995,82.62C82.995,82.621 82.995,82.621 82.995,82.622L82.995,82.801C82.995,82.844 83.017,82.866 83.06,82.866L83.179,82.866C83.191,82.875 83.203,82.884 83.216,82.893L83.346,82.893C83.359,82.884 83.371,82.875 83.382,82.866L83.501,82.866C83.545,82.866 83.566,82.844 83.566,82.801L83.566,82.622C83.566,82.621 83.567,82.621 83.567,82.62C83.567,82.62 83.566,82.619 83.566,82.619L83.566,82.44C83.566,82.396 83.545,82.375 83.501,82.375L83.382,82.375C83.352,82.351 83.318,82.329 83.281,82.311C83.243,82.329 83.21,82.351 83.179,82.375L83.06,82.375C83.017,82.375 82.995,82.396 82.995,82.44L82.995,82.619Z" style="fill:rgb(150,150,150);"/>
                    </g>
                </g>
                <g transform="matrix(6.64216,0,0,6.64216,-257.885,-419.505)">
                    <g transform="matrix(1,0,0,1,-1.05387,0)">
                        <path d="M59.502,80.59C59.526,80.638 59.685,80.956 59.704,80.994C59.752,81.091 59.759,81.187 59.726,81.283C59.692,81.38 59.627,81.452 59.531,81.5C59.434,81.548 59.337,81.556 59.238,81.522C59.139,81.488 59.063,81.423 59.01,81.327C58.967,81.24 58.897,81.11 58.801,80.937C58.753,80.84 58.744,80.743 58.775,80.644C58.807,80.545 58.871,80.472 58.967,80.423C59.063,80.375 59.165,80.368 59.27,80.402C59.376,80.436 59.454,80.498 59.502,80.59ZM54.147,81.5C54.147,81.389 54.187,81.294 54.266,81.215C54.346,81.135 54.441,81.096 54.552,81.096L57.688,81.096C57.702,81.096 57.713,81.088 57.72,81.074C57.728,81.059 57.726,81.047 57.717,81.038L57.717,81.031C57.669,80.939 57.66,80.844 57.691,80.745C57.723,80.646 57.784,80.573 57.876,80.525C57.972,80.476 58.07,80.469 58.168,80.503C58.267,80.537 58.343,80.602 58.396,80.698C58.42,80.741 58.454,80.805 58.497,80.89C58.541,80.974 58.574,81.038 58.598,81.081C58.647,81.177 58.654,81.274 58.62,81.37C58.586,81.467 58.521,81.536 58.425,81.58C58.386,81.599 58.358,81.611 58.338,81.616C58.295,81.626 58.271,81.645 58.266,81.674C58.242,81.756 58.194,81.824 58.121,81.88C58.049,81.935 57.967,81.963 57.876,81.963L54.552,81.963C54.441,81.963 54.346,81.922 54.266,81.84C54.187,81.758 54.147,81.662 54.147,81.551L54.147,81.5ZM59.516,83.502C59.516,83.613 59.475,83.709 59.393,83.791C59.311,83.873 59.215,83.914 59.104,83.914L57.218,83.914C57.175,83.914 57.153,83.933 57.153,83.972C57.143,84.718 56.963,85.319 56.611,85.775C56.259,86.23 55.717,86.564 54.985,86.776C54.874,86.809 54.768,86.797 54.667,86.74C54.566,86.682 54.496,86.597 54.458,86.487L54.429,86.4C54.395,86.294 54.405,86.193 54.458,86.096C54.511,86 54.59,85.935 54.696,85.901C55.207,85.737 55.573,85.505 55.795,85.204C56.016,84.903 56.132,84.49 56.141,83.965C56.141,83.931 56.122,83.914 56.084,83.914L53.713,83.914C53.602,83.914 53.506,83.873 53.424,83.791C53.342,83.709 53.301,83.613 53.301,83.502L53.301,83.451C53.301,83.341 53.342,83.245 53.424,83.166C53.506,83.086 53.602,83.047 53.713,83.047L59.104,83.047C59.215,83.047 59.311,83.086 59.393,83.166C59.475,83.245 59.516,83.341 59.516,83.451L59.516,83.502Z" style="fill:url(#_Linear1);fill-rule:nonzero;"/>
                    </g>
                    <g transform="matrix(1,0,0,1,-0.451661,0)">
                        <path d="M66.251,82.049C66.362,82.069 66.449,82.124 66.512,82.216C66.574,82.307 66.593,82.408 66.569,82.519C66.275,83.839 65.739,84.824 64.961,85.475C64.183,86.125 63.057,86.537 61.583,86.711C61.467,86.725 61.365,86.697 61.276,86.627C61.187,86.558 61.133,86.465 61.113,86.349L61.099,86.241C61.08,86.135 61.104,86.039 61.171,85.952C61.239,85.865 61.328,85.815 61.438,85.8C62.72,85.651 63.679,85.318 64.315,84.803C64.951,84.287 65.396,83.476 65.652,82.367C65.676,82.257 65.736,82.169 65.832,82.104C65.929,82.039 66.032,82.016 66.143,82.035L66.251,82.049ZM65.724,81.652C65.632,81.695 65.537,81.701 65.438,81.67C65.34,81.639 65.266,81.577 65.218,81.486C65.194,81.442 65.16,81.379 65.117,81.294C65.073,81.21 65.04,81.146 65.016,81.103C64.967,81.011 64.959,80.916 64.99,80.817C65.022,80.719 65.083,80.645 65.175,80.597C65.271,80.549 65.369,80.542 65.467,80.575C65.566,80.609 65.642,80.674 65.695,80.77C65.719,80.814 65.753,80.878 65.796,80.962C65.839,81.046 65.873,81.11 65.897,81.153C65.945,81.25 65.953,81.346 65.919,81.442C65.885,81.539 65.82,81.609 65.724,81.652ZM66.801,80.662C66.825,80.71 66.984,81.028 67.003,81.067C67.051,81.163 67.058,81.259 67.025,81.356C66.991,81.452 66.926,81.524 66.829,81.573C66.733,81.621 66.636,81.628 66.537,81.594C66.438,81.56 66.362,81.495 66.309,81.399C66.266,81.312 66.196,81.182 66.1,81.009C66.051,80.912 66.043,80.815 66.074,80.716C66.106,80.617 66.169,80.544 66.266,80.496C66.362,80.448 66.463,80.44 66.569,80.474C66.675,80.508 66.752,80.57 66.801,80.662ZM61.149,83.581C61.039,83.562 60.951,83.507 60.886,83.415C60.821,83.324 60.8,83.223 60.824,83.112L60.831,83.061C60.851,82.95 60.911,82.861 61.012,82.794C61.113,82.726 61.219,82.705 61.33,82.729C61.6,82.777 62.125,82.878 62.905,83.032C63.016,83.052 63.102,83.108 63.162,83.202C63.222,83.296 63.24,83.401 63.216,83.516L63.209,83.567C63.185,83.678 63.126,83.765 63.032,83.827C62.938,83.89 62.838,83.912 62.732,83.892C61.812,83.709 61.284,83.606 61.149,83.581ZM63.31,81.276C63.421,81.295 63.508,81.353 63.57,81.45C63.633,81.546 63.652,81.65 63.628,81.76L63.614,81.825C63.594,81.936 63.538,82.023 63.444,82.086C63.35,82.148 63.248,82.167 63.137,82.143C62.539,82.023 61.99,81.919 61.489,81.833C61.378,81.813 61.29,81.758 61.225,81.666C61.16,81.575 61.137,81.474 61.157,81.363L61.171,81.305C61.19,81.194 61.248,81.105 61.345,81.038C61.441,80.97 61.544,80.946 61.655,80.965C62.137,81.047 62.689,81.151 63.31,81.276Z" style="fill:url(#_Linear2);fill-rule:nonzero;"/>
                    </g>
                    <path d="M68.21,84.044L68.166,84.001C68.085,83.928 68.041,83.836 68.036,83.722C68.032,83.609 68.065,83.512 68.137,83.43C68.725,82.75 69.113,81.963 69.301,81.067C69.325,80.951 69.382,80.857 69.471,80.785C69.56,80.713 69.662,80.679 69.778,80.684L69.872,80.684C69.983,80.693 70.074,80.74 70.146,80.825C70.219,80.909 70.245,81.006 70.226,81.117L70.204,81.269C70.195,81.312 70.209,81.334 70.248,81.334L73.08,81.334C73.191,81.334 73.286,81.375 73.366,81.457C73.445,81.539 73.485,81.635 73.485,81.746C73.471,83.326 73.111,84.509 72.405,85.294C71.699,86.079 70.58,86.561 69.048,86.74C68.932,86.754 68.83,86.725 68.741,86.653C68.652,86.581 68.598,86.487 68.578,86.371L68.571,86.313C68.552,86.202 68.575,86.104 68.64,86.017C68.705,85.93 68.79,85.88 68.896,85.865C70.168,85.696 71.071,85.321 71.606,84.738C71.635,84.709 71.633,84.685 71.599,84.665C71.194,84.458 70.669,84.208 70.024,83.914C69.922,83.866 69.854,83.789 69.818,83.683C69.782,83.577 69.79,83.476 69.843,83.379L69.908,83.264C69.961,83.162 70.042,83.092 70.15,83.054C70.258,83.015 70.366,83.02 70.472,83.068C70.958,83.295 71.498,83.555 72.09,83.849C72.119,83.863 72.143,83.851 72.163,83.813C72.322,83.394 72.42,82.876 72.459,82.259C72.459,82.22 72.44,82.201 72.401,82.201L70.002,82.201C69.959,82.192 69.93,82.208 69.915,82.252C69.665,82.897 69.294,83.488 68.802,84.022C68.725,84.104 68.629,84.148 68.513,84.152C68.398,84.157 68.296,84.121 68.21,84.044Z" style="fill:url(#_Linear3);fill-rule:nonzero;"/>
                    <path d="M78.443,86.653C78.332,86.658 78.237,86.619 78.157,86.537C78.078,86.455 78.038,86.359 78.038,86.248L78.038,81.356C78.038,81.245 78.079,81.15 78.161,81.07C78.243,80.991 78.339,80.951 78.45,80.951L78.63,80.951C78.741,80.951 78.838,80.991 78.92,81.07C79.001,81.15 79.042,81.245 79.042,81.356L79.042,85.59C79.042,85.629 79.062,85.643 79.1,85.634C79.5,85.523 79.813,85.31 80.04,84.994C80.266,84.679 80.425,84.234 80.517,83.661C80.536,83.55 80.591,83.461 80.683,83.394C80.774,83.326 80.873,83.3 80.979,83.314L81.08,83.329C81.191,83.343 81.283,83.395 81.355,83.484C81.427,83.573 81.454,83.673 81.434,83.784C81.165,85.615 80.167,86.571 78.443,86.653ZM75.133,86.385L75.046,86.255C74.988,86.159 74.973,86.059 74.999,85.955C75.026,85.852 75.087,85.771 75.183,85.713C75.574,85.472 75.827,85.142 75.942,84.723C76.058,84.304 76.116,83.536 76.116,82.418L76.116,81.356C76.116,81.245 76.155,81.15 76.235,81.07C76.314,80.991 76.41,80.951 76.52,80.951L76.694,80.951C76.805,80.951 76.9,80.991 76.979,81.07C77.059,81.15 77.098,81.245 77.098,81.356L77.098,82.418C77.098,83.304 77.055,84.007 76.968,84.525C76.882,85.042 76.742,85.453 76.549,85.757C76.357,86.06 76.079,86.318 75.718,86.53C75.617,86.588 75.511,86.603 75.4,86.577C75.289,86.55 75.2,86.487 75.133,86.385Z" style="fill:url(#_Linear4);fill-rule:nonzero;"/>
                    <g transform="matrix(1,0,0,1,2.70996,0)">
                        <path d="M89.709,87.043C89.598,87.043 89.503,87.002 89.423,86.92C89.344,86.838 89.304,86.742 89.304,86.631L89.304,81.096C89.304,80.985 89.344,80.888 89.423,80.806C89.503,80.725 89.598,80.684 89.709,80.684L91.364,80.684C91.465,80.684 91.55,80.719 91.62,80.788C91.69,80.858 91.725,80.944 91.725,81.045C91.725,81.122 91.715,81.238 91.696,81.392C91.691,81.406 91.695,81.421 91.707,81.435C91.719,81.45 91.732,81.457 91.747,81.457L92.26,81.457C92.274,81.457 92.285,81.45 92.292,81.435C92.3,81.421 92.301,81.406 92.296,81.392C92.281,81.363 92.261,81.318 92.234,81.258C92.208,81.198 92.188,81.153 92.173,81.124C92.13,81.028 92.13,80.932 92.173,80.835C92.216,80.739 92.289,80.674 92.39,80.64L92.462,80.619C92.573,80.58 92.683,80.585 92.791,80.633C92.899,80.681 92.978,80.758 93.026,80.864C93.132,81.096 93.209,81.271 93.257,81.392C93.276,81.435 93.305,81.457 93.344,81.457L93.965,81.457C94.004,81.457 94.035,81.438 94.059,81.399C94.18,81.192 94.278,81.004 94.355,80.835C94.408,80.729 94.487,80.65 94.59,80.597C94.694,80.544 94.801,80.532 94.912,80.561L94.97,80.575C95.076,80.604 95.154,80.667 95.205,80.763C95.255,80.859 95.256,80.956 95.208,81.052C95.199,81.071 95.173,81.124 95.132,81.211C95.091,81.298 95.059,81.363 95.035,81.406C95.03,81.416 95.031,81.427 95.038,81.439C95.046,81.451 95.056,81.457 95.071,81.457L95.562,81.457C95.668,81.457 95.76,81.494 95.837,81.569C95.914,81.644 95.953,81.734 95.953,81.84C95.953,81.946 95.914,82.036 95.837,82.111C95.76,82.186 95.668,82.223 95.562,82.223L94.717,82.223C94.678,82.223 94.659,82.245 94.659,82.288C94.693,82.616 94.748,82.948 94.825,83.285C94.835,83.324 94.854,83.329 94.883,83.3C94.941,83.242 95.028,83.15 95.143,83.025C95.215,82.943 95.305,82.903 95.411,82.906C95.517,82.908 95.601,82.95 95.664,83.032C95.741,83.124 95.778,83.229 95.776,83.347C95.773,83.465 95.733,83.569 95.656,83.661C95.449,83.897 95.273,84.08 95.129,84.21C95.105,84.234 95.1,84.268 95.114,84.311C95.297,84.812 95.524,85.258 95.794,85.648C95.953,85.87 95.972,86.099 95.851,86.335L95.779,86.479C95.736,86.566 95.667,86.617 95.573,86.631C95.479,86.646 95.401,86.614 95.338,86.537C94.943,86.026 94.613,85.404 94.348,84.669C94.083,83.934 93.907,83.138 93.821,82.281C93.821,82.242 93.799,82.223 93.756,82.223L93.64,82.223C93.602,82.223 93.565,82.24 93.532,82.273C93.474,82.331 93.38,82.423 93.25,82.548C93.221,82.567 93.221,82.596 93.25,82.635C93.924,83.531 94.262,84.531 94.262,85.634C94.262,86.169 94.211,86.528 94.11,86.711C94.009,86.894 93.823,86.985 93.553,86.985C93.332,86.985 93.033,86.978 92.657,86.964C92.542,86.959 92.444,86.915 92.365,86.833C92.285,86.752 92.243,86.653 92.238,86.537L92.231,86.335C92.231,86.32 92.225,86.31 92.213,86.302C92.201,86.295 92.19,86.296 92.18,86.306C91.925,86.475 91.744,86.59 91.638,86.653C91.542,86.711 91.441,86.721 91.335,86.685C91.229,86.649 91.152,86.581 91.104,86.479L91.089,86.443C91.041,86.342 91.035,86.237 91.071,86.129C91.107,86.02 91.176,85.942 91.277,85.894C92.043,85.494 92.662,85.024 93.134,84.485C93.163,84.451 93.17,84.417 93.156,84.384C93.127,84.302 93.093,84.213 93.055,84.116C93.035,84.078 93.011,84.073 92.982,84.102C92.578,84.497 92.122,84.839 91.617,85.128C91.597,85.138 91.573,85.147 91.544,85.157C91.501,85.167 91.472,85.191 91.458,85.229C91.347,85.518 91.116,85.684 90.764,85.728C90.653,85.742 90.554,85.713 90.468,85.641C90.381,85.569 90.325,85.477 90.301,85.366L90.294,85.352C90.265,85.203 90.357,85.07 90.569,84.955C90.67,84.897 90.721,84.731 90.721,84.456C90.721,84.239 90.686,84.046 90.616,83.878C90.546,83.709 90.415,83.507 90.222,83.271C90.217,83.261 90.209,83.259 90.197,83.264C90.185,83.268 90.179,83.276 90.179,83.285L90.179,86.631C90.179,86.742 90.139,86.838 90.059,86.92C89.98,87.002 89.885,87.043 89.774,87.043L89.709,87.043ZM93.3,85.338C93.055,85.612 92.751,85.884 92.39,86.154C92.375,86.173 92.38,86.188 92.404,86.198C92.848,86.217 93.086,86.226 93.12,86.226C93.206,86.226 93.267,86.19 93.3,86.118C93.334,86.046 93.351,85.88 93.351,85.619C93.351,85.499 93.349,85.41 93.344,85.352C93.344,85.342 93.338,85.335 93.326,85.33C93.314,85.326 93.305,85.328 93.3,85.338ZM91.031,83.061C91.017,83.1 91.019,83.133 91.038,83.162C91.289,83.495 91.446,83.837 91.508,84.189C91.518,84.227 91.54,84.237 91.573,84.217C92.002,83.977 92.361,83.726 92.65,83.466C92.674,83.442 92.677,83.413 92.657,83.379C92.648,83.365 92.627,83.333 92.596,83.285C92.565,83.237 92.539,83.198 92.52,83.17C92.491,83.131 92.46,83.126 92.426,83.155C92.137,83.329 91.949,83.437 91.862,83.48C91.766,83.529 91.665,83.533 91.559,83.495C91.453,83.456 91.376,83.386 91.328,83.285C91.284,83.189 91.281,83.091 91.317,82.993C91.353,82.894 91.422,82.82 91.523,82.772C91.836,82.628 92.137,82.457 92.426,82.259C92.436,82.249 92.439,82.241 92.437,82.234C92.434,82.227 92.428,82.223 92.419,82.223L91.711,82.223C91.633,82.223 91.568,82.206 91.515,82.172C91.477,82.153 91.45,82.16 91.436,82.194C91.301,82.522 91.166,82.811 91.031,83.061ZM90.179,81.471L90.179,82.967C90.179,82.977 90.183,82.982 90.193,82.982C90.203,82.982 90.21,82.979 90.215,82.974C90.484,82.478 90.701,81.975 90.865,81.464C90.875,81.426 90.86,81.406 90.822,81.406L90.244,81.406C90.2,81.406 90.179,81.428 90.179,81.471Z" style="fill:url(#_Linear5);fill-rule:nonzero;"/>
                    </g>
                    <g transform="matrix(1,0,0,1,1.20443,0)">
                        <path d="M87.671,80.698C87.772,80.66 87.876,80.66 87.982,80.698C88.088,80.737 88.165,80.804 88.213,80.9C88.232,80.934 88.259,80.985 88.292,81.052C88.326,81.12 88.356,81.181 88.383,81.236C88.409,81.292 88.435,81.344 88.459,81.392C88.502,81.488 88.502,81.585 88.459,81.681C88.415,81.777 88.345,81.845 88.249,81.883C88.148,81.922 88.048,81.921 87.949,81.88C87.85,81.839 87.779,81.77 87.736,81.674L87.497,81.175C87.449,81.084 87.443,80.99 87.479,80.893C87.516,80.797 87.579,80.732 87.671,80.698ZM82.309,85.88C82.203,85.88 82.112,85.842 82.038,85.768C81.963,85.693 81.926,85.603 81.926,85.497C81.926,85.391 81.963,85.3 82.038,85.226C82.112,85.151 82.203,85.114 82.309,85.114L83.48,85.114C83.518,85.114 83.537,85.092 83.537,85.048L83.537,84.738C83.537,84.699 83.518,84.68 83.48,84.68L82.612,84.68C82.502,84.68 82.405,84.639 82.323,84.557C82.241,84.475 82.2,84.379 82.2,84.268L82.2,81.934C82.2,81.862 82.226,81.8 82.276,81.75C82.327,81.699 82.388,81.674 82.461,81.674C82.47,81.674 82.479,81.669 82.486,81.659C82.493,81.65 82.494,81.64 82.489,81.63C82.427,81.467 82.35,81.281 82.258,81.074C82.22,80.978 82.221,80.882 82.262,80.788C82.303,80.694 82.371,80.633 82.468,80.604C82.574,80.57 82.677,80.576 82.779,80.622C82.88,80.668 82.952,80.741 82.995,80.843C83.125,81.132 83.229,81.389 83.306,81.616C83.321,81.654 83.349,81.674 83.393,81.674L83.689,81.674C83.728,81.674 83.742,81.654 83.732,81.616C83.679,81.476 83.595,81.271 83.48,81.002C83.441,80.905 83.443,80.81 83.487,80.716C83.53,80.622 83.6,80.561 83.696,80.532C83.802,80.498 83.906,80.504 84.007,80.55C84.108,80.596 84.18,80.669 84.224,80.77C84.373,81.117 84.489,81.411 84.571,81.652C84.576,81.666 84.583,81.674 84.592,81.674C84.602,81.674 84.612,81.669 84.621,81.659C84.756,81.385 84.877,81.115 84.983,80.85C85.026,80.739 85.099,80.657 85.203,80.604C85.307,80.551 85.414,80.539 85.525,80.568L85.539,80.568C85.645,80.592 85.723,80.654 85.774,80.752C85.825,80.851 85.831,80.951 85.792,81.052C85.686,81.312 85.602,81.507 85.539,81.638C85.534,81.642 85.534,81.65 85.539,81.659C85.544,81.669 85.551,81.674 85.561,81.674C85.623,81.674 85.675,81.694 85.716,81.735C85.757,81.776 85.778,81.828 85.778,81.89L85.778,82.331C85.778,82.341 85.784,82.349 85.796,82.357C85.808,82.364 85.819,82.365 85.828,82.36C85.876,82.331 85.932,82.314 85.994,82.31L86.233,82.288C86.271,82.288 86.291,82.266 86.291,82.223C86.276,81.939 86.264,81.495 86.255,80.893C86.255,80.782 86.294,80.686 86.374,80.604C86.453,80.522 86.548,80.481 86.659,80.481L86.739,80.481C86.849,80.481 86.947,80.521 87.031,80.601C87.116,80.68 87.158,80.775 87.158,80.886C87.167,81.459 87.18,81.878 87.194,82.143C87.194,82.182 87.216,82.201 87.259,82.201L88.22,82.115C88.331,82.105 88.429,82.137 88.513,82.212C88.597,82.287 88.644,82.379 88.654,82.49C88.659,82.601 88.624,82.701 88.549,82.79C88.474,82.879 88.382,82.929 88.271,82.938L87.317,83.018C87.278,83.018 87.259,83.04 87.259,83.083C87.288,83.463 87.324,83.808 87.367,84.116C87.367,84.126 87.373,84.132 87.385,84.134C87.398,84.137 87.406,84.133 87.411,84.123C87.483,84.008 87.582,83.82 87.707,83.56C87.755,83.459 87.83,83.386 87.931,83.343C88.032,83.3 88.136,83.3 88.242,83.343C88.348,83.386 88.421,83.46 88.462,83.563C88.503,83.667 88.5,83.769 88.451,83.871C88.215,84.391 87.941,84.849 87.628,85.244C87.603,85.277 87.596,85.316 87.606,85.359C87.717,85.774 87.811,85.981 87.888,85.981C87.95,85.981 88.006,85.721 88.054,85.2C88.064,85.109 88.109,85.04 88.191,84.994C88.273,84.949 88.357,84.945 88.444,84.983C88.55,85.032 88.632,85.105 88.69,85.204C88.748,85.303 88.772,85.41 88.762,85.525C88.709,86.031 88.612,86.407 88.469,86.653C88.327,86.898 88.162,87.021 87.974,87.021C87.526,87.021 87.17,86.706 86.905,86.075C86.886,86.041 86.862,86.039 86.833,86.067C86.486,86.356 86.098,86.612 85.669,86.833C85.563,86.886 85.454,86.897 85.34,86.866C85.227,86.835 85.137,86.771 85.069,86.674L85.069,86.667C85.012,86.576 84.996,86.481 85.022,86.382C85.049,86.283 85.11,86.207 85.207,86.154C85.722,85.894 86.177,85.574 86.572,85.193C86.606,85.159 86.618,85.123 86.609,85.085C86.498,84.574 86.411,83.933 86.348,83.162C86.348,83.129 86.327,83.112 86.283,83.112L86.052,83.126C85.97,83.136 85.896,83.121 85.828,83.083C85.819,83.073 85.808,83.072 85.796,83.079C85.784,83.086 85.778,83.097 85.778,83.112L85.778,84.268C85.778,84.379 85.737,84.475 85.655,84.557C85.573,84.639 85.476,84.68 85.366,84.68L84.527,84.68C84.484,84.68 84.462,84.699 84.462,84.738L84.462,85.048C84.462,85.087 84.484,85.106 84.527,85.106L85.539,85.106C85.645,85.106 85.735,85.145 85.81,85.222C85.885,85.299 85.922,85.391 85.922,85.497C85.922,85.603 85.885,85.693 85.81,85.768C85.735,85.842 85.645,85.88 85.539,85.88L84.527,85.88C84.484,85.88 84.462,85.901 84.462,85.945L84.462,86.66C84.462,86.771 84.423,86.866 84.343,86.945C84.264,87.025 84.168,87.065 84.058,87.065L83.949,87.065C83.838,87.065 83.742,87.025 83.66,86.945C83.578,86.866 83.537,86.771 83.537,86.66L83.537,85.945C83.537,85.901 83.518,85.88 83.48,85.88L82.309,85.88ZM84.441,82.44L84.441,82.801C84.441,82.844 84.462,82.866 84.506,82.866L84.947,82.866C84.99,82.866 85.012,82.844 85.012,82.801L85.012,82.44C85.012,82.396 84.99,82.375 84.947,82.375L84.506,82.375C84.462,82.375 84.441,82.396 84.441,82.44ZM84.441,83.56L84.441,83.95C84.441,83.989 84.462,84.008 84.506,84.008L84.947,84.008C84.99,84.008 85.012,83.989 85.012,83.95L85.012,83.56C85.012,83.516 84.99,83.495 84.947,83.495L84.506,83.495C84.462,83.495 84.441,83.516 84.441,83.56ZM82.995,82.44L82.995,82.801C82.995,82.844 83.017,82.866 83.06,82.866L83.501,82.866C83.545,82.866 83.566,82.844 83.566,82.801L83.566,82.44C83.566,82.396 83.545,82.375 83.501,82.375L83.06,82.375C83.017,82.375 82.995,82.396 82.995,82.44ZM83.501,84.008C83.545,84.008 83.566,83.989 83.566,83.95L83.566,83.56C83.566,83.516 83.545,83.495 83.501,83.495L83.06,83.495C83.017,83.495 82.995,83.516 82.995,83.56L82.995,83.95C82.995,83.989 83.017,84.008 83.06,84.008L83.501,84.008Z" style="fill:url(#_Linear6);fill-rule:nonzero;"/>
                    </g>
                </g>
            </g>
        </g>
    </g>
    <defs>
        <linearGradient id="_Linear1" x1="0" y1="0" x2="1" y2="0" gradientUnits="userSpaceOnUse" gradientTransform="matrix(-3.63135e-15,9.48487,-9.48487,-3.63135e-15,74.5068,78.8155)"><stop offset="0" style="stop-color:white;stop-opacity:1"/><stop offset="1" style="stop-color:rgb(179,179,179);stop-opacity:1"/></linearGradient>
        <linearGradient id="_Linear2" x1="0" y1="0" x2="1" y2="0" gradientUnits="userSpaceOnUse" gradientTransform="matrix(-3.63135e-15,9.48487,-9.48487,-3.63135e-15,74.5068,78.8155)"><stop offset="0" style="stop-color:white;stop-opacity:1"/><stop offset="1" style="stop-color:rgb(179,179,179);stop-opacity:1"/></linearGradient>
        <linearGradient id="_Linear3" x1="0" y1="0" x2="1" y2="0" gradientUnits="userSpaceOnUse" gradientTransform="matrix(-3.63135e-15,9.48487,-9.48487,-3.63135e-15,74.5068,78.8155)"><stop offset="0" style="stop-color:white;stop-opacity:1"/><stop offset="1" style="stop-color:rgb(179,179,179);stop-opacity:1"/></linearGradient>
        <linearGradient id="_Linear4" x1="0" y1="0" x2="1" y2="0" gradientUnits="userSpaceOnUse" gradientTransform="matrix(-3.63135e-15,9.48487,-9.48487,-3.63135e-15,74.5068,78.8155)"><stop offset="0" style="stop-color:white;stop-opacity:1"/><stop offset="1" style="stop-color:rgb(179,179,179);stop-opacity:1"/></linearGradient>
        <linearGradient id="_Linear5" x1="0" y1="0" x2="1" y2="0" gradientUnits="userSpaceOnUse" gradientTransform="matrix(-3.63135e-15,9.48487,-9.48487,-3.63135e-15,74.5068,78.8155)"><stop offset="0" style="stop-color:white;stop-opacity:1"/><stop offset="1" style="stop-color:rgb(179,179,179);stop-opacity:1"/></linearGradient>
        <linearGradient id="_Linear6" x1="0" y1="0" x2="1" y2="0" gradientUnits="userSpaceOnUse" gradientTransform="matrix(-3.63135e-15,9.48487,-9.48487,-3.63135e-15,74.5068,78.8155)"><stop offset="0" style="stop-color:white;stop-opacity:1"/><stop offset="1" style="stop-color:rgb(179,179,179);stop-opacity:1"/></linearGradient>
    </defs>
</svg>
