<?xml version="1.0" encoding="UTF-8" standalone="no"?>
<!DOCTYPE svg PUBLIC "-//W3C//DTD SVG 1.1//EN" "http://www.w3.org/Graphics/SVG/1.1/DTD/svg11.dtd">
<svg viewBox="0 0 385 65" version="1.1" xmlns="http://www.w3.org/2000/svg" xmlns:xlink="http://www.w3.org/1999/xlink" xml:space="preserve" xmlns:serif="http://www.serif.com/" style="fill-rule:evenodd;clip-rule:evenodd;stroke-linejoin:round;stroke-miterlimit:2;">
    <g transform="matrix(1,0,0,1,-49,-170)">
        <g transform="matrix(1.16981,0,0,1.00101,-1166.64,-2.802)">
            <g id="title2" transform="matrix(0.854837,0,0,0.998994,997.284,2.79918)">
                <g transform="matrix(6.64216,0,0,6.64216,-252.926,-348.294)">
                    <path d="M47.91,79.234L52.863,79.234C53.011,79.234 53.138,79.287 53.244,79.392C53.35,79.498 53.403,79.625 53.403,79.773L53.403,79.841C53.403,79.988 53.35,80.117 53.244,80.226C53.138,80.335 53.011,80.39 52.863,80.39L47.91,80.39C47.763,80.39 47.636,80.335 47.53,80.226C47.424,80.117 47.371,79.988 47.371,79.841L47.371,79.773C47.371,79.625 47.424,79.498 47.53,79.392C47.636,79.287 47.763,79.234 47.91,79.234ZM46.793,82.991C46.645,82.991 46.516,82.937 46.407,82.828C46.298,82.718 46.243,82.59 46.243,82.442L46.243,82.375C46.243,82.227 46.298,82.1 46.407,81.994C46.516,81.888 46.645,81.835 46.793,81.835L53.981,81.835C54.128,81.835 54.257,81.888 54.366,81.994C54.475,82.1 54.53,82.227 54.53,82.375L54.53,82.442C54.53,82.59 54.475,82.718 54.366,82.828C54.257,82.937 54.128,82.991 53.981,82.991L51.466,82.991C51.408,82.991 51.379,83.017 51.379,83.068C51.366,84.064 51.125,84.865 50.656,85.472C50.188,86.079 49.465,86.524 48.488,86.807C48.341,86.852 48.199,86.836 48.064,86.759C47.93,86.682 47.836,86.569 47.785,86.422L47.747,86.306C47.702,86.165 47.716,86.03 47.79,85.901C47.864,85.773 47.971,85.683 48.113,85.631C48.794,85.413 49.28,85.105 49.572,84.706C49.865,84.308 50.017,83.762 50.03,83.068C50.03,83.017 50.004,82.991 49.953,82.991L46.793,82.991Z" style="fill:rgb(179,179,179);fill-rule:nonzero;"/>
                    <path d="M47.512,81.082C47.319,81.02 47.145,80.91 46.99,80.75C46.74,80.493 46.618,80.189 46.618,79.841L46.618,79.775L47.371,80.526L46.618,79.773C46.618,79.419 46.743,79.114 46.997,78.86C47.251,78.606 47.556,78.481 47.91,78.481L52.863,78.481C53.217,78.481 53.522,78.606 53.776,78.86C54.03,79.114 54.155,79.419 54.155,79.773L54.155,79.775C54.155,79.96 53.403,80.593 53.403,80.593C53.818,80.593 54.155,80.256 54.155,79.841C54.155,80.189 54.034,80.493 53.784,80.75C53.629,80.91 53.454,81.02 53.262,81.082L53.981,81.082C54.329,81.082 54.633,81.204 54.89,81.454C55.154,81.71 55.283,82.018 55.283,82.375L55.283,82.377C55.283,82.405 55.265,82.444 55.234,82.49L55.283,82.442C55.283,82.793 55.158,83.1 54.898,83.36C54.639,83.619 54.332,83.744 53.981,83.744L52.09,83.744C51.987,84.624 51.701,85.351 51.252,85.933C50.698,86.65 49.855,87.194 48.705,87.528C48.352,87.635 48.014,87.597 47.691,87.412C47.393,87.242 47.187,86.995 47.074,86.669C47.073,86.666 47.072,86.663 47.071,86.66L47.032,86.544C47.031,86.541 47.03,86.537 47.029,86.534C46.917,86.182 46.953,85.846 47.137,85.526C47.302,85.24 47.541,85.038 47.855,84.924C47.864,84.921 47.874,84.918 47.883,84.915C48.381,84.755 48.752,84.553 48.966,84.261C49.072,84.116 49.147,83.943 49.197,83.744L46.793,83.744C46.442,83.744 46.134,83.619 45.875,83.36C45.615,83.1 45.491,82.793 45.491,82.442L45.491,82.377L46.243,83.127L45.491,82.375C45.491,82.018 45.619,81.71 45.883,81.454C46.14,81.204 46.444,81.082 46.793,81.082L47.512,81.082ZM47.91,79.234C47.763,79.234 47.636,79.287 47.53,79.392C47.424,79.498 47.371,79.625 47.371,79.773L47.371,79.841C47.371,79.988 47.424,80.117 47.53,80.226C47.636,80.335 47.763,80.39 47.91,80.39L52.863,80.39C53.011,80.39 53.138,80.335 53.244,80.226C53.35,80.117 53.403,79.988 53.403,79.841L53.403,79.773C53.403,79.625 53.35,79.498 53.244,79.392C53.138,79.287 53.011,79.234 52.863,79.234L47.91,79.234ZM54.293,82.891L54.53,83.127L54.293,82.89C54.318,82.872 54.343,82.851 54.366,82.828C54.475,82.718 54.53,82.59 54.53,82.442L54.53,82.375C54.53,82.227 54.475,82.1 54.366,81.994C54.257,81.888 54.128,81.835 53.981,81.835L46.793,81.835C46.645,81.835 46.516,81.888 46.407,81.994C46.298,82.1 46.243,82.227 46.243,82.375L46.243,82.442C46.243,82.59 46.298,82.718 46.407,82.828C46.516,82.937 46.645,82.991 46.793,82.991L49.953,82.991C50.004,82.991 50.03,83.017 50.03,83.068C50.017,83.762 49.865,84.308 49.572,84.706C49.28,85.105 48.794,85.413 48.113,85.631C47.971,85.683 47.864,85.773 47.79,85.901C47.716,86.03 47.702,86.165 47.747,86.306L47.785,86.422C47.836,86.569 47.93,86.682 48.064,86.759C48.199,86.836 48.341,86.852 48.488,86.807C49.465,86.524 50.188,86.079 50.656,85.472C51.125,84.865 51.366,84.064 51.379,83.068C51.379,83.017 51.408,82.991 51.466,82.991L53.981,82.991C54.096,82.991 54.2,82.958 54.293,82.891Z" style="fill:rgb(179,179,179);"/>
                    <path d="M57.42,86.778C57.273,86.784 57.144,86.731 57.035,86.619C56.926,86.507 56.871,86.377 56.871,86.229L56.871,79.648C56.871,79.5 56.926,79.372 57.035,79.262C57.144,79.153 57.273,79.099 57.42,79.099L57.71,79.099C57.857,79.099 57.986,79.153 58.095,79.262C58.204,79.372 58.259,79.5 58.259,79.648L58.259,85.419C58.259,85.471 58.284,85.497 58.336,85.497C59.447,85.374 60.348,85.057 61.039,84.543C61.729,84.029 62.29,83.261 62.72,82.24C62.778,82.098 62.874,81.997 63.009,81.936C63.144,81.875 63.282,81.874 63.423,81.931L63.587,81.999C63.728,82.057 63.83,82.155 63.891,82.293C63.952,82.431 63.953,82.571 63.896,82.712C63.311,84.099 62.502,85.114 61.467,85.757C60.433,86.399 59.084,86.74 57.42,86.778Z" style="fill:rgb(179,179,179);fill-rule:nonzero;"/>
                    <path d="M59.012,84.624C59.632,84.484 60.159,84.259 60.589,83.939C61.183,83.496 61.655,82.828 62.024,81.953C62.159,81.625 62.385,81.392 62.699,81.25C63.028,81.102 63.364,81.094 63.708,81.235L63.71,81.235C63.71,81.235 63.874,81.303 63.872,81.302C64.202,81.437 64.437,81.666 64.579,81.989C64.726,82.321 64.731,82.657 64.592,82.997C64.591,82.999 64.59,83.002 64.589,83.004C63.936,84.554 63.02,85.679 61.865,86.396C60.734,87.099 59.263,87.487 57.445,87.53C57.082,87.544 56.764,87.42 56.495,87.144C56.24,86.881 56.119,86.574 56.119,86.229L56.119,79.648C56.119,79.297 56.243,78.99 56.503,78.73C56.762,78.471 57.069,78.346 57.42,78.346L57.71,78.346C58.061,78.346 58.368,78.471 58.627,78.73C58.887,78.99 59.012,79.297 59.012,79.648L59.012,84.624ZM57.42,86.778C59.084,86.74 60.433,86.399 61.467,85.757C62.502,85.114 63.311,84.099 63.896,82.712C63.953,82.571 63.952,82.431 63.891,82.293C63.83,82.155 63.728,82.057 63.587,81.999L63.423,81.931C63.282,81.874 63.144,81.875 63.009,81.936C62.874,81.997 62.778,82.098 62.72,82.24C62.29,83.261 61.729,84.029 61.039,84.543C60.348,85.057 59.447,85.374 58.336,85.497C58.284,85.497 58.259,85.471 58.259,85.419L58.259,79.648C58.259,79.5 58.204,79.372 58.095,79.262C57.986,79.153 57.857,79.099 57.71,79.099L57.42,79.099C57.273,79.099 57.144,79.153 57.035,79.262C56.926,79.372 56.871,79.5 56.871,79.648L56.871,86.229C56.871,86.377 56.926,86.507 57.035,86.619C57.144,86.731 57.273,86.784 57.42,86.778Z" style="fill:rgb(179,179,179);"/>
                    <path d="M66.035,86.73C65.893,86.678 65.792,86.584 65.731,86.446C65.67,86.308 65.665,86.168 65.717,86.026C66.719,83.457 67.612,81.196 68.395,79.243C68.453,79.102 68.553,78.997 68.694,78.93C68.835,78.863 68.98,78.851 69.128,78.896L69.234,78.925C69.375,78.97 69.476,79.058 69.537,79.19C69.598,79.322 69.603,79.455 69.551,79.59C69.23,80.387 68.851,81.344 68.415,82.461L68.415,82.481L68.434,82.481C68.774,82.243 69.095,82.124 69.397,82.124C69.815,82.124 70.147,82.283 70.395,82.601C70.642,82.919 70.817,83.454 70.92,84.205C70.997,84.764 71.084,85.142 71.18,85.338C71.276,85.533 71.401,85.631 71.556,85.631C71.935,85.631 72.298,85.06 72.644,83.916C72.689,83.769 72.776,83.659 72.905,83.589C73.033,83.518 73.168,83.502 73.309,83.541L73.367,83.56C73.515,83.598 73.627,83.683 73.704,83.815C73.781,83.947 73.798,84.083 73.753,84.225C73.463,85.182 73.142,85.851 72.789,86.234C72.436,86.616 72.012,86.807 71.517,86.807C71.029,86.807 70.647,86.643 70.371,86.316C70.094,85.988 69.892,85.416 69.763,84.6C69.68,84.106 69.587,83.764 69.484,83.574C69.381,83.385 69.256,83.29 69.108,83.29C68.8,83.29 68.472,83.521 68.125,83.984C67.779,84.446 67.355,85.268 66.854,86.45C66.796,86.592 66.696,86.693 66.555,86.754C66.414,86.815 66.272,86.82 66.131,86.768L66.035,86.73Z" style="fill:rgb(179,179,179);fill-rule:nonzero;"/>
                    <path d="M69.646,81.384C70.198,81.442 70.644,81.696 70.989,82.139C71.293,82.53 71.539,83.178 71.665,84.103C71.675,84.173 71.685,84.24 71.694,84.304C71.776,84.119 71.86,83.909 71.924,83.698L71.924,83.697C72.03,83.349 72.239,83.096 72.542,82.929C72.844,82.763 73.162,82.723 73.494,82.811C73.498,82.812 73.503,82.813 73.507,82.814C73.521,82.818 73.535,82.822 73.549,82.827L73.586,82.839C73.921,82.934 74.177,83.132 74.354,83.435C74.544,83.76 74.581,84.098 74.472,84.447C74.139,85.546 73.748,86.305 73.342,86.745C72.836,87.292 72.226,87.56 71.517,87.56C70.781,87.56 70.212,87.295 69.795,86.801C69.458,86.401 69.178,85.717 69.02,84.718C68.985,84.515 68.953,84.344 68.919,84.207C68.856,84.272 68.793,84.348 68.728,84.435C68.404,84.867 68.016,85.638 67.549,86.739C67.413,87.067 67.182,87.303 66.853,87.445C66.527,87.586 66.2,87.595 65.874,87.476C65.866,87.473 65.859,87.47 65.851,87.467L65.764,87.432C65.429,87.307 65.188,87.08 65.043,86.75C64.9,86.427 64.889,86.1 65.009,85.769C65.011,85.764 65.013,85.758 65.015,85.753C66.018,83.181 66.912,80.918 67.697,78.963C67.697,78.961 67.698,78.96 67.699,78.958C67.829,78.64 68.051,78.403 68.37,78.251C68.684,78.1 69.006,78.075 69.334,78.172L69.432,78.199C69.442,78.202 69.452,78.205 69.462,78.208C69.816,78.32 70.067,78.544 70.22,78.874C70.37,79.198 70.381,79.526 70.255,79.858C70.253,79.863 70.251,79.867 70.25,79.872C70.067,80.324 69.866,80.828 69.646,81.384ZM73.759,84.203C73.948,84.087 74.084,83.89 74.114,83.656C74.152,83.361 74.013,83.081 73.775,82.927C73.851,82.979 73.9,83.041 73.927,83.111C74.031,83.26 74.081,83.448 74.055,83.64C74.028,83.842 73.923,84.016 73.773,84.133C73.788,84.024 73.765,83.918 73.704,83.815C73.627,83.683 73.515,83.598 73.367,83.56L73.309,83.541C73.168,83.502 73.033,83.518 72.905,83.589C72.776,83.659 72.689,83.769 72.644,83.916C72.298,85.06 71.935,85.631 71.556,85.631C71.401,85.631 71.276,85.533 71.18,85.338C71.084,85.142 70.997,84.764 70.92,84.205C70.817,83.454 70.642,82.919 70.395,82.601C70.147,82.283 69.815,82.124 69.397,82.124C69.095,82.124 68.774,82.243 68.434,82.481L68.415,82.481L68.415,82.461C68.851,81.344 69.23,80.387 69.551,79.59C69.603,79.455 69.598,79.322 69.537,79.19C69.476,79.058 69.375,78.97 69.234,78.925L69.128,78.896C68.98,78.851 68.835,78.863 68.694,78.93C68.553,78.997 68.453,79.102 68.395,79.243C67.612,81.196 66.719,83.457 65.717,86.026C65.665,86.168 65.67,86.308 65.731,86.446C65.792,86.584 65.893,86.678 66.035,86.73L66.131,86.768C66.272,86.82 66.414,86.815 66.555,86.754C66.696,86.693 66.796,86.592 66.854,86.45C67.355,85.268 67.779,84.446 68.125,83.984C68.472,83.521 68.8,83.29 69.108,83.29C69.256,83.29 69.381,83.385 69.484,83.574C69.587,83.764 69.68,84.106 69.763,84.6C69.892,85.416 70.094,85.988 70.371,86.316C70.647,86.643 71.029,86.807 71.517,86.807C72.012,86.807 72.436,86.616 72.789,86.234C73.142,85.851 73.463,85.182 73.753,84.225C73.755,84.217 73.757,84.21 73.759,84.203Z" style="fill:rgb(179,179,179);"/>
                    <path d="M79.958,79.417C80.093,79.346 80.234,79.333 80.382,79.378C80.529,79.423 80.639,79.513 80.709,79.648C80.831,79.86 80.96,80.104 81.095,80.38C81.165,80.515 81.177,80.653 81.128,80.794C81.08,80.936 80.989,81.039 80.854,81.103L80.757,81.151C80.623,81.222 80.483,81.233 80.338,81.185C80.194,81.137 80.086,81.045 80.016,80.91C79.971,80.827 79.906,80.705 79.823,80.544C79.739,80.383 79.675,80.265 79.63,80.187C79.559,80.059 79.545,79.922 79.587,79.778C79.629,79.633 79.717,79.529 79.852,79.465L79.958,79.417ZM82.396,79.262C82.575,79.596 82.71,79.85 82.8,80.024C82.871,80.159 82.882,80.297 82.834,80.438C82.786,80.579 82.694,80.682 82.559,80.746L82.434,80.814C82.299,80.878 82.159,80.886 82.015,80.838C81.87,80.79 81.763,80.698 81.692,80.563L81.287,79.812C81.217,79.683 81.204,79.548 81.249,79.407C81.294,79.266 81.384,79.16 81.519,79.089L81.644,79.031C81.779,78.961 81.92,78.948 82.068,78.993C82.216,79.038 82.325,79.128 82.396,79.262ZM78.936,86.942C77.844,86.942 77.09,86.677 76.672,86.147C76.255,85.617 76.046,84.639 76.046,83.213C76.046,82.05 76.081,80.798 76.152,79.455C76.165,79.301 76.224,79.172 76.33,79.07C76.436,78.967 76.566,78.919 76.72,78.925L76.952,78.925C77.099,78.932 77.223,78.989 77.322,79.099C77.422,79.208 77.469,79.336 77.462,79.484C77.398,80.865 77.366,82.108 77.366,83.213C77.366,83.907 77.422,84.435 77.534,84.798C77.647,85.161 77.809,85.405 78.021,85.53C78.233,85.656 78.538,85.718 78.936,85.718C80.048,85.718 80.953,84.96 81.654,83.444C81.718,83.309 81.819,83.211 81.957,83.15C82.095,83.089 82.235,83.084 82.376,83.136L82.502,83.194C82.643,83.245 82.746,83.341 82.81,83.483C82.874,83.624 82.874,83.762 82.81,83.897C81.93,85.927 80.639,86.942 78.936,86.942Z" style="fill:rgb(179,179,179);fill-rule:nonzero;"/>
                    <path d="M79.629,78.739L79.63,78.738C79.94,78.583 80.263,78.555 80.601,78.658C80.664,78.677 80.724,78.7 80.781,78.726C80.885,78.605 81.014,78.503 81.169,78.422C81.181,78.416 81.192,78.411 81.203,78.405C81.203,78.405 81.314,78.354 81.312,78.356C81.622,78.198 81.947,78.169 82.287,78.272C82.635,78.378 82.892,78.591 83.06,78.908C83.241,79.245 83.378,79.502 83.467,79.674C83.639,80.002 83.663,80.338 83.546,80.681C83.432,81.016 83.217,81.262 82.903,81.416L82.791,81.477C82.78,81.482 82.769,81.488 82.758,81.493C82.442,81.644 82.115,81.665 81.777,81.552C81.712,81.53 81.65,81.505 81.591,81.476C81.482,81.6 81.347,81.701 81.185,81.779L81.099,81.822C80.778,81.988 80.445,82.014 80.1,81.899C79.765,81.787 79.516,81.576 79.351,81.264C79.305,81.178 79.24,81.054 79.155,80.891C79.079,80.745 79.021,80.637 78.98,80.567C78.977,80.561 78.974,80.556 78.971,80.55C78.801,80.242 78.764,79.915 78.864,79.569C78.968,79.207 79.19,78.946 79.528,78.785C79.532,78.783 79.536,78.781 79.54,78.779L79.629,78.739ZM82.396,79.262C82.325,79.128 82.216,79.038 82.068,78.993C81.92,78.948 81.779,78.961 81.644,79.031L81.519,79.089C81.384,79.16 81.294,79.266 81.249,79.407C81.204,79.548 81.217,79.683 81.287,79.812L81.692,80.563C81.763,80.698 81.87,80.79 82.015,80.838C82.159,80.886 82.299,80.878 82.434,80.814L82.559,80.746C82.694,80.682 82.786,80.579 82.834,80.438C82.882,80.297 82.871,80.159 82.8,80.024C82.71,79.85 82.575,79.596 82.396,79.262ZM79.958,79.417L79.852,79.465C79.717,79.529 79.629,79.633 79.587,79.778C79.545,79.922 79.559,80.059 79.63,80.187C79.675,80.265 79.739,80.383 79.823,80.544C79.906,80.705 79.971,80.827 80.016,80.91C80.086,81.045 80.194,81.137 80.338,81.185C80.483,81.233 80.623,81.222 80.757,81.151L80.854,81.103C80.989,81.039 81.08,80.936 81.128,80.794C81.177,80.653 81.165,80.515 81.095,80.38C80.96,80.104 80.831,79.86 80.709,79.648C80.639,79.513 80.529,79.423 80.382,79.378C80.234,79.333 80.093,79.346 79.958,79.417ZM78.936,87.695C77.547,87.695 76.612,87.287 76.081,86.613C75.595,85.996 75.293,84.872 75.293,83.213C75.293,82.038 75.329,80.772 75.4,79.416C75.4,79.408 75.401,79.4 75.402,79.393C75.43,79.047 75.568,78.76 75.806,78.529C76.059,78.283 76.368,78.161 76.733,78.172L76.952,78.172C76.962,78.172 76.973,78.173 76.984,78.173C77.34,78.189 77.639,78.328 77.879,78.591C78.118,78.854 78.23,79.162 78.214,79.517L78.214,79.519C78.151,80.887 78.119,82.118 78.119,83.213C78.119,83.809 78.157,84.264 78.254,84.575C78.297,84.716 78.322,84.833 78.404,84.882C78.526,84.954 78.707,84.965 78.936,84.965C79.796,84.965 80.429,84.301 80.97,83.129C80.971,83.126 80.973,83.123 80.974,83.121C81.118,82.818 81.344,82.598 81.653,82.462C81.976,82.319 82.303,82.308 82.634,82.428C82.653,82.436 82.673,82.444 82.692,82.452C82.692,82.452 82.793,82.499 82.791,82.499C83.111,82.623 83.347,82.846 83.495,83.171C83.656,83.525 83.652,83.87 83.496,84.207C82.469,86.569 80.92,87.695 78.936,87.695ZM78.936,86.942C80.639,86.942 81.93,85.927 82.81,83.897C82.874,83.762 82.874,83.624 82.81,83.483C82.746,83.341 82.643,83.245 82.502,83.194L82.376,83.136C82.235,83.084 82.095,83.089 81.957,83.15C81.819,83.211 81.718,83.309 81.654,83.444C80.953,84.96 80.048,85.718 78.936,85.718C78.538,85.718 78.233,85.656 78.021,85.53C77.809,85.405 77.647,85.161 77.534,84.798C77.422,84.435 77.366,83.907 77.366,83.213C77.366,82.108 77.398,80.865 77.462,79.484C77.469,79.336 77.422,79.208 77.322,79.099C77.223,78.989 77.099,78.932 76.952,78.925L76.72,78.925C76.566,78.919 76.436,78.967 76.33,79.07C76.224,79.172 76.165,79.301 76.152,79.455C76.081,80.798 76.046,82.05 76.046,83.213C76.046,84.639 76.255,85.617 76.672,86.147C77.09,86.677 77.844,86.942 78.936,86.942Z" style="fill:rgb(179,179,179);"/>
                    <path d="M86.192,83.81C86.057,83.862 85.924,83.86 85.792,83.806C85.66,83.751 85.569,83.656 85.517,83.521C85.466,83.386 85.468,83.251 85.522,83.117C85.577,82.982 85.672,82.889 85.806,82.837C86.256,82.651 86.561,82.529 86.722,82.471C86.767,82.452 86.783,82.416 86.77,82.365C86.738,82.262 86.691,82.11 86.63,81.907C86.569,81.705 86.523,81.552 86.491,81.45C86.446,81.302 86.458,81.164 86.529,81.035C86.6,80.907 86.706,80.82 86.847,80.775L86.895,80.766C87.037,80.721 87.175,80.733 87.31,80.804C87.444,80.875 87.538,80.984 87.589,81.132C87.621,81.222 87.666,81.36 87.724,81.546C87.782,81.732 87.823,81.87 87.849,81.96C87.862,82.018 87.894,82.037 87.946,82.018C88.048,81.98 88.315,81.89 88.745,81.748C88.797,81.736 88.816,81.7 88.803,81.642C88.784,81.578 88.757,81.487 88.721,81.368C88.686,81.249 88.662,81.17 88.649,81.132C88.604,80.984 88.618,80.844 88.692,80.713C88.766,80.581 88.874,80.496 89.015,80.457L89.054,80.448C89.201,80.409 89.341,80.427 89.473,80.501C89.604,80.574 89.693,80.685 89.738,80.833L89.882,81.353C89.895,81.405 89.93,81.424 89.988,81.411C90.232,81.366 90.451,81.344 90.643,81.344C91.183,81.344 91.62,81.509 91.954,81.84C92.288,82.171 92.455,82.609 92.455,83.155C92.455,83.772 92.27,84.254 91.901,84.6C91.532,84.947 91.032,85.121 90.403,85.121C90.268,85.121 90.123,85.111 89.969,85.092C89.828,85.079 89.715,85.016 89.632,84.904C89.548,84.792 89.513,84.661 89.526,84.514C89.539,84.379 89.6,84.268 89.709,84.181C89.818,84.095 89.943,84.058 90.085,84.07C90.142,84.077 90.226,84.08 90.335,84.08C90.624,84.08 90.857,84.003 91.034,83.849C91.21,83.695 91.299,83.483 91.299,83.213C91.299,82.95 91.225,82.747 91.077,82.606C90.929,82.465 90.717,82.394 90.441,82.394C90.358,82.394 90.293,82.397 90.248,82.404C90.203,82.416 90.187,82.445 90.2,82.49C90.213,82.522 90.229,82.577 90.248,82.654C90.268,82.731 90.281,82.786 90.287,82.818C90.325,82.959 90.308,83.096 90.234,83.227C90.16,83.359 90.049,83.444 89.902,83.483C89.754,83.521 89.616,83.504 89.487,83.43C89.359,83.356 89.272,83.248 89.227,83.107L89.14,82.789C89.127,82.738 89.095,82.718 89.044,82.731C88.871,82.789 88.604,82.885 88.244,83.02C88.199,83.04 88.183,83.075 88.196,83.126C88.549,84.315 88.845,85.362 89.083,86.267C89.121,86.409 89.102,86.545 89.025,86.677C88.948,86.809 88.835,86.89 88.687,86.923L88.63,86.932C88.482,86.964 88.342,86.942 88.211,86.865C88.079,86.788 87.994,86.675 87.955,86.528C87.73,85.667 87.454,84.668 87.127,83.531C87.114,83.48 87.078,83.467 87.021,83.492C86.911,83.531 86.635,83.637 86.192,83.81Z" style="fill:rgb(179,179,179);fill-rule:nonzero;"/>
                    <path d="M88.782,87.669C88.447,87.741 88.129,87.69 87.83,87.514C87.519,87.332 87.318,87.067 87.227,86.718C87.052,86.048 86.846,85.294 86.608,84.456C86.563,84.474 86.516,84.492 86.466,84.511C86.464,84.512 86.462,84.513 86.46,84.514C86.137,84.637 85.819,84.631 85.504,84.501C85.173,84.364 84.943,84.128 84.814,83.789C84.693,83.471 84.696,83.153 84.824,82.834C84.96,82.499 85.195,82.268 85.526,82.138C85.652,82.086 85.767,82.039 85.871,81.997C85.829,81.86 85.797,81.752 85.772,81.674C85.772,81.672 85.771,81.671 85.77,81.669C85.662,81.313 85.7,80.982 85.87,80.673C86.036,80.369 86.285,80.164 86.619,80.058C86.265,80.17 86.046,80.524 86.103,80.891C86.14,81.129 86.287,81.327 86.487,81.436C86.488,81.441 86.489,81.445 86.491,81.45C86.523,81.552 86.569,81.705 86.63,81.907C86.691,82.11 86.738,82.262 86.77,82.365C86.783,82.416 86.767,82.452 86.722,82.471C86.561,82.529 86.256,82.651 85.806,82.837C85.672,82.889 85.577,82.982 85.522,83.117C85.468,83.251 85.466,83.386 85.517,83.521C85.569,83.656 85.66,83.751 85.792,83.806C85.924,83.86 86.057,83.862 86.192,83.81C86.635,83.637 86.911,83.531 87.021,83.492C87.078,83.467 87.114,83.48 87.127,83.531C87.454,84.668 87.73,85.667 87.955,86.528C87.959,86.543 87.964,86.558 87.969,86.572C87.897,86.703 87.864,86.855 87.881,87.013C87.922,87.395 88.245,87.685 88.63,87.685C88.681,87.685 88.732,87.68 88.782,87.669ZM86.476,81.39C86.306,81.277 86.185,81.095 86.151,80.881C86.094,80.514 86.313,80.161 86.667,80.048C86.678,80.045 86.689,80.041 86.701,80.038L86.701,80.037L86.714,80.034C87.036,79.943 87.351,79.976 87.659,80.137C87.793,80.207 87.909,80.294 88.008,80.397C88.017,80.379 88.026,80.362 88.036,80.344C88.214,80.026 88.476,79.824 88.817,79.731C88.453,79.83 88.219,80.183 88.269,80.557C88.294,80.747 88.389,80.912 88.525,81.029C88.562,81.06 88.601,81.088 88.643,81.112C88.645,81.118 88.647,81.125 88.649,81.132C88.662,81.17 88.686,81.249 88.721,81.368C88.757,81.487 88.784,81.578 88.803,81.642C88.816,81.7 88.797,81.736 88.745,81.748C88.315,81.89 88.048,81.98 87.946,82.018C87.894,82.037 87.862,82.018 87.849,81.96C87.823,81.87 87.782,81.732 87.724,81.546C87.666,81.36 87.621,81.222 87.589,81.132C87.538,80.984 87.444,80.875 87.31,80.804C87.175,80.733 87.037,80.721 86.895,80.766L86.847,80.775C86.706,80.82 86.6,80.907 86.529,81.035C86.468,81.146 86.45,81.265 86.476,81.39ZM88.634,81.072C88.609,81.056 88.585,81.038 88.563,81.018C88.426,80.9 88.331,80.734 88.307,80.543C88.26,80.178 88.484,79.834 88.833,79.728L88.833,79.727C88.833,79.727 88.868,79.718 88.87,79.718C89.212,79.63 89.536,79.673 89.841,79.844C90.141,80.013 90.346,80.262 90.452,80.596C90.518,80.593 90.582,80.591 90.643,80.591C91.404,80.591 92.013,80.839 92.484,81.305C92.955,81.772 93.208,82.384 93.208,83.155C93.208,84.01 92.928,84.668 92.416,85.149C91.918,85.617 91.252,85.874 90.403,85.874C90.242,85.874 90.07,85.863 89.887,85.84C89.838,85.835 89.789,85.828 89.742,85.818C89.765,85.905 89.788,85.99 89.81,86.074C89.901,86.413 89.859,86.741 89.674,87.057C89.485,87.38 89.209,87.579 88.847,87.658C88.835,87.661 88.822,87.663 88.81,87.665C88.801,87.667 88.792,87.668 88.782,87.669C88.782,87.669 88.782,87.669 88.782,87.669C88.764,87.672 88.746,87.673 88.728,87.674L88.63,87.685L88.629,87.673C88.27,87.645 87.978,87.366 87.939,87.003C87.925,86.873 87.945,86.746 87.993,86.632C88.039,86.729 88.112,86.807 88.211,86.865C88.342,86.942 88.482,86.964 88.63,86.932L88.687,86.923C88.835,86.89 88.948,86.809 89.025,86.677C89.102,86.545 89.121,86.409 89.083,86.267C88.845,85.362 88.549,84.315 88.196,83.126C88.183,83.075 88.199,83.04 88.244,83.02C88.604,82.885 88.871,82.789 89.044,82.731C89.095,82.718 89.127,82.738 89.14,82.789L89.227,83.107C89.272,83.248 89.359,83.356 89.487,83.43C89.616,83.504 89.754,83.521 89.902,83.483C90.049,83.444 90.16,83.359 90.234,83.227C90.308,83.096 90.325,82.959 90.287,82.818C90.281,82.786 90.268,82.731 90.248,82.654C90.229,82.577 90.213,82.522 90.2,82.49C90.187,82.445 90.203,82.416 90.248,82.404C90.293,82.397 90.358,82.394 90.441,82.394C90.717,82.394 90.929,82.465 91.077,82.606C91.225,82.747 91.299,82.95 91.299,83.213C91.299,83.483 91.21,83.695 91.034,83.849C90.857,84.003 90.624,84.08 90.335,84.08C90.226,84.08 90.142,84.077 90.085,84.07C89.943,84.058 89.818,84.095 89.709,84.181C89.6,84.268 89.539,84.379 89.526,84.514C89.513,84.661 89.548,84.792 89.632,84.904C89.715,85.016 89.828,85.079 89.969,85.092C90.123,85.111 90.268,85.121 90.403,85.121C91.032,85.121 91.532,84.947 91.901,84.6C92.27,84.254 92.455,83.772 92.455,83.155C92.455,82.609 92.288,82.171 91.954,81.84C91.62,81.509 91.183,81.344 90.643,81.344C90.451,81.344 90.232,81.366 89.988,81.411C89.93,81.424 89.895,81.405 89.882,81.353L89.738,80.833C89.693,80.685 89.604,80.574 89.473,80.501C89.341,80.427 89.201,80.409 89.054,80.448L89.015,80.457C88.874,80.496 88.766,80.581 88.692,80.713C88.628,80.827 88.609,80.947 88.634,81.072Z" style="fill:rgb(179,179,179);"/>
                    <path d="M95.124,83.569C94.976,83.569 94.849,83.515 94.743,83.406C94.637,83.296 94.584,83.168 94.584,83.02L94.584,82.828C94.584,82.68 94.637,82.551 94.743,82.442C94.849,82.333 94.976,82.278 95.124,82.278L102.004,82.278C102.151,82.278 102.278,82.333 102.384,82.442C102.49,82.551 102.543,82.68 102.543,82.828L102.543,83.02C102.543,83.168 102.49,83.296 102.384,83.406C102.278,83.515 102.151,83.569 102.004,83.569L95.124,83.569Z" style="fill:rgb(179,179,179);fill-rule:nonzero;"/>
                    <path d="M95.124,84.322C94.767,84.322 94.459,84.194 94.203,83.93C93.953,83.673 93.832,83.368 93.832,83.02L93.832,82.828C93.832,82.479 93.953,82.175 94.203,81.918C94.459,81.654 94.767,81.526 95.124,81.526L102.004,81.526C102.36,81.526 102.668,81.654 102.924,81.918C103.174,82.175 103.296,82.479 103.296,82.828L103.296,83.02C103.296,83.368 103.174,83.673 102.924,83.93C102.668,84.194 102.36,84.322 102.004,84.322L95.124,84.322ZM95.124,83.569L102.004,83.569C102.151,83.569 102.278,83.515 102.384,83.406C102.49,83.296 102.543,83.168 102.543,83.02L102.543,82.828C102.543,82.68 102.49,82.551 102.384,82.442C102.278,82.333 102.151,82.278 102.004,82.278L95.124,82.278C94.976,82.278 94.849,82.333 94.743,82.442C94.637,82.551 94.584,82.68 94.584,82.828L94.584,83.02C94.584,83.168 94.637,83.296 94.743,83.406C94.849,83.515 94.976,83.569 95.124,83.569Z" style="fill:rgb(179,179,179);"/>
                </g>
                <g transform="matrix(6.64216,0,0,6.64216,-252.926,-348.294)">
                    <path d="M47.91,79.234L52.863,79.234C53.011,79.234 53.138,79.287 53.244,79.392C53.35,79.498 53.403,79.625 53.403,79.773L53.403,79.841C53.403,79.988 53.35,80.117 53.244,80.226C53.138,80.335 53.011,80.39 52.863,80.39L47.91,80.39C47.763,80.39 47.636,80.335 47.53,80.226C47.424,80.117 47.371,79.988 47.371,79.841L47.371,79.773C47.371,79.625 47.424,79.498 47.53,79.392C47.636,79.287 47.763,79.234 47.91,79.234ZM46.793,82.991C46.645,82.991 46.516,82.937 46.407,82.828C46.298,82.718 46.243,82.59 46.243,82.442L46.243,82.375C46.243,82.227 46.298,82.1 46.407,81.994C46.516,81.888 46.645,81.835 46.793,81.835L53.981,81.835C54.128,81.835 54.257,81.888 54.366,81.994C54.475,82.1 54.53,82.227 54.53,82.375L54.53,82.442C54.53,82.59 54.475,82.718 54.366,82.828C54.257,82.937 54.128,82.991 53.981,82.991L51.466,82.991C51.408,82.991 51.379,83.017 51.379,83.068C51.366,84.064 51.125,84.865 50.656,85.472C50.188,86.079 49.465,86.524 48.488,86.807C48.341,86.852 48.199,86.836 48.064,86.759C47.93,86.682 47.836,86.569 47.785,86.422L47.747,86.306C47.702,86.165 47.716,86.03 47.79,85.901C47.864,85.773 47.971,85.683 48.113,85.631C48.794,85.413 49.28,85.105 49.572,84.706C49.865,84.308 50.017,83.762 50.03,83.068C50.03,83.017 50.004,82.991 49.953,82.991L46.793,82.991Z" style="fill:rgb(255,0,0);fill-rule:nonzero;"/>
                    <path d="M57.42,86.778C57.273,86.784 57.144,86.731 57.035,86.619C56.926,86.507 56.871,86.377 56.871,86.229L56.871,79.648C56.871,79.5 56.926,79.372 57.035,79.262C57.144,79.153 57.273,79.099 57.42,79.099L57.71,79.099C57.857,79.099 57.986,79.153 58.095,79.262C58.204,79.372 58.259,79.5 58.259,79.648L58.259,85.419C58.259,85.471 58.284,85.497 58.336,85.497C59.447,85.374 60.348,85.057 61.039,84.543C61.729,84.029 62.29,83.261 62.72,82.24C62.778,82.098 62.874,81.997 63.009,81.936C63.144,81.875 63.282,81.874 63.423,81.931L63.587,81.999C63.728,82.057 63.83,82.155 63.891,82.293C63.952,82.431 63.953,82.571 63.896,82.712C63.311,84.099 62.502,85.114 61.467,85.757C60.433,86.399 59.084,86.74 57.42,86.778Z" style="fill:rgb(0,0,255);fill-rule:nonzero;"/>
                    <path d="M66.035,86.73C65.893,86.678 65.792,86.584 65.731,86.446C65.67,86.308 65.665,86.168 65.717,86.026C66.719,83.457 67.612,81.196 68.395,79.243C68.453,79.102 68.553,78.997 68.694,78.93C68.835,78.863 68.98,78.851 69.128,78.896L69.234,78.925C69.375,78.97 69.476,79.058 69.537,79.19C69.598,79.322 69.603,79.455 69.551,79.59C69.23,80.387 68.851,81.344 68.415,82.461L68.415,82.481L68.434,82.481C68.774,82.243 69.095,82.124 69.397,82.124C69.815,82.124 70.147,82.283 70.395,82.601C70.642,82.919 70.817,83.454 70.92,84.205C70.997,84.764 71.084,85.142 71.18,85.338C71.276,85.533 71.401,85.631 71.556,85.631C71.935,85.631 72.298,85.06 72.644,83.916C72.689,83.769 72.776,83.659 72.905,83.589C73.033,83.518 73.168,83.502 73.309,83.541L73.367,83.56C73.515,83.598 73.627,83.683 73.704,83.815C73.781,83.947 73.798,84.083 73.753,84.225C73.463,85.182 73.142,85.851 72.789,86.234C72.436,86.616 72.012,86.807 71.517,86.807C71.029,86.807 70.647,86.643 70.371,86.316C70.094,85.988 69.892,85.416 69.763,84.6C69.68,84.106 69.587,83.764 69.484,83.574C69.381,83.385 69.256,83.29 69.108,83.29C68.8,83.29 68.472,83.521 68.125,83.984C67.779,84.446 67.355,85.268 66.854,86.45C66.796,86.592 66.696,86.693 66.555,86.754C66.414,86.815 66.272,86.82 66.131,86.768L66.035,86.73Z" style="fill-rule:nonzero;"/>
                    <path d="M79.958,79.417C80.093,79.346 80.234,79.333 80.382,79.378C80.529,79.423 80.639,79.513 80.709,79.648C80.831,79.86 80.96,80.104 81.095,80.38C81.165,80.515 81.177,80.653 81.128,80.794C81.08,80.936 80.989,81.039 80.854,81.103L80.757,81.151C80.623,81.222 80.483,81.233 80.338,81.185C80.194,81.137 80.086,81.045 80.016,80.91C79.971,80.827 79.906,80.705 79.823,80.544C79.739,80.383 79.675,80.265 79.63,80.187C79.559,80.059 79.545,79.922 79.587,79.778C79.629,79.633 79.717,79.529 79.852,79.465L79.958,79.417ZM82.396,79.262C82.575,79.596 82.71,79.85 82.8,80.024C82.871,80.159 82.882,80.297 82.834,80.438C82.786,80.579 82.694,80.682 82.559,80.746L82.434,80.814C82.299,80.878 82.159,80.886 82.015,80.838C81.87,80.79 81.763,80.698 81.692,80.563L81.287,79.812C81.217,79.683 81.204,79.548 81.249,79.407C81.294,79.266 81.384,79.16 81.519,79.089L81.644,79.031C81.779,78.961 81.92,78.948 82.068,78.993C82.216,79.038 82.325,79.128 82.396,79.262ZM78.936,86.942C77.844,86.942 77.09,86.677 76.672,86.147C76.255,85.617 76.046,84.639 76.046,83.213C76.046,82.05 76.081,80.798 76.152,79.455C76.165,79.301 76.224,79.172 76.33,79.07C76.436,78.967 76.566,78.919 76.72,78.925L76.952,78.925C77.099,78.932 77.223,78.989 77.322,79.099C77.422,79.208 77.469,79.336 77.462,79.484C77.398,80.865 77.366,82.108 77.366,83.213C77.366,83.907 77.422,84.435 77.534,84.798C77.647,85.161 77.809,85.405 78.021,85.53C78.233,85.656 78.538,85.718 78.936,85.718C80.048,85.718 80.953,84.96 81.654,83.444C81.718,83.309 81.819,83.211 81.957,83.15C82.095,83.089 82.235,83.084 82.376,83.136L82.502,83.194C82.643,83.245 82.746,83.341 82.81,83.483C82.874,83.624 82.874,83.762 82.81,83.897C81.93,85.927 80.639,86.942 78.936,86.942Z" style="fill:rgb(255,255,0);fill-rule:nonzero;"/>
                    <path d="M86.192,83.81C86.057,83.862 85.924,83.86 85.792,83.806C85.66,83.751 85.569,83.656 85.517,83.521C85.466,83.386 85.468,83.251 85.522,83.117C85.577,82.982 85.672,82.889 85.806,82.837C86.256,82.651 86.561,82.529 86.722,82.471C86.767,82.452 86.783,82.416 86.77,82.365C86.738,82.262 86.691,82.11 86.63,81.907C86.569,81.705 86.523,81.552 86.491,81.45C86.446,81.302 86.458,81.164 86.529,81.035C86.6,80.907 86.706,80.82 86.847,80.775L86.895,80.766C87.037,80.721 87.175,80.733 87.31,80.804C87.444,80.875 87.538,80.984 87.589,81.132C87.621,81.222 87.666,81.36 87.724,81.546C87.782,81.732 87.823,81.87 87.849,81.96C87.862,82.018 87.894,82.037 87.946,82.018C88.048,81.98 88.315,81.89 88.745,81.748C88.797,81.736 88.816,81.7 88.803,81.642C88.784,81.578 88.757,81.487 88.721,81.368C88.686,81.249 88.662,81.17 88.649,81.132C88.604,80.984 88.618,80.844 88.692,80.713C88.766,80.581 88.874,80.496 89.015,80.457L89.054,80.448C89.201,80.409 89.341,80.427 89.473,80.501C89.604,80.574 89.693,80.685 89.738,80.833L89.882,81.353C89.895,81.405 89.93,81.424 89.988,81.411C90.232,81.366 90.451,81.344 90.643,81.344C91.183,81.344 91.62,81.509 91.954,81.84C92.288,82.171 92.455,82.609 92.455,83.155C92.455,83.772 92.27,84.254 91.901,84.6C91.532,84.947 91.032,85.121 90.403,85.121C90.268,85.121 90.123,85.111 89.969,85.092C89.828,85.079 89.715,85.016 89.632,84.904C89.548,84.792 89.513,84.661 89.526,84.514C89.539,84.379 89.6,84.268 89.709,84.181C89.818,84.095 89.943,84.058 90.085,84.07C90.142,84.077 90.226,84.08 90.335,84.08C90.624,84.08 90.857,84.003 91.034,83.849C91.21,83.695 91.299,83.483 91.299,83.213C91.299,82.95 91.225,82.747 91.077,82.606C90.929,82.465 90.717,82.394 90.441,82.394C90.358,82.394 90.293,82.397 90.248,82.404C90.203,82.416 90.187,82.445 90.2,82.49C90.213,82.522 90.229,82.577 90.248,82.654C90.268,82.731 90.281,82.786 90.287,82.818C90.325,82.959 90.308,83.096 90.234,83.227C90.16,83.359 90.049,83.444 89.902,83.483C89.754,83.521 89.616,83.504 89.487,83.43C89.359,83.356 89.272,83.248 89.227,83.107L89.14,82.789C89.127,82.738 89.095,82.718 89.044,82.731C88.871,82.789 88.604,82.885 88.244,83.02C88.199,83.04 88.183,83.075 88.196,83.126C88.549,84.315 88.845,85.362 89.083,86.267C89.121,86.409 89.102,86.545 89.025,86.677C88.948,86.809 88.835,86.89 88.687,86.923L88.63,86.932C88.482,86.964 88.342,86.942 88.211,86.865C88.079,86.788 87.994,86.675 87.955,86.528C87.73,85.667 87.454,84.668 87.127,83.531C87.114,83.48 87.078,83.467 87.021,83.492C86.911,83.531 86.635,83.637 86.192,83.81Z" style="fill:rgb(255,0,255);fill-rule:nonzero;"/>
                    <path d="M95.124,83.569C94.976,83.569 94.849,83.515 94.743,83.406C94.637,83.296 94.584,83.168 94.584,83.02L94.584,82.828C94.584,82.68 94.637,82.551 94.743,82.442C94.849,82.333 94.976,82.278 95.124,82.278L102.004,82.278C102.151,82.278 102.278,82.333 102.384,82.442C102.49,82.551 102.543,82.68 102.543,82.828L102.543,83.02C102.543,83.168 102.49,83.296 102.384,83.406C102.278,83.515 102.151,83.569 102.004,83.569L95.124,83.569Z" style="fill:rgb(255,0,255);fill-rule:nonzero;"/>
                </g>
            </g>
        </g>
    </g>
</svg>
