<?xml version="1.0" encoding="UTF-8" standalone="no"?>
<!DOCTYPE svg PUBLIC "-//W3C//DTD SVG 1.1//EN" "http://www.w3.org/Graphics/SVG/1.1/DTD/svg11.dtd">
<svg viewBox="0 0 85 129" version="1.1" xmlns="http://www.w3.org/2000/svg" xmlns:xlink="http://www.w3.org/1999/xlink" xml:space="preserve" xmlns:serif="http://www.serif.com/" style="fill-rule:evenodd;clip-rule:evenodd;stroke-linecap:round;stroke-linejoin:round;stroke-miterlimit:1.5;">
    <g transform="matrix(1,0,0,1,-323,-129)">
        <g transform="matrix(1.40086,0,0,1.19185,-684.551,-1.27292)">
            <g id="body-left" transform="matrix(-0.510769,0,0,0.600338,854.849,-56.152)">
                <g transform="matrix(1.20924,0.0271473,-0.0238238,1.0612,-70.8333,-50.2134)">
                    <path d="M228.136,301.938C223.204,303.061 203.18,309.639 196.719,329.258C195.004,334.467 193.888,352.938 193.485,360.988C192.891,372.844 192.949,381.858 193.034,394.009C193.096,402.78 193.246,410.366 193.265,420.366C193.277,426.183 193.284,447.031 198.236,455.858C200.842,460.502 209.152,465.664 213.19,466.771C228.998,471.103 247.512,470.488 262.967,464.934C267.77,463.207 275.474,458.88 278.85,453.948C285.082,444.845 281.657,429.303 281.059,420.192C279.807,401.098 280.54,379.927 279.128,360.537C278.078,346.121 281.308,326.975 270.028,315.69C260.392,306.05 247.784,303.46 240.795,301.938C236.198,300.937 232.269,300.996 228.136,301.938Z" style="fill:white;"/>
                </g>
                <g transform="matrix(-1,0,0,1,414.627,0)">
                    <g transform="matrix(1.15666,4.7055e-17,-4.91476e-17,1.10741,-69.4921,-62.6894)">
                        <rect x="267.129" y="370.695" width="5.012" height="31.131" style="fill:rgb(168,168,168);"/>
                    </g>
                    <g transform="matrix(1.15666,0,0,1.10741,-78.4093,-56.7524)">
                        <rect x="267.129" y="370.695" width="5.012" height="31.131" style="fill:rgb(168,168,168);"/>
                    </g>
                    <g transform="matrix(1.15666,0,0,1.10741,-87.3265,-48.3824)">
                        <rect x="267.129" y="370.695" width="5.012" height="31.131" style="fill:rgb(168,168,168);"/>
                    </g>
                </g>
                <g id="belt" transform="matrix(1,0,0,1,0,7.10836)">
                    <g transform="matrix(1.21684,0,0,1,-55.8603,0)">
                        <g transform="matrix(1.06147,0,0,1.06147,-38.2501,-43.425)">
                            <path d="M195.282,391.786C202.632,393.384 230.412,394.523 249.925,393.558C258.046,393.157 265.02,392.227 272.944,390.829C275.696,390.343 277.919,389.752 280.521,388.83C282.343,388.185 281.621,395.005 281.599,398.459C281.562,403.962 281.84,406.34 282.212,411.759C282.409,414.63 282.213,417.437 279.739,419.357C274.859,423.146 263.784,424.811 259.573,425.227C245.027,426.664 231.43,427.344 216.711,426.842C211.965,426.681 207.331,426.492 202.683,425.555C201.556,425.328 198.962,424.759 198.031,424.262C195.674,423.003 195.086,420.265 195.17,418.069C195.549,408.188 195.619,398.071 195.282,391.786Z" style="fill:rgb(246,62,63);stroke:black;stroke-width:4.73px;"/>
                        </g>
                        <g transform="matrix(1.04656,-0.0109386,0.00777699,0.744074,-38.3907,88.8609)">
                            <path d="M195.173,392.12C202.524,393.718 230.368,396.362 249.881,395.397C258.002,394.996 264.236,392.982 272.161,391.584C274.913,391.098 280.176,389.468 283.133,387.559C284.904,386.416 282.493,396.778 282.321,397.844C281.455,403.199 281.84,406.34 282.212,411.759C282.409,414.63 285.238,414.042 282.765,415.962C277.884,419.751 264.285,425.016 258.46,425.674C243.867,427.323 231.43,427.344 216.711,426.842C211.965,426.681 207.331,426.492 202.683,425.555C201.556,425.328 196.601,422.781 196.012,421.61C194.56,418.723 195.215,412.778 195.421,410.593C196.164,402.721 195.186,398.916 195.173,392.12Z" style="fill:rgb(132,45,45);"/>
                        </g>
                        <g transform="matrix(1.06147,0,0,1.06147,-38.2501,-43.425)">
                            <path d="M195.282,391.786C202.632,393.384 230.412,394.523 249.925,393.558C258.046,393.157 265.02,392.227 272.944,390.829C275.696,390.343 277.919,389.752 280.521,388.83C282.343,388.185 281.621,395.005 281.599,398.459C281.562,403.962 281.84,406.34 282.212,411.759C282.409,414.63 282.213,417.437 279.739,419.357C274.859,423.146 263.784,424.811 259.573,425.227C245.027,426.664 231.43,427.344 216.711,426.842C211.965,426.681 207.331,426.492 202.683,425.555C201.556,425.328 198.962,424.759 198.031,424.262C195.674,423.003 195.086,420.265 195.17,418.069C195.549,408.188 195.619,398.071 195.282,391.786Z" style="fill:none;stroke:black;stroke-width:4.73px;"/>
                        </g>
                    </g>
                    <g transform="matrix(-1.06147,0,0,1.06147,462.951,-43.425)">
                        <g transform="matrix(1,0,0,1,-3.30967,1.24113)">
                            <path d="M221.961,393.064C222.051,393.466 222.537,395.702 222.846,398.069C223.123,400.192 223.348,401.892 223.753,403.994C224.866,409.76 225.134,413.097 225.974,418.909C226.322,421.315 226.224,424.625 226.99,427.032C227.417,428.371 231.943,427.585 232.035,427.571C237.131,426.828 240.983,426.606 246.036,423.295C248.011,422.001 249.081,420.157 250.18,418.08C250.984,416.563 251.622,414.053 251.719,412.407C252.176,404.576 251.292,395.019 243.444,390.837C238.73,388.325 234.614,389.025 226.7,389.689C223.575,389.951 221.338,390.25 221.961,393.064Z" style="fill:rgb(0,93,255);stroke:black;stroke-width:5.27px;"/>
                        </g>
                        <g transform="matrix(0.609539,-0.0250686,0.0298845,0.726637,77.4243,118.405)">
                            <path d="M221.961,393.064C222.051,393.466 222.537,395.702 222.846,398.069C223.123,400.192 223.348,401.892 223.753,403.994C224.866,409.76 225.134,413.097 225.974,418.909C226.322,421.315 226.224,424.625 226.99,427.032C227.417,428.371 231.943,427.585 232.035,427.571C237.131,426.828 240.983,426.606 246.036,423.295C248.011,422.001 249.081,420.157 250.18,418.08C250.984,416.563 251.622,414.053 251.719,412.407C252.176,404.576 251.292,395.019 243.444,390.837C238.73,388.325 234.614,389.025 226.7,389.689C223.575,389.951 221.338,390.25 221.961,393.064Z" style="fill:rgb(246,62,63);"/>
                        </g>
                    </g>
                </g>
                <g id="Mark" transform="matrix(1,0,0,0.887169,6.22962,40.4804)">
                    <g transform="matrix(1.0178,0,0,1.10184,-22.2098,-62.0947)">
                        <rect x="200" y="334" width="48.619" height="48.704" style="fill:rgb(0,93,255);"/>
                    </g>
                    <g transform="matrix(1.04317e-16,1.25377,-1.37457,6.19427e-17,680.321,68.7501)">
                        <path d="M203.5,345L214,363L193,363L203.5,345Z" style="fill:rgb(0,205,255);"/>
                    </g>
                    <g transform="matrix(-1.04317e-16,1.25377,1.37457,6.19427e-17,-268.134,68.7501)">
                        <path d="M203.5,345L214,363L193,363L203.5,345Z" style="fill:rgb(0,205,255);"/>
                    </g>
                    <g transform="matrix(0.823381,0,0,1.06147,19.7762,-46.6462)">
                        <g transform="matrix(1.40986,0,0,1.66767,-94.266,-250.309)">
                            <path d="M227.363,359.37L243.205,379.58L211.52,379.58L227.363,359.37Z" style="fill:rgb(0,205,255);"/>
                        </g>
                        <g transform="matrix(0.704928,0,0,-0.833834,66.0085,648.655)">
                            <path d="M227.363,359.37L243.205,379.58L211.52,379.58L227.363,359.37Z" style="fill:rgb(0,205,255);"/>
                        </g>
                    </g>
                </g>
            </g>
        </g>
    </g>
</svg>
