<?xml version="1.0" encoding="UTF-8" standalone="no"?>
<!DOCTYPE svg PUBLIC "-//W3C//DTD SVG 1.1//EN" "http://www.w3.org/Graphics/SVG/1.1/DTD/svg11.dtd">
<svg viewBox="0 0 86 137" version="1.1" xmlns="http://www.w3.org/2000/svg" xmlns:xlink="http://www.w3.org/1999/xlink" xml:space="preserve" xmlns:serif="http://www.serif.com/" style="fill-rule:evenodd;clip-rule:evenodd;stroke-linejoin:round;stroke-miterlimit:2;">
    <g transform="matrix(1,0,0,1,-184,-125)">
        <g transform="matrix(1.40086,0,0,1.19185,-684.551,-1.27292)">
            <g transform="matrix(-0.617644,0.0162976,0.0121685,0.63708,792.198,-86.297)">
                <g id="body-back">
                    <g id="body-back1" serif:id="body-back">
                        <path d="M228.136,301.938C223.204,303.061 203.18,309.639 196.719,329.258C195.004,334.467 193.888,352.938 193.485,360.988C192.891,372.844 192.949,381.858 193.034,394.009C193.096,402.78 193.246,410.366 193.265,420.366C193.277,426.183 193.284,447.031 198.236,455.858C200.842,460.502 209.152,465.664 213.19,466.771C228.998,471.103 247.512,470.488 262.967,464.934C267.77,463.207 275.474,458.88 278.85,453.948C285.082,444.845 281.657,429.303 281.059,420.192C279.807,401.098 280.54,379.927 279.128,360.537C278.078,346.121 281.308,326.975 270.028,315.69C260.392,306.05 247.784,303.46 240.795,301.938C236.198,300.937 232.269,300.996 228.136,301.938Z" style="fill:white;"/>
                        <path d="M227.229,296.773C231.942,295.699 236.421,295.623 241.662,296.765C249.187,298.403 262.703,301.353 273.078,311.732C279.646,318.303 282.157,327.076 283.011,336.392C283.749,344.429 283.207,352.859 283.734,360.101C285.147,379.506 284.415,400.691 285.668,419.799C286.038,425.435 287.42,433.462 287.109,441.005C286.861,447.007 285.562,452.707 282.495,457.187C278.62,462.847 269.869,467.975 264.357,469.956C248.135,475.786 228.702,476.438 212.11,471.892C207.286,470.57 197.454,464.241 194.342,458.695C192.074,454.651 190.595,448.445 189.776,441.979C188.665,433.209 188.651,423.992 188.644,420.377C188.624,410.389 188.474,402.812 188.412,394.051C188.326,381.774 188.27,372.667 188.871,360.687C189.294,352.24 190.592,332.874 192.392,327.408C199.585,305.563 221.738,298.025 227.229,296.773ZM228.136,301.938C223.204,303.061 203.18,309.639 196.719,329.258C195.004,334.467 193.888,352.938 193.485,360.988C192.891,372.844 192.949,381.858 193.034,394.009C193.096,402.78 193.246,410.366 193.265,420.366C193.277,426.183 193.284,447.031 198.236,455.858C200.842,460.502 209.152,465.664 213.19,466.771C228.998,471.103 247.512,470.488 262.967,464.934C267.77,463.207 275.474,458.88 278.85,453.948C285.082,444.845 281.657,429.303 281.059,420.192C279.807,401.098 280.54,379.927 279.128,360.537C278.078,346.121 281.308,326.975 270.028,315.69C260.392,306.05 247.784,303.46 240.795,301.938C236.198,300.937 232.269,300.996 228.136,301.938Z"/>
                    </g>
                </g>
            </g>
        </g>
    </g>
</svg>
