<?xml version="1.0" encoding="UTF-8" standalone="no"?>
<!DOCTYPE svg PUBLIC "-//W3C//DTD SVG 1.1//EN" "http://www.w3.org/Graphics/SVG/1.1/DTD/svg11.dtd">
<svg viewBox="0 0 119 136" version="1.1" xmlns="http://www.w3.org/2000/svg" xmlns:xlink="http://www.w3.org/1999/xlink" xml:space="preserve" xmlns:serif="http://www.serif.com/" style="fill-rule:evenodd;clip-rule:evenodd;stroke-linejoin:round;stroke-miterlimit:2;">
    <g transform="matrix(1,0,0,1,-165,-5)">
        <g transform="matrix(1.40086,0,0,1.19185,-684.551,-1.27292)">
            <g id="head-right" transform="matrix(-0.360718,0,0,0.44639,730.873,-28.9099)">
                <g transform="matrix(1.06147,0,0,0.971555,-14.2536,12.1001)">
                    <path d="M168.933,83.048C159.429,87.761 147.175,96.024 136.912,110.411C129.727,120.483 126.485,127.624 123.846,139.352C121.326,150.556 119.292,164.967 121.063,174.353C124.686,193.55 126.509,205.375 129.111,220.742C130.992,231.844 131.357,242.141 130.111,251.794C128.596,263.539 126.894,268.095 128.398,280.188C129.933,292.531 133.752,297.099 137.211,301.901C145.984,314.077 172.542,322.271 185.503,323.176C226.946,326.073 243.262,325.046 271.372,313.915C278.784,310.98 295.486,298.922 300.446,293.518C308.188,285.084 316.333,274.417 323.137,256.728C332.748,231.743 333.569,205.235 332.41,180.443C331.579,162.684 325.167,142.545 316.926,126.601C307.365,108.103 296.62,98.487 292.7,94.904C282.68,85.743 276.445,81.682 263.772,77.703C229.613,66.977 188.471,73.358 168.933,83.048Z" style="fill:rgb(246,62,63);"/>
                    <path d="M167.325,79.557C187.418,69.592 229.724,62.969 264.852,74C278.128,78.168 284.669,82.405 295.165,92.001C299.218,95.706 310.327,105.647 320.212,124.773C328.702,141.199 335.278,161.958 336.134,180.256C337.319,205.577 336.416,232.644 326.6,258.162C319.567,276.445 311.148,287.47 303.146,296.187C297.954,301.844 280.461,314.457 272.701,317.53C244.072,328.867 227.461,329.987 185.253,327.037C177.156,326.471 163.958,323.198 152.727,317.913C144.897,314.228 138.045,309.52 134.225,304.217C130.477,299.016 126.363,294.056 124.7,280.683C123.142,268.163 124.846,263.441 126.416,251.28C127.614,241.995 127.248,232.091 125.439,221.412C122.841,206.069 121.021,194.263 117.404,175.096C115.551,165.277 117.579,150.193 120.215,138.472C122.983,126.169 126.377,118.675 133.915,108.109C144.623,93.097 157.409,84.475 167.325,79.557ZM170.541,86.539C161.45,91.048 149.726,98.95 139.909,112.713C133.076,122.291 129.986,129.079 127.478,140.232C125.074,150.918 123.033,164.656 124.722,173.609C128.351,192.837 130.177,204.681 132.784,220.072C134.736,231.598 135.1,242.287 133.807,252.307C132.345,263.637 130.645,268.028 132.096,279.693C133.503,291.006 137.026,295.183 140.197,299.584C143.395,304.022 149.253,307.781 155.807,310.865C166.152,315.733 178.296,318.795 185.754,319.316C226.43,322.159 242.452,321.225 270.043,310.3C277.107,307.503 293.019,296 297.747,290.85C305.228,282.699 313.098,272.389 319.674,255.293C329.079,230.843 329.82,204.893 328.685,180.631C327.88,163.41 321.631,143.89 313.64,128.43C304.403,110.559 294.022,101.269 290.236,97.807C280.692,89.082 274.763,85.197 262.692,81.406C229.503,70.985 189.525,77.124 170.541,86.539Z"/>
                </g>
                <g id="goggles" transform="matrix(1.26819,0.0347841,-0.049765,1.63899,-32.6037,-109.417)">
                    <g transform="matrix(0.836466,-0.0128181,0.0135801,0.462093,19.6006,105.527)">
                        <path d="M141.64,163.138C138.675,165.051 135.553,168.855 138.891,175.696C149.478,197.391 147.468,234.69 144.635,245.724C143.18,251.39 142.363,257.132 146.179,262.38C155.731,275.518 159.734,272.554 178.455,273.114C194.621,273.597 213.258,272.954 222.577,273.178C231.553,273.394 247.291,272.392 256.542,271.243C275.729,268.859 288.513,258.74 295.625,239.682C303.1,219.648 299.87,205.957 298.568,201.089C295.877,191.024 291.136,179.24 282.173,171.992C274.135,165.493 263.137,160.892 256.772,160.394C230.144,158.309 210.997,160.149 186.388,159.562C167.952,159.123 162.47,159.473 150.481,160.698C147.693,160.983 144.673,161.182 141.64,163.138Z" style="fill:rgb(77,124,254);"/>
                        <path d="M140.015,158.675C143.514,156.418 146.981,156.081 150.198,155.753C162.305,154.515 167.841,154.159 186.458,154.603C211.12,155.19 230.309,153.353 256.994,155.442C263.785,155.974 275.536,160.818 284.112,167.753C293.892,175.662 299.145,188.441 302.082,199.424C303.513,204.778 307.186,219.851 298.964,241.885C291.288,262.455 277.596,273.608 256.886,276.181C247.522,277.345 231.592,278.356 222.507,278.138C213.184,277.913 194.54,278.556 178.369,278.073C158.075,277.466 153.853,280.072 143.498,265.83C138.509,258.97 139.205,251.531 141.107,244.124C143.766,233.769 145.698,198.759 135.763,178.399C133.702,174.175 133.447,170.631 133.923,167.794C134.639,163.533 137.265,160.449 140.015,158.675ZM143.264,167.601C142.451,168.126 141.413,168.687 141.202,169.949C141.06,170.791 141.407,171.738 142.019,172.993C153.258,196.023 151.171,235.611 148.164,247.324C147.154,251.255 146.213,255.289 148.86,258.93C154.612,266.841 158.032,267.944 165.087,268.072C168.61,268.136 172.912,267.987 178.542,268.155C194.701,268.638 213.332,267.995 222.648,268.219C231.514,268.432 247.06,267.439 256.198,266.304C273.863,264.109 285.738,255.025 292.285,237.479C299.015,219.445 296.227,207.137 295.055,202.755C292.61,193.607 288.38,182.818 280.235,176.232C272.735,170.167 262.489,165.81 256.55,165.346C229.98,163.265 210.874,165.107 186.319,164.522C168.064,164.087 162.635,164.43 150.764,165.644C148.404,165.885 145.831,165.945 143.264,167.601Z"/>
                    </g>
                    <g id="glasses" transform="matrix(-1.55916,0.0330898,0.0449639,1.14584,558.932,95.8706)">
                        <path d="M185.449,87.902C185.86,87.298 186.371,86.668 186.992,86.008C187.651,85.307 188.767,84.553 189.999,83.894C191.816,82.923 193.88,82.146 194.924,81.947C198.036,81.355 202.022,80.839 206.073,80.578C210.022,80.325 214.033,80.315 217.366,80.704C218.48,80.834 219.597,81.054 220.697,81.377C221.778,81.693 222.843,82.109 223.875,82.635C224.511,82.959 225.703,84.187 226.482,85.805C226.801,86.469 227.053,87.192 227.185,87.928L227.195,87.943C228.18,88.034 230.18,87.465 230.565,87.46L233.801,87.619C234.262,86.663 234.903,85.849 235.633,85.168C237.186,83.72 239.153,82.896 240.578,82.593C241.284,82.443 242.994,82.069 245.114,81.726C246.531,81.496 248.13,81.281 249.738,81.155C254.586,80.776 257.654,80.506 260.899,80.949C263.002,81.236 265.179,81.818 267.944,82.871C267.857,83.772 267.797,84.668 267.761,85.549C267.64,85.417 267.489,85.309 267.299,85.236C263.872,83.917 261.429,83.354 258.852,83.205C256.332,83.06 253.689,83.299 249.929,83.593L241.086,84.985C239.995,85.217 238.49,85.849 237.3,86.957C236.371,87.823 235.635,88.992 235.503,90.514C235.44,91.24 235.819,91.872 236.296,92.434C237.383,93.716 239.049,94.635 239.705,95.101C240.246,95.482 240.377,96.231 239.996,96.773C239.614,97.314 238.865,97.444 238.324,97.063C237.572,96.539 235.686,95.472 234.439,94.016C233.527,92.95 232.951,91.687 233.07,90.303C233.079,90.2 233.09,90.098 233.103,89.998L230.594,89.905C230.153,89.909 228.383,90.018 227.199,90.014C227.016,91.09 226.622,92.143 225.988,93.056C225.324,94.012 224.401,94.818 223.176,95.339C222.566,95.599 221.86,95.315 221.6,94.705C221.34,94.096 221.623,93.389 222.233,93.129C223.006,92.798 223.59,92.289 224.008,91.684C224.473,91.011 224.737,90.222 224.845,89.427C224.962,88.56 224.681,87.65 224.298,86.859C223.81,85.852 223.17,85.006 222.773,84.805C221.876,84.35 220.95,83.992 220.012,83.718C219.045,83.435 218.063,83.243 217.084,83.129C213.88,82.756 210.025,82.774 206.23,83.019C202.288,83.272 198.409,83.772 195.381,84.349C194.614,84.495 193.213,85.025 191.847,85.695C190.621,86.296 189.414,87.002 188.773,87.683C187.374,89.17 186.619,90.388 186.524,91.534C186.417,92.821 187.215,93.907 188.528,95.104C189.183,95.703 189.788,96.03 190.5,96.212C191.237,96.401 192.071,96.457 193.121,96.512C193.783,96.544 194.294,97.107 194.262,97.768C194.23,98.43 193.667,98.941 193.005,98.909C191.443,98.84 190.282,98.734 189.238,98.361C189.197,98.346 189.156,98.331 189.115,98.315C188.721,97.688 188.35,97.033 188.004,96.349C186.362,93.101 185.659,90.262 185.449,87.902ZM267.934,92.319C268.043,93.479 268.187,94.542 268.354,95.472C267.77,95.931 267.104,96.314 266.376,96.646C265.773,96.922 265.06,96.657 264.784,96.054C264.508,95.451 264.773,94.738 265.376,94.462C266.397,93.993 267.278,93.421 267.82,92.522C267.86,92.456 267.898,92.388 267.934,92.319Z" style="fill:rgb(87,87,87);stroke:rgb(87,87,87);stroke-width:2px;"/>
                    </g>
                    <g transform="matrix(-1.55916,0.0330898,0.0449639,1.14584,558.932,95.8706)">
                        <path d="M224.808,63.672L205.279,108.414C199.882,107.447 195.584,105.43 192.314,102.272L208.934,64.192C214.724,63.813 219.859,63.698 224.808,63.672Z" style="fill:white;fill-opacity:0.44;"/>
                    </g>
                    <g transform="matrix(-1.55916,0.0330898,0.0449639,1.14584,558.932,95.8706)">
                        <path d="M230.316,63.669C232.276,63.675 234.234,63.684 236.22,63.685L216.289,109.351C214.236,109.26 212.243,109.146 210.522,109.021L230.316,63.669Z" style="fill:white;fill-opacity:0.44;"/>
                    </g>
                    <g transform="matrix(0.836466,-0.0128181,0.0135801,0.462093,19.6006,105.527)">
                        <path d="M140.015,158.675C143.514,156.418 146.981,156.081 150.198,155.753C162.305,154.515 167.841,154.159 186.458,154.603C211.12,155.19 230.309,153.353 256.994,155.442C263.785,155.974 275.536,160.818 284.112,167.753C293.892,175.662 299.145,188.441 302.082,199.424C303.513,204.778 307.186,219.851 298.964,241.885C291.288,262.455 277.596,273.608 256.886,276.181C247.522,277.345 231.592,278.356 222.507,278.138C213.184,277.913 194.54,278.556 178.369,278.073C158.075,277.466 153.853,280.072 143.498,265.83C138.509,258.97 139.205,251.531 141.107,244.124C143.766,233.769 145.698,198.759 135.763,178.399C133.702,174.175 133.447,170.631 133.923,167.794C134.639,163.533 137.265,160.449 140.015,158.675ZM143.264,167.601C142.451,168.126 141.413,168.687 141.202,169.949C141.06,170.791 141.407,171.738 142.019,172.993C153.258,196.023 151.171,235.611 148.164,247.324C147.154,251.255 146.213,255.289 148.86,258.93C154.612,266.841 158.032,267.944 165.087,268.072C168.61,268.136 172.912,267.987 178.542,268.155C194.701,268.638 213.332,267.995 222.648,268.219C231.514,268.432 247.06,267.439 256.198,266.304C273.863,264.109 285.738,255.025 292.285,237.479C299.015,219.445 296.227,207.137 295.055,202.755C292.61,193.607 288.38,182.818 280.235,176.232C272.735,170.167 262.489,165.81 256.55,165.346C229.98,163.265 210.874,165.107 186.319,164.522C168.064,164.087 162.635,164.43 150.764,165.644C148.404,165.885 145.831,165.945 143.264,167.601Z"/>
                    </g>
                </g>
            </g>
        </g>
    </g>
</svg>
