<?xml version="1.0" encoding="UTF-8" standalone="no"?>
<!DOCTYPE svg PUBLIC "-//W3C//DTD SVG 1.1//EN" "http://www.w3.org/Graphics/SVG/1.1/DTD/svg11.dtd">
<svg viewBox="0 0 119 136" version="1.1" xmlns="http://www.w3.org/2000/svg" xmlns:xlink="http://www.w3.org/1999/xlink" xml:space="preserve" xmlns:serif="http://www.serif.com/" style="fill-rule:evenodd;clip-rule:evenodd;stroke-linejoin:round;stroke-miterlimit:2;">
    <g transform="matrix(1,0,0,1,-308,-5)">
        <g transform="matrix(1.40086,0,0,1.19185,-684.551,-1.27292)">
            <g id="head-left" transform="matrix(-0.360718,0,0,0.44639,832.831,-28.9099)">
                <g transform="matrix(-1.06147,0,0,0.971555,466.815,12.1001)">
                    <path d="M168.933,83.048C159.429,87.761 147.175,96.024 136.912,110.411C129.727,120.483 126.485,127.624 123.846,139.352C121.326,150.556 119.292,164.967 121.063,174.353C124.686,193.55 126.509,205.375 129.111,220.742C130.992,231.844 131.357,242.141 130.111,251.794C128.596,263.539 126.894,268.095 128.398,280.188C129.933,292.531 133.752,297.099 137.211,301.901C145.984,314.077 172.542,322.271 185.503,323.176C226.946,326.073 243.262,325.046 271.372,313.915C278.784,310.98 295.486,298.922 300.446,293.518C308.188,285.084 316.333,274.417 323.137,256.728C332.748,231.743 333.569,205.235 332.41,180.443C331.579,162.684 325.167,142.545 316.926,126.601C307.365,108.103 296.62,98.487 292.7,94.904C282.68,85.743 276.445,81.682 263.772,77.703C229.613,66.977 188.471,73.358 168.933,83.048Z" style="fill:rgb(246,62,63);"/>
                    <path d="M167.325,79.557C157.409,84.475 144.623,93.097 133.915,108.109C126.377,118.675 122.983,126.169 120.215,138.472C117.579,150.193 115.551,165.277 117.404,175.096C121.021,194.263 122.841,206.069 125.439,221.412C127.248,232.091 127.614,241.995 126.416,251.28C124.846,263.441 123.142,268.163 124.7,280.683C126.363,294.056 130.477,299.016 134.225,304.217C138.045,309.52 144.897,314.228 152.727,317.913C163.958,323.198 177.156,326.471 185.253,327.037C227.461,329.987 244.072,328.867 272.701,317.53C280.461,314.457 297.954,301.844 303.146,296.187C311.148,287.47 319.567,276.445 326.6,258.162C336.416,232.644 337.319,205.577 336.134,180.256C335.278,161.958 328.702,141.199 320.212,124.773C310.327,105.647 299.218,95.706 295.165,92.001C284.669,82.405 278.128,78.168 264.852,74C229.724,62.969 187.418,69.592 167.325,79.557ZM170.541,86.539C189.525,77.124 229.503,70.985 262.692,81.406C274.763,85.197 280.692,89.082 290.236,97.807C294.022,101.269 304.403,110.559 313.64,128.43C321.631,143.89 327.88,163.41 328.685,180.631C329.82,204.893 329.079,230.843 319.674,255.293C313.098,272.389 305.228,282.699 297.747,290.85C293.019,296 277.107,307.503 270.043,310.3C242.452,321.225 226.43,322.159 185.754,319.316C178.296,318.795 166.152,315.733 155.807,310.865C149.253,307.781 143.395,304.022 140.197,299.584C137.026,295.183 133.503,291.006 132.096,279.693C130.645,268.028 132.345,263.637 133.807,252.307C135.1,242.287 134.736,231.598 132.784,220.072C130.177,204.681 128.351,192.837 124.722,173.609C123.033,164.656 125.074,150.918 127.478,140.232C129.986,129.079 133.076,122.291 139.909,112.713C149.726,98.95 161.45,91.048 170.541,86.539Z"/>
                </g>
                <g id="goggles" transform="matrix(1.19755,0.009124,-0.009124,1.19755,-5.72523,-16.6588)">
                    <g transform="matrix(-0.886235,0.013505,0.00964219,0.632748,393.699,64.5389)">
                        <path d="M141.64,163.138C138.675,165.051 135.553,168.855 138.891,175.696C149.478,197.391 147.468,234.69 144.635,245.724C143.18,251.39 142.363,257.132 146.179,262.38C155.731,275.518 159.734,272.554 178.455,273.114C194.621,273.597 213.258,272.954 222.577,273.178C231.553,273.394 247.291,272.392 256.542,271.243C275.729,268.859 288.513,258.74 295.625,239.682C303.1,219.648 299.87,205.957 298.568,201.089C295.877,191.024 291.136,179.24 282.173,171.992C274.135,165.493 263.137,160.892 256.772,160.394C230.144,158.309 210.997,160.149 186.388,159.562C167.952,159.123 162.47,159.473 150.481,160.698C147.693,160.983 144.673,161.182 141.64,163.138Z" style="fill:rgb(77,124,254);"/>
                        <path d="M140.015,158.675C137.265,160.449 134.639,163.533 133.923,167.794C133.447,170.631 133.702,174.175 135.763,178.399C145.698,198.759 143.766,233.769 141.107,244.124C139.205,251.531 138.509,258.97 143.498,265.83C153.853,280.072 158.075,277.466 178.369,278.073C194.54,278.556 213.184,277.913 222.507,278.138C231.592,278.356 247.522,277.345 256.886,276.181C277.596,273.608 291.288,262.455 298.964,241.885C307.186,219.851 303.513,204.778 302.082,199.424C299.145,188.441 293.892,175.662 284.112,167.753C275.536,160.818 263.785,155.974 256.994,155.442C230.309,153.353 211.12,155.19 186.458,154.603C167.841,154.159 162.305,154.515 150.198,155.753C146.981,156.081 143.514,156.418 140.015,158.675ZM143.264,167.601C145.831,165.945 148.404,165.885 150.764,165.644C162.635,164.43 168.064,164.087 186.319,164.522C210.874,165.107 229.98,163.265 256.55,165.346C262.489,165.81 272.735,170.167 280.235,176.232C288.38,182.818 292.61,193.607 295.055,202.755C296.227,207.137 299.015,219.445 292.285,237.479C285.738,255.025 273.863,264.109 256.198,266.304C247.06,267.439 231.514,268.432 222.648,268.219C213.332,267.995 194.701,268.638 178.542,268.155C172.912,267.987 168.61,268.136 165.087,268.072C158.032,267.944 154.612,266.841 148.86,258.93C146.213,255.289 147.154,251.255 148.164,247.324C151.171,235.611 153.258,196.023 142.019,172.993C141.407,171.738 141.06,170.791 141.202,169.949C141.413,168.687 142.451,168.126 143.264,167.601Z"/>
                    </g>
                    <g transform="matrix(-1.65241,0.0125894,0.0119573,1.56943,801.983,63.8784)">
                        <path d="M405.69,94.738C405.567,94.859 405.437,94.981 405.302,95.104C404.648,95.703 404.043,96.03 403.331,96.212C402.593,96.401 401.76,96.457 400.71,96.512C400.048,96.544 399.537,97.107 399.569,97.768C399.601,98.43 400.164,98.941 400.826,98.909C401.924,98.86 402.824,98.794 403.624,98.629C404.095,97.907 404.532,97.148 404.936,96.349C405.213,95.8 405.464,95.263 405.69,94.738ZM325.033,83.268C325.413,87.582 325.176,91.749 324.705,94.767C325.442,95.555 326.382,96.157 327.455,96.646C328.057,96.922 328.771,96.657 329.047,96.054C329.323,95.451 329.058,94.738 328.455,94.462C327.434,93.993 326.552,93.421 326.01,92.522C325.552,91.762 325.354,90.779 325.451,89.48C325.492,88.929 325.37,87.748 325.596,86.649C325.716,86.064 325.921,85.471 326.532,85.236C329.959,83.917 332.402,83.354 334.979,83.205C337.499,83.06 340.142,83.299 343.902,83.593L352.745,84.985C353.836,85.217 355.341,85.849 356.53,86.957C357.46,87.823 358.195,88.992 358.327,90.514C358.391,91.24 358.011,91.872 357.535,92.434C356.448,93.716 354.781,94.635 354.126,95.101C353.584,95.482 353.454,96.231 353.835,96.773C354.216,97.314 354.965,97.444 355.507,97.063C356.259,96.539 358.145,95.472 359.392,94.016C360.304,92.95 360.879,91.687 360.76,90.303C360.751,90.2 360.741,90.098 360.728,89.998L363.237,89.905C363.677,89.909 365.448,90.019 366.632,90.014C366.815,91.091 367.209,92.143 367.842,93.056C368.507,94.012 369.43,94.818 370.655,95.339C371.264,95.599 371.971,95.315 372.231,94.705C372.491,94.096 372.207,93.389 371.597,93.129C370.825,92.798 370.241,92.289 369.823,91.684C369.358,91.011 369.094,90.222 368.986,89.427C368.868,88.56 369.15,87.65 369.532,86.859C370.02,85.852 370.661,85.006 371.058,84.805C371.955,84.35 372.88,83.992 373.818,83.718C374.786,83.435 375.768,83.243 376.747,83.129C379.95,82.756 383.805,82.774 387.601,83.019C391.543,83.272 395.421,83.772 398.45,84.349C399.217,84.495 400.618,85.025 401.984,85.695C403.21,86.296 404.417,87.002 405.057,87.683C406.064,88.754 406.738,89.684 407.072,90.549C407.381,89.184 407.523,87.936 407.556,86.815C407.335,86.551 407.097,86.282 406.839,86.008C406.18,85.307 405.064,84.553 403.831,83.894C402.014,82.923 399.951,82.146 398.907,81.947C395.795,81.355 391.809,80.839 387.758,80.578C383.809,80.325 379.798,80.315 376.465,80.704C375.35,80.834 374.234,81.054 373.133,81.377C372.053,81.693 370.988,82.109 369.956,82.635C369.32,82.959 368.127,84.187 367.349,85.805C367.03,86.469 366.778,87.192 366.646,87.928L366.636,87.943C365.65,88.034 363.651,87.465 363.265,87.46L360.03,87.619C359.568,86.663 358.928,85.849 358.197,85.168C356.644,83.72 354.678,82.896 353.252,82.593C352.547,82.443 350.837,82.069 348.716,81.726C347.299,81.496 345.7,81.281 344.093,81.155C339.245,80.776 336.176,80.506 332.932,80.949C330.771,81.244 328.531,81.851 325.655,82.96C325.43,83.047 325.223,83.15 325.033,83.268Z" style="fill:rgb(87,87,87);stroke:rgb(87,87,87);stroke-width:2px;"/>
                    </g>
                    <g transform="matrix(-1.65241,0.0125894,0.0119573,1.56943,801.983,63.8784)">
                        <path d="M344.153,63.517L325.684,105.831C329.754,109.702 332.194,109.169 339.827,109.277L359.729,63.679C355.506,63.692 351.224,63.696 346.58,63.575C345.72,63.553 344.914,63.534 344.153,63.517Z" style="fill:white;fill-opacity:0.44;"/>
                    </g>
                    <g transform="matrix(-1.65241,0.0125894,0.0119573,1.56943,801.983,63.8784)">
                        <path d="M365.242,63.665L345.278,109.404C347.235,109.44 349.218,109.46 351.16,109.471L371.138,63.7C369.138,63.672 367.182,63.664 365.242,63.665Z" style="fill:white;fill-opacity:0.44;"/>
                    </g>
                    <g transform="matrix(-0.886235,0.013505,0.00964219,0.632748,393.699,64.5389)">
                        <path d="M140.015,158.675C137.265,160.449 134.639,163.533 133.923,167.794C133.447,170.631 133.702,174.175 135.763,178.399C145.698,198.759 143.766,233.769 141.107,244.124C139.205,251.531 138.509,258.97 143.498,265.83C153.853,280.072 158.075,277.466 178.369,278.073C194.54,278.556 213.184,277.913 222.507,278.138C231.592,278.356 247.522,277.345 256.886,276.181C277.596,273.608 291.288,262.455 298.964,241.885C307.186,219.851 303.513,204.778 302.082,199.424C299.145,188.441 293.892,175.662 284.112,167.753C275.536,160.818 263.785,155.974 256.994,155.442C230.309,153.353 211.12,155.19 186.458,154.603C167.841,154.159 162.305,154.515 150.198,155.753C146.981,156.081 143.514,156.418 140.015,158.675ZM143.264,167.601C145.831,165.945 148.404,165.885 150.764,165.644C162.635,164.43 168.064,164.087 186.319,164.522C210.874,165.107 229.98,163.265 256.55,165.346C262.489,165.81 272.735,170.167 280.235,176.232C288.38,182.818 292.61,193.607 295.055,202.755C296.227,207.137 299.015,219.445 292.285,237.479C285.738,255.025 273.863,264.109 256.198,266.304C247.06,267.439 231.514,268.432 222.648,268.219C213.332,267.995 194.701,268.638 178.542,268.155C172.912,267.987 168.61,268.136 165.087,268.072C158.032,267.944 154.612,266.841 148.86,258.93C146.213,255.289 147.154,251.255 148.164,247.324C151.171,235.611 153.258,196.023 142.019,172.993C141.407,171.738 141.06,170.791 141.202,169.949C141.413,168.687 142.451,168.126 143.264,167.601Z"/>
                    </g>
                </g>
            </g>
        </g>
    </g>
</svg>
