<?xml version="1.0" encoding="UTF-8" standalone="no"?>
<!DOCTYPE svg PUBLIC "-//W3C//DTD SVG 1.1//EN" "http://www.w3.org/Graphics/SVG/1.1/DTD/svg11.dtd">
<svg viewBox="0 0 73 46" version="1.1" xmlns="http://www.w3.org/2000/svg" xmlns:xlink="http://www.w3.org/1999/xlink" xml:space="preserve" xmlns:serif="http://www.serif.com/" style="fill-rule:evenodd;clip-rule:evenodd;stroke-linejoin:round;stroke-miterlimit:2;">
    <g transform="matrix(1,0,0,1,-136,-293)">
        <g transform="matrix(1.40086,0,0,1.19185,-684.551,-1.27292)">
            <g id="lower-leg2" transform="matrix(-0.0358101,-0.570429,-0.501715,0.0400342,876.045,395.028)">
                <g id="lower-leg" transform="matrix(0.904015,-5.55112e-17,0,0.921844,5.29356,26.5059)">
                    <path d="M252.202,496.782C254.631,502.489 255.962,504.729 258.514,509.137C261.924,515.027 266.328,520.087 269.23,526.327C271.03,530.198 273.35,534.219 273.269,538.619C273.09,548.4 265.092,553.019 260.363,560.656C258.385,563.851 256.504,566.205 257.36,569.111C258.172,571.87 262.348,572.992 263.285,573.095C267.717,573.582 272.518,572.945 276.602,571.361C282.747,568.979 286.723,567.479 292.677,564.666C297.722,562.283 302.698,558.765 306.952,555.027C309.902,552.436 312.113,548.976 313.72,545.412C314.838,542.931 313.766,538.257 312.797,535.812C311.186,531.754 309.606,529.974 307.581,526.114C305.633,522.4 303.659,518.841 301.821,515.073C299.302,509.907 300.481,512.579 298.185,507.29C297.113,504.822 296.129,503.034 295.308,500.897L252.202,496.782Z" style="fill:rgb(246,62,63);"/>
                    <path d="M246.182,499.119C245.33,497.118 245.649,494.833 247.022,493.099C248.396,491.365 250.622,490.437 252.889,490.654L295.995,494.768C298.461,495.003 300.562,496.552 301.409,498.758C302.199,500.818 303.156,502.537 304.188,504.915C306.414,510.042 305.273,507.451 307.715,512.459C309.526,516.174 311.474,519.681 313.395,523.343C315.535,527.423 317.17,529.322 318.873,533.612C320.303,537.216 321.334,544.149 319.685,547.806C317.719,552.168 314.956,556.365 311.347,559.536C306.641,563.67 301.122,567.542 295.542,570.177C289.424,573.067 285.34,574.614 279.027,577.061C273.959,579.026 268,579.819 262.501,579.214C261.518,579.106 258.469,578.43 255.904,576.806C253.661,575.387 251.853,573.331 251.108,570.801C249.794,566.341 251.735,562.462 254.772,557.559C256.833,554.23 259.434,551.406 261.862,548.559C264.312,545.686 266.701,542.85 266.779,538.548C266.843,535.043 264.723,531.925 263.289,528.841C260.464,522.767 256.14,517.862 252.821,512.127C250.135,507.487 248.739,505.126 246.182,499.119ZM252.202,496.782C254.631,502.489 255.962,504.729 258.514,509.137C261.924,515.027 266.328,520.087 269.23,526.327C271.03,530.198 273.35,534.219 273.269,538.619C273.09,548.4 265.092,553.019 260.363,560.656C258.385,563.851 256.504,566.205 257.36,569.111C258.172,571.87 262.348,572.992 263.285,573.095C267.717,573.582 272.518,572.945 276.602,571.361C282.747,568.979 286.723,567.479 292.677,564.666C297.722,562.283 302.698,558.765 306.952,555.027C309.902,552.436 312.113,548.976 313.72,545.412C314.838,542.931 313.766,538.257 312.797,535.812C311.186,531.754 309.606,529.974 307.581,526.114C305.633,522.4 303.659,518.841 301.821,515.073C299.302,509.907 300.481,512.579 298.185,507.29C297.113,504.822 296.129,503.034 295.308,500.897L252.202,496.782Z"/>
                </g>
                <g transform="matrix(-1.39213,0.123498,0.123498,1.39213,439.841,60.9963)">
                    <circle cx="162.166" cy="283.669" r="12.884" style="fill:rgb(246,62,63);"/>
                </g>
                <g transform="matrix(-0.946543,0.0339743,-0.030093,-0.932509,522.546,931.901)">
                    <path d="M280.405,471.248C266.82,472.649 260.878,475.959 247.696,481.192C248.178,482.961 249.682,486.915 250.285,488.931C252.393,495.979 254.355,508.091 260.396,512.786C267.052,517.959 284.166,512.596 290.251,503.372C295.612,495.246 280.405,471.248 280.405,471.248Z" style="fill:rgb(246,62,63);"/>
                </g>
            </g>
        </g>
    </g>
</svg>
