<?xml version="1.0" encoding="UTF-8" standalone="no"?>
<!DOCTYPE svg PUBLIC "-//W3C//DTD SVG 1.1//EN" "http://www.w3.org/Graphics/SVG/1.1/DTD/svg11.dtd">
<svg viewBox="0 0 48 74" version="1.1" xmlns="http://www.w3.org/2000/svg" xmlns:xlink="http://www.w3.org/1999/xlink" xml:space="preserve" xmlns:serif="http://www.serif.com/" style="fill-rule:evenodd;clip-rule:evenodd;stroke-linejoin:round;stroke-miterlimit:2;">
    <g transform="matrix(1,0,0,1,-10,-270)">
        <g transform="matrix(1.40086,0,0,1.19185,-684.551,-1.27292)">
            <g id="lower-leg1" transform="matrix(-0.486408,-0.017715,-0.0185233,0.590652,649.674,-37.6492)">
                <g id="lower-leg" transform="matrix(0.904015,8.45988e-17,-4.16334e-17,0.921844,5.29356,26.5059)">
                    <path d="M252.467,497.116C254.875,502.74 255.962,504.729 258.514,509.137C261.924,515.027 266.328,520.087 269.23,526.327C271.03,530.198 273.35,534.219 273.269,538.619C273.09,548.4 265.092,553.019 260.363,560.656C258.385,563.851 256.504,566.205 257.36,569.111C258.172,571.87 262.348,572.992 263.285,573.095C267.717,573.582 272.518,572.945 276.602,571.361C282.747,568.979 286.723,567.479 292.677,564.666C297.722,562.283 302.698,558.765 306.952,555.027C309.902,552.436 312.113,548.976 313.72,545.412C314.838,542.931 313.766,538.257 312.797,535.812C311.186,531.754 309.606,529.974 307.581,526.114C305.633,522.4 303.659,518.841 301.821,515.073C300.8,512.979 299.818,510.858 298.871,508.718C297.481,505.578 296.166,502.398 294.914,499.21C292.759,493.726 292.53,492.521 290.816,487.699L252.467,497.116Z" style="fill:rgb(246,62,63);"/>
                    <path d="M246.452,499.463C245.747,497.817 245.829,495.957 246.678,494.364C247.526,492.771 249.057,491.6 250.876,491.153L289.225,481.736C292.512,480.929 295.886,482.655 296.967,485.699C298.655,490.445 298.877,491.631 300.997,497.029C302.219,500.139 303.501,503.241 304.858,506.304C305.775,508.377 306.726,510.431 307.715,512.459C309.526,516.174 311.474,519.681 313.395,523.343C315.535,527.423 317.17,529.322 318.873,533.612C320.303,537.216 321.334,544.149 319.685,547.806C317.719,552.168 314.956,556.365 311.347,559.536C306.641,563.67 301.122,567.542 295.542,570.177C289.424,573.067 285.34,574.614 279.027,577.061C273.959,579.026 268,579.819 262.501,579.214C261.518,579.106 258.469,578.43 255.904,576.806C253.661,575.387 251.853,573.331 251.108,570.801C249.794,566.341 251.735,562.462 254.772,557.559C256.833,554.23 259.434,551.406 261.862,548.559C264.312,545.686 266.701,542.85 266.779,538.548C266.843,535.043 264.723,531.925 263.289,528.841C260.464,522.767 256.14,517.862 252.821,512.127C250.133,507.483 248.988,505.388 246.452,499.463ZM252.467,497.116C254.875,502.74 255.962,504.729 258.514,509.137C261.924,515.027 266.328,520.087 269.23,526.327C271.03,530.198 273.35,534.219 273.269,538.619C273.09,548.4 265.092,553.019 260.363,560.656C258.385,563.851 256.504,566.205 257.36,569.111C258.172,571.87 262.348,572.992 263.285,573.095C267.717,573.582 272.518,572.945 276.602,571.361C282.747,568.979 286.723,567.479 292.677,564.666C297.722,562.283 302.698,558.765 306.952,555.027C309.902,552.436 312.113,548.976 313.72,545.412C314.838,542.931 313.766,538.257 312.797,535.812C311.186,531.754 309.606,529.974 307.581,526.114C305.633,522.4 303.659,518.841 301.821,515.073C300.8,512.979 299.818,510.858 298.871,508.718C297.481,505.578 296.166,502.398 294.914,499.21C292.759,493.726 292.53,492.521 290.816,487.699L252.467,497.116Z"/>
                </g>
                <g transform="matrix(-1.39213,0.123498,0.123498,1.39213,439.841,60.9963)">
                    <circle cx="162.166" cy="283.669" r="12.884" style="fill:rgb(246,62,63);"/>
                </g>
                <g transform="matrix(-0.94522,0.0615873,-0.0591553,-0.931041,536.317,923.46)">
                    <path d="M280.405,471.248C266.82,472.649 262.12,478.377 248.938,483.61C249.42,485.379 249.682,486.915 250.285,488.931C252.393,495.979 254.355,508.091 260.396,512.786C267.052,517.959 284.166,512.596 290.251,503.372C295.612,495.246 280.405,471.248 280.405,471.248Z" style="fill:rgb(246,62,63);"/>
                </g>
            </g>
        </g>
    </g>
</svg>
