<?xml version="1.0" encoding="UTF-8" standalone="no"?>
<!DOCTYPE svg PUBLIC "-//W3C//DTD SVG 1.1//EN" "http://www.w3.org/Graphics/SVG/1.1/DTD/svg11.dtd">
<svg viewBox="0 0 59 70" version="1.1" xmlns="http://www.w3.org/2000/svg" xmlns:xlink="http://www.w3.org/1999/xlink" xml:space="preserve" xmlns:serif="http://www.serif.com/" style="fill-rule:evenodd;clip-rule:evenodd;stroke-linecap:round;stroke-linejoin:round;stroke-miterlimit:1.5;">
    <g transform="matrix(1,0,0,1,-21,-23)">
        <g transform="matrix(1.40086,0,0,1.19185,-684.551,-1.27292)">
            <g id="lower-arm1" transform="matrix(-0.354968,-0.48167,-0.409806,0.417216,784.187,11.3675)">
                <g transform="matrix(0.874894,0,0,0.874894,39.8919,47.9225)">
                    <path d="M296.986,379.606C289.744,384.051 286.013,386.537 280.065,388.015C276.808,388.824 273.976,389.622 270.753,390.559C268.114,391.327 263.264,393.079 261.126,395.564C258.27,398.884 256.636,404.049 258.8,411.119C260.364,416.229 263.994,421.501 277.676,420.354C285.074,419.734 293.322,418.573 300.43,415.697C305.796,413.526 316.479,409.737 323.398,402.427" style="fill:rgb(246,62,63);"/>
                    <path d="M298.561,382.172C290.966,386.832 287.028,389.387 280.791,390.936C277.574,391.735 274.777,392.524 271.594,393.45C269.369,394.097 265.21,395.432 263.408,397.527C261.078,400.235 259.913,404.471 261.678,410.238C262.27,412.173 263.194,414.18 265.325,415.553C267.754,417.119 271.517,417.85 277.424,417.355C284.535,416.759 292.469,415.671 299.301,412.907C304.409,410.841 314.626,407.317 321.212,400.358C322.354,399.152 324.261,399.099 325.467,400.241C326.674,401.383 326.726,403.29 325.584,404.496C318.332,412.158 307.183,416.212 301.559,418.487C294.175,421.475 285.612,422.709 277.927,423.354C270.152,424.006 265.26,422.674 262.063,420.613C258.567,418.359 256.894,415.175 255.922,412C253.358,403.626 255.461,397.534 258.844,393.601C261.319,390.725 266.858,388.558 269.912,387.669C273.175,386.72 276.042,385.913 279.34,385.094C284.998,383.688 288.522,381.27 295.412,377.041C296.828,376.172 298.683,376.616 299.552,378.032C300.421,379.448 299.976,381.303 298.561,382.172Z"/>
                </g>
                <g transform="matrix(0.874894,0,0,0.874894,39.8919,47.9225)">
                    <path d="M267.862,390.475C262.151,390.854 256.045,393.95 251.691,390.237C245.101,384.617 239.195,380.659 224.549,384.72C211.06,388.461 206.535,402.494 210.58,416.047C213.052,424.332 220.597,432.974 229.482,435.017C233.056,435.839 241.327,434.989 246.261,431.968C250.699,429.25 252.161,424.932 257.781,423.292C263.799,421.536 270.268,424.408 274.654,419.868C277.36,417.068 278.791,413.911 278.425,405.965C278.15,399.995 273.006,390.133 267.862,390.475Z" style="fill:white;stroke:black;stroke-width:6.02px;"/>
                </g>
            </g>
        </g>
    </g>
</svg>
