<?xml version="1.0" encoding="UTF-8" standalone="no"?>
<!DOCTYPE svg PUBLIC "-//W3C//DTD SVG 1.1//EN" "http://www.w3.org/Graphics/SVG/1.1/DTD/svg11.dtd">
<svg viewBox="0 0 48 65" version="1.1" xmlns="http://www.w3.org/2000/svg" xmlns:xlink="http://www.w3.org/1999/xlink" xml:space="preserve" xmlns:serif="http://www.serif.com/" style="fill-rule:evenodd;clip-rule:evenodd;stroke-linecap:round;stroke-miterlimit:2;">
    <g transform="matrix(1,0,0,1,-105,-204)">
        <g transform="matrix(1.40086,0,0,1.19185,-684.551,-1.27292)">
            <g id="upper-leg" transform="matrix(-0.542165,0,0,0.637241,725.351,-106.59)">
                <g transform="matrix(0.966683,0,0,0.966683,27.7341,32.5337)">
                    <circle cx="242.826" cy="438.029" r="18.029" style="fill:white;"/>
                </g>
                <g transform="matrix(-1.24843,-0.119459,-0.123507,1.29073,511.387,153.997)">
                    <circle cx="162.166" cy="283.669" r="12.884" style="fill:rgb(246,62,63);"/>
                    <path d="M162.166,266.724C152.777,266.724 145.083,274.28 145.083,283.669C145.083,293.059 152.777,300.615 162.166,300.615C171.555,300.615 179.249,293.059 179.249,283.669C179.249,274.28 171.555,266.724 162.166,266.724ZM162.166,270.785C169.277,270.785 175.05,276.559 175.05,283.669C175.05,290.78 169.277,296.553 162.166,296.553C155.055,296.553 149.282,290.78 149.282,283.669C149.282,276.559 155.055,270.785 162.166,270.785Z"/>
                </g>
                <g transform="matrix(0.850005,0,0,0.865501,41.4275,69.2752)">
                    <path d="M287.887,472.533C274.303,473.934 262.12,478.377 248.938,483.61C249.42,485.379 249.682,486.915 250.285,488.931C252.393,495.979 253.305,504 259.346,508.696C266.001,513.869 284.166,512.596 290.251,503.372C295.612,495.246 287.887,472.533 287.887,472.533Z" style="fill:rgb(246,62,63);"/>
                </g>
                <path d="M242.023,458.936C246.367,473.461 247.072,477.386 249.974,486.786C250.289,487.808 253.956,484.666 260.952,482.291C270.75,478.966 270.227,479.182 275.231,478.13C283.263,476.441 287.917,477.073 287.714,475.849C286.097,466.111 284.806,460.95 281.279,447.785" style="fill:white;stroke:black;stroke-width:5.27px;"/>
                <g transform="matrix(-1.31666,0,0,1.31666,1209.17,118.613)">
                    <path d="M701.082,264.784C700.29,268.296 696.885,284.185 696.294,287.513" style="fill:none;stroke:black;stroke-width:4px;"/>
                </g>
                <g transform="matrix(-1.31666,0,0,1.31666,1171.4,130.106)">
                    <path d="M700.621,268.253C698.933,274.231 696.249,282.934 695.271,286.094" style="fill:none;stroke:black;stroke-width:4px;"/>
                </g>
            </g>
        </g>
    </g>
</svg>
