<?xml version="1.0" encoding="UTF-8" standalone="no"?>
<!DOCTYPE svg PUBLIC "-//W3C//DTD SVG 1.1//EN" "http://www.w3.org/Graphics/SVG/1.1/DTD/svg11.dtd">
<svg viewBox="0 0 38 60" version="1.1" xmlns="http://www.w3.org/2000/svg" xmlns:xlink="http://www.w3.org/1999/xlink" xml:space="preserve" xmlns:serif="http://www.serif.com/" style="fill-rule:evenodd;clip-rule:evenodd;stroke-linejoin:round;stroke-miterlimit:2;">
    <g transform="matrix(1,0,0,1,-106,-60)">
        <g transform="matrix(1.40086,0,0,1.19185,-684.551,-1.27292)">
            <g id="upper-arm" transform="matrix(-0.510769,0,0,0.600338,719.195,-132.987)">
                <g id="upper-arm1" serif:id="upper-arm" transform="matrix(0.833198,0.0037002,-0.00395544,0.890672,33.1145,22.8255)">
                    <path d="M285.777,391.722C284.946,389.013 283.375,383.49 282.421,380.822C275.441,361.298 268.929,350.689 269.087,339.667C269.114,337.813 270.791,332.309 274.086,328.928C278.717,324.174 287.895,323.465 293.191,327.428C296.71,330.061 302.192,337.754 303.732,341.348C306.563,347.955 307.55,350.497 309.75,357.34C311.944,364.162 316.368,380.37 317.857,387.38C318.988,392.709 286.043,392.59 285.777,391.722Z" style="fill:rgb(246,62,63);"/>
                    <path d="M279.327,393.452C278.517,390.808 276.989,385.417 276.058,382.813C268.74,362.344 262.212,351.138 262.378,339.583C262.415,337.024 264.58,329.367 269.127,324.699C275.976,317.671 289.55,316.666 297.382,322.527C301.56,325.653 308.131,334.746 309.959,339.013C312.884,345.838 313.903,348.463 316.175,355.532C318.411,362.487 322.92,379.011 324.438,386.157C325.056,389.068 324.146,391.935 320.822,394.169C318.556,395.691 313.676,397.052 307.924,397.693C298.727,398.718 287.158,398.47 284.808,398.017C280.642,397.213 279.608,394.368 279.327,393.452ZM285.777,391.722C284.946,389.013 283.375,383.49 282.421,380.822C275.441,361.298 268.929,350.689 269.087,339.667C269.114,337.813 270.791,332.309 274.086,328.928C278.717,324.174 287.895,323.465 293.191,327.428C296.71,330.061 302.192,337.754 303.732,341.348C306.563,347.955 307.55,350.497 309.75,357.34C311.944,364.162 316.368,380.37 317.857,387.38C318.988,392.709 286.043,392.59 285.777,391.722Z"/>
                </g>
                <g transform="matrix(0.748327,0,0,0.748327,101.36,43.3483)">
                    <circle cx="242.826" cy="438.029" r="18.029" style="fill:rgb(246,62,63);"/>
                    <path d="M242.826,412.53C256.899,412.53 268.326,423.956 268.326,438.029C268.326,452.103 256.899,463.529 242.826,463.529C228.752,463.529 217.326,452.103 217.326,438.029C217.326,423.956 228.752,412.53 242.826,412.53ZM242.826,420C252.776,420 260.855,428.079 260.855,438.029C260.855,447.98 252.776,456.059 242.826,456.059C232.875,456.059 224.796,447.98 224.796,438.029C224.796,428.079 232.875,420 242.826,420Z"/>
                </g>
                <g id="upper-arm2" serif:id="upper-arm" transform="matrix(0.833198,0.0037002,-0.00395544,0.890672,33.1145,22.8255)">
                    <path d="M285.777,391.722C284.946,389.013 283.375,383.49 282.421,380.822C275.441,361.298 268.929,350.689 269.087,339.667C269.114,337.813 270.791,332.309 274.086,328.928C278.717,324.174 287.895,323.465 293.191,327.428C296.71,330.061 302.192,337.754 303.732,341.348C306.563,347.955 307.55,350.497 309.75,357.34C311.944,364.162 316.368,380.37 317.857,387.38C318.988,392.709 286.043,392.59 285.777,391.722Z" style="fill:rgb(246,62,63);"/>
                </g>
            </g>
        </g>
    </g>
</svg>
