<?xml version="1.0" encoding="UTF-8" standalone="no"?>
<!DOCTYPE svg PUBLIC "-//W3C//DTD SVG 1.1//EN" "http://www.w3.org/Graphics/SVG/1.1/DTD/svg11.dtd">
<svg viewBox="0 0 480 360" version="1.1" xmlns="http://www.w3.org/2000/svg" xmlns:xlink="http://www.w3.org/1999/xlink" xml:space="preserve" xmlns:serif="http://www.serif.com/" style="fill-rule:evenodd;clip-rule:evenodd;stroke-linecap:round;stroke-linejoin:round;stroke-miterlimit:1.5;">
    <g transform="matrix(1,0,0,1,0,-750)">
        <g id="stamp-rolling6" transform="matrix(0.95056,0,0,1.05875,-0.238701,-44.953)">
            <rect x="0.251" y="750.845" width="504.966" height="340.025" style="fill:none;"/>
            <g id="stamp-rolling61" serif:id="stamp-rolling6" transform="matrix(6.44171e-17,0.944514,-1.05201,5.78348e-17,835.418,123.523)">
                <g id="legs" transform="matrix(1,0,0,1.10429,696.893,-40.3749)">
                    <g id="leg" transform="matrix(0.95006,0.282593,-0.312066,0.860332,-42.4076,294.903)">
                        <g transform="matrix(1,0,0,1,37.2481,-2.76441)">
                            <path d="M261.243,250.641C254.936,253.785 258.093,259.844 261.239,264.612C264.646,269.776 268.565,274.161 270.46,280.104C272.331,285.972 271.497,292.578 269.844,298.713C268.218,304.754 263.743,309.996 264.956,315.691C265.562,318.535 270.308,318.91 272.584,317.518C277.576,314.464 279.15,310.394 280.847,306.135C286.989,290.722 284.418,272.871 274.867,259.959C271.779,255.786 265.747,248.396 261.243,250.641Z" style="fill:rgb(144,98,39);stroke:black;stroke-width:3px;"/>
                        </g>
                        <g transform="matrix(0.932411,-0.361401,0.361401,0.932411,-56.9238,118.591)">
                            <path d="M264.339,310.169C264.74,308.793 262.368,309.541 262.064,311.663C261.656,314.506 261.951,318.542 262.184,322.757C262.321,325.218 261.691,328.517 261.796,330.741C261.921,333.397 262.523,336.323 264.118,338.522C267.21,342.786 273.675,342.224 278.227,341.951C281.281,341.768 284.329,341.79 287.386,341.8C292.366,341.816 299.276,343.044 303.584,339.615C310.556,334.066 305.26,324.108 298.677,320.991C295.232,319.36 292.765,318.909 288.809,319.16C287.483,319.244 285.799,319.606 283.826,319.59C283.591,319.589 282.515,319.5 282.321,319.345C280.995,318.286 281.745,316.336 281.475,314.777C281.277,313.631 280.052,310.712 278.817,311.355C273.757,313.989 268.385,313.93 266.214,312.911C265.006,312.343 263.988,311.375 264.339,310.169Z" style="fill:rgb(41,41,41);stroke:black;stroke-width:3px;"/>
                        </g>
                    </g>
                    <g id="leg1" serif:id="leg" transform="matrix(-0.939356,0.310555,0.342944,0.850639,321.552,294.604)">
                        <g transform="matrix(1,0,0,1,37.2481,-2.76441)">
                            <path d="M261.243,250.641C254.936,253.785 258.093,259.844 261.239,264.612C264.646,269.776 268.565,274.161 270.46,280.104C272.331,285.972 271.497,292.578 269.844,298.713C268.218,304.754 263.743,309.996 264.956,315.691C265.562,318.535 270.308,318.91 272.584,317.518C277.576,314.464 279.15,310.394 280.847,306.135C286.989,290.722 284.418,272.871 274.867,259.959C271.779,255.786 265.747,248.396 261.243,250.641Z" style="fill:rgb(144,98,39);stroke:black;stroke-width:3px;"/>
                        </g>
                        <g transform="matrix(0.991019,-0.133719,0.133719,0.991019,-0.4172,35.6231)">
                            <path d="M264.339,310.169C264.74,308.793 262.368,309.541 262.064,311.663C261.656,314.506 261.951,318.542 262.184,322.757C262.321,325.218 261.691,328.517 261.796,330.741C261.921,333.397 262.523,336.323 264.118,338.522C267.21,342.786 273.675,342.224 278.227,341.951C281.281,341.768 284.329,341.79 287.386,341.8C292.366,341.816 299.276,343.044 303.584,339.615C310.556,334.066 305.26,324.108 298.677,320.991C295.232,319.36 292.765,318.909 288.809,319.16C287.483,319.244 285.799,319.606 283.826,319.59C283.591,319.589 282.515,319.5 282.321,319.345C280.995,318.286 281.745,316.336 281.475,314.777C281.277,313.631 280.052,310.712 278.817,311.355C273.757,313.989 268.385,313.93 266.214,312.911C265.006,312.343 263.988,311.375 264.339,310.169Z" style="fill:rgb(41,41,41);stroke:black;stroke-width:3px;"/>
                        </g>
                    </g>
                </g>
                <g id="right-arm" transform="matrix(0.540543,-0.742994,1.01076,0.309035,566.08,631.095)">
                    <path d="M212.641,171.32C204.268,169.598 204.639,190.591 198.085,199.691C193.688,205.795 185.675,212.259 177.749,212.498C172.205,212.665 165.823,210.059 160.386,211.413C156.637,212.347 154.263,218.61 157.941,221.01C163.191,224.434 174.895,224.596 179.974,223.806C190.895,222.109 200.097,216.432 206.883,207.362C210.182,202.952 212.552,196.703 214.164,191.476C215.623,186.744 217.046,180.956 216.193,176.447C215.73,174.003 215.145,171.835 212.641,171.32Z" style="fill:rgb(144,98,39);stroke:black;stroke-width:3px;"/>
                </g>
                <g transform="matrix(-0.994807,0.10178,0.10178,0.994807,1328.68,-59.8669)">
                    <path d="M596.639,588.432C596.639,590.048 593.759,596.793 591.954,599.271C590.233,601.634 588.735,601.229 586.209,602.045C585.385,602.311 584.616,603.725 583.477,604.068C578.437,605.584 573.084,601.784 572.122,600.985C569.241,598.59 568.282,594.368 567.736,590.92C567.154,587.246 566.321,581.84 569.36,578.744C570.385,577.7 571.078,577.14 572.327,576.38C573.576,575.62 575.48,574.757 576.831,574.199C578.937,573.328 581.005,574.571 583.163,574.854C584.273,574.999 584.662,573.795 586.562,574.199C589.431,574.807 590.846,577.09 593.478,579.889" style="fill:white;stroke:black;stroke-width:3px;"/>
                </g>
                <g id="body" transform="matrix(1,0,0,1,582.928,357.365)">
                    <g transform="matrix(1,0,0,1,113.675,-363.365)">
                        <path d="M145.629,426.103L239.972,425.415C240.037,425.844 240.089,426.306 240.131,426.797L240.258,426.798C240.247,427.307 240.235,427.811 240.223,428.316C240.333,431.126 240.176,434.643 239.863,438.454C239.072,455.502 237.792,468.577 235.269,484.578C233.386,496.523 227.274,505.776 217.908,512.427C209.655,518.286 202.538,521.243 191.676,524.78C188.482,525.819 183.951,527.313 180.816,527.576C180.078,528.36 179.424,529.245 178.876,530.251C171.923,543.008 173.319,557.603 174.697,570.747C175.379,577.249 175.998,583.454 176.729,590.235C178.076,602.725 179.639,612.544 177.145,619.684C173.217,630.934 158.278,634.1 145.629,634.067C132.98,634.1 118.041,630.934 114.112,619.684C111.619,612.544 113.182,602.725 114.529,590.235C115.259,583.454 115.879,577.249 116.56,570.747C117.939,557.603 119.335,543.008 112.382,530.251C111.834,529.245 111.18,528.36 110.442,527.576C107.307,527.313 102.776,525.819 99.582,524.78C88.72,521.243 81.603,518.286 73.35,512.427C63.984,505.776 57.872,496.523 55.989,484.578C53.466,468.577 52.186,455.502 51.395,438.454C51.082,434.643 50.925,431.126 51.035,428.316C51.023,427.811 51.011,427.307 51,426.798L51.127,426.797C51.169,426.306 51.221,425.844 51.286,425.415L145.629,426.103Z" style="fill:rgb(194,152,80);stroke:black;stroke-width:3px;"/>
                    </g>
                    <g transform="matrix(1.04121,0,0,1.31659,31.0271,-19.6267)">
                        <ellipse cx="219" cy="63" rx="91" ry="22" style="fill:rgb(213,29,3);stroke:black;stroke-width:2.53px;"/>
                    </g>
                    <g transform="matrix(0.956044,0,0,1.04545,49.6782,-2.54502)">
                        <ellipse cx="219" cy="63" rx="91" ry="22" style="fill:rgb(203,173,113);stroke:black;stroke-width:2.99px;"/>
                    </g>
                    <g transform="matrix(-0.986721,0.162426,0.162426,0.986721,477.041,-35.489)">
                        <path d="M254.333,162.032C254.805,164.451 255.331,166.89 255.603,169.424C255.868,171.888 255.968,174.399 255.925,176.903C255.89,178.912 255.71,180.904 255.482,182.886C255.133,185.928 254.581,188.862 253.979,191.752C253.965,188.821 253.773,185.867 253.603,182.831C253.494,180.868 253.345,178.907 253.27,176.93C253.178,174.466 253.112,172.002 253.104,169.561C253.096,167.04 253.245,164.58 253.233,162.141C253.203,161.838 253.425,161.567 253.729,161.537C254.033,161.507 254.303,161.729 254.333,162.032Z" style="fill:rgb(146,106,37);"/>
                    </g>
                    <g transform="matrix(-0.986721,0.162426,0.162426,0.986721,476.297,-35.5902)">
                        <path d="M249.517,170.075C249.724,171.166 250.063,172.252 250.208,173.486C250.338,174.597 250.367,175.758 250.304,176.91C250.253,177.851 250.09,178.756 249.917,179.662C249.631,181.158 249.242,182.469 248.877,183.764C248.645,182.449 248.303,181.138 248.037,179.65C247.877,178.75 247.709,177.855 247.65,176.923C247.576,175.771 247.586,174.61 247.705,173.498C247.838,172.252 248.173,171.154 248.412,170.06C248.416,169.755 248.667,169.511 248.972,169.515C249.277,169.519 249.522,169.77 249.517,170.075Z" style="fill:rgb(146,106,37);"/>
                    </g>
                    <g transform="matrix(-0.986721,0.162426,0.162426,0.986721,476.297,-35.5902)">
                        <path d="M241.197,174.159C241.414,174.776 241.715,175.327 241.839,176.101C241.936,176.706 241.934,177.361 241.848,177.997C241.776,178.53 241.598,178.993 241.43,179.488C241.124,180.389 240.792,181.018 240.556,181.764C240.19,181.05 239.85,180.402 239.55,179.473C239.385,178.961 239.236,178.471 239.194,177.918C239.146,177.271 239.195,176.611 239.338,176.008C239.516,175.259 239.862,174.744 240.092,174.143C240.096,173.838 240.347,173.594 240.652,173.599C240.957,173.603 241.201,173.854 241.197,174.159Z" style="fill:rgb(146,106,37);"/>
                    </g>
                    <g transform="matrix(-0.997107,0.0760133,0.0446543,0.585754,493.117,87.0932)">
                        <path d="M217.319,192.99C217.411,198.204 217.514,203.045 217.497,207.91C217.479,212.942 217.419,217.94 217.546,223.303C217.596,225.426 217.65,227.602 217.723,229.868C217.952,236.971 218.408,244.825 219.657,254.294C218.081,247.727 216.909,241.942 216.132,236.506C215.503,232.101 215.092,227.998 214.906,224.051C214.647,218.573 214.726,213.43 214.998,208.321C215.267,203.266 215.818,198.302 216.215,192.9C216.23,192.382 216.489,191.981 216.793,192.005C217.098,192.03 217.334,192.471 217.319,192.99Z" style="fill:rgb(146,106,37);"/>
                    </g>
                    <g transform="matrix(-0.999467,0.0326369,0.0326369,0.999467,504.2,0.865045)">
                        <path d="M229.418,215.984C229.45,217.763 229.683,219.5 229.776,221.301C229.865,223.05 229.916,224.809 229.938,226.571C229.956,227.997 229.897,229.406 229.867,230.828C229.82,233.028 229.719,235.148 229.726,237.306C229.097,235.224 228.466,233.176 227.995,231.008C227.686,229.585 227.416,228.16 227.287,226.706C227.126,224.889 227.106,223.054 227.273,221.249C227.445,219.4 227.882,217.641 228.319,215.862C228.353,215.559 228.627,215.34 228.93,215.374C229.233,215.408 229.452,215.681 229.418,215.984Z" style="fill:rgb(146,106,37);"/>
                    </g>
                    <g transform="matrix(0.619686,0.0504682,-0.0476853,0.585515,194.483,-21.5814)">
                        <path d="M216.112,192.925C215.662,198.202 215.03,202.83 214.696,207.383C214.343,212.206 214.19,216.907 214.408,222.012C214.562,225.639 214.966,229.459 215.613,233.678C216.387,238.72 217.596,244.269 219.224,250.769C218.103,241.508 217.779,234.156 217.648,227.667C217.605,225.509 217.578,223.455 217.551,221.462C217.485,216.408 217.619,211.762 217.665,206.941C217.706,202.55 217.574,198.046 217.422,192.966C217.433,192.583 217.148,192.263 216.787,192.252C216.425,192.24 216.122,192.542 216.112,192.925Z" style="fill:rgb(146,106,37);"/>
                    </g>
                    <g transform="matrix(-0.996867,-0.0790996,-0.0790996,0.996867,556.989,-83.4846)">
                        <path d="M217.32,192.961C217.411,198.432 217.342,203.905 217.083,209.373C216.89,213.455 216.622,217.523 216.437,221.578C216.252,225.644 216.108,229.687 216.233,233.734C216.41,239.492 217.018,245.221 218.626,250.971C215.649,243.452 214.264,235.784 213.856,227.983C213.745,225.865 213.72,223.74 213.769,221.612C213.88,216.706 214.248,211.779 214.741,206.861C215.206,202.208 215.858,197.587 216.215,192.93C216.223,192.625 216.478,192.384 216.783,192.393C217.088,192.401 217.328,192.656 217.32,192.961Z" style="fill:rgb(146,106,37);"/>
                    </g>
                    <g transform="matrix(-0.999727,-0.0233632,-0.0233632,0.999727,565.649,-101.679)">
                        <path d="M229.418,215.984C229.45,217.763 229.683,219.5 229.776,221.301C229.865,223.05 229.916,224.809 229.938,226.571C229.956,227.997 229.897,229.406 229.867,230.828C229.82,233.028 229.719,235.148 229.726,237.306C229.097,235.224 228.466,233.176 227.995,231.008C227.686,229.585 227.416,228.16 227.287,226.706C227.126,224.889 227.106,223.054 227.273,221.249C227.445,219.4 227.882,217.641 228.319,215.862C228.353,215.559 228.627,215.34 228.93,215.374C229.233,215.408 229.452,215.681 229.418,215.984Z" style="fill:rgb(146,106,37);"/>
                    </g>
                    <g transform="matrix(-0.998998,0.0447557,0.0447557,0.998998,501.534,-7.90572)">
                        <path d="M300.929,101.563C301.459,105.593 302.071,109.7 302.197,113.85C302.324,118.024 301.955,122.194 301.387,126.249C300.962,128.402 300.421,130.504 299.784,132.594C298.84,135.693 297.734,138.712 296.762,141.81C297.24,138.606 297.823,135.453 298.313,132.258C298.635,130.161 298.915,128.072 299.051,125.945C299.417,122.775 299.496,119.539 299.569,116.289C299.624,113.858 299.644,111.422 299.677,108.994C299.71,106.516 299.812,104.072 299.826,101.641C299.805,101.336 300.034,101.072 300.339,101.05C300.643,101.029 300.907,101.259 300.929,101.563Z" style="fill:rgb(146,106,37);"/>
                    </g>
                    <g transform="matrix(-0.998998,0.0447557,0.0447557,0.998998,501.406,-6.75229)">
                        <path d="M295.893,112.459C296.199,115.06 296.562,117.665 296.654,120.332C296.744,122.96 296.655,125.613 296.396,128.242C296.188,130.355 295.82,132.44 295.377,134.508C294.707,137.643 293.789,140.656 292.733,143.632C293.024,141.56 293.203,139.494 293.354,137.383C293.531,134.899 293.557,132.418 293.657,129.91C293.723,128.257 293.832,126.604 293.923,124.952C294.037,122.875 294.121,120.802 294.26,118.74C294.403,116.629 294.647,114.567 294.788,112.49C294.78,112.185 295.02,111.931 295.325,111.922C295.63,111.914 295.885,112.154 295.893,112.459Z" style="fill:rgb(146,106,37);"/>
                    </g>
                    <g transform="matrix(-0.632779,-0.0518232,-0.041617,0.508158,503.195,-15.6188)">
                        <path d="M229.731,216.073C229.894,217.895 230.327,219.501 230.495,221.342C230.65,223.042 230.714,224.764 230.7,226.487C230.688,227.922 230.525,229.286 230.402,230.712C230.204,233.019 229.899,235.034 229.726,237.306C228.894,235.227 228.107,233.375 227.463,231.153C227.048,229.724 226.693,228.322 226.527,226.816C226.322,224.96 226.309,223.051 226.554,221.216C226.814,219.258 227.41,217.591 228.006,215.774C228.073,215.181 228.513,214.767 228.989,214.849C229.464,214.932 229.797,215.48 229.731,216.073Z" style="fill:rgb(146,106,37);"/>
                    </g>
                </g>
                <g id="left-arm" transform="matrix(-0.750695,-0.693598,-0.782302,0.558167,1102.79,581.372)">
                    <path d="M198.286,170.281C196.017,172.87 195.413,175.517 196.497,181.071C197.628,186.869 198.687,194.336 195.873,199.499C192.242,206.161 185.54,212.34 177.638,211.444C177.239,211.399 170.948,211.169 167.642,217.421C164.888,222.629 167.496,224.397 167.677,224.501C170.474,226.121 175.501,226.061 180.58,225.271C191.501,223.574 197.536,219.474 204.143,209.581C207.202,205.001 209.542,196.425 209.985,190.975C210.526,184.337 210.314,177.438 207.232,171.82C204.777,167.343 200.315,167.966 198.286,170.281Z" style="fill:rgb(144,98,39);stroke:black;stroke-width:2.76px;"/>
                </g>
                <g transform="matrix(-0.346345,-0.0964462,-0.268262,0.963346,844.097,360.782)">
                    <path d="M143.356,109.108C130.754,113.366 150.183,133.481 148.702,141.955C148.271,144.422 159.003,137.587 164.492,133.312C171.526,127.834 178.96,120.837 182.23,117.29C184.006,115.364 192.065,107.428 190.155,107.757C182.625,109.057 152.581,105.991 143.356,109.108Z" style="fill:rgb(255,255,12);stroke:black;stroke-width:3.99px;"/>
                </g>
                <g id="stamp" transform="matrix(1,0,0.929505,1,-392.655,0.923992)">
                    <g transform="matrix(-0.908647,0.16615,-1.0187,-0.752755,1105,429.233)">
                        <path d="M182.542,42.968C178.88,47.169 177.476,55.434 177.794,61.859C177.918,64.357 177.793,66.6 180.596,67.422C183.595,68.3 187.007,64.949 188.998,63.182C189.209,62.995 192.384,60.109 192.28,59.914C191.902,59.204 187.622,60.614 187.068,60.145C186.735,59.864 187.307,57.822 187.405,57.43C187.962,55.206 188.53,53.127 190.062,51.443C191.256,50.131 194.669,49.764 199.253,50.335C201.718,50.642 200.174,56.04 199.929,58.22C199.287,63.925 197.846,68.87 197.426,74.606C197.287,76.502 197.327,78.196 197.417,80.095C197.423,80.221 197.462,82.016 197.585,82.026C197.96,82.057 199.563,81.293 199.909,81.158C202.581,80.12 204.521,77.953 205.666,75.444C208.82,68.534 210.72,60.847 211.864,53.489C212.763,47.713 213.909,46.431 212.164,44.15C210.478,41.948 207.337,41.307 204.788,41.162C198.258,40.791 184.008,41.286 182.542,42.968Z" style="fill:rgb(213,29,3);stroke:black;stroke-width:1.67px;"/>
                    </g>
                    <g transform="matrix(-0.908647,0.16615,-1.0187,-0.752755,1105,429.233)">
                        <path d="M224.777,44.39C222.555,47.62 226.988,47.511 244.917,49.326C248.596,49.699 252.865,49.871 251.78,54.625C251.488,55.905 246.396,54.959 245.344,54.785C239.522,53.822 233.574,53.088 227.662,53.148C225.235,53.173 221.749,53.577 222.963,56.67C223.886,59.024 228.009,59.391 230.051,59.354C235.352,59.259 241.157,60.003 246.576,61.138C248.02,61.44 250.698,61.778 251.211,63.357C251.325,63.708 250.99,65.4 250.777,65.597C249.265,66.989 247.641,66.493 245.546,66.542C239.631,66.681 232.587,65.105 226.679,64.519C225.65,64.417 221.513,63.969 221.143,65.669C220.975,66.44 220.996,67.457 221.217,68.088C221.977,70.258 224.579,70.802 226.88,71.288C227.809,71.484 228.713,71.655 229.599,71.808C236.048,72.92 241.51,73.049 247.952,74.503C250.277,75.027 257.201,77.081 259.179,74.87C261.739,72.008 261.048,67.525 261.229,63.949C261.394,60.69 261.633,56.826 261.717,53.564C261.74,52.695 261.932,50.174 261.345,49.453C259.283,46.923 255.053,46.166 252.05,45.524C237.715,42.46 225.929,42.715 224.777,44.39Z" style="fill:rgb(213,29,3);stroke:black;stroke-width:1.67px;"/>
                    </g>
                </g>
            </g>
        </g>
    </g>
</svg>
