<?xml version="1.0" encoding="UTF-8" standalone="no"?>
<!DOCTYPE svg PUBLIC "-//W3C//DTD SVG 1.1//EN" "http://www.w3.org/Graphics/SVG/1.1/DTD/svg11.dtd">
<svg viewBox="0 0 480 360" version="1.1" xmlns="http://www.w3.org/2000/svg" xmlns:xlink="http://www.w3.org/1999/xlink" xml:space="preserve" xmlns:serif="http://www.serif.com/" style="fill-rule:evenodd;clip-rule:evenodd;stroke-linecap:round;stroke-linejoin:round;stroke-miterlimit:1.5;">
    <g transform="matrix(1,0,0,1,0,-750)">
        <g transform="matrix(0.95056,0,0,1.05875,-0.238701,-44.953)">
            <rect id="stamp-knockout" x="0.251" y="750.845" width="504.966" height="340.025" style="fill:none;"/>
            <g id="stamp-knockout1" serif:id="stamp-knockout">
                <g id="stamp-rolling1" transform="matrix(6.44171e-17,0.944514,-1.05201,5.78348e-17,835.247,211.241)">
                    <g id="legs" transform="matrix(-1,0,0,1.10429,895.665,-40.6997)">
                        <g id="leg" transform="matrix(0.952006,-0.277172,0.30608,0.862094,-196.645,463.822)">
                            <g transform="matrix(1,0,0,1,37.2481,-2.76441)">
                                <path d="M261.243,250.641C254.936,253.785 258.093,259.844 261.239,264.612C264.646,269.776 268.565,274.161 270.46,280.104C272.331,285.972 271.497,292.578 269.844,298.713C268.218,304.754 263.743,309.996 264.956,315.691C265.562,318.535 270.308,318.91 272.584,317.518C277.576,314.464 279.15,310.394 280.847,306.135C286.989,290.722 284.418,272.871 274.867,259.959C271.779,255.786 265.747,248.396 261.243,250.641Z" style="fill:rgb(144,98,39);stroke:black;stroke-width:3px;"/>
                            </g>
                            <g transform="matrix(0.932411,-0.361401,0.361401,0.932411,-56.9238,118.591)">
                                <path d="M264.339,310.169C264.74,308.793 262.368,309.541 262.064,311.663C261.656,314.506 261.951,318.542 262.184,322.757C262.321,325.218 261.691,328.517 261.796,330.741C261.921,333.397 262.523,336.323 264.118,338.522C267.21,342.786 273.675,342.224 278.227,341.951C281.281,341.768 284.329,341.79 287.386,341.8C292.366,341.816 299.276,343.044 303.584,339.615C310.556,334.066 305.26,324.108 298.677,320.991C295.232,319.36 292.765,318.909 288.809,319.16C287.483,319.244 285.799,319.606 283.826,319.59C283.591,319.589 282.515,319.5 282.321,319.345C280.995,318.286 281.745,316.336 281.475,314.777C281.277,313.631 280.052,310.712 278.817,311.355C273.757,313.989 268.385,313.93 266.214,312.911C265.006,312.343 263.988,311.375 264.339,310.169Z" style="fill:rgb(41,41,41);stroke:black;stroke-width:3px;"/>
                            </g>
                        </g>
                        <g id="leg1" serif:id="leg" transform="matrix(-0.968831,-0.224327,-0.247723,0.87733,478.08,442.863)">
                            <g transform="matrix(1,0,0,1,37.2481,-2.76441)">
                                <path d="M261.243,250.641C254.936,253.785 258.093,259.844 261.239,264.612C264.646,269.776 268.565,274.161 270.46,280.104C272.331,285.972 271.497,292.578 269.844,298.713C268.218,304.754 263.743,309.996 264.956,315.691C265.562,318.535 270.308,318.91 272.584,317.518C277.576,314.464 279.15,310.394 280.847,306.135C286.989,290.722 284.418,272.871 274.867,259.959C271.779,255.786 265.747,248.396 261.243,250.641Z" style="fill:rgb(144,98,39);stroke:black;stroke-width:3px;"/>
                            </g>
                            <g transform="matrix(0.991019,-0.133719,0.133719,0.991019,-0.4172,35.6231)">
                                <path d="M264.339,310.169C264.74,308.793 262.368,309.541 262.064,311.663C261.656,314.506 261.951,318.542 262.184,322.757C262.321,325.218 261.691,328.517 261.796,330.741C261.921,333.397 262.523,336.323 264.118,338.522C267.21,342.786 273.675,342.224 278.227,341.951C281.281,341.768 284.329,341.79 287.386,341.8C292.366,341.816 299.276,343.044 303.584,339.615C310.556,334.066 305.26,324.108 298.677,320.991C295.232,319.36 292.765,318.909 288.809,319.16C287.483,319.244 285.799,319.606 283.826,319.59C283.591,319.589 282.515,319.5 282.321,319.345C280.995,318.286 281.745,316.336 281.475,314.777C281.277,313.631 280.052,310.712 278.817,311.355C273.757,313.989 268.385,313.93 266.214,312.911C265.006,312.343 263.988,311.375 264.339,310.169Z" style="fill:rgb(41,41,41);stroke:black;stroke-width:3px;"/>
                            </g>
                        </g>
                    </g>
                    <g id="right-arm" transform="matrix(0.998898,-0.046936,0.046936,0.998898,469.654,371.144)">
                        <g transform="matrix(1,0,0,1,42.7507,-1.78167)">
                            <path d="M269.307,176.906C264.614,176.483 257.842,175.872 253.886,178.062C250.84,179.748 251.09,184.138 254.763,186.088C257.495,187.54 262.937,186.676 265.945,186.869C272.276,187.273 278.727,188.67 284.453,191.453C289.036,193.68 292.978,196.152 296.876,199.45C298.632,200.935 300.574,202.514 303.019,202.656C304.517,202.743 306.608,202.213 307.658,201.268C308.914,200.137 309.36,198.169 309.208,196.433C308.905,192.974 305.564,191.318 303.687,189.947C293.787,182.711 280.531,177.919 269.307,176.906Z" style="fill:rgb(144,98,39);stroke:black;stroke-width:3px;"/>
                        </g>
                        <g transform="matrix(1,0,0,1,42.7507,-1.78167)">
                            <path d="M310.791,188.688C308.038,188.085 305.176,190.432 301.666,194.074C298.802,197.045 295.039,201.057 296.648,204.823C297.692,207.268 300.813,205.588 300.669,207.45C300.335,211.764 299.172,216.469 300.423,221.3C301.253,224.503 303.194,228.496 306.958,229.814C309.57,230.73 311.023,229.191 311.68,226.582C311.968,225.441 312.054,224.243 312.029,223.069C312.017,222.489 311.458,221.041 311.961,221.33C316.796,224.119 321.429,227.815 327.414,228.143C331.935,228.391 334.901,226.347 333.454,221.397C332.944,219.652 331.558,218.768 330.789,217.27C330.656,217.012 331.316,217.517 331.583,217.631C332.126,217.863 332.701,218.017 333.255,218.222C335.221,218.95 337.604,219.562 339.102,217.855C340.588,216.161 340.649,213.955 339.109,212.023C338.688,211.494 336.101,210.089 335.303,209.659C334.936,209.461 337.722,209.229 338.136,209.276C339.309,209.41 341.001,209.426 341.483,208.813C342.647,207.331 341.698,205.286 340.835,203.957C339.534,201.953 335.63,199.828 333.618,198.668C329.516,196.303 322.592,194.779 316.593,193.619C314.598,193.233 313.504,189.283 310.791,188.688Z" style="fill:white;stroke:black;stroke-width:3px;"/>
                        </g>
                    </g>
                    <g id="left-arm" transform="matrix(0.969835,0.243761,-0.243761,0.969835,528.141,300.235)">
                        <g transform="matrix(1,0,0,1,37.7962,5.99565)">
                            <path d="M212.641,171.32C204.268,169.598 204.639,190.591 198.085,199.691C193.688,205.795 185.675,212.259 177.749,212.498C172.205,212.665 165.823,210.059 160.386,211.413C156.637,212.347 154.263,218.61 157.941,221.01C163.191,224.434 174.895,224.596 179.974,223.806C190.895,222.109 198.391,217.598 204.999,207.706C208.058,203.126 211.06,196.65 212.672,191.424C214.131,186.692 214.703,183.455 215.291,178.518C215.585,176.048 215.145,171.835 212.641,171.32Z" style="fill:rgb(144,98,39);stroke:black;stroke-width:3px;"/>
                        </g>
                        <g transform="matrix(1,0,0,1,37.7962,5.99565)">
                            <path d="M152.618,174.82C147.346,169.093 139.676,172.009 136.322,178.096C134.984,180.525 134.354,183.091 134.979,185.825C135.204,186.808 135.758,187.712 135.975,188.675C136.045,188.985 134.439,190.475 134.202,190.742C132.591,192.558 131.519,194.644 130.677,196.912C129.483,200.13 129.771,204.991 130.147,208.861C130.767,215.248 132.946,220.459 138.831,222.369C140.137,222.793 141.94,222.872 143.972,223.545C145.738,224.131 146.553,225.981 148.024,226.604C149.59,227.268 153.125,227.086 155.251,226.281C160.84,224.164 165.151,219.519 168.305,214.505C169.394,212.775 170.331,210.477 168.798,208.757C168.583,208.515 167.038,206.928 166.626,207.055C165.772,207.318 166.016,209.186 165.689,209.948C165.634,210.076 165.425,210.904 165.335,210.937C165.186,210.991 165.323,210.62 165.321,210.461C165.318,210.158 165.321,209.855 165.332,209.552C165.362,208.728 165.367,207.862 165.539,207.051C166.329,203.335 170.595,201.731 171.547,198.255C172.626,194.317 172.028,191.232 168.897,188.044C167.81,186.938 166.227,186.127 164.602,186.321" style="fill:white;stroke:black;stroke-width:3px;"/>
                        </g>
                        <g transform="matrix(1,0,0,1,37.7962,5.99565)">
                            <path d="M138.952,191.367C142.292,192.068 146.673,192.97 148.977,195.644C150.489,197.399 149.747,201.516 147.266,202.084C145.433,202.504 143.228,201.061 141.513,201.064C141.282,201.065 142.593,201.634 142.776,201.775C143.124,202.045 143.415,202.365 143.699,202.7C144.602,203.767 145.857,204.992 145.568,206.518C144.873,210.195 140.719,210.418 137.687,210.747" style="fill:none;stroke:black;stroke-width:3px;"/>
                        </g>
                        <g transform="matrix(1,0,0,1,37.7962,5.99565)">
                            <path d="M160.369,160.376C156.416,161.404 153.317,172.566 150.479,180.512C148.525,185.982 145.934,193.07 153.426,194.874C157.224,195.788 159.482,193.448 161.126,190.817C163.08,187.688 164.536,184.296 165.915,180.891C167.734,176.4 170.342,170.311 169.691,165.461C169.062,160.768 164.415,159.324 160.369,160.376Z" style="fill:rgb(43,43,43);stroke:black;stroke-width:3px;"/>
                        </g>
                        <g transform="matrix(1.10774,0.355956,-0.305928,0.952055,69.9765,-47.1659)">
                            <ellipse cx="164.986" cy="166.249" rx="3.732" ry="2.107" style="fill:rgb(171,0,0);"/>
                        </g>
                    </g>
                    <g id="body" transform="matrix(1,0,0,1,490.188,357.365)">
                        <g transform="matrix(1,0,0,1,113.675,-363.365)">
                            <path d="M145.629,426.103L239.972,425.415C240.037,425.844 240.089,426.306 240.131,426.797L240.258,426.798C240.247,427.307 240.235,427.811 240.223,428.316C240.333,431.126 240.176,434.643 239.863,438.454C239.072,455.502 237.792,468.577 235.269,484.578C233.386,496.523 227.274,505.776 217.908,512.427C209.655,518.286 202.538,521.243 191.676,524.78C188.482,525.819 183.951,527.313 180.816,527.576C180.078,528.36 179.424,529.245 178.876,530.251C171.923,543.008 173.319,557.603 174.697,570.747C175.379,577.249 175.998,583.454 176.729,590.235C178.076,602.725 179.639,612.544 177.145,619.684C173.217,630.934 158.278,634.1 145.629,634.067C132.98,634.1 118.041,630.934 114.112,619.684C111.619,612.544 113.182,602.725 114.529,590.235C115.259,583.454 115.879,577.249 116.56,570.747C117.939,557.603 119.335,543.008 112.382,530.251C111.834,529.245 111.18,528.36 110.442,527.576C107.307,527.313 102.776,525.819 99.582,524.78C88.72,521.243 81.603,518.286 73.35,512.427C63.984,505.776 57.872,496.523 55.989,484.578C53.466,468.577 52.186,455.502 51.395,438.454C51.082,434.643 50.925,431.126 51.035,428.316C51.023,427.811 51.011,427.307 51,426.798L51.127,426.797C51.169,426.306 51.221,425.844 51.286,425.415L145.629,426.103Z" style="fill:rgb(194,152,80);stroke:black;stroke-width:3px;"/>
                        </g>
                        <g transform="matrix(1.04121,0,0,1.31659,31.0271,-19.6267)">
                            <ellipse cx="219" cy="63" rx="91" ry="22" style="fill:rgb(213,29,3);stroke:black;stroke-width:2.53px;"/>
                        </g>
                        <g transform="matrix(0.956044,0,0,1.04545,49.6782,-2.54502)">
                            <ellipse cx="219" cy="63" rx="91" ry="22" style="fill:rgb(203,173,113);stroke:black;stroke-width:2.99px;"/>
                        </g>
                        <g transform="matrix(0.994756,0.102281,-0.102281,0.994756,41.7298,-23.889)">
                            <path d="M253.233,162.141C253.203,161.838 253.425,161.567 253.729,161.537C254.033,161.507 254.303,161.729 254.333,162.032C254.805,164.451 255.331,166.89 255.603,169.424C255.868,171.888 255.968,174.399 255.925,176.903C255.89,178.912 255.71,180.904 255.482,182.886C255.133,185.928 254.581,188.862 253.979,191.752C253.965,188.821 253.773,185.867 253.603,182.831C253.494,180.868 253.345,178.907 253.27,176.93C253.178,174.466 253.112,172.002 253.104,169.561C253.096,167.04 253.245,164.58 253.233,162.141Z" style="fill:rgb(146,106,37);"/>
                        </g>
                        <g transform="matrix(0.994756,0.102281,-0.102281,0.994756,42.4662,-24.0351)">
                            <path d="M248.412,170.06C248.416,169.755 248.667,169.511 248.972,169.515C249.277,169.519 249.522,169.77 249.517,170.075C249.724,171.166 250.063,172.252 250.208,173.486C250.338,174.597 250.367,175.758 250.304,176.91C250.253,177.851 250.09,178.756 249.917,179.662C249.631,181.158 249.242,182.469 248.877,183.764C248.645,182.449 248.303,181.138 248.037,179.65C247.877,178.75 247.709,177.855 247.65,176.923C247.576,175.771 247.586,174.61 247.705,173.498C247.838,172.252 248.173,171.154 248.412,170.06Z" style="fill:rgb(146,106,37);"/>
                        </g>
                        <g transform="matrix(0.994756,0.102281,-0.102281,0.994756,42.4662,-24.0351)">
                            <path d="M240.092,174.143C240.096,173.838 240.347,173.594 240.652,173.599C240.957,173.603 241.201,173.854 241.197,174.159C241.414,174.776 241.715,175.327 241.839,176.101C241.936,176.706 241.934,177.361 241.848,177.997C241.776,178.53 241.598,178.993 241.43,179.488C241.124,180.389 240.792,181.018 240.556,181.764C240.19,181.05 239.85,180.402 239.55,179.473C239.385,178.961 239.236,178.471 239.194,177.918C239.146,177.271 239.195,176.611 239.338,176.008C239.516,175.259 239.862,174.744 240.092,174.143Z" style="fill:rgb(146,106,37);"/>
                        </g>
                        <g transform="matrix(1,0,0,0.587454,16.0411,95.8473)">
                            <path d="M216.215,192.9C216.23,192.382 216.489,191.981 216.793,192.005C217.098,192.03 217.334,192.471 217.319,192.99C217.411,198.204 217.514,203.045 217.497,207.91C217.479,212.942 217.419,217.94 217.546,223.303C217.596,225.426 217.65,227.602 217.723,229.868C217.952,236.971 218.408,244.825 219.657,254.294C218.081,247.727 216.909,241.942 216.132,236.506C215.503,232.101 215.092,227.998 214.906,224.051C214.647,218.573 214.726,213.43 214.998,208.322C215.267,203.266 215.818,198.302 216.215,192.9Z" style="fill:rgb(146,106,37);"/>
                        </g>
                        <g transform="matrix(0.999056,-0.0434303,0.0434303,0.999056,1.42604,10.4831)">
                            <path d="M228.319,215.862C228.353,215.559 228.627,215.34 228.93,215.374C229.233,215.408 229.452,215.681 229.418,215.984C229.45,217.763 229.683,219.5 229.776,221.301C229.865,223.05 229.916,224.809 229.938,226.571C229.956,227.997 229.897,229.406 229.867,230.828C229.82,233.028 229.719,235.148 229.726,237.306C229.097,235.224 228.466,233.176 227.995,231.008C227.686,229.585 227.416,228.16 227.287,226.706C227.126,224.889 227.106,223.054 227.273,221.249C227.445,219.4 227.882,217.641 228.319,215.862Z" style="fill:rgb(146,106,37);"/>
                        </g>
                        <g transform="matrix(1,0,0,1,26.0908,-0.827921)">
                            <path d="M299.826,101.641C299.805,101.336 300.034,101.072 300.339,101.05C300.643,101.029 300.907,101.259 300.929,101.563C301.459,105.593 302.071,109.7 302.197,113.85C302.324,118.024 301.955,122.194 301.387,126.249C300.962,128.402 300.421,130.504 299.784,132.594C298.84,135.693 297.734,138.712 296.762,141.81C297.24,138.606 297.823,135.453 298.313,132.258C298.635,130.161 298.915,128.072 299.051,125.945C299.417,122.775 299.496,119.539 299.569,116.289C299.624,113.858 299.644,111.422 299.677,108.994C299.71,106.516 299.812,104.072 299.826,101.641Z" style="fill:rgb(146,106,37);"/>
                        </g>
                        <g transform="matrix(1,0,0,1,26.2706,0.318615)">
                            <path d="M294.788,112.49C294.78,112.185 295.02,111.931 295.325,111.922C295.63,111.914 295.885,112.154 295.893,112.459C296.199,115.06 296.562,117.665 296.654,120.332C296.744,122.96 296.655,125.613 296.396,128.242C296.188,130.355 295.82,132.44 295.377,134.508C294.707,137.643 293.789,140.656 292.733,143.632C293.024,141.56 293.203,139.494 293.354,137.383C293.531,134.899 293.557,132.418 293.657,129.91C293.723,128.257 293.832,126.604 293.923,124.952C294.037,122.875 294.121,120.802 294.26,118.74C294.403,116.629 294.647,114.567 294.788,112.49Z" style="fill:rgb(146,106,37);"/>
                        </g>
                    </g>
                    <g id="stamp" transform="matrix(1,0,-0.356478,1.01429,148.578,-6.46952)">
                        <g transform="matrix(0.996835,0.0794991,-0.928408,0.866406,585.05,350.269)">
                            <path d="M182.542,42.968C178.88,47.169 177.476,55.434 177.794,61.859C177.918,64.357 177.793,66.6 180.596,67.422C183.595,68.3 187.007,64.949 188.998,63.182C189.209,62.995 192.384,60.109 192.28,59.914C191.902,59.204 187.622,60.614 187.068,60.145C186.735,59.864 187.307,57.822 187.405,57.43C187.962,55.206 188.53,53.127 190.062,51.443C191.256,50.131 194.669,49.764 199.253,50.335C201.718,50.642 200.174,56.04 199.929,58.22C199.287,63.925 197.846,68.87 197.426,74.606C197.287,76.502 197.327,78.196 197.417,80.095C197.423,80.221 197.462,82.016 197.585,82.026C197.96,82.057 199.563,81.293 199.909,81.158C202.581,80.12 204.521,77.953 205.666,75.444C208.82,68.534 210.72,60.847 211.864,53.489C212.763,47.713 213.909,46.431 212.164,44.15C210.478,41.948 207.337,41.307 204.788,41.162C198.258,40.791 184.008,41.286 182.542,42.968Z" style="fill:rgb(213,29,3);stroke:black;stroke-width:4.26px;"/>
                        </g>
                        <g transform="matrix(0.996835,0.0794991,-0.928408,0.866406,585.05,350.269)">
                            <path d="M224.777,44.39C222.555,47.62 226.988,47.511 244.917,49.326C248.596,49.699 252.865,49.871 251.78,54.625C251.488,55.905 246.396,54.959 245.344,54.785C239.522,53.822 233.574,53.088 227.662,53.148C225.235,53.173 221.749,53.577 222.963,56.67C223.886,59.024 228.009,59.391 230.051,59.354C235.352,59.259 241.157,60.003 246.576,61.138C248.02,61.44 250.698,61.778 251.211,63.357C251.325,63.708 250.99,65.4 250.777,65.597C249.265,66.989 247.641,66.493 245.546,66.542C239.631,66.681 232.587,65.105 226.679,64.519C225.65,64.417 221.513,63.969 221.143,65.669C220.975,66.44 220.996,67.457 221.217,68.088C221.977,70.258 224.579,70.802 226.88,71.288C234.565,72.91 240.625,72.849 247.952,74.503C250.277,75.027 257.201,77.081 259.179,74.87C261.739,72.008 261.048,67.525 261.229,63.949C261.394,60.69 261.633,56.826 261.717,53.564C261.74,52.695 261.932,50.174 261.345,49.453C259.283,46.923 255.053,46.166 252.05,45.524C237.715,42.46 225.929,42.715 224.777,44.39Z" style="fill:rgb(213,29,3);stroke:black;stroke-width:4.26px;"/>
                        </g>
                    </g>
                </g>
                <g transform="matrix(0.111171,0.672065,-0.744739,0.0993023,399.865,819.348)">
                    <g id="mouth2">
                        <ellipse cx="105.746" cy="140.542" rx="10.92" ry="16.511" style="fill:rgb(227,182,180);stroke:black;stroke-width:3px;"/>
                    </g>
                </g>
                <g id="eyes2" transform="matrix(-0.0571597,0.943119,-1.05046,-0.051319,450.906,815.979)">
                    <g transform="matrix(0.867869,0,0,0.655397,-121.926,22.0127)">
                        <g transform="matrix(1,0,0,1,156.258,19.7003)">
                            <path d="M117.367,117.377C127.109,107.558 138.674,104.044 144.886,101.403C149.111,99.607 158.648,97.483 164.397,95.83C164.687,95.747 170.972,94.254 175.985,93.157" style="fill:none;stroke:black;stroke-width:3.9px;"/>
                        </g>
                        <g transform="matrix(0.906146,-0.247911,0.26389,0.964553,136.19,53.0444)">
                            <path d="M117.367,117.377C127.109,107.558 138.674,104.044 144.886,101.403C149.111,99.607 158.648,97.483 164.397,95.83C164.687,95.747 170.972,94.254 175.985,93.157" style="fill:none;stroke:black;stroke-width:3.79px;"/>
                        </g>
                        <g transform="matrix(0.81097,0.219607,-0.261381,0.965236,209.429,-1.60059)">
                            <path d="M117.367,117.377C127.109,107.558 138.674,104.044 144.886,101.403C149.111,99.607 158.648,97.483 164.397,95.83C164.687,95.747 170.972,94.254 175.985,93.157" style="fill:none;stroke:black;stroke-width:4.66px;"/>
                        </g>
                    </g>
                    <g transform="matrix(-0.793929,0,0,0.655397,295.621,22.6657)">
                        <g transform="matrix(1,0,0,1,156.258,19.7003)">
                            <path d="M117.367,117.377C127.109,107.558 138.674,104.044 144.886,101.403C149.111,99.607 158.648,97.483 164.397,95.83C164.687,95.747 170.972,94.254 175.985,93.157" style="fill:none;stroke:black;stroke-width:3.4px;"/>
                        </g>
                        <g transform="matrix(0.906146,-0.247911,0.26389,0.964553,136.19,53.0444)">
                            <path d="M117.367,117.377C127.109,107.558 138.674,104.044 144.886,101.403C149.111,99.607 158.648,97.483 164.397,95.83C164.687,95.747 170.972,94.254 175.985,93.157" style="fill:none;stroke:black;stroke-width:3.53px;"/>
                        </g>
                        <g transform="matrix(0.81097,0.219607,-0.261381,0.965236,209.429,-1.60059)">
                            <path d="M117.367,117.377C127.109,107.558 138.674,104.044 144.886,101.403C149.111,99.607 158.648,97.483 164.397,95.83C164.687,95.747 170.972,94.254 175.985,93.157" style="fill:none;stroke:black;stroke-width:3.66px;"/>
                        </g>
                    </g>
                </g>
            </g>
        </g>
    </g>
</svg>
