<?xml version="1.0" encoding="UTF-8" standalone="no"?>
<!DOCTYPE svg PUBLIC "-//W3C//DTD SVG 1.1//EN" "http://www.w3.org/Graphics/SVG/1.1/DTD/svg11.dtd">
<svg viewBox="0 0 480 360" version="1.1" xmlns="http://www.w3.org/2000/svg" xmlns:xlink="http://www.w3.org/1999/xlink" xml:space="preserve" xmlns:serif="http://www.serif.com/" style="fill-rule:evenodd;clip-rule:evenodd;stroke-linecap:round;stroke-linejoin:round;stroke-miterlimit:1.5;">
    <g transform="matrix(1,0,0,1,0,-750)">
        <g id="stamp-rolling3" transform="matrix(0.95056,0,0,1.05875,-0.238701,-44.953)">
            <rect x="0.251" y="750.845" width="504.966" height="340.025" style="fill:none;"/>
            <g id="stamp-rolling31" serif:id="stamp-rolling3" transform="matrix(6.44171e-17,0.944514,-1.05201,5.78348e-17,835.247,575.292)">
                <g id="right-arm" transform="matrix(0.452993,-0.891514,0.891514,0.452993,135.843,638.302)">
                    <path d="M212.641,171.32C204.268,169.598 204.639,190.591 198.085,199.691C193.688,205.795 185.675,212.259 177.749,212.498C172.205,212.665 165.823,210.059 160.386,211.413C156.637,212.347 154.263,218.61 157.941,221.01C163.191,224.434 174.895,224.596 179.974,223.806C190.895,222.109 198.666,216.972 205.452,207.902C208.751,203.492 211.671,197.306 213.283,192.079C214.742,187.347 217.046,180.956 216.193,176.447C215.73,174.003 215.145,171.835 212.641,171.32Z" style="fill:rgb(144,98,39);stroke:black;stroke-width:3px;"/>
                </g>
                <g id="legs" transform="matrix(1,0,0,1.10429,217.365,-40.6997)">
                    <g id="leg" transform="matrix(0.95006,0.282593,-0.312066,0.860332,-42.4076,294.903)">
                        <g transform="matrix(1,0,0,1,37.2481,-2.76441)">
                            <path d="M261.243,250.641C254.936,253.785 258.093,259.844 261.239,264.612C264.646,269.776 268.565,274.161 270.46,280.104C272.331,285.972 271.497,292.578 269.844,298.713C268.218,304.754 263.743,309.996 264.956,315.691C265.562,318.535 270.308,318.91 272.584,317.518C277.576,314.464 279.15,310.394 280.847,306.135C286.989,290.722 284.418,272.871 274.867,259.959C271.779,255.786 265.747,248.396 261.243,250.641Z" style="fill:rgb(144,98,39);stroke:black;stroke-width:3px;"/>
                        </g>
                        <g transform="matrix(0.932411,-0.361401,0.361401,0.932411,-56.9238,118.591)">
                            <path d="M264.339,310.169C264.74,308.793 262.368,309.541 262.064,311.663C261.656,314.506 261.951,318.542 262.184,322.757C262.321,325.218 261.691,328.517 261.796,330.741C261.921,333.397 262.523,336.323 264.118,338.522C267.21,342.786 273.675,342.224 278.227,341.951C281.281,341.768 284.329,341.79 287.386,341.8C292.366,341.816 299.276,343.044 303.584,339.615C310.556,334.066 305.26,324.108 298.677,320.991C295.232,319.36 292.765,318.909 288.809,319.16C287.483,319.244 285.799,319.606 283.826,319.59C283.591,319.589 282.515,319.5 282.321,319.345C280.995,318.286 281.745,316.336 281.475,314.777C281.277,313.631 280.052,310.712 278.817,311.355C273.757,313.989 268.385,313.93 266.214,312.911C265.006,312.343 263.988,311.375 264.339,310.169Z" style="fill:rgb(41,41,41);stroke:black;stroke-width:3px;"/>
                        </g>
                    </g>
                    <g id="leg1" serif:id="leg" transform="matrix(-0.939356,0.310555,0.342944,0.850639,321.552,294.604)">
                        <g transform="matrix(1,0,0,1,37.2481,-2.76441)">
                            <path d="M261.243,250.641C254.936,253.785 258.093,259.844 261.239,264.612C264.646,269.776 268.565,274.161 270.46,280.104C272.331,285.972 271.497,292.578 269.844,298.713C268.218,304.754 263.743,309.996 264.956,315.691C265.562,318.535 270.308,318.91 272.584,317.518C277.576,314.464 279.15,310.394 280.847,306.135C286.989,290.722 284.418,272.871 274.867,259.959C271.779,255.786 265.747,248.396 261.243,250.641Z" style="fill:rgb(144,98,39);stroke:black;stroke-width:3px;"/>
                        </g>
                        <g transform="matrix(0.991019,-0.133719,0.133719,0.991019,-0.4172,35.6231)">
                            <path d="M264.339,310.169C264.74,308.793 262.368,309.541 262.064,311.663C261.656,314.506 261.951,318.542 262.184,322.757C262.321,325.218 261.691,328.517 261.796,330.741C261.921,333.397 262.523,336.323 264.118,338.522C267.21,342.786 273.675,342.224 278.227,341.951C281.281,341.768 284.329,341.79 287.386,341.8C292.366,341.816 299.276,343.044 303.584,339.615C310.556,334.066 305.26,324.108 298.677,320.991C295.232,319.36 292.765,318.909 288.809,319.16C287.483,319.244 285.799,319.606 283.826,319.59C283.591,319.589 282.515,319.5 282.321,319.345C280.995,318.286 281.745,316.336 281.475,314.777C281.277,313.631 280.052,310.712 278.817,311.355C273.757,313.989 268.385,313.93 266.214,312.911C265.006,312.343 263.988,311.375 264.339,310.169Z" style="fill:rgb(41,41,41);stroke:black;stroke-width:3px;"/>
                        </g>
                    </g>
                </g>
                <g id="body" transform="matrix(1,0,0,1,104.751,357.365)">
                    <g transform="matrix(1,0,0,1,113.675,-363.365)">
                        <path d="M145.629,426.103L239.972,425.415C240.037,425.844 240.089,426.306 240.131,426.797L240.258,426.798C240.247,427.307 240.235,427.811 240.223,428.316C240.333,431.126 240.176,434.643 239.863,438.454C239.072,455.502 237.792,468.577 235.269,484.578C233.386,496.523 227.274,505.776 217.908,512.427C209.655,518.286 202.538,521.243 191.676,524.78C188.482,525.819 183.951,527.313 180.816,527.576C180.078,528.36 179.424,529.245 178.876,530.251C171.923,543.008 173.319,557.603 174.697,570.747C175.379,577.249 175.998,583.454 176.729,590.235C178.076,602.725 179.639,612.544 177.145,619.684C173.217,630.934 158.278,634.1 145.629,634.067C132.98,634.1 118.041,630.934 114.112,619.684C111.619,612.544 113.182,602.725 114.529,590.235C115.259,583.454 115.879,577.249 116.56,570.747C117.939,557.603 119.335,543.008 112.382,530.251C111.834,529.245 111.18,528.36 110.442,527.576C107.307,527.313 102.776,525.819 99.582,524.78C88.72,521.243 81.603,518.286 73.35,512.427C63.984,505.776 57.872,496.523 55.989,484.578C53.466,468.577 52.186,455.502 51.395,438.454C51.082,434.643 50.925,431.126 51.035,428.316C51.023,427.811 51.011,427.307 51,426.798L51.127,426.797C51.169,426.306 51.221,425.844 51.286,425.415L145.629,426.103Z" style="fill:rgb(194,152,80);stroke:black;stroke-width:3px;"/>
                    </g>
                    <g transform="matrix(1.04121,0,0,1.31659,31.0271,-19.6267)">
                        <ellipse cx="219" cy="63" rx="91" ry="22" style="fill:rgb(213,29,3);stroke:black;stroke-width:2.53px;"/>
                    </g>
                    <g transform="matrix(0.956044,0,0,1.04545,49.6782,-2.54502)">
                        <ellipse cx="219" cy="63" rx="91" ry="22" style="fill:rgb(203,173,113);stroke:black;stroke-width:2.99px;"/>
                    </g>
                    <g transform="matrix(0.986994,0.160756,-0.160756,0.986994,67.7076,-38.125)">
                        <path d="M248.412,170.06C248.173,171.154 247.838,172.252 247.705,173.498C247.586,174.61 247.576,175.771 247.65,176.923C247.709,177.855 247.877,178.75 248.037,179.65C248.303,181.138 248.645,182.449 248.877,183.764C249.242,182.469 249.631,181.158 249.917,179.662C250.09,178.756 250.253,177.851 250.304,176.91C250.367,175.758 250.338,174.597 250.208,173.486C250.063,172.252 249.724,171.166 249.517,170.075C249.522,169.77 249.277,169.519 248.972,169.515C248.667,169.511 248.416,169.755 248.412,170.06Z" style="fill:rgb(146,106,37);"/>
                    </g>
                    <g transform="matrix(0.986994,0.160756,-0.160756,0.986994,72.6426,-37.3212)">
                        <path d="M240.092,174.143C239.862,174.744 239.516,175.259 239.338,176.008C239.195,176.611 239.146,177.271 239.194,177.918C239.236,178.471 239.385,178.961 239.55,179.473C239.85,180.402 240.19,181.05 240.556,181.764C240.792,181.018 241.124,180.389 241.43,179.488C241.598,178.993 241.776,178.53 241.848,177.997C241.934,177.361 241.936,176.706 241.839,176.101C241.715,175.327 241.414,174.776 241.197,174.159C241.201,173.854 240.957,173.603 240.652,173.599C240.347,173.594 240.096,173.838 240.092,174.143Z" style="fill:rgb(146,106,37);"/>
                    </g>
                    <g transform="matrix(0.997578,0.0695532,-0.0695532,0.997578,44.0288,-14.6271)">
                        <path d="M216.215,192.93C215.858,197.587 215.206,202.208 214.741,206.861C214.248,211.779 213.88,216.705 213.769,221.611C213.72,223.74 213.745,225.865 213.856,227.983C214.264,235.784 215.649,243.452 218.626,250.971C217.018,245.221 216.41,239.492 216.233,233.734C216.108,229.687 216.252,225.644 216.437,221.578C216.622,217.523 216.89,213.455 217.083,209.373C217.342,203.905 217.411,198.432 217.32,192.961C217.328,192.656 217.088,192.401 216.783,192.393C216.478,192.384 216.223,192.625 216.215,192.93Z" style="fill:rgb(146,106,37);"/>
                    </g>
                    <g transform="matrix(0.997578,0.0695532,-0.0408593,0.586031,42.3617,81.0173)">
                        <path d="M216.215,192.9C215.818,198.302 215.267,203.266 214.998,208.322C214.726,213.43 214.647,218.573 214.906,224.051C215.092,227.998 215.503,232.101 216.132,236.506C216.909,241.942 218.081,247.727 219.657,254.294C218.408,244.825 217.952,236.971 217.723,229.868C217.65,227.602 217.596,225.426 217.546,223.303C217.419,217.94 217.479,212.942 217.497,207.91C217.514,203.045 217.411,198.204 217.319,192.99C217.334,192.471 217.098,192.03 216.793,192.005C216.489,191.981 216.23,192.382 216.215,192.9Z" style="fill:rgb(146,106,37);"/>
                    </g>
                    <g transform="matrix(0.999658,0.0261625,-0.0261625,0.999658,33.7194,-5.15671)">
                        <path d="M228.319,215.862C227.882,217.641 227.445,219.4 227.273,221.249C227.106,223.054 227.126,224.889 227.287,226.706C227.416,228.16 227.686,229.585 227.995,231.008C228.466,233.176 229.097,235.224 229.726,237.306C229.719,235.148 229.82,233.028 229.867,230.828C229.897,229.406 229.956,227.997 229.938,226.571C229.916,224.809 229.865,223.05 229.776,221.301C229.683,219.5 229.45,217.763 229.418,215.984C229.452,215.681 229.233,215.408 228.93,215.374C228.627,215.34 228.353,215.559 228.319,215.862Z" style="fill:rgb(146,106,37);"/>
                    </g>
                    <g transform="matrix(0.992137,0.125157,-0.125157,0.992137,68.3908,-44.4801)">
                        <path d="M294.788,112.49C294.647,114.567 294.403,116.629 294.26,118.74C294.121,120.802 294.037,122.875 293.923,124.952C293.832,126.604 293.723,128.257 293.657,129.91C293.557,132.418 293.531,134.899 293.354,137.383C293.203,139.494 293.024,141.56 292.733,143.632C293.789,140.656 294.707,137.643 295.377,134.508C295.82,132.44 296.188,130.355 296.396,128.242C296.655,125.613 296.744,122.96 296.654,120.332C296.562,117.665 296.199,115.06 295.893,112.459C295.885,112.154 295.63,111.914 295.325,111.922C295.02,111.931 294.78,112.185 294.788,112.49Z" style="fill:rgb(146,106,37);"/>
                    </g>
                    <g transform="matrix(1.06976,-0.0876112,0.0816245,0.996663,-72.7942,-109.11)">
                        <path d="M228.357,215.857C227.936,217.637 227.521,219.397 227.359,221.248C227.2,223.056 227.221,224.895 227.378,226.714C227.504,228.17 227.763,229.595 228.06,231.019C228.513,233.184 229.119,235.228 229.726,237.306C229.698,235.147 229.773,233.025 229.802,230.825C229.821,229.403 229.87,227.995 229.848,226.57C229.821,224.809 229.771,223.052 229.69,221.304C229.607,219.505 229.396,217.768 229.38,215.989C229.414,215.686 229.212,215.411 228.93,215.374C228.648,215.338 228.391,215.554 228.357,215.857Z" style="fill:rgb(146,106,37);"/>
                    </g>
                    <g transform="matrix(0.984109,-0.0805963,0.0591511,0.722256,-44.7227,-50.2018)">
                        <path d="M228.315,215.808C227.867,217.601 227.434,219.337 227.257,221.232C227.087,223.062 227.107,224.941 227.273,226.785C227.405,228.263 227.675,229.684 227.989,231.11C228.469,233.282 229.089,235.247 229.726,237.306C229.722,235.103 229.828,233.006 229.877,230.771C229.908,229.348 229.973,227.955 229.955,226.532C229.933,224.79 229.88,223.055 229.791,221.329C229.698,219.524 229.456,217.831 229.422,216.038C229.468,215.622 229.258,215.232 228.953,215.169C228.647,215.106 228.362,215.392 228.315,215.808Z" style="fill:rgb(146,106,37);"/>
                    </g>
                    <g transform="matrix(0.632779,-0.0518232,0.041617,0.508158,44.0476,-8.38589)">
                        <path d="M228.006,215.774C227.41,217.591 226.814,219.258 226.554,221.216C226.309,223.051 226.322,224.96 226.527,226.816C226.693,228.322 227.048,229.724 227.463,231.153C228.107,233.375 228.894,235.227 229.726,237.306C229.899,235.034 230.204,233.019 230.402,230.712C230.525,229.286 230.688,227.922 230.7,226.487C230.714,224.764 230.65,223.042 230.495,221.342C230.327,219.501 229.894,217.895 229.731,216.073C229.797,215.48 229.464,214.932 228.989,214.849C228.513,214.767 228.073,215.181 228.006,215.774Z" style="fill:rgb(146,106,37);"/>
                    </g>
                </g>
                <g id="stamp" transform="matrix(1,0,0.543409,1,-227.728,0.168301)">
                    <g transform="matrix(0.921805,-0.0593325,0.924227,0.866136,112.762,380.115)">
                        <path d="M182.542,42.968C178.88,47.169 177.476,55.434 177.794,61.859C177.918,64.357 177.793,66.6 180.596,67.422C183.595,68.3 187.007,64.949 188.998,63.182C189.209,62.995 192.384,60.109 192.28,59.914C191.902,59.204 187.622,60.614 187.068,60.145C186.735,59.864 187.307,57.822 187.405,57.43C187.962,55.206 188.53,53.127 190.062,51.443C191.256,50.131 194.669,49.764 199.253,50.335C201.718,50.642 200.174,56.04 199.929,58.22C199.287,63.925 197.846,68.87 197.426,74.606C197.287,76.502 197.327,78.196 197.417,80.095C197.423,80.221 197.462,82.016 197.585,82.026C197.96,82.057 199.563,81.293 199.909,81.158C202.581,80.12 204.521,77.953 205.666,75.444C208.82,68.534 210.72,60.847 211.864,53.489C212.763,47.713 213.909,46.431 212.164,44.15C210.478,41.948 207.337,41.307 204.788,41.162C198.258,40.791 184.008,41.286 182.542,42.968Z" style="fill:rgb(213,29,3);stroke:black;stroke-width:1.75px;"/>
                    </g>
                    <g transform="matrix(0.921805,-0.0593325,0.924227,0.866136,112.762,380.115)">
                        <path d="M224.777,44.39C222.555,47.62 226.988,47.511 244.917,49.326C248.596,49.699 252.865,49.871 251.78,54.625C251.488,55.905 246.396,54.959 245.344,54.785C239.522,53.822 233.574,53.088 227.662,53.148C225.235,53.173 221.749,53.577 222.963,56.67C223.886,59.024 228.009,59.391 230.051,59.354C235.352,59.259 241.157,60.003 246.576,61.138C248.02,61.44 250.698,61.778 251.211,63.357C251.325,63.708 250.99,65.4 250.777,65.597C249.265,66.989 247.641,66.493 245.546,66.542C239.631,66.681 232.587,65.105 226.679,64.519C225.65,64.417 221.513,63.969 221.143,65.669C220.975,66.44 220.996,67.457 221.217,68.088C221.977,70.258 224.579,70.802 226.88,71.288C227.809,71.484 228.713,71.655 229.599,71.808C236.048,72.92 241.51,73.049 247.952,74.503C250.277,75.027 257.201,77.081 259.179,74.87C261.739,72.008 261.048,67.525 261.229,63.949C261.394,60.69 261.633,56.826 261.717,53.564C261.74,52.695 261.932,50.174 261.345,49.453C259.283,46.923 255.053,46.166 252.05,45.524C237.715,42.46 225.929,42.715 224.777,44.39Z" style="fill:rgb(213,29,3);stroke:black;stroke-width:1.75px;"/>
                    </g>
                </g>
                <g id="left-arm" transform="matrix(-0.769887,-0.587353,-0.527957,0.692033,581.083,533.018)">
                    <path d="M198.655,169.74C196.386,172.329 196.93,175.387 198.013,180.942C199.144,186.74 199.661,193.672 196.847,198.835C193.216,205.497 185.466,211.64 177.54,211.879C171.995,212.046 165.823,210.059 160.386,211.413C156.637,212.347 154.263,218.61 157.941,221.01C163.191,224.434 174.895,224.596 179.974,223.806C190.895,222.109 196.97,219.134 203.578,209.241C206.637,204.661 209.486,197.749 209.929,192.3C210.469,185.661 208.397,175.921 206.575,171.769C204.476,166.987 200.683,167.425 198.655,169.74Z" style="fill:rgb(144,98,39);stroke:black;stroke-width:3px;"/>
                </g>
                <g id="hands">
                    <path d="M349.53,578.355C347.829,578.355 346.996,577.563 345.048,576.874C343.858,576.453 341.291,576.757 339.597,584.725C338.252,591.055 339.473,598.626 341.581,598.622C345.813,598.614 346.252,597.497 347.39,598.644C348.77,600.035 352.092,602.851 353.587,604.046C356.208,606.14 357.629,606.524 359.405,607.412C372.908,614.163 383.195,604.28 390.273,597.312C391.047,596.55 400.504,580.094 390.184,569.116C388.491,567.315 385.077,569.212 383.228,567.363C382.273,566.408 376.152,566.877 372.92,567.689C371.085,568.15 368.652,568.921 366.75,569.876C365.365,570.571 357.397,568.139 352.823,573.85C351.346,575.694 350.532,577.353 349.53,578.355Z" style="fill:white;stroke:black;stroke-width:3px;"/>
                    <g transform="matrix(0.932157,-0.362053,0.362053,0.932157,136.563,462.691)">
                        <g transform="matrix(1,0,0,1,37.7962,5.99565)">
                            <path d="M160.369,160.376C156.416,161.404 153.317,172.566 150.479,180.512C148.525,185.982 145.934,193.07 153.426,194.874C157.224,195.788 159.482,193.448 161.126,190.817C163.08,187.688 164.536,184.296 165.915,180.891C167.734,176.4 170.342,170.311 169.691,165.461C169.062,160.768 164.415,159.324 160.369,160.376Z" style="fill:rgb(43,43,43);stroke:black;stroke-width:3px;"/>
                        </g>
                        <g transform="matrix(1.10774,0.355956,-0.305928,0.952055,69.9765,-47.1659)">
                            <ellipse cx="164.986" cy="166.249" rx="3.732" ry="2.107" style="fill:rgb(171,0,0);"/>
                        </g>
                    </g>
                    <path d="M372.187,577.859C373.146,576.9 375.786,575.603 376.945,575.021C381.013,572.978 385.41,569.833 390.269,569.7C392.333,569.644 394.379,570.435 394.63,572.72C395.106,577.045 392.159,579.382 389.218,582.143C388.487,582.83 387.658,583.404 386.865,584.018C386.551,584.261 385.514,584.802 385.9,584.714C388.637,584.093 388.343,583.275 391.154,582.982C396.315,582.446 395.095,589.11 391.309,591.518C390.302,592.159 389.229,592.732 388.36,593.552C388.123,593.775 388.999,593.384 389.325,593.391C389.901,593.402 390.497,593.412 391.04,593.605C392.427,594.098 392.235,596.426 391.575,597.301C388.94,600.798 387.321,601.723 383.64,603.872C382.135,604.75 379.364,606.143 377.835,606.978" style="fill:white;stroke:black;stroke-width:3px;"/>
                    <g transform="matrix(1.04024,0,0,1.0496,-15.3182,-33.2422)">
                        <path d="M409.049,591.177C409.258,584.19 404.244,574.409 397.772,567.839C395.543,565.576 390.05,562.075 386.523,564.398C385.037,565.377 384.894,567.287 385.016,568.404C385.509,572.956 387.27,574.938 390.66,577.797C392.078,578.993 393.545,580.835 394.497,582.435C395.343,583.856 395.76,585.124 395.717,584.994C394.613,581.695 389.783,574.169 385.147,578.794C382.769,581.166 385.064,586.223 386.166,587.493C386.786,588.209 387.682,589.939 387.979,590.42C388.374,591.061 384.701,587.853 382.152,590.995C381.256,592.101 380.893,593.087 380.796,593.989C380.263,598.964 382.129,601.386 384.955,605.039C385.734,606.046 388.648,607.836 389.852,608.577C391.883,609.826 395.824,609.99 397.058,609.438C403.794,606.425 408.84,598.165 409.049,591.177Z" style="fill:white;stroke:black;stroke-width:2.87px;"/>
                    </g>
                </g>
                <g id="mouth" transform="matrix(1,0,0,1.10429,233.205,-49.7317)">
                    <g transform="matrix(1,0,0,0.905556,-74.6232,364.564)">
                        <path d="M215.127,153.737C225.398,151.07 235.897,148.96 246.256,146.653C249.092,146.021 251.95,145.303 254.834,144.925C255.437,144.845 257.24,144.458 257.756,144.82C258.453,145.308 256.784,147.977 256.576,148.292C254.467,151.501 250.938,154.096 247.531,155.713C243.106,157.814 237.284,158.778 232.338,158.679C226.706,158.568 220.598,154.981 215.127,153.737Z" style="fill:white;stroke:black;stroke-width:3px;"/>
                    </g>
                    <g transform="matrix(1,0,0,0.905556,-74.6232,364.564)">
                        <path d="M228.851,151.35C228.966,153.396 228.895,155.451 229.121,157.489" style="fill:none;stroke:black;stroke-width:3px;"/>
                    </g>
                    <g transform="matrix(1,0,0,0.905556,-74.6232,364.564)">
                        <path d="M236.853,149.081C237.544,151.88 238.221,154.688 239.065,157.446" style="fill:none;stroke:black;stroke-width:3px;"/>
                    </g>
                    <g transform="matrix(1,0,0,0.905556,-74.6232,364.564)">
                        <path d="M246.637,146.694C247.51,149.123 248.277,151.568 249.3,153.942" style="fill:none;stroke:black;stroke-width:3px;"/>
                    </g>
                </g>
                <g id="eyes" transform="matrix(-0.995738,0.0922265,0.0922265,0.995738,628.214,331.328)">
                    <g transform="matrix(1,0,0,1,34.9334,0.700062)">
                        <path d="M232.315,126.206C230.145,122.023 246.605,114.789 252.837,111.689C258.561,108.842 264.401,106.067 270.29,103.679C273.957,102.191 292.258,93.561 292.996,100.263C293.186,101.985 293.414,104.846 293.349,106.577C293.214,110.202 293.155,112.57 292.557,116.149C292.004,119.463 290.72,123.416 288.86,126.263C285.151,131.936 278.716,134.4 272.638,136.617C257.734,142.053 239.207,139.491 232.315,126.206Z" style="fill:rgb(255,255,12);stroke:black;stroke-width:3px;"/>
                    </g>
                    <g transform="matrix(1,1.38778e-17,-2.86818e-17,1.06674,34.3546,-6.58775)">
                        <path d="M255.722,111.577C255.482,114.736 255.68,116.481 256.175,119.626C257.182,126.035 265.18,131.664 270.852,126.38C276.724,120.91 277.252,109.988 273.35,103.251C273.35,103.251 268.498,105.128 264.35,107.122C259.365,109.518 255.722,111.577 255.722,111.577Z" style="fill:rgb(144,0,4);stroke:black;stroke-width:2.9px;"/>
                    </g>
                    <g transform="matrix(0.821492,4.16334e-17,4.16334e-17,1,65.0154,-3.31655)">
                        <path d="M144.677,102.448C147.612,114.754 150.833,128.344 160.916,136.984C166.346,141.637 175.034,143.861 181.972,142.011C186.17,140.892 189.997,138.375 193.313,135.645C195.573,133.785 198.661,131.421 199.777,128.579C200.01,127.985 198.056,126.135 197.66,125.782C194.862,123.296 191.471,121.572 188.191,119.824C180.01,115.466 173.263,112.121 164.651,108.685C158.837,106.365 151.017,102.725 144.677,102.448Z" style="fill:rgb(255,255,12);stroke:black;stroke-width:3.28px;"/>
                    </g>
                    <g transform="matrix(0.821492,1.38778e-17,-0.0324785,0.939308,75.5959,7.69174)">
                        <path d="M157.794,105.743C159.152,111.804 160.658,117.869 163.592,123.339C164.796,125.584 167.022,128.942 169.021,130.595C169.924,131.342 170.968,131.936 172.077,132.317C176.08,133.691 178.725,131.508 179.851,127.626C181.006,123.647 179.899,119.067 178.747,115.195C178.747,115.195 173.739,112.798 169.454,110.918C164.331,108.669 157.794,105.743 157.794,105.743Z" style="fill:rgb(144,0,4);stroke:black;stroke-width:3.46px;"/>
                    </g>
                </g>
            </g>
        </g>
    </g>
</svg>
