<?xml version="1.0" encoding="UTF-8" standalone="no"?>
<!DOCTYPE svg PUBLIC "-//W3C//DTD SVG 1.1//EN" "http://www.w3.org/Graphics/SVG/1.1/DTD/svg11.dtd">
<svg viewBox="0 0 150 40" version="1.1" xmlns="http://www.w3.org/2000/svg" xmlns:xlink="http://www.w3.org/1999/xlink" xml:space="preserve" xmlns:serif="http://www.serif.com/" style="fill-rule:evenodd;clip-rule:evenodd;stroke-linecap:round;stroke-linejoin:round;stroke-miterlimit:1.5;">
    <g transform="matrix(1,0,0,1,-1000,-148)">
        <g transform="matrix(0.60241,0,0,0.909091,909.036,-197.455)">
            <rect id="stamp-collecting-hp-gauge" x="151" y="380" width="249" height="44" style="fill:none;"/>
            <clipPath id="_clip1">
                <rect id="stamp-collecting-hp-gauge1" serif:id="stamp-collecting-hp-gauge" x="151" y="380" width="249" height="44"/>
            </clipPath>
            <g clip-path="url(#_clip1)">
                <g id="red" transform="matrix(1.10667,0,0,0.825,264.721,387.7)">
                    <g transform="matrix(1.5,0,0,1.33333,-329.26,-516)">
                        <path d="M185.518,413.75C181.872,417.598 176.714,420 171,420C159.962,420 151,411.038 151,400C151,388.962 159.962,380 171,380C176.714,380 181.872,382.402 185.518,386.25L294.125,386.25C297.919,386.25 301,389.331 301,393.125L301,406.875C301,410.669 297.919,413.75 294.125,413.75L185.518,413.75ZM292,393L192,393L192,407L292,407L292,393Z" style="fill:rgb(255,218,229);"/>
                        <path d="M185.518,413.75C181.872,417.598 176.714,420 171,420C159.962,420 151,411.038 151,400C151,388.962 159.962,380 171,380C176.714,380 181.872,382.402 185.518,386.25L294.125,386.25C297.919,386.25 301,389.331 301,393.125L301,406.875C301,410.669 297.919,413.75 294.125,413.75L185.518,413.75ZM294.125,411.75C296.816,411.75 299,409.566 299,406.875L299,393.125C299,390.434 296.816,388.25 294.125,388.25L184.658,388.25L184.067,387.626C180.785,384.162 176.143,382 171,382C161.066,382 153,390.066 153,400C153,409.934 161.066,418 171,418C176.143,418 180.785,415.838 184.067,412.374L184.658,411.75L294.125,411.75ZM294,409L190,409L190,391L294,391L294,409ZM292,393L192,393L192,407L292,407L292,393Z" style="fill:rgb(255,159,202);"/>
                    </g>
                    <g transform="matrix(0.281757,0,0,0.296285,-379.532,-5.87674)">
                        <g id="body" transform="matrix(0.886578,0,0,0.749428,859.393,-3.0346)">
                            <g transform="matrix(1.6416,-0.219396,0.377365,2.82357,-1534.33,79.2141)">
                                <ellipse cx="1073" cy="122" rx="15" ry="2" style="fill:rgb(194,152,80);"/>
                            </g>
                            <g transform="matrix(1.59497,0,0,1.59497,-1437.5,-3.92561)">
                                <path d="M1056.64,122.749C1056.7,118.788 1056.08,114.743 1054.59,110.975C1051.81,103.96 1046.23,105.732 1040.77,105.16C1034.35,104.487 1025.46,102.856 1019.97,99.182C1013.74,95.013 1011.37,85.859 1010.12,78.89C1007.91,66.581 1005.82,56.586 1004.27,42.232L1123.09,41.365C1124.12,45.737 1123.69,55.521 1123.29,62.555C1122.58,74.937 1123.96,85.387 1113.69,95.831C1111.16,98.398 1107,100.214 1103.48,100.939C1099.03,101.854 1092.66,102.311 1090.46,107.094C1088.78,110.774 1088.22,114.698 1088.26,118.665" style="fill:rgb(194,152,80);stroke:black;stroke-width:2px;"/>
                            </g>
                            <g transform="matrix(1.04121,0,0,1.31659,31.0271,-19.6267)">
                                <ellipse cx="219" cy="63" rx="91" ry="22" style="fill:rgb(213,29,3);stroke:black;stroke-width:2.53px;"/>
                            </g>
                            <g transform="matrix(0.956044,0,0,1.04545,49.6782,-2.54502)">
                                <ellipse cx="219" cy="63" rx="91" ry="22" style="fill:rgb(203,173,113);stroke:black;stroke-width:2.99px;"/>
                            </g>
                            <g transform="matrix(1,0,0,1,38.872,-0.827921)">
                                <path d="M299.826,101.641C299.805,101.336 300.034,101.072 300.339,101.05C300.643,101.029 300.907,101.259 300.929,101.563C301.459,105.593 302.071,109.7 302.197,113.85C302.324,118.024 301.955,122.194 301.387,126.249C300.962,128.402 300.421,130.504 299.784,132.594C298.84,135.693 297.734,138.712 296.762,141.81C297.24,138.606 297.823,135.454 298.313,132.258C298.635,130.161 298.915,128.072 299.051,125.945C299.417,122.775 299.496,119.539 299.569,116.289C299.624,113.858 299.644,111.422 299.677,108.994C299.71,106.516 299.812,104.072 299.826,101.641Z" style="fill:rgb(146,106,37);"/>
                            </g>
                            <g transform="matrix(1,0,0,1,39.0518,0.318615)">
                                <path d="M294.788,112.49C294.78,112.185 295.02,111.931 295.325,111.922C295.63,111.914 295.885,112.154 295.893,112.459C296.199,115.06 296.562,117.665 296.654,120.332C296.744,122.96 296.655,125.613 296.396,128.242C296.188,130.355 295.82,132.44 295.377,134.508C294.707,137.643 293.789,140.656 292.733,143.632C293.024,141.56 293.203,139.494 293.354,137.383C293.531,134.899 293.557,132.418 293.657,129.91C293.723,128.257 293.832,126.604 293.923,124.952C294.037,122.875 294.121,120.802 294.26,118.74C294.403,116.629 294.647,114.567 294.788,112.49Z" style="fill:rgb(146,106,37);"/>
                            </g>
                            <g transform="matrix(1.12078,0,0,0.837477,7.68146,26.882)">
                                <path d="M253.3,162.172C253.264,161.815 253.452,161.487 253.719,161.439C253.986,161.392 254.232,161.644 254.267,162.001C254.75,164.71 255.274,167.442 255.528,170.3C255.776,173.087 255.747,175.932 255.746,178.755C255.628,180.555 255.466,182.557 255.202,184.595C254.81,187.628 254.26,190.637 253.777,193.143L253.465,178.748L253.3,162.172Z" style="fill:rgb(146,106,37);"/>
                            </g>
                            <g transform="matrix(1,0,0,1,39.0518,0.318615)">
                                <path d="M248.412,170.06C248.416,169.755 248.667,169.511 248.972,169.515C249.277,169.519 249.522,169.77 249.517,170.075C249.724,171.166 250.063,172.252 250.208,173.486C250.338,174.597 250.367,175.758 250.304,176.91C250.253,177.851 250.09,178.756 249.917,179.662C249.631,181.158 249.242,182.469 248.877,183.764C248.645,182.449 248.303,181.138 248.037,179.65C247.877,178.75 247.709,177.855 247.65,176.923C247.576,175.771 247.586,174.61 247.705,173.498C247.838,172.252 248.173,171.154 248.412,170.06Z" style="fill:rgb(146,106,37);"/>
                            </g>
                            <g transform="matrix(1,0,0,1,39.0518,0.318615)">
                                <path d="M240.092,174.143C240.096,173.838 240.347,173.594 240.652,173.599C240.957,173.603 241.201,173.854 241.197,174.159C241.414,174.776 241.715,175.327 241.839,176.101C241.936,176.706 241.934,177.361 241.848,177.997C241.776,178.53 241.598,178.993 241.43,179.488C241.124,180.389 240.792,181.018 240.556,181.764C240.19,181.05 239.85,180.402 239.55,179.473C239.385,178.961 239.236,178.471 239.194,177.918C239.146,177.271 239.195,176.611 239.338,176.008C239.516,175.259 239.862,174.744 240.092,174.143Z" style="fill:rgb(146,106,37);"/>
                            </g>
                            <g transform="matrix(1.06976,-0.0876112,0.0816245,0.996663,-87.7942,-111.11)">
                                <path d="M228.357,215.857C228.391,215.554 228.648,215.338 228.93,215.374C229.212,215.411 229.414,215.686 229.38,215.989C229.396,217.768 229.607,219.505 229.69,221.304C229.771,223.052 229.821,224.809 229.848,226.57C229.87,227.995 229.821,229.403 229.802,230.825C229.773,233.026 229.698,235.147 229.726,237.306C229.119,235.228 228.513,233.184 228.06,231.019C227.763,229.595 227.504,228.17 227.378,226.714C227.221,224.895 227.2,223.056 227.359,221.248C227.521,219.397 227.936,217.637 228.357,215.857Z" style="fill:rgb(146,106,37);"/>
                            </g>
                            <g transform="matrix(0.984109,-0.0805963,0.0591511,0.722256,-59.7227,-51.2018)">
                                <path d="M228.315,215.808C228.362,215.392 228.647,215.106 228.953,215.169C229.258,215.232 229.468,215.622 229.422,216.038C229.456,217.831 229.698,219.524 229.791,221.329C229.88,223.055 229.933,224.79 229.955,226.532C229.973,227.955 229.908,229.348 229.877,230.771C229.828,233.006 229.722,235.103 229.726,237.306C229.089,235.247 228.469,233.282 227.989,231.11C227.675,229.684 227.405,228.263 227.273,226.785C227.107,224.941 227.087,223.062 227.257,221.232C227.434,219.337 227.867,217.601 228.315,215.808Z" style="fill:rgb(146,106,37);"/>
                            </g>
                            <g transform="matrix(0.632779,-0.0518232,0.041617,0.508158,29.0476,-9.38589)">
                                <path d="M228.006,215.774C228.073,215.181 228.513,214.767 228.989,214.849C229.464,214.932 229.797,215.48 229.731,216.073C229.894,217.895 230.327,219.501 230.495,221.342C230.65,223.042 230.714,224.764 230.7,226.487C230.688,227.922 230.525,229.286 230.402,230.712C230.204,233.019 229.899,235.034 229.726,237.306C228.894,235.227 228.107,233.375 227.463,231.153C227.048,229.724 226.693,228.322 226.527,226.816C226.322,224.96 226.309,223.051 226.554,221.216C226.814,219.258 227.41,217.591 228.006,215.774Z" style="fill:rgb(146,106,37);"/>
                            </g>
                        </g>
                        <g transform="matrix(0.886578,0,0,0.749428,894.016,-2.79582)">
                            <path d="M215.127,153.737C225.398,151.07 235.897,148.96 246.256,146.653C249.092,146.021 251.95,145.303 254.834,144.925C255.437,144.845 257.24,144.458 257.756,144.82C258.453,145.308 256.784,147.977 256.576,148.292C254.467,151.501 250.938,154.096 247.531,155.713C243.106,157.814 237.284,158.778 232.338,158.679C226.706,158.568 220.598,154.981 215.127,153.737Z" style="fill:white;stroke:black;stroke-width:3px;"/>
                        </g>
                        <g transform="matrix(0.886578,0,0,0.749428,894.016,-2.79582)">
                            <path d="M228.851,151.35C228.966,153.396 228.895,155.451 229.121,157.489" style="fill:none;stroke:black;stroke-width:3px;"/>
                        </g>
                        <g transform="matrix(0.886578,0,0,0.749428,894.016,-2.79582)">
                            <path d="M236.853,149.081C237.544,151.88 238.221,154.688 239.065,157.446" style="fill:none;stroke:black;stroke-width:3px;"/>
                        </g>
                        <g transform="matrix(0.886578,0,0,0.749428,894.016,-2.79582)">
                            <path d="M246.637,146.694C247.51,149.123 248.277,151.568 249.3,153.942" style="fill:none;stroke:black;stroke-width:3px;"/>
                        </g>
                        <g id="eyes1" transform="matrix(0.886578,0,0,0.749428,859.393,-3.0346)">
                            <g transform="matrix(1,0,0,1,39.0518,0.318615)">
                                <path d="M232.315,126.206C230.145,122.023 246.605,114.789 252.837,111.689C258.561,108.842 264.401,106.067 270.29,103.679C273.957,102.191 292.258,93.561 292.996,100.263C293.186,101.985 293.414,104.846 293.349,106.577C293.214,110.202 293.155,112.57 292.557,116.149C292.004,119.463 290.72,123.416 288.86,126.263C285.151,131.936 278.716,134.4 272.638,136.617C257.734,142.053 239.207,139.491 232.315,126.206Z" style="fill:rgb(255,255,12);stroke:black;stroke-width:3px;"/>
                            </g>
                            <g transform="matrix(1,0,0,1,30.3421,3.61026)">
                                <path d="M255.722,111.577C255.482,114.736 255.68,116.481 256.175,119.626C257.182,126.035 265.18,131.664 270.852,126.38C276.724,120.91 277.252,109.988 273.35,103.251C273.35,103.251 268.498,105.128 264.35,107.122C259.365,109.518 255.722,111.577 255.722,111.577Z" style="fill:rgb(144,0,4);stroke:black;stroke-width:3px;"/>
                            </g>
                            <g transform="matrix(1,0,0,1,39.0518,0.318615)">
                                <path d="M144.677,102.448C147.612,114.754 150.833,128.344 160.916,136.984C166.346,141.637 175.034,143.861 181.972,142.011C186.17,140.892 189.997,138.375 193.313,135.645C195.573,133.785 198.661,131.421 199.777,128.579C200.01,127.985 198.056,126.135 197.66,125.782C194.862,123.296 191.471,121.572 188.191,119.824C180.01,115.466 173.263,112.121 164.651,108.685C158.837,106.365 151.017,102.725 144.677,102.448Z" style="fill:rgb(255,255,12);stroke:black;stroke-width:3px;"/>
                            </g>
                            <g transform="matrix(1,0,0,1,39.0518,0.318615)">
                                <path d="M158.059,106.906C159.417,112.967 160.658,117.869 163.592,123.339C164.796,125.584 167.022,128.942 169.021,130.595C169.924,131.342 170.968,131.936 172.077,132.317C176.08,133.691 178.725,131.508 179.851,127.626C181.006,123.647 179.899,119.067 178.747,115.195C178.747,115.195 173.739,112.798 169.454,110.918C164.331,108.669 158.059,106.906 158.059,106.906Z" style="fill:rgb(144,0,4);stroke:black;stroke-width:3px;"/>
                            </g>
                        </g>
                        <g id="stamp" transform="matrix(0.886578,0,0,0.749428,859.393,-3.0346)">
                            <g transform="matrix(1,0,0,1,38.1499,1.78878)">
                                <path d="M182.542,42.968C178.88,47.169 177.476,55.434 177.794,61.859C177.918,64.357 177.793,66.6 180.596,67.422C183.595,68.3 187.007,64.949 188.998,63.182C189.209,62.995 192.384,60.109 192.28,59.914C191.902,59.204 187.622,60.614 187.068,60.145C186.735,59.864 187.307,57.822 187.405,57.43C187.962,55.206 188.53,53.127 190.062,51.443C191.256,50.131 194.669,49.764 199.253,50.335C201.718,50.642 200.174,56.04 199.929,58.22C199.287,63.925 197.846,68.87 197.426,74.606C197.287,76.502 197.327,78.196 197.417,80.095C197.423,80.221 197.462,82.016 197.585,82.026C197.96,82.057 199.563,81.293 199.909,81.158C202.581,80.12 204.521,77.953 205.666,75.444C208.82,68.534 210.72,60.847 211.864,53.489C212.763,47.713 213.909,46.431 212.164,44.15C210.478,41.948 207.337,41.307 204.788,41.162C198.258,40.791 184.008,41.286 182.542,42.968Z" style="fill:rgb(213,29,3);stroke:black;stroke-width:3px;"/>
                            </g>
                            <g transform="matrix(1,0,0,1,38.1499,1.78878)">
                                <path d="M224.777,44.39C222.555,47.62 226.988,47.511 244.917,49.326C248.596,49.699 252.865,49.871 251.78,54.625C251.488,55.905 246.396,54.959 245.344,54.785C239.522,53.822 233.574,53.088 227.662,53.148C225.235,53.173 221.749,53.577 222.963,56.67C223.886,59.024 228.009,59.391 230.051,59.354C235.352,59.259 241.157,60.003 246.576,61.138C248.02,61.44 250.698,61.778 251.211,63.357C251.325,63.708 250.99,65.4 250.777,65.597C249.265,66.989 247.641,66.493 245.546,66.542C239.631,66.681 232.587,65.105 226.679,64.519C225.65,64.417 221.513,63.969 221.143,65.669C220.975,66.44 220.996,67.457 221.217,68.088C221.977,70.258 224.579,70.802 226.88,71.288C234.565,72.91 240.625,72.849 247.952,74.503C250.277,75.027 257.201,77.081 259.179,74.87C261.739,72.008 261.048,67.525 261.229,63.949C261.394,60.69 261.633,56.826 261.717,53.564C261.74,52.695 261.932,50.174 261.345,49.453C259.283,46.923 255.053,46.166 252.05,45.524C237.715,42.46 225.929,42.715 224.777,44.39Z" style="fill:rgb(213,29,3);stroke:black;stroke-width:3px;"/>
                            </g>
                        </g>
                    </g>
                </g>
            </g>
        </g>
    </g>
</svg>
