<?xml version="1.0" encoding="UTF-8" standalone="no"?>
<!DOCTYPE svg PUBLIC "-//W3C//DTD SVG 1.1//EN" "http://www.w3.org/Graphics/SVG/1.1/DTD/svg11.dtd">
<svg viewBox="0 0 480 360" version="1.1" xmlns="http://www.w3.org/2000/svg" xmlns:xlink="http://www.w3.org/1999/xlink" xml:space="preserve" xmlns:serif="http://www.serif.com/" style="fill-rule:evenodd;clip-rule:evenodd;stroke-linejoin:round;stroke-miterlimit:2;">
    <g transform="matrix(1,0,0,1,0,-750)">
        <g id="tornado2" transform="matrix(0.95056,0,0,1.05875,-0.238701,-44.953)">
            <rect x="0.251" y="750.845" width="504.966" height="340.025" style="fill:none;"/>
            <g id="tornado21" serif:id="tornado2">
            </g>
            <g id="tornade2" transform="matrix(6.44171e-17,0.944514,-1.05201,5.78348e-17,830.885,753.568)">
                <g id="wind" transform="matrix(-2.99116,-0.228283,-0.289761,0.345119,1000.79,514.114)">
                    <path d="M207.5,570.318C199.497,570.318 193,594.892 193,625.159C193,655.427 199.497,680 207.5,680C201.498,675.43 196.625,652.43 196.625,625.159C196.625,597.889 201.498,574.888 207.5,570.318Z" style="fill:rgb(215,215,215);"/>
                </g>
                <g id="wind1" serif:id="wind" transform="matrix(-2.07875,-2.19869,-1.15071,0.189685,1332.05,953.455)">
                    <path d="M207.5,570.318C199.497,570.318 193,594.892 193,625.159C193,655.427 199.497,680 207.5,680C201.498,675.43 196.625,652.43 196.625,625.159C196.625,597.889 201.498,574.888 207.5,570.318Z" style="fill:rgb(215,215,215);"/>
                </g>
                <g id="wind2" serif:id="wind" transform="matrix(2.32276,0.0530005,0.165984,-0.325934,-461.01,856.362)">
                    <path d="M207.5,570.318C199.497,570.318 193,594.892 193,625.159C193,655.427 199.497,680 207.5,680C201.498,675.43 196.625,652.43 196.625,625.159C196.625,597.889 201.498,574.888 207.5,570.318Z" style="fill:rgb(215,215,215);"/>
                </g>
                <g id="wind3" serif:id="wind" transform="matrix(-4.23132,-0.262986,-0.478419,0.623327,1389.63,230.648)">
                    <path d="M207.5,570.318C199.497,570.318 193,594.892 193,625.159C193,655.427 199.497,680 207.5,680C201.498,675.43 196.625,652.43 196.625,625.159C196.625,597.889 201.498,574.888 207.5,570.318Z" style="fill:rgb(215,215,215);"/>
                </g>
                <g id="wind4" serif:id="wind" transform="matrix(3.12722,0.058111,0.205045,-0.530722,-663.398,876.216)">
                    <path d="M207.5,570.318C199.497,570.318 193,594.892 193,625.159C193,655.427 199.497,680 207.5,680C201.498,675.43 196.625,652.43 196.625,625.159C196.625,597.889 201.498,574.888 207.5,570.318Z" style="fill:rgb(215,215,215);"/>
                </g>
            </g>
        </g>
    </g>
</svg>
