<?xml version="1.0" encoding="UTF-8" standalone="no"?>
<!DOCTYPE svg PUBLIC "-//W3C//DTD SVG 1.1//EN" "http://www.w3.org/Graphics/SVG/1.1/DTD/svg11.dtd">
<svg viewBox="0 0 336 48" version="1.1" xmlns="http://www.w3.org/2000/svg" xmlns:xlink="http://www.w3.org/1999/xlink" xml:space="preserve" xmlns:serif="http://www.serif.com/" style="fill-rule:evenodd;clip-rule:evenodd;stroke-linejoin:round;stroke-miterlimit:2;">
    <g transform="matrix(1,0,0,1,-72,-93)">
        <g transform="matrix(1.16981,0,0,1.00101,-1166.64,-2.802)">
            <g id="game-over" transform="matrix(0.854837,0,0,0.998994,991.744,1.80019)">
                <g transform="matrix(1,0,0,1,157.88,30)">
                    <path d="M-44.626,68.024C-43.986,67.704 -43.338,67.656 -42.682,67.88C-42.026,68.104 -41.522,68.536 -41.17,69.176C-41.01,69.464 -40.786,69.888 -40.498,70.448C-40.21,71.008 -39.986,71.432 -39.826,71.72C-39.506,72.36 -39.458,73.008 -39.682,73.664C-39.906,74.32 -40.338,74.792 -40.978,75.08C-41.586,75.368 -42.218,75.4 -42.874,75.176C-43.53,74.952 -44.018,74.536 -44.338,73.928C-44.498,73.64 -44.722,73.216 -45.01,72.656C-45.298,72.096 -45.522,71.672 -45.682,71.384C-46.002,70.776 -46.058,70.144 -45.85,69.488C-45.642,68.832 -45.234,68.344 -44.626,68.024ZM-33.826,68.456C-33.666,68.776 -32.61,70.888 -32.482,71.144C-32.162,71.784 -32.114,72.424 -32.338,73.064C-32.562,73.704 -32.994,74.184 -33.634,74.504C-34.274,74.824 -34.922,74.872 -35.578,74.648C-36.234,74.424 -36.738,73.992 -37.09,73.352C-37.378,72.776 -37.842,71.912 -38.482,70.76C-38.802,70.12 -38.858,69.472 -38.65,68.816C-38.442,68.16 -38.018,67.672 -37.378,67.352C-36.738,67.032 -36.066,66.984 -35.362,67.208C-34.658,67.432 -34.146,67.848 -33.826,68.456ZM-74.626,91.256C-75.234,90.84 -75.602,90.28 -75.73,89.576C-75.858,88.872 -75.698,88.216 -75.25,87.608C-72.05,83.064 -69.922,77.88 -68.866,72.056C-68.706,71.288 -68.338,70.672 -67.762,70.208C-67.186,69.744 -66.514,69.528 -65.746,69.56L-64.93,69.56C-64.194,69.624 -63.586,69.944 -63.106,70.52C-62.626,71.096 -62.45,71.752 -62.578,72.488C-62.77,73.8 -63.01,75.048 -63.298,76.232C-63.362,76.488 -63.25,76.616 -62.962,76.616L-37.714,76.616C-36.978,76.616 -36.346,76.88 -35.818,77.408C-35.29,77.936 -35.026,78.568 -35.026,79.304L-35.026,79.64C-35.026,80.376 -35.29,81.016 -35.818,81.56C-36.346,82.104 -36.978,82.376 -37.714,82.376L-45.49,82.376C-45.746,82.376 -45.874,82.488 -45.874,82.712C-45.906,90.392 -47.314,96.288 -50.098,100.4C-52.882,104.512 -57.25,107.32 -63.202,108.824C-63.938,109.016 -64.634,108.904 -65.29,108.488C-65.946,108.072 -66.37,107.496 -66.562,106.76L-66.658,106.424C-66.85,105.72 -66.754,105.056 -66.37,104.432C-65.986,103.808 -65.426,103.4 -64.69,103.208C-60.37,102.024 -57.258,99.872 -55.354,96.752C-53.45,93.632 -52.482,88.968 -52.45,82.76C-52.45,82.504 -52.594,82.376 -52.882,82.376L-64.786,82.376C-65.074,82.376 -65.266,82.488 -65.362,82.712C-66.578,85.56 -68.162,88.28 -70.114,90.872C-70.594,91.512 -71.218,91.896 -71.986,92.024C-72.754,92.152 -73.474,91.992 -74.146,91.544L-74.626,91.256Z" style="fill:rgb(179,179,179);fill-rule:nonzero;"/>
                    <path d="M-59.716,73.616L-47.891,73.616C-48.059,73.292 -48.197,73.034 -48.304,72.841C-48.315,72.821 -48.326,72.801 -48.336,72.781C-49.045,71.434 -49.17,70.034 -48.709,68.581C-48.253,67.142 -47.357,66.071 -46.023,65.369C-46.004,65.36 -45.986,65.35 -45.967,65.341C-44.567,64.64 -43.148,64.551 -41.712,65.041C-41.181,65.222 -40.695,65.467 -40.256,65.776C-39.831,65.339 -39.32,64.969 -38.719,64.669C-37.364,63.991 -35.943,63.875 -34.452,64.349C-32.938,64.831 -31.859,65.751 -31.171,67.059C-31.161,67.077 -31.152,67.096 -31.142,67.114L-29.798,69.802C-29.09,71.219 -29.01,72.638 -29.506,74.055C-29.991,75.44 -30.907,76.495 -32.292,77.187C-32.327,77.205 -32.363,77.222 -32.398,77.239C-32.149,77.878 -32.026,78.567 -32.026,79.304L-32.026,79.64C-32.026,81.175 -32.564,82.515 -33.665,83.649C-34.791,84.809 -36.144,85.376 -37.714,85.376L-42.941,85.376C-43.281,92.505 -44.891,98.061 -47.613,102.082C-50.778,106.756 -55.696,110.021 -62.461,111.731C-64.023,112.134 -65.503,111.905 -66.896,111.022C-68.207,110.19 -69.053,109.039 -69.449,107.577C-69.454,107.557 -69.459,107.537 -69.465,107.517L-69.54,107.258L-66.658,109.424L-69.552,107.213C-69.972,105.675 -69.764,104.223 -68.925,102.86C-68.132,101.571 -66.987,100.713 -65.454,100.307C-61.99,99.352 -59.443,97.695 -57.914,95.189C-56.503,92.876 -55.75,89.59 -55.523,85.376L-63.274,85.376C-64.477,87.905 -65.956,90.338 -67.715,92.674C-68.682,93.962 -69.945,94.725 -71.492,94.983C-73.002,95.235 -74.422,94.944 -75.742,94.085L-76.169,93.828C-76.22,93.798 -76.27,93.766 -76.32,93.732C-77.627,92.838 -78.406,91.626 -78.681,90.113C-78.957,88.595 -78.644,87.173 -77.68,85.849C-74.739,81.662 -72.79,76.883 -71.818,71.521C-71.813,71.495 -71.808,71.47 -71.803,71.444C-71.492,69.955 -70.761,68.771 -69.644,67.872C-68.51,66.958 -67.194,66.512 -65.692,66.56L-64.93,66.56C-64.843,66.56 -64.756,66.564 -64.67,66.571C-63.11,66.707 -61.818,67.379 -60.801,68.599C-59.737,69.877 -59.343,71.33 -59.612,72.939C-59.645,73.166 -59.68,73.392 -59.716,73.616ZM-44.626,68.024C-45.234,68.344 -45.642,68.832 -45.85,69.488C-46.058,70.144 -46.002,70.776 -45.682,71.384C-45.522,71.672 -45.298,72.096 -45.01,72.656C-44.722,73.216 -44.498,73.64 -44.338,73.928C-44.018,74.536 -43.53,74.952 -42.874,75.176C-42.218,75.4 -41.586,75.368 -40.978,75.08C-40.338,74.792 -39.906,74.32 -39.682,73.664C-39.458,73.008 -39.506,72.36 -39.826,71.72C-39.986,71.432 -40.21,71.008 -40.498,70.448C-40.786,69.888 -41.01,69.464 -41.17,69.176C-41.522,68.536 -42.026,68.104 -42.682,67.88C-43.338,67.656 -43.986,67.704 -44.626,68.024ZM-33.826,68.456C-34.146,67.848 -34.658,67.432 -35.362,67.208C-36.066,66.984 -36.738,67.032 -37.378,67.352C-38.018,67.672 -38.442,68.16 -38.65,68.816C-38.858,69.472 -38.802,70.12 -38.482,70.76C-37.842,71.912 -37.378,72.776 -37.09,73.352C-36.738,73.992 -36.234,74.424 -35.578,74.648C-34.922,74.872 -34.274,74.824 -33.634,74.504C-32.994,74.184 -32.562,73.704 -32.338,73.064C-32.114,72.424 -32.162,71.784 -32.482,71.144L-33.826,68.456ZM-35.795,81.537L-35.026,82.304L-35.794,81.536C-35.282,80.997 -35.026,80.365 -35.026,79.64L-35.026,79.304C-35.026,78.568 -35.29,77.936 -35.818,77.408C-36.346,76.88 -36.978,76.616 -37.714,76.616L-62.962,76.616C-63.25,76.616 -63.362,76.488 -63.298,76.232C-63.01,75.048 -62.77,73.8 -62.578,72.488C-62.45,71.752 -62.626,71.096 -63.106,70.52C-63.586,69.944 -64.194,69.624 -64.93,69.56L-65.746,69.56C-66.514,69.528 -67.186,69.744 -67.762,70.208C-68.338,70.672 -68.706,71.288 -68.866,72.056C-69.922,77.88 -72.05,83.064 -75.25,87.608C-75.698,88.216 -75.858,88.872 -75.73,89.576C-75.602,90.28 -75.234,90.84 -74.626,91.256L-74.146,91.544C-73.474,91.992 -72.754,92.152 -71.986,92.024C-71.218,91.896 -70.594,91.512 -70.114,90.872C-68.162,88.28 -66.578,85.56 -65.362,82.712C-65.266,82.488 -65.074,82.376 -64.786,82.376L-52.882,82.376C-52.594,82.376 -52.45,82.504 -52.45,82.76C-52.482,88.968 -53.45,93.632 -55.354,96.752C-57.258,99.872 -60.37,102.024 -64.69,103.208C-65.426,103.4 -65.986,103.808 -66.37,104.432C-66.754,105.056 -66.85,105.72 -66.658,106.424L-66.562,106.76C-66.37,107.496 -65.946,108.072 -65.29,108.488C-64.634,108.904 -63.938,109.016 -63.202,108.824C-57.25,107.32 -52.882,104.512 -50.098,100.4C-47.314,96.288 -45.906,90.392 -45.874,82.712C-45.874,82.488 -45.746,82.376 -45.49,82.376L-37.714,82.376C-36.978,82.376 -36.346,82.104 -35.818,81.56C-35.81,81.552 -35.803,81.545 -35.795,81.537Z" style="fill:rgb(179,179,179);"/>
                    <path d="M-23.986,92.936C-24.722,92.936 -25.354,92.664 -25.882,92.12C-26.41,91.576 -26.674,90.936 -26.674,90.2L-26.674,89.24C-26.674,88.504 -26.41,87.864 -25.882,87.32C-25.354,86.776 -24.722,86.504 -23.986,86.504L10.286,86.504C11.022,86.504 11.654,86.776 12.182,87.32C12.71,87.864 12.974,88.504 12.974,89.24L12.974,90.2C12.974,90.936 12.71,91.576 12.182,92.12C11.654,92.664 11.022,92.936 10.286,92.936L-23.986,92.936Z" style="fill:rgb(179,179,179);fill-rule:nonzero;"/>
                    <path d="M-23.986,95.936C-25.555,95.936 -26.909,95.369 -28.034,94.209C-29.136,93.075 -29.674,91.735 -29.674,90.2L-29.674,89.24C-29.674,87.705 -29.136,86.365 -28.034,85.231C-26.909,84.071 -25.555,83.504 -23.986,83.504L10.286,83.504C11.856,83.504 13.209,84.071 14.335,85.231C15.436,86.365 15.974,87.705 15.974,89.24L15.974,90.2C15.974,91.735 15.436,93.075 14.335,94.209C13.209,95.369 11.856,95.936 10.286,95.936L-23.986,95.936ZM-23.986,92.936L10.286,92.936C11.022,92.936 11.654,92.664 12.182,92.12C12.71,91.576 12.974,90.936 12.974,90.2L12.974,89.24C12.974,88.504 12.71,87.864 12.182,87.32C11.654,86.776 11.022,86.504 10.286,86.504L-23.986,86.504C-24.722,86.504 -25.354,86.776 -25.882,87.32C-26.41,87.864 -26.674,88.504 -26.674,89.24L-26.674,90.2C-26.674,90.936 -26.41,91.576 -25.882,92.12C-25.354,92.664 -24.722,92.936 -23.986,92.936Z" style="fill:rgb(179,179,179);"/>
                    <path d="M23.294,107.384C22.558,107.416 21.902,107.168 21.326,106.64C20.75,106.112 20.446,105.48 20.414,104.744L20.414,104.456C20.382,103.72 20.63,103.072 21.158,102.512C21.686,101.952 22.318,101.64 23.054,101.576C23.246,101.544 23.534,101.528 23.918,101.528C24.302,101.528 24.59,101.512 24.782,101.48C25.038,101.48 25.214,101.352 25.31,101.096L25.31,101.048C28.574,92.312 31.454,82.888 33.95,72.776C34.142,72.04 34.558,71.464 35.198,71.048C35.838,70.632 36.526,70.504 37.262,70.664L38.462,70.856C39.198,71.016 39.766,71.408 40.166,72.032C40.566,72.656 40.686,73.32 40.526,74.024C38.318,83.208 35.662,92.056 32.558,100.568C32.494,100.824 32.59,100.952 32.846,100.952C38.958,100.44 45.262,99.72 51.758,98.792C52.046,98.728 52.126,98.568 51.998,98.312C50.27,94.6 48.99,91.88 48.158,90.152C47.806,89.48 47.75,88.792 47.99,88.088C48.23,87.384 48.702,86.872 49.406,86.552L50.318,86.168C51.022,85.848 51.726,85.816 52.43,86.072C53.134,86.328 53.662,86.792 54.014,87.464C56.382,92.392 58.926,97.88 61.646,103.928C61.966,104.6 61.982,105.272 61.694,105.944C61.406,106.616 60.91,107.096 60.206,107.384L59.198,107.816C58.494,108.104 57.798,108.104 57.11,107.816C56.422,107.528 55.918,107.032 55.598,106.328C55.566,106.296 55.454,106.064 55.262,105.632C55.07,105.2 54.926,104.872 54.83,104.648C54.734,104.36 54.558,104.248 54.302,104.312C43.486,105.912 33.15,106.936 23.294,107.384Z" style="fill:rgb(179,179,179);fill-rule:nonzero;"/>
                    <path d="M23.031,98.561C26.039,90.333 28.707,81.498 31.038,72.057C31.041,72.044 31.044,72.031 31.047,72.019C31.435,70.534 32.273,69.372 33.563,68.533C34.883,67.675 36.3,67.406 37.805,67.713L38.936,67.894C38.991,67.902 39.045,67.913 39.1,67.924C40.653,68.262 41.848,69.096 42.692,70.413C43.55,71.752 43.795,73.179 43.452,74.689C43.449,74.701 43.446,74.713 43.443,74.725C41.553,82.587 39.339,90.205 36.8,97.58C40.387,97.229 44.039,96.807 47.755,96.315C46.795,94.265 46.037,92.662 45.486,91.516C44.745,90.085 44.64,88.619 45.151,87.12C45.664,85.614 46.659,84.505 48.165,83.821C48.191,83.809 48.216,83.798 48.242,83.787C48.242,83.787 49.122,83.417 49.113,83.421C50.56,82.773 52.008,82.726 53.456,83.253C54.883,83.772 55.958,84.709 56.672,86.072C56.688,86.103 56.703,86.134 56.718,86.165C59.093,91.106 61.644,96.609 64.355,102.639C65.067,104.134 65.093,105.63 64.452,107.126C63.851,108.527 62.832,109.544 61.37,110.149L60.38,110.573C60.365,110.58 60.35,110.586 60.334,110.593C58.857,111.197 57.396,111.188 55.952,110.583C54.553,109.998 53.518,109.001 52.867,107.569L52.919,107.644C52.902,107.614 52.885,107.583 52.867,107.551C42.624,109.012 32.812,109.954 23.431,110.381L23.425,110.381C21.885,110.448 20.504,109.956 19.299,108.851C18.119,107.769 17.509,106.467 17.422,104.966C17.42,104.936 17.418,104.905 17.417,104.874C17.415,104.829 17.414,104.784 17.414,104.737L17.414,104.511C17.366,102.98 17.873,101.623 18.976,100.454C20.016,99.351 21.264,98.74 22.692,98.597C22.792,98.583 22.905,98.571 23.031,98.561ZM20.414,107.744C20.414,107.744 18.824,107.603 17.96,106.469C18.504,107.242 19.402,107.744 20.414,107.744ZM20.414,107.744C21.044,107.744 21.653,107.546 22.158,107.185C22.513,107.335 22.892,107.402 23.294,107.384C33.15,106.936 43.486,105.912 54.302,104.312C54.558,104.248 54.734,104.36 54.83,104.648C54.926,104.872 55.07,105.2 55.262,105.632C55.454,106.064 55.566,106.296 55.598,106.328C55.918,107.032 56.422,107.528 57.11,107.816C57.798,108.104 58.494,108.104 59.198,107.816L60.206,107.384C60.91,107.096 61.406,106.616 61.694,105.944C61.982,105.272 61.966,104.6 61.646,103.928C58.926,97.88 56.382,92.392 54.014,87.464C53.662,86.792 53.134,86.328 52.43,86.072C51.726,85.816 51.022,85.848 50.318,86.168L49.406,86.552C48.702,86.872 48.23,87.384 47.99,88.088C47.75,88.792 47.806,89.48 48.158,90.152C48.99,91.88 50.27,94.6 51.998,98.312C52.126,98.568 52.046,98.728 51.758,98.792C45.262,99.72 38.958,100.44 32.846,100.952C32.59,100.952 32.494,100.824 32.558,100.568C35.662,92.056 38.318,83.208 40.526,74.024C40.686,73.32 40.566,72.656 40.166,72.032C39.766,71.408 39.198,71.016 38.462,70.856L37.262,70.664C36.526,70.504 35.838,70.632 35.198,71.048C34.558,71.464 34.142,72.04 33.95,72.776C31.454,82.888 28.574,92.312 25.31,101.048L25.31,101.096C25.214,101.352 25.038,101.48 24.782,101.48C24.59,101.512 24.302,101.528 23.918,101.528C23.79,101.528 23.672,101.53 23.565,101.533L22.512,100.015C22.508,100.024 22.505,100.033 22.501,100.043L23.535,101.534C23.375,101.54 23.24,101.551 23.13,101.565C22.665,101.088 22.31,100.804 22.31,101.049C22.31,101.29 22.334,101.511 22.376,101.715C21.922,101.866 21.516,102.132 21.158,102.512C20.63,103.072 20.382,103.72 20.414,104.456L20.414,104.744C20.446,105.48 20.75,106.112 21.326,106.64C21.57,106.863 21.828,107.037 22.1,107.16C21.294,107.666 20.414,107.744 20.414,107.744ZM24.225,98.527C24.249,98.526 24.27,98.524 24.289,98.521C24.452,98.494 24.617,98.48 24.782,98.48C24.587,98.48 24.401,98.496 24.225,98.527ZM53.244,101.436C53.411,101.412 53.579,101.387 53.747,101.362C54.728,101.162 55.549,101.38 56.237,101.817C56.782,102.164 57.306,102.7 57.626,103.555C57.717,103.765 57.843,104.051 58.004,104.414C58.069,104.56 58.145,104.724 58.182,104.804C58.211,104.852 58.238,104.902 58.264,104.952L58.728,104.754C56.125,98.973 53.685,93.71 51.407,88.965L50.999,89.137C51.833,90.876 53.069,93.503 54.703,97.013C55.287,98.215 55.095,99.212 54.718,99.966C54.446,100.509 54.003,101.071 53.244,101.436ZM26.234,104.229C28.116,104.122 30.016,103.994 31.932,103.845C31.112,103.638 30.562,103.162 30.182,102.656C29.706,102.021 29.331,101.11 29.648,99.84C29.673,99.739 29.704,99.639 29.74,99.54C32.762,91.252 35.354,82.64 37.509,73.742L36.829,73.633C34.311,83.811 31.408,93.299 28.121,102.098L25.758,103.737C25.489,103.957 25.31,104.096 25.31,104.096L28.119,102.149C27.72,103.213 27.08,103.894 26.234,104.229Z" style="fill:rgb(179,179,179);"/>
                    <path d="M72.494,81.416C71.758,81.416 71.126,81.144 70.598,80.6C70.07,80.056 69.806,79.416 69.806,78.68L69.806,78.536C69.806,77.8 70.07,77.16 70.598,76.616C71.126,76.072 71.758,75.8 72.494,75.8L93.086,75.8C93.342,75.8 93.47,75.656 93.47,75.368L93.47,71.336C93.47,70.6 93.742,69.96 94.286,69.416C94.83,68.872 95.47,68.6 96.206,68.6L96.974,68.6C97.71,68.6 98.35,68.872 98.894,69.416C99.438,69.96 99.71,70.6 99.71,71.336L99.71,75.368C99.71,75.656 99.854,75.8 100.142,75.8L106.766,75.8C107.502,75.8 108.134,76.072 108.662,76.616C109.19,77.16 109.454,77.8 109.454,78.536L109.454,78.68C109.454,79.416 109.19,80.056 108.662,80.6C108.134,81.144 107.502,81.416 106.766,81.416L100.142,81.416C99.854,81.416 99.71,81.544 99.71,81.8L99.71,100.616C99.71,102.504 99.646,103.912 99.518,104.84C99.39,105.768 99.014,106.536 98.39,107.144C97.766,107.752 96.998,108.12 96.086,108.248C95.174,108.376 93.774,108.44 91.886,108.44C90.638,108.44 88.862,108.36 86.558,108.2C85.79,108.168 85.158,107.856 84.662,107.264C84.166,106.672 83.95,105.992 84.014,105.224L84.062,104.984C84.126,104.248 84.43,103.64 84.974,103.16C85.518,102.68 86.158,102.472 86.894,102.536C88.974,102.696 90.414,102.776 91.214,102.776C92.206,102.776 92.83,102.648 93.086,102.392C93.342,102.136 93.47,101.512 93.47,100.52L93.47,87.944C93.47,87.88 93.43,87.824 93.35,87.776C93.27,87.728 93.214,87.72 93.182,87.752C87.294,93.256 81.214,97.912 74.942,101.72C74.302,102.104 73.622,102.2 72.902,102.008C72.182,101.816 71.63,101.4 71.246,100.76L71.054,100.424C70.702,99.784 70.622,99.104 70.814,98.384C71.006,97.664 71.422,97.112 72.062,96.728C78.846,92.664 85.294,87.64 91.406,81.656C91.566,81.496 91.518,81.416 91.262,81.416L72.494,81.416Z" style="fill:rgb(179,179,179);fill-rule:nonzero;"/>
                    <path d="M84.014,108.224L83.809,107.973C83.062,107.91 82.362,107.569 81.851,107.011C81.283,106.392 81.001,105.562 81.074,104.724C81.076,104.696 81.079,104.668 81.082,104.64L81.074,104.63L81.093,104.534C81.262,103.079 81.898,101.873 82.989,100.91C84.165,99.873 85.544,99.412 87.15,99.547C88.577,99.656 89.683,99.728 90.47,99.759L90.47,94.179C85.921,98.024 81.264,101.392 76.499,104.284C76.495,104.287 76.49,104.29 76.486,104.292C75.119,105.113 73.667,105.317 72.129,104.907C70.636,104.509 69.489,103.649 68.689,102.328C68.684,102.32 68.679,102.312 68.674,102.303C68.662,102.283 68.649,102.262 68.637,102.241L68.455,101.922L71.054,103.424L68.426,101.87C67.691,100.533 67.515,99.114 67.916,97.611C68.316,96.109 69.184,94.957 70.519,94.156L70.521,94.154C75.168,91.371 79.652,88.122 83.967,84.416L72.494,84.416C70.925,84.416 69.571,83.849 68.446,82.689C67.344,81.555 66.806,80.215 66.806,78.68L66.806,78.54L69.806,81.536L66.806,78.536C66.806,77.001 67.344,75.661 68.446,74.527C69.571,73.367 70.925,72.8 72.494,72.8L90.47,72.8L90.47,71.336C90.47,69.79 91.022,68.437 92.165,67.295C93.308,66.152 94.66,65.6 96.206,65.6L96.974,65.6C98.52,65.6 99.873,66.152 101.016,67.295C102.158,68.437 102.71,69.79 102.71,71.336L102.71,72.8L106.766,72.8C108.336,72.8 109.689,73.367 110.815,74.527C111.916,75.661 112.454,77.001 112.454,78.536L112.454,78.54C112.454,78.594 112.438,78.656 112.407,78.727L112.454,78.68C112.454,80.215 111.916,81.555 110.815,82.689C109.689,83.849 108.336,84.416 106.766,84.416L102.71,84.416L102.71,100.616C102.71,102.687 102.631,104.232 102.49,105.25C102.265,106.883 101.582,108.223 100.484,109.293C99.404,110.345 98.082,110.997 96.503,111.219C95.501,111.36 93.962,111.44 91.886,111.44C90.596,111.44 88.763,111.36 86.4,111.196C84.766,111.12 83.42,110.453 82.363,109.191C81.338,107.967 80.892,106.562 81.025,104.975C80.955,105.811 81.239,106.638 81.807,107.255C82.375,107.873 83.175,108.224 84.014,108.224C84.513,108.224 84.985,108.102 85.4,107.885C85.744,108.077 86.13,108.182 86.558,108.2C88.862,108.36 90.638,108.44 91.886,108.44C93.774,108.44 95.174,108.376 96.086,108.248C96.998,108.12 97.766,107.752 98.39,107.144C99.014,106.536 99.39,105.768 99.518,104.84C99.646,103.912 99.71,102.504 99.71,100.616L99.71,81.8C99.71,81.544 99.854,81.416 100.142,81.416L106.766,81.416C107.469,81.416 108.077,81.168 108.59,80.672C108.615,80.649 108.639,80.625 108.662,80.6C109.19,80.056 109.454,79.416 109.454,78.68L109.454,78.536C109.454,77.8 109.19,77.16 108.662,76.616C108.134,76.072 107.502,75.8 106.766,75.8L100.142,75.8C99.854,75.8 99.71,75.656 99.71,75.368L99.71,71.336C99.71,70.6 99.438,69.96 98.894,69.416C98.35,68.872 97.71,68.6 96.974,68.6L96.206,68.6C95.47,68.6 94.83,68.872 94.286,69.416C93.742,69.96 93.47,70.6 93.47,71.336L93.47,75.368C93.47,75.656 93.342,75.8 93.086,75.8L72.494,75.8C71.758,75.8 71.126,76.072 70.598,76.616C70.07,77.16 69.806,77.8 69.806,78.536L69.806,78.68C69.806,79.416 70.07,80.056 70.598,80.6C71.126,81.144 71.758,81.416 72.494,81.416L91.262,81.416C91.518,81.416 91.566,81.496 91.406,81.656C85.294,87.64 78.846,92.664 72.062,96.728C71.422,97.112 71.006,97.664 70.814,98.384C70.622,99.104 70.702,99.784 71.054,100.424L71.246,100.76C71.63,101.4 72.182,101.816 72.902,102.008C73.157,102.076 73.406,102.108 73.65,102.104C72.781,103.189 71.246,103.76 71.246,103.76C72.327,103.76 73.324,103.179 73.857,102.238C73.886,102.187 73.914,102.134 73.939,102.082C74.284,102.035 74.618,101.914 74.942,101.72C81.214,97.912 87.294,93.256 93.182,87.752C93.214,87.72 93.27,87.728 93.35,87.776C93.43,87.824 93.47,87.88 93.47,87.944L93.47,100.52C93.47,101.512 93.342,102.136 93.086,102.392C92.83,102.648 92.206,102.776 91.214,102.776C90.414,102.776 88.974,102.696 86.894,102.536C86.158,102.472 85.518,102.68 84.974,103.16C84.43,103.64 84.126,104.248 84.062,104.984L84.014,105.224C83.95,105.992 84.166,106.672 84.662,107.264C84.827,107.46 85.006,107.626 85.2,107.76C84.917,107.877 84.613,107.951 84.296,107.975L84.014,108.224Z" style="fill:rgb(179,179,179);"/>
                    <path d="M120.014,92.936C119.278,92.936 118.646,92.664 118.118,92.12C117.59,91.576 117.326,90.936 117.326,90.2L117.326,89.24C117.326,88.504 117.59,87.864 118.118,87.32C118.646,86.776 119.278,86.504 120.014,86.504L154.286,86.504C155.022,86.504 155.654,86.776 156.182,87.32C156.71,87.864 156.974,88.504 156.974,89.24L156.974,90.2C156.974,90.936 156.71,91.576 156.182,92.12C155.654,92.664 155.022,92.936 154.286,92.936L120.014,92.936Z" style="fill:rgb(179,179,179);fill-rule:nonzero;"/>
                    <path d="M120.014,95.936C118.445,95.936 117.091,95.369 115.966,94.209C114.864,93.075 114.326,91.735 114.326,90.2L114.326,89.24C114.326,87.705 114.864,86.365 115.966,85.231C117.091,84.071 118.445,83.504 120.014,83.504L154.286,83.504C155.856,83.504 157.209,84.071 158.335,85.231C159.436,86.365 159.974,87.705 159.974,89.24L159.974,90.2C159.974,91.735 159.436,93.075 158.335,94.209C157.209,95.369 155.856,95.936 154.286,95.936L120.014,95.936ZM120.014,92.936L154.286,92.936C155.022,92.936 155.654,92.664 156.182,92.12C156.71,91.576 156.974,90.936 156.974,90.2L156.974,89.24C156.974,88.504 156.71,87.864 156.182,87.32C155.654,86.776 155.022,86.504 154.286,86.504L120.014,86.504C119.278,86.504 118.646,86.776 118.118,87.32C117.59,87.864 117.326,88.504 117.326,89.24L117.326,90.2C117.326,90.936 117.59,91.576 118.118,92.12C118.646,92.664 119.278,92.936 120.014,92.936Z" style="fill:rgb(179,179,179);"/>
                    <path d="M190.382,77C190.222,76.712 189.71,75.768 188.846,74.168C188.494,73.528 188.43,72.856 188.654,72.152C188.878,71.448 189.326,70.92 189.998,70.568L190.046,70.568C190.718,70.216 191.422,70.152 192.158,70.376C192.894,70.6 193.438,71.048 193.79,71.72C194.142,72.36 194.67,73.352 195.374,74.696C195.694,75.368 195.726,76.056 195.47,76.76C195.214,77.464 194.75,77.976 194.078,78.296C193.374,78.616 192.67,78.648 191.966,78.392C191.262,78.136 190.734,77.672 190.382,77ZM201.758,76.808C201.086,77.128 200.39,77.168 199.67,76.928C198.95,76.688 198.414,76.232 198.062,75.56C197.902,75.24 197.646,74.744 197.294,74.072C196.942,73.4 196.67,72.904 196.478,72.584C196.126,71.944 196.054,71.256 196.262,70.52C196.47,69.784 196.91,69.256 197.582,68.936L197.726,68.888C198.398,68.536 199.102,68.464 199.838,68.672C200.574,68.88 201.118,69.32 201.47,69.992C202.526,72.008 203.07,73.048 203.102,73.112C203.454,73.784 203.51,74.472 203.27,75.176C203.03,75.88 202.574,76.392 201.902,76.712L201.758,76.808ZM195.662,82.424C196.398,82.2 197.102,82.264 197.774,82.616C198.446,82.968 198.91,83.512 199.166,84.248C201.406,90.84 203.406,97.688 205.166,104.792C205.326,105.496 205.206,106.16 204.806,106.784C204.406,107.408 203.838,107.8 203.102,107.96L201.566,108.248C200.83,108.408 200.142,108.288 199.502,107.888C198.862,107.488 198.462,106.92 198.302,106.184C196.542,98.76 194.686,92.072 192.734,86.12C192.51,85.416 192.566,84.736 192.902,84.08C193.238,83.424 193.774,82.984 194.51,82.76L195.662,82.424ZM165.422,106.952C164.75,106.632 164.294,106.12 164.054,105.416C163.814,104.712 163.87,104.04 164.222,103.4C168.67,94.728 171.454,85.464 172.574,75.608C172.638,74.872 172.958,74.256 173.534,73.76C174.11,73.264 174.782,73.032 175.55,73.064L176.846,73.112C177.582,73.176 178.198,73.496 178.694,74.072C179.19,74.648 179.406,75.304 179.342,76.04C178.318,86.792 175.358,96.872 170.462,106.28C170.11,106.952 169.566,107.408 168.83,107.648C168.094,107.888 167.374,107.848 166.67,107.528L165.422,106.952Z" style="fill:rgb(179,179,179);fill-rule:nonzero;"/>
                    <path d="M188.532,73.158C187.85,72.759 187.332,72.094 187.133,71.285C186.803,69.944 187.431,68.551 188.654,67.911C190.047,67.181 191.506,67.042 193.032,67.506C193.442,67.631 193.823,67.789 194.176,67.981C194.699,67.233 195.406,66.65 196.293,66.227C195.441,66.633 194.854,67.4 194.656,68.274C194.696,68.301 194.735,68.329 194.773,68.357C194.934,67.467 195.493,66.671 196.334,66.231C197.709,65.51 199.149,65.36 200.654,65.785C202.222,66.228 203.378,67.169 204.128,68.6C205.201,70.648 205.753,71.705 205.76,71.72C206.514,73.16 206.624,74.635 206.11,76.144C205.598,77.646 204.626,78.738 203.192,79.421L202.362,79.608L201.758,79.808L203.048,79.517C201.719,80.15 200.345,80.262 198.925,79.838C199.006,79.876 199.086,79.916 199.166,79.959C200.53,80.673 201.48,81.769 202,83.262C202.002,83.269 202.005,83.276 202.007,83.283C204.273,89.953 206.297,96.882 208.078,104.071C208.083,104.089 208.087,104.108 208.092,104.127C208.435,105.637 208.19,107.064 207.332,108.403C206.488,109.72 205.293,110.554 203.74,110.892C203.712,110.898 203.683,110.903 203.655,110.909C203.655,110.909 202.154,111.19 202.162,111.188C200.648,111.508 199.231,111.256 197.912,110.432C196.566,109.591 195.722,108.398 195.378,106.854C193.641,99.529 191.81,92.929 189.884,87.055C189.881,87.046 189.878,87.038 189.876,87.03C189.402,85.54 189.521,84.101 190.232,82.712C190.505,82.18 190.838,81.711 191.233,81.31C191.136,81.279 191.038,81.247 190.941,81.211C189.528,80.697 188.461,79.774 187.747,78.433L187.743,78.426C187.564,78.102 187.052,77.16 186.209,75.598C185.453,74.215 185.312,72.763 185.796,71.242C186.266,69.765 187.196,68.649 188.606,67.911C187.383,68.551 186.755,69.944 187.085,71.285C187.289,72.114 187.827,72.791 188.535,73.187C188.567,73.522 188.671,73.849 188.846,74.168C189.71,75.768 190.222,76.712 190.382,77C190.734,77.672 191.262,78.136 191.966,78.392C192.67,78.648 193.374,78.616 194.078,78.296C194.75,77.976 195.214,77.464 195.47,76.76C195.726,76.056 195.694,75.368 195.374,74.696C194.67,73.352 194.142,72.36 193.79,71.72C193.438,71.048 192.894,70.6 192.158,70.376C191.422,70.152 190.718,70.216 190.046,70.568L189.998,70.568C189.326,70.92 188.878,71.448 188.654,72.152C188.545,72.495 188.504,72.83 188.532,73.158ZM201.129,77.024L201.255,77.58L201.902,79.712L201.286,76.986C201.445,76.942 201.602,76.882 201.758,76.808L201.902,76.712C202.574,76.392 203.03,75.88 203.27,75.176C203.51,74.472 203.454,73.784 203.102,73.112C203.07,73.048 202.526,72.008 201.47,69.992C201.118,69.32 200.574,68.88 199.838,68.672C199.102,68.464 198.398,68.536 197.726,68.888L197.582,68.936C196.91,69.256 196.47,69.784 196.262,70.52C196.054,71.256 196.126,71.944 196.478,72.584C196.67,72.904 196.942,73.4 197.294,74.072C197.646,74.744 197.902,75.24 198.062,75.56C198.414,76.232 198.95,76.688 199.67,76.928C200.168,77.094 200.655,77.126 201.129,77.024ZM197.436,79.362C197.635,79.397 197.834,79.442 198.031,79.499C197.858,79.418 197.692,79.33 197.531,79.234C197.5,79.278 197.468,79.32 197.436,79.362ZM195.662,82.424L194.51,82.76C193.774,82.984 193.238,83.424 192.902,84.08C192.566,84.736 192.51,85.416 192.734,86.12C194.686,92.072 196.542,98.76 198.302,106.184C198.462,106.92 198.862,107.488 199.502,107.888C200.142,108.288 200.83,108.408 201.566,108.248L203.102,107.96C203.838,107.8 204.406,107.408 204.806,106.784C205.206,106.16 205.326,105.496 205.166,104.792C203.406,97.688 201.406,90.84 199.166,84.248C198.91,83.512 198.446,82.968 197.774,82.616C197.102,82.264 196.398,82.2 195.662,82.424ZM164.133,109.661C162.699,108.978 161.727,107.886 161.215,106.384C160.693,104.853 160.817,103.391 161.576,101.987C165.841,93.658 168.511,84.762 169.589,75.311C169.73,73.792 170.385,72.513 171.577,71.487C172.748,70.478 174.113,70.002 175.661,70.066L176.957,70.114C177.007,70.116 177.057,70.119 177.106,70.123C178.642,70.257 179.933,70.913 180.968,72.114C182.021,73.338 182.467,74.736 182.331,76.3C182.33,76.308 182.33,76.316 182.329,76.324C181.268,87.468 178.198,97.914 173.124,107.665L173.12,107.672C172.394,109.058 171.278,110.005 169.76,110.5C168.284,110.981 166.841,110.901 165.429,110.259C165.424,110.257 165.418,110.254 165.413,110.252L164.165,109.676C164.154,109.671 164.143,109.666 164.133,109.661ZM165.422,106.952L166.67,107.528C167.374,107.848 168.094,107.888 168.83,107.648C169.566,107.408 170.11,106.952 170.462,106.28C175.358,96.872 178.318,86.792 179.342,76.04C179.406,75.304 179.19,74.648 178.694,74.072C178.198,73.496 177.582,73.176 176.846,73.112L175.55,73.064C174.782,73.032 174.11,73.264 173.534,73.76C172.958,74.256 172.638,74.872 172.574,75.608C171.454,85.464 168.67,94.728 164.222,103.4C163.87,104.04 163.814,104.712 164.054,105.416C164.294,106.12 164.75,106.632 165.422,106.952Z" style="fill:rgb(179,179,179);"/>
                    <path d="M216.014,92.936C215.278,92.936 214.646,92.664 214.118,92.12C213.59,91.576 213.326,90.936 213.326,90.2L213.326,89.24C213.326,88.504 213.59,87.864 214.118,87.32C214.646,86.776 215.278,86.504 216.014,86.504L250.286,86.504C251.022,86.504 251.654,86.776 252.182,87.32C252.71,87.864 252.974,88.504 252.974,89.24L252.974,90.2C252.974,90.936 252.71,91.576 252.182,92.12C251.654,92.664 251.022,92.936 250.286,92.936L216.014,92.936Z" style="fill:rgb(179,179,179);fill-rule:nonzero;"/>
                    <path d="M216.014,95.936C214.445,95.936 213.091,95.369 211.966,94.209C210.864,93.075 210.326,91.735 210.326,90.2L210.326,89.24C210.326,87.705 210.864,86.365 211.966,85.231C213.091,84.071 214.445,83.504 216.014,83.504L250.286,83.504C251.856,83.504 253.209,84.071 254.335,85.231C255.436,86.365 255.974,87.705 255.974,89.24L255.974,90.2C255.974,91.735 255.436,93.075 254.335,94.209C253.209,95.369 251.856,95.936 250.286,95.936L216.014,95.936ZM216.014,92.936L250.286,92.936C251.022,92.936 251.654,92.664 252.182,92.12C252.71,91.576 252.974,90.936 252.974,90.2L252.974,89.24C252.974,88.504 252.71,87.864 252.182,87.32C251.654,86.776 251.022,86.504 250.286,86.504L216.014,86.504C215.278,86.504 214.646,86.776 214.118,87.32C213.59,87.864 213.326,88.504 213.326,89.24L213.326,90.2C213.326,90.936 213.59,91.576 214.118,92.12C214.646,92.664 215.278,92.936 216.014,92.936Z" style="fill:rgb(179,179,179);"/>
                </g>
                <g transform="matrix(1,0,0,1,157.88,30)">
                    <path d="M-44.626,68.024C-43.986,67.704 -43.338,67.656 -42.682,67.88C-42.026,68.104 -41.522,68.536 -41.17,69.176C-41.01,69.464 -40.786,69.888 -40.498,70.448C-40.21,71.008 -39.986,71.432 -39.826,71.72C-39.506,72.36 -39.458,73.008 -39.682,73.664C-39.906,74.32 -40.338,74.792 -40.978,75.08C-41.586,75.368 -42.218,75.4 -42.874,75.176C-43.53,74.952 -44.018,74.536 -44.338,73.928C-44.498,73.64 -44.722,73.216 -45.01,72.656C-45.298,72.096 -45.522,71.672 -45.682,71.384C-46.002,70.776 -46.058,70.144 -45.85,69.488C-45.642,68.832 -45.234,68.344 -44.626,68.024ZM-33.826,68.456C-33.666,68.776 -32.61,70.888 -32.482,71.144C-32.162,71.784 -32.114,72.424 -32.338,73.064C-32.562,73.704 -32.994,74.184 -33.634,74.504C-34.274,74.824 -34.922,74.872 -35.578,74.648C-36.234,74.424 -36.738,73.992 -37.09,73.352C-37.378,72.776 -37.842,71.912 -38.482,70.76C-38.802,70.12 -38.858,69.472 -38.65,68.816C-38.442,68.16 -38.018,67.672 -37.378,67.352C-36.738,67.032 -36.066,66.984 -35.362,67.208C-34.658,67.432 -34.146,67.848 -33.826,68.456ZM-74.626,91.256C-75.234,90.84 -75.602,90.28 -75.73,89.576C-75.858,88.872 -75.698,88.216 -75.25,87.608C-72.05,83.064 -69.922,77.88 -68.866,72.056C-68.706,71.288 -68.338,70.672 -67.762,70.208C-67.186,69.744 -66.514,69.528 -65.746,69.56L-64.93,69.56C-64.194,69.624 -63.586,69.944 -63.106,70.52C-62.626,71.096 -62.45,71.752 -62.578,72.488C-62.77,73.8 -63.01,75.048 -63.298,76.232C-63.362,76.488 -63.25,76.616 -62.962,76.616L-37.714,76.616C-36.978,76.616 -36.346,76.88 -35.818,77.408C-35.29,77.936 -35.026,78.568 -35.026,79.304L-35.026,79.64C-35.026,80.376 -35.29,81.016 -35.818,81.56C-36.346,82.104 -36.978,82.376 -37.714,82.376L-45.49,82.376C-45.746,82.376 -45.874,82.488 -45.874,82.712C-45.906,90.392 -47.314,96.288 -50.098,100.4C-52.882,104.512 -57.25,107.32 -63.202,108.824C-63.938,109.016 -64.634,108.904 -65.29,108.488C-65.946,108.072 -66.37,107.496 -66.562,106.76L-66.658,106.424C-66.85,105.72 -66.754,105.056 -66.37,104.432C-65.986,103.808 -65.426,103.4 -64.69,103.208C-60.37,102.024 -57.258,99.872 -55.354,96.752C-53.45,93.632 -52.482,88.968 -52.45,82.76C-52.45,82.504 -52.594,82.376 -52.882,82.376L-64.786,82.376C-65.074,82.376 -65.266,82.488 -65.362,82.712C-66.578,85.56 -68.162,88.28 -70.114,90.872C-70.594,91.512 -71.218,91.896 -71.986,92.024C-72.754,92.152 -73.474,91.992 -74.146,91.544L-74.626,91.256Z" style="fill:rgb(255,0,0);fill-rule:nonzero;"/>
                    <path d="M-23.986,92.936C-24.722,92.936 -25.354,92.664 -25.882,92.12C-26.41,91.576 -26.674,90.936 -26.674,90.2L-26.674,89.24C-26.674,88.504 -26.41,87.864 -25.882,87.32C-25.354,86.776 -24.722,86.504 -23.986,86.504L10.286,86.504C11.022,86.504 11.654,86.776 12.182,87.32C12.71,87.864 12.974,88.504 12.974,89.24L12.974,90.2C12.974,90.936 12.71,91.576 12.182,92.12C11.654,92.664 11.022,92.936 10.286,92.936L-23.986,92.936Z" style="fill:rgb(255,0,0);fill-rule:nonzero;"/>
                    <path d="M23.294,107.384C22.558,107.416 21.902,107.168 21.326,106.64C20.75,106.112 20.446,105.48 20.414,104.744L20.414,104.456C20.382,103.72 20.63,103.072 21.158,102.512C21.686,101.952 22.318,101.64 23.054,101.576C23.246,101.544 23.534,101.528 23.918,101.528C24.302,101.528 24.59,101.512 24.782,101.48C25.038,101.48 25.214,101.352 25.31,101.096L25.31,101.048C28.574,92.312 31.454,82.888 33.95,72.776C34.142,72.04 34.558,71.464 35.198,71.048C35.838,70.632 36.526,70.504 37.262,70.664L38.462,70.856C39.198,71.016 39.766,71.408 40.166,72.032C40.566,72.656 40.686,73.32 40.526,74.024C38.318,83.208 35.662,92.056 32.558,100.568C32.494,100.824 32.59,100.952 32.846,100.952C38.958,100.44 45.262,99.72 51.758,98.792C52.046,98.728 52.126,98.568 51.998,98.312C50.27,94.6 48.99,91.88 48.158,90.152C47.806,89.48 47.75,88.792 47.99,88.088C48.23,87.384 48.702,86.872 49.406,86.552L50.318,86.168C51.022,85.848 51.726,85.816 52.43,86.072C53.134,86.328 53.662,86.792 54.014,87.464C56.382,92.392 58.926,97.88 61.646,103.928C61.966,104.6 61.982,105.272 61.694,105.944C61.406,106.616 60.91,107.096 60.206,107.384L59.198,107.816C58.494,108.104 57.798,108.104 57.11,107.816C56.422,107.528 55.918,107.032 55.598,106.328C55.566,106.296 55.454,106.064 55.262,105.632C55.07,105.2 54.926,104.872 54.83,104.648C54.734,104.36 54.558,104.248 54.302,104.312C43.486,105.912 33.15,106.936 23.294,107.384Z" style="fill:rgb(255,0,0);fill-rule:nonzero;"/>
                    <path d="M72.494,81.416C71.758,81.416 71.126,81.144 70.598,80.6C70.07,80.056 69.806,79.416 69.806,78.68L69.806,78.536C69.806,77.8 70.07,77.16 70.598,76.616C71.126,76.072 71.758,75.8 72.494,75.8L93.086,75.8C93.342,75.8 93.47,75.656 93.47,75.368L93.47,71.336C93.47,70.6 93.742,69.96 94.286,69.416C94.83,68.872 95.47,68.6 96.206,68.6L96.974,68.6C97.71,68.6 98.35,68.872 98.894,69.416C99.438,69.96 99.71,70.6 99.71,71.336L99.71,75.368C99.71,75.656 99.854,75.8 100.142,75.8L106.766,75.8C107.502,75.8 108.134,76.072 108.662,76.616C109.19,77.16 109.454,77.8 109.454,78.536L109.454,78.68C109.454,79.416 109.19,80.056 108.662,80.6C108.134,81.144 107.502,81.416 106.766,81.416L100.142,81.416C99.854,81.416 99.71,81.544 99.71,81.8L99.71,100.616C99.71,102.504 99.646,103.912 99.518,104.84C99.39,105.768 99.014,106.536 98.39,107.144C97.766,107.752 96.998,108.12 96.086,108.248C95.174,108.376 93.774,108.44 91.886,108.44C90.638,108.44 88.862,108.36 86.558,108.2C85.79,108.168 85.158,107.856 84.662,107.264C84.166,106.672 83.95,105.992 84.014,105.224L84.062,104.984C84.126,104.248 84.43,103.64 84.974,103.16C85.518,102.68 86.158,102.472 86.894,102.536C88.974,102.696 90.414,102.776 91.214,102.776C92.206,102.776 92.83,102.648 93.086,102.392C93.342,102.136 93.47,101.512 93.47,100.52L93.47,87.944C93.47,87.88 93.43,87.824 93.35,87.776C93.27,87.728 93.214,87.72 93.182,87.752C87.294,93.256 81.214,97.912 74.942,101.72C74.302,102.104 73.622,102.2 72.902,102.008C72.182,101.816 71.63,101.4 71.246,100.76L71.054,100.424C70.702,99.784 70.622,99.104 70.814,98.384C71.006,97.664 71.422,97.112 72.062,96.728C78.846,92.664 85.294,87.64 91.406,81.656C91.566,81.496 91.518,81.416 91.262,81.416L72.494,81.416Z" style="fill:rgb(255,0,0);fill-rule:nonzero;"/>
                    <path d="M120.014,92.936C119.278,92.936 118.646,92.664 118.118,92.12C117.59,91.576 117.326,90.936 117.326,90.2L117.326,89.24C117.326,88.504 117.59,87.864 118.118,87.32C118.646,86.776 119.278,86.504 120.014,86.504L154.286,86.504C155.022,86.504 155.654,86.776 156.182,87.32C156.71,87.864 156.974,88.504 156.974,89.24L156.974,90.2C156.974,90.936 156.71,91.576 156.182,92.12C155.654,92.664 155.022,92.936 154.286,92.936L120.014,92.936Z" style="fill:rgb(255,0,0);fill-rule:nonzero;"/>
                    <path d="M190.382,77C190.222,76.712 189.71,75.768 188.846,74.168C188.494,73.528 188.43,72.856 188.654,72.152C188.878,71.448 189.326,70.92 189.998,70.568L190.046,70.568C190.718,70.216 191.422,70.152 192.158,70.376C192.894,70.6 193.438,71.048 193.79,71.72C194.142,72.36 194.67,73.352 195.374,74.696C195.694,75.368 195.726,76.056 195.47,76.76C195.214,77.464 194.75,77.976 194.078,78.296C193.374,78.616 192.67,78.648 191.966,78.392C191.262,78.136 190.734,77.672 190.382,77ZM201.758,76.808C201.086,77.128 200.39,77.168 199.67,76.928C198.95,76.688 198.414,76.232 198.062,75.56C197.902,75.24 197.646,74.744 197.294,74.072C196.942,73.4 196.67,72.904 196.478,72.584C196.126,71.944 196.054,71.256 196.262,70.52C196.47,69.784 196.91,69.256 197.582,68.936L197.726,68.888C198.398,68.536 199.102,68.464 199.838,68.672C200.574,68.88 201.118,69.32 201.47,69.992C202.526,72.008 203.07,73.048 203.102,73.112C203.454,73.784 203.51,74.472 203.27,75.176C203.03,75.88 202.574,76.392 201.902,76.712L201.758,76.808ZM195.662,82.424C196.398,82.2 197.102,82.264 197.774,82.616C198.446,82.968 198.91,83.512 199.166,84.248C201.406,90.84 203.406,97.688 205.166,104.792C205.326,105.496 205.206,106.16 204.806,106.784C204.406,107.408 203.838,107.8 203.102,107.96L201.566,108.248C200.83,108.408 200.142,108.288 199.502,107.888C198.862,107.488 198.462,106.92 198.302,106.184C196.542,98.76 194.686,92.072 192.734,86.12C192.51,85.416 192.566,84.736 192.902,84.08C193.238,83.424 193.774,82.984 194.51,82.76L195.662,82.424ZM165.422,106.952C164.75,106.632 164.294,106.12 164.054,105.416C163.814,104.712 163.87,104.04 164.222,103.4C168.67,94.728 171.454,85.464 172.574,75.608C172.638,74.872 172.958,74.256 173.534,73.76C174.11,73.264 174.782,73.032 175.55,73.064L176.846,73.112C177.582,73.176 178.198,73.496 178.694,74.072C179.19,74.648 179.406,75.304 179.342,76.04C178.318,86.792 175.358,96.872 170.462,106.28C170.11,106.952 169.566,107.408 168.83,107.648C168.094,107.888 167.374,107.848 166.67,107.528L165.422,106.952Z" style="fill:rgb(255,0,0);fill-rule:nonzero;"/>
                    <path d="M216.014,92.936C215.278,92.936 214.646,92.664 214.118,92.12C213.59,91.576 213.326,90.936 213.326,90.2L213.326,89.24C213.326,88.504 213.59,87.864 214.118,87.32C214.646,86.776 215.278,86.504 216.014,86.504L250.286,86.504C251.022,86.504 251.654,86.776 252.182,87.32C252.71,87.864 252.974,88.504 252.974,89.24L252.974,90.2C252.974,90.936 252.71,91.576 252.182,92.12C251.654,92.664 251.022,92.936 250.286,92.936L216.014,92.936Z" style="fill:rgb(255,0,0);fill-rule:nonzero;"/>
                </g>
            </g>
        </g>
    </g>
</svg>
