<?xml version="1.0" encoding="UTF-8" standalone="no"?>
<!DOCTYPE svg PUBLIC "-//W3C//DTD SVG 1.1//EN" "http://www.w3.org/Graphics/SVG/1.1/DTD/svg11.dtd">
<svg viewBox="0 0 368 49" version="1.1" xmlns="http://www.w3.org/2000/svg" xmlns:xlink="http://www.w3.org/1999/xlink" xml:space="preserve" xmlns:serif="http://www.serif.com/" style="fill-rule:evenodd;clip-rule:evenodd;stroke-linejoin:round;stroke-miterlimit:2;">
    <g transform="matrix(1,0,0,1,-56,-177)">
        <g transform="matrix(1.16981,0,0,1.00101,-1166.64,-2.802)">
            <g id="you-win" transform="matrix(0.854837,0,0,0.998994,998.554,9.72256)">
                <g transform="matrix(1,0,0,1,157.88,106)">
                    <path d="M-68.626,68.024C-67.986,67.704 -67.338,67.656 -66.682,67.88C-66.026,68.104 -65.522,68.536 -65.17,69.176C-65.01,69.464 -64.786,69.888 -64.498,70.448C-64.21,71.008 -63.986,71.432 -63.826,71.72C-63.506,72.36 -63.458,73.008 -63.682,73.664C-63.906,74.32 -64.338,74.792 -64.978,75.08C-65.586,75.368 -66.218,75.4 -66.874,75.176C-67.53,74.952 -68.018,74.536 -68.338,73.928C-68.498,73.64 -68.722,73.216 -69.01,72.656C-69.298,72.096 -69.522,71.672 -69.682,71.384C-70.002,70.776 -70.058,70.144 -69.85,69.488C-69.642,68.832 -69.234,68.344 -68.626,68.024ZM-57.826,68.456C-57.666,68.776 -56.61,70.888 -56.482,71.144C-56.162,71.784 -56.114,72.424 -56.338,73.064C-56.562,73.704 -56.994,74.184 -57.634,74.504C-58.274,74.824 -58.922,74.872 -59.578,74.648C-60.234,74.424 -60.738,73.992 -61.09,73.352C-61.378,72.776 -61.842,71.912 -62.482,70.76C-62.802,70.12 -62.858,69.472 -62.65,68.816C-62.442,68.16 -62.018,67.672 -61.378,67.352C-60.738,67.032 -60.066,66.984 -59.362,67.208C-58.658,67.432 -58.146,67.848 -57.826,68.456ZM-98.626,91.256C-99.234,90.84 -99.602,90.28 -99.73,89.576C-99.858,88.872 -99.698,88.216 -99.25,87.608C-96.05,83.064 -93.922,77.88 -92.866,72.056C-92.706,71.288 -92.338,70.672 -91.762,70.208C-91.186,69.744 -90.514,69.528 -89.746,69.56L-88.93,69.56C-88.194,69.624 -87.586,69.944 -87.106,70.52C-86.626,71.096 -86.45,71.752 -86.578,72.488C-86.77,73.8 -87.01,75.048 -87.298,76.232C-87.362,76.488 -87.25,76.616 -86.962,76.616L-61.714,76.616C-60.978,76.616 -60.346,76.88 -59.818,77.408C-59.29,77.936 -59.026,78.568 -59.026,79.304L-59.026,79.64C-59.026,80.376 -59.29,81.016 -59.818,81.56C-60.346,82.104 -60.978,82.376 -61.714,82.376L-69.49,82.376C-69.746,82.376 -69.874,82.488 -69.874,82.712C-69.906,90.392 -71.314,96.288 -74.098,100.4C-76.882,104.512 -81.25,107.32 -87.202,108.824C-87.938,109.016 -88.634,108.904 -89.29,108.488C-89.946,108.072 -90.37,107.496 -90.562,106.76L-90.658,106.424C-90.85,105.72 -90.754,105.056 -90.37,104.432C-89.986,103.808 -89.426,103.4 -88.69,103.208C-84.37,102.024 -81.258,99.872 -79.354,96.752C-77.45,93.632 -76.482,88.968 -76.45,82.76C-76.45,82.504 -76.594,82.376 -76.882,82.376L-88.786,82.376C-89.074,82.376 -89.266,82.488 -89.362,82.712C-90.578,85.56 -92.162,88.28 -94.114,90.872C-94.594,91.512 -95.218,91.896 -95.986,92.024C-96.754,92.152 -97.474,91.992 -98.146,91.544L-98.626,91.256Z" style="fill:rgb(0,131,255);fill-rule:nonzero;"/>
                    <path d="M-83.716,73.616L-71.891,73.616C-72.059,73.292 -72.197,73.034 -72.304,72.841C-72.315,72.821 -72.326,72.801 -72.336,72.781C-73.045,71.434 -73.17,70.034 -72.709,68.581C-72.253,67.142 -71.357,66.071 -70.023,65.369C-70.004,65.36 -69.986,65.35 -69.967,65.341C-68.567,64.64 -67.148,64.551 -65.712,65.041C-65.181,65.222 -64.695,65.467 -64.256,65.776C-63.831,65.339 -63.32,64.969 -62.719,64.669C-61.364,63.991 -59.943,63.875 -58.452,64.349C-56.938,64.831 -55.859,65.751 -55.171,67.059C-55.161,67.077 -55.152,67.096 -55.142,67.114L-53.798,69.802C-53.09,71.219 -53.01,72.638 -53.506,74.055C-53.991,75.44 -54.907,76.495 -56.292,77.187C-56.327,77.205 -56.363,77.222 -56.398,77.239C-56.149,77.878 -56.026,78.567 -56.026,79.304L-56.026,79.64C-56.026,81.175 -56.564,82.515 -57.665,83.649C-58.791,84.809 -60.144,85.376 -61.714,85.376L-66.941,85.376C-67.281,92.505 -68.891,98.061 -71.613,102.082C-74.778,106.756 -79.696,110.021 -86.461,111.731C-88.023,112.134 -89.503,111.905 -90.896,111.022C-92.207,110.19 -93.053,109.039 -93.449,107.577C-93.454,107.557 -93.459,107.537 -93.465,107.517L-93.54,107.258L-90.658,109.424L-93.552,107.213C-93.972,105.675 -93.764,104.223 -92.925,102.86C-92.132,101.571 -90.987,100.713 -89.454,100.307C-85.99,99.352 -83.443,97.695 -81.914,95.189C-80.503,92.876 -79.75,89.59 -79.523,85.376L-87.274,85.376C-88.477,87.905 -89.956,90.338 -91.715,92.674C-92.682,93.962 -93.945,94.725 -95.492,94.983C-97.002,95.235 -98.422,94.944 -99.742,94.085L-100.169,93.828C-100.22,93.798 -100.27,93.766 -100.32,93.732C-101.627,92.838 -102.406,91.626 -102.681,90.113C-102.957,88.595 -102.644,87.173 -101.68,85.849C-98.739,81.662 -96.79,76.883 -95.818,71.521C-95.813,71.495 -95.808,71.47 -95.803,71.444C-95.492,69.955 -94.761,68.771 -93.644,67.872C-92.51,66.958 -91.194,66.512 -89.692,66.56L-88.93,66.56C-88.843,66.56 -88.756,66.564 -88.67,66.571C-87.11,66.707 -85.818,67.379 -84.801,68.599C-83.737,69.877 -83.343,71.33 -83.612,72.939C-83.645,73.166 -83.68,73.392 -83.716,73.616ZM-59.795,81.537L-59.026,82.304L-59.794,81.536C-59.282,80.997 -59.026,80.365 -59.026,79.64L-59.026,79.304C-59.026,78.568 -59.29,77.936 -59.818,77.408C-60.346,76.88 -60.978,76.616 -61.714,76.616L-86.962,76.616C-87.25,76.616 -87.362,76.488 -87.298,76.232C-87.01,75.048 -86.77,73.8 -86.578,72.488C-86.45,71.752 -86.626,71.096 -87.106,70.52C-87.586,69.944 -88.194,69.624 -88.93,69.56L-89.746,69.56C-90.514,69.528 -91.186,69.744 -91.762,70.208C-92.338,70.672 -92.706,71.288 -92.866,72.056C-93.922,77.88 -96.05,83.064 -99.25,87.608C-99.698,88.216 -99.858,88.872 -99.73,89.576C-99.602,90.28 -99.234,90.84 -98.626,91.256L-98.146,91.544C-97.474,91.992 -96.754,92.152 -95.986,92.024C-95.218,91.896 -94.594,91.512 -94.114,90.872C-92.162,88.28 -90.578,85.56 -89.362,82.712C-89.266,82.488 -89.074,82.376 -88.786,82.376L-76.882,82.376C-76.594,82.376 -76.45,82.504 -76.45,82.76C-76.482,88.968 -77.45,93.632 -79.354,96.752C-81.258,99.872 -84.37,102.024 -88.69,103.208C-89.426,103.4 -89.986,103.808 -90.37,104.432C-90.754,105.056 -90.85,105.72 -90.658,106.424L-90.562,106.76C-90.37,107.496 -89.946,108.072 -89.29,108.488C-88.634,108.904 -87.938,109.016 -87.202,108.824C-81.25,107.32 -76.882,104.512 -74.098,100.4C-71.314,96.288 -69.906,90.392 -69.874,82.712C-69.874,82.488 -69.746,82.376 -69.49,82.376L-61.714,82.376C-60.978,82.376 -60.346,82.104 -59.818,81.56C-59.81,81.552 -59.803,81.545 -59.795,81.537ZM-68.626,68.024C-69.234,68.344 -69.642,68.832 -69.85,69.488C-70.058,70.144 -70.002,70.776 -69.682,71.384C-69.522,71.672 -69.298,72.096 -69.01,72.656C-68.722,73.216 -68.498,73.64 -68.338,73.928C-68.018,74.536 -67.53,74.952 -66.874,75.176C-66.218,75.4 -65.586,75.368 -64.978,75.08C-64.338,74.792 -63.906,74.32 -63.682,73.664C-63.458,73.008 -63.506,72.36 -63.826,71.72C-63.986,71.432 -64.21,71.008 -64.498,70.448C-64.786,69.888 -65.01,69.464 -65.17,69.176C-65.522,68.536 -66.026,68.104 -66.682,67.88C-67.338,67.656 -67.986,67.704 -68.626,68.024ZM-57.826,68.456C-58.146,67.848 -58.658,67.432 -59.362,67.208C-60.066,66.984 -60.738,67.032 -61.378,67.352C-62.018,67.672 -62.442,68.16 -62.65,68.816C-62.858,69.472 -62.802,70.12 -62.482,70.76C-61.842,71.912 -61.378,72.776 -61.09,73.352C-60.738,73.992 -60.234,74.424 -59.578,74.648C-58.922,74.872 -58.274,74.824 -57.634,74.504C-56.994,74.184 -56.562,73.704 -56.338,73.064C-56.114,72.424 -56.162,71.784 -56.482,71.144L-57.826,68.456Z" style="fill:rgb(0,131,255);"/>
                    <path d="M-47.986,92.936C-48.722,92.936 -49.354,92.664 -49.882,92.12C-50.41,91.576 -50.674,90.936 -50.674,90.2L-50.674,89.24C-50.674,88.504 -50.41,87.864 -49.882,87.32C-49.354,86.776 -48.722,86.504 -47.986,86.504L-13.714,86.504C-12.978,86.504 -12.346,86.776 -11.818,87.32C-11.29,87.864 -11.026,88.504 -11.026,89.24L-11.026,90.2C-11.026,90.936 -11.29,91.576 -11.818,92.12C-12.346,92.664 -12.978,92.936 -13.714,92.936L-47.986,92.936Z" style="fill:rgb(0,131,255);fill-rule:nonzero;"/>
                    <path d="M-47.986,95.936C-49.555,95.936 -50.909,95.369 -52.034,94.209C-53.136,93.075 -53.674,91.735 -53.674,90.2L-53.674,89.24C-53.674,87.705 -53.136,86.365 -52.034,85.231C-50.909,84.071 -49.555,83.504 -47.986,83.504L-13.714,83.504C-12.144,83.504 -10.791,84.071 -9.665,85.231C-8.564,86.365 -8.026,87.705 -8.026,89.24L-8.026,90.2C-8.026,91.735 -8.564,93.075 -9.665,94.209C-10.791,95.369 -12.144,95.936 -13.714,95.936L-47.986,95.936ZM-47.986,92.936L-13.714,92.936C-12.978,92.936 -12.346,92.664 -11.818,92.12C-11.29,91.576 -11.026,90.936 -11.026,90.2L-11.026,89.24C-11.026,88.504 -11.29,87.864 -11.818,87.32C-12.346,86.776 -12.978,86.504 -13.714,86.504L-47.986,86.504C-48.722,86.504 -49.354,86.776 -49.882,87.32C-50.41,87.864 -50.674,88.504 -50.674,89.24L-50.674,90.2C-50.674,90.936 -50.41,91.576 -49.882,92.12C-49.354,92.664 -48.722,92.936 -47.986,92.936Z" style="fill:rgb(0,131,255);"/>
                    <path d="M-0.706,107.384C-1.442,107.416 -2.098,107.168 -2.674,106.64C-3.25,106.112 -3.554,105.48 -3.586,104.744L-3.586,104.456C-3.618,103.72 -3.37,103.072 -2.842,102.512C-2.314,101.952 -1.682,101.64 -0.946,101.576C-0.754,101.544 -0.466,101.528 -0.082,101.528C0.302,101.528 0.59,101.512 0.782,101.48C1.038,101.48 1.214,101.352 1.31,101.096L1.31,101.048C4.574,92.312 7.454,82.888 9.95,72.776C10.142,72.04 10.558,71.464 11.198,71.048C11.838,70.632 12.526,70.504 13.262,70.664L14.462,70.856C15.198,71.016 15.766,71.408 16.166,72.032C16.566,72.656 16.686,73.32 16.526,74.024C14.318,83.208 11.662,92.056 8.558,100.568C8.494,100.824 8.59,100.952 8.846,100.952C14.958,100.44 21.262,99.72 27.758,98.792C28.046,98.728 28.126,98.568 27.998,98.312C26.27,94.6 24.99,91.88 24.158,90.152C23.806,89.48 23.75,88.792 23.99,88.088C24.23,87.384 24.702,86.872 25.406,86.552L26.318,86.168C27.022,85.848 27.726,85.816 28.43,86.072C29.134,86.328 29.662,86.792 30.014,87.464C32.382,92.392 34.926,97.88 37.646,103.928C37.966,104.6 37.982,105.272 37.694,105.944C37.406,106.616 36.91,107.096 36.206,107.384L35.198,107.816C34.494,108.104 33.798,108.104 33.11,107.816C32.422,107.528 31.918,107.032 31.598,106.328C31.566,106.296 31.454,106.064 31.262,105.632C31.07,105.2 30.926,104.872 30.83,104.648C30.734,104.36 30.558,104.248 30.302,104.312C19.486,105.912 9.15,106.936 -0.706,107.384Z" style="fill:rgb(0,131,255);fill-rule:nonzero;"/>
                    <path d="M-0.969,98.561C2.039,90.333 4.707,81.498 7.038,72.057C7.041,72.044 7.044,72.031 7.047,72.019C7.435,70.534 8.273,69.372 9.563,68.533C10.883,67.675 12.3,67.406 13.805,67.713L14.936,67.894C14.991,67.902 15.045,67.913 15.1,67.924C16.653,68.262 17.848,69.096 18.692,70.413C19.55,71.752 19.795,73.179 19.452,74.689C19.449,74.701 19.446,74.713 19.443,74.725C17.553,82.587 15.339,90.205 12.8,97.58C16.387,97.229 20.039,96.807 23.755,96.315C22.795,94.265 22.037,92.662 21.486,91.516C20.745,90.085 20.64,88.619 21.151,87.12C21.664,85.614 22.659,84.505 24.165,83.821C24.191,83.809 24.216,83.798 24.242,83.787C24.242,83.787 25.122,83.417 25.113,83.421C26.56,82.773 28.008,82.726 29.456,83.253C30.883,83.772 31.958,84.709 32.672,86.072C32.688,86.103 32.703,86.134 32.718,86.165C35.093,91.106 37.644,96.609 40.355,102.639C41.067,104.134 41.093,105.63 40.452,107.126C39.851,108.527 38.832,109.544 37.37,110.149L36.38,110.573C36.365,110.58 36.35,110.586 36.334,110.593C34.857,111.197 33.396,111.188 31.952,110.583C30.553,109.998 29.518,109.001 28.867,107.569L28.919,107.644C28.902,107.614 28.885,107.583 28.867,107.551C18.624,109.012 8.812,109.954 -0.569,110.381L-0.575,110.381C-2.115,110.448 -3.496,109.956 -4.701,108.851C-5.881,107.769 -6.491,106.467 -6.578,104.966C-6.58,104.936 -6.582,104.905 -6.583,104.874C-6.585,104.829 -6.586,104.784 -6.586,104.737L-6.586,104.511C-6.634,102.98 -6.127,101.623 -5.024,100.454C-3.984,99.351 -2.736,98.74 -1.308,98.597C-1.208,98.583 -1.095,98.571 -0.969,98.561ZM2.234,104.229C4.116,104.122 6.016,103.994 7.932,103.845C7.112,103.638 6.562,103.162 6.182,102.656C5.706,102.021 5.331,101.11 5.648,99.84C5.673,99.739 5.704,99.639 5.74,99.54C8.762,91.252 11.354,82.64 13.509,73.742L12.829,73.633C10.311,83.811 7.408,93.299 4.121,102.098L1.758,103.737C1.489,103.957 1.31,104.096 1.31,104.096L4.119,102.149C3.72,103.213 3.08,103.894 2.234,104.229ZM0.225,98.527C0.249,98.526 0.27,98.524 0.289,98.521C0.452,98.494 0.617,98.48 0.782,98.48C0.587,98.48 0.401,98.496 0.225,98.527ZM-3.586,107.744C-3.586,107.744 -5.176,107.603 -6.04,106.469C-5.496,107.242 -4.598,107.744 -3.586,107.744ZM-3.586,107.744C-2.956,107.744 -2.347,107.546 -1.842,107.185C-1.487,107.335 -1.108,107.402 -0.706,107.384C9.15,106.936 19.486,105.912 30.302,104.312C30.558,104.248 30.734,104.36 30.83,104.648C30.926,104.872 31.07,105.2 31.262,105.632C31.454,106.064 31.566,106.296 31.598,106.328C31.918,107.032 32.422,107.528 33.11,107.816C33.798,108.104 34.494,108.104 35.198,107.816L36.206,107.384C36.91,107.096 37.406,106.616 37.694,105.944C37.982,105.272 37.966,104.6 37.646,103.928C34.926,97.88 32.382,92.392 30.014,87.464C29.662,86.792 29.134,86.328 28.43,86.072C27.726,85.816 27.022,85.848 26.318,86.168L25.406,86.552C24.702,86.872 24.23,87.384 23.99,88.088C23.75,88.792 23.806,89.48 24.158,90.152C24.99,91.88 26.27,94.6 27.998,98.312C28.126,98.568 28.046,98.728 27.758,98.792C21.262,99.72 14.958,100.44 8.846,100.952C8.59,100.952 8.494,100.824 8.558,100.568C11.662,92.056 14.318,83.208 16.526,74.024C16.686,73.32 16.566,72.656 16.166,72.032C15.766,71.408 15.198,71.016 14.462,70.856L13.262,70.664C12.526,70.504 11.838,70.632 11.198,71.048C10.558,71.464 10.142,72.04 9.95,72.776C7.454,82.888 4.574,92.312 1.31,101.048L1.31,101.096C1.214,101.352 1.038,101.48 0.782,101.48C0.59,101.512 0.302,101.528 -0.082,101.528C-0.21,101.528 -0.328,101.53 -0.435,101.533L-1.488,100.015C-1.492,100.024 -1.495,100.033 -1.499,100.043L-0.465,101.534C-0.625,101.54 -0.76,101.551 -0.87,101.565C-1.335,101.088 -1.69,100.804 -1.69,101.049C-1.69,101.29 -1.666,101.511 -1.624,101.715C-2.078,101.866 -2.484,102.132 -2.842,102.512C-3.37,103.072 -3.618,103.72 -3.586,104.456L-3.586,104.744C-3.554,105.48 -3.25,106.112 -2.674,106.64C-2.43,106.863 -2.172,107.037 -1.9,107.16C-2.706,107.666 -3.586,107.744 -3.586,107.744ZM29.244,101.436C29.411,101.412 29.579,101.387 29.747,101.362C30.728,101.162 31.549,101.38 32.237,101.817C32.782,102.164 33.306,102.7 33.626,103.555C33.717,103.765 33.843,104.051 34.004,104.414C34.069,104.56 34.145,104.724 34.182,104.804C34.211,104.852 34.238,104.902 34.264,104.952L34.728,104.754C32.125,98.973 29.685,93.71 27.407,88.965L26.999,89.137C27.833,90.876 29.069,93.503 30.703,97.013C31.287,98.215 31.095,99.212 30.718,99.966C30.446,100.509 30.003,101.071 29.244,101.436Z" style="fill:rgb(0,131,255);"/>
                    <path d="M48.014,91.736L47.582,91.4C47.038,90.92 46.75,90.304 46.718,89.552C46.686,88.8 46.91,88.152 47.39,87.608C51.39,83.032 54.014,77.8 55.262,71.912C55.422,71.144 55.798,70.52 56.39,70.04C56.982,69.56 57.662,69.336 58.43,69.368L59.246,69.416C59.982,69.48 60.59,69.8 61.07,70.376C61.55,70.952 61.726,71.592 61.598,72.296C61.566,72.616 61.486,73.016 61.358,73.496C61.294,73.752 61.406,73.88 61.694,73.88L79.694,73.88C80.462,73.88 81.118,74.144 81.662,74.672C82.206,75.2 82.462,75.832 82.43,76.568C82.206,86.744 79.758,94.368 75.086,99.44C70.414,104.512 63.07,107.64 53.054,108.824C52.286,108.92 51.59,108.728 50.966,108.248C50.342,107.768 49.966,107.144 49.838,106.376L49.742,105.992C49.614,105.288 49.774,104.64 50.222,104.048C50.67,103.456 51.262,103.112 51.998,103.016C59.902,101.96 65.654,99.696 69.254,96.224C72.854,92.752 74.942,87.352 75.518,80.024C75.518,79.768 75.39,79.64 75.134,79.64L59.966,79.64C59.678,79.64 59.486,79.768 59.39,80.024C57.694,84.216 55.214,88.072 51.95,91.592C51.438,92.168 50.798,92.464 50.03,92.48C49.262,92.496 48.59,92.248 48.014,91.736Z" style="fill:rgb(0,131,255);fill-rule:nonzero;"/>
                    <path d="M64.561,70.88L79.694,70.88C81.279,70.88 82.63,71.43 83.752,72.519C84.94,73.673 85.49,75.058 85.429,76.663C85.181,87.72 82.372,95.959 77.293,101.473C72.216,106.984 64.293,110.516 53.41,111.803C51.84,111.995 50.414,111.608 49.137,110.626C47.923,109.692 47.18,108.483 46.903,107.004L46.835,106.73L49.742,108.992L46.791,106.529C46.509,104.976 46.842,103.543 47.83,102.238C48.784,100.978 50.044,100.246 51.601,100.042C58.71,99.093 63.934,97.187 67.172,94.065C69.846,91.485 71.467,87.655 72.209,82.64L61.532,82.64C59.74,86.589 57.284,90.252 54.171,93.609C53.082,94.823 51.722,95.445 50.093,95.479C48.58,95.511 47.25,95.036 46.106,94.052L46.098,94.046L45.741,93.768C45.692,93.73 45.644,93.69 45.597,93.65C44.427,92.616 43.79,91.298 43.721,89.68C43.654,88.108 44.138,86.76 45.132,85.634C48.787,81.452 51.187,76.671 52.325,71.3C52.633,69.825 53.364,68.632 54.501,67.71C55.678,66.756 57.029,66.307 58.555,66.371C58.572,66.371 58.589,66.372 58.607,66.373L59.423,66.421C59.45,66.423 59.478,66.425 59.506,66.427C61.066,66.563 62.358,67.235 63.375,68.455C64.008,69.215 64.4,70.026 64.561,70.88ZM48.014,91.736C48.59,92.248 49.262,92.496 50.03,92.48C50.798,92.464 51.438,92.168 51.95,91.592C55.214,88.072 57.694,84.216 59.39,80.024C59.486,79.768 59.678,79.64 59.966,79.64L75.134,79.64C75.39,79.64 75.518,79.768 75.518,80.024C74.942,87.352 72.854,92.752 69.254,96.224C65.654,99.696 59.902,101.96 51.998,103.016C51.262,103.112 50.67,103.456 50.222,104.048C49.774,104.64 49.614,105.288 49.742,105.992L49.838,106.376C49.966,107.144 50.342,107.768 50.966,108.248C51.59,108.728 52.286,108.92 53.054,108.824C63.07,107.64 70.414,104.512 75.086,99.44C79.758,94.368 82.206,86.744 82.43,76.568C82.462,75.832 82.206,75.2 81.662,74.672C81.118,74.144 80.462,73.88 79.694,73.88L61.694,73.88C61.406,73.88 61.294,73.752 61.358,73.496C61.486,73.016 61.566,72.616 61.598,72.296C61.726,71.592 61.55,70.952 61.07,70.376C60.59,69.8 59.982,69.48 59.246,69.416L58.43,69.368C57.662,69.336 56.982,69.56 56.39,70.04C55.798,70.52 55.422,71.144 55.262,71.912C54.014,77.8 51.39,83.032 47.39,87.608C46.91,88.152 46.686,88.8 46.718,89.552C46.75,90.304 47.038,90.92 47.582,91.4L48.014,91.736Z" style="fill:rgb(0,131,255);"/>
                    <path d="M125.966,70.664C126.702,70.664 127.334,70.936 127.862,71.48C128.39,72.024 128.654,72.664 128.654,73.4L128.654,83.816C128.654,91.624 126.854,97.584 123.254,101.696C119.654,105.808 114.014,108.424 106.334,109.544C105.566,109.672 104.854,109.512 104.198,109.064C103.542,108.616 103.134,108.008 102.974,107.24L102.878,106.616C102.718,105.912 102.838,105.264 103.238,104.672C103.638,104.08 104.206,103.72 104.942,103.592C111.246,102.536 115.63,100.552 118.094,97.64C120.558,94.728 121.79,90.168 121.79,83.96L121.79,73.4C121.79,72.664 122.062,72.024 122.606,71.48C123.15,70.936 123.79,70.664 124.526,70.664L125.966,70.664ZM100.334,92.264C99.598,92.264 98.966,92 98.438,91.472C97.91,90.944 97.646,90.312 97.646,89.576L97.646,73.4C97.646,72.664 97.91,72.024 98.438,71.48C98.966,70.936 99.598,70.664 100.334,70.664L101.63,70.664C102.366,70.664 103.006,70.936 103.55,71.48C104.094,72.024 104.366,72.664 104.366,73.4L104.366,89.576C104.366,90.312 104.094,90.944 103.55,91.472C103.006,92 102.366,92.264 101.63,92.264L100.334,92.264Z" style="fill:rgb(0,131,255);fill-rule:nonzero;"/>
                    <path d="M125.966,67.664C127.536,67.664 128.889,68.231 130.015,69.391C131.116,70.525 131.654,71.865 131.654,73.4L131.654,83.816C131.654,92.505 129.518,99.096 125.512,103.672C121.514,108.239 115.308,111.265 106.796,112.508C105.255,112.758 103.824,112.441 102.506,111.541C101.181,110.636 100.361,109.404 100.037,107.852C100.027,107.8 100.017,107.748 100.009,107.696C100.009,107.696 99.927,107.161 99.929,107.173C99.613,105.662 99.89,104.269 100.753,102.992C101.618,101.711 102.836,100.913 104.428,100.636C104.434,100.635 104.441,100.634 104.447,100.633C109.854,99.728 113.691,98.2 115.804,95.702C117.911,93.212 118.79,89.268 118.79,83.96L118.79,73.4C118.79,71.854 119.342,70.501 120.485,69.359C121.628,68.216 122.98,67.664 124.526,67.664L125.966,67.664ZM125.966,70.664L124.526,70.664C123.79,70.664 123.15,70.936 122.606,71.48C122.062,72.024 121.79,72.664 121.79,73.4L121.79,83.96C121.79,90.168 120.558,94.728 118.094,97.64C115.63,100.552 111.246,102.536 104.942,103.592C104.206,103.72 103.638,104.08 103.238,104.672C102.838,105.264 102.718,105.912 102.878,106.616L102.974,107.24C103.134,108.008 103.542,108.616 104.198,109.064C104.854,109.512 105.566,109.672 106.334,109.544C114.014,108.424 119.654,105.808 123.254,101.696C126.854,97.584 128.654,91.624 128.654,83.816L128.654,73.4C128.654,72.664 128.39,72.024 127.862,71.48C127.334,70.936 126.702,70.664 125.966,70.664ZM100.334,95.264C98.776,95.264 97.435,94.711 96.317,93.593C95.199,92.475 94.646,91.134 94.646,89.576L94.646,73.4C94.646,71.865 95.184,70.525 96.286,69.391C97.411,68.231 98.765,67.664 100.334,67.664L101.63,67.664C103.176,67.664 104.529,68.216 105.672,69.359C106.814,70.501 107.366,71.854 107.366,73.4L107.366,89.576C107.366,91.145 106.8,92.499 105.64,93.625C104.505,94.726 103.165,95.264 101.63,95.264L100.334,95.264ZM100.334,92.264L101.63,92.264C102.366,92.264 103.006,92 103.55,91.472C104.094,90.944 104.366,90.312 104.366,89.576L104.366,73.4C104.366,72.664 104.094,72.024 103.55,71.48C103.006,70.936 102.366,70.664 101.63,70.664L100.334,70.664C99.598,70.664 98.966,70.936 98.438,71.48C97.91,72.024 97.646,72.664 97.646,73.4L97.646,89.576C97.646,90.312 97.91,90.944 98.438,91.472C98.966,92 99.598,92.264 100.334,92.264Z" style="fill:rgb(0,131,255);"/>
                    <path d="M145.31,77.72C144.574,77.72 143.934,77.448 143.39,76.904C142.846,76.36 142.574,75.72 142.574,74.984L142.574,74.84C142.574,74.104 142.846,73.464 143.39,72.92C143.934,72.376 144.574,72.104 145.31,72.104L178.766,72.104C179.502,72.104 180.134,72.376 180.662,72.92C181.19,73.464 181.454,74.104 181.454,74.84L181.454,74.984C181.454,77.096 181.15,78.856 180.542,80.264C178.494,85.032 175.278,88.968 170.894,92.072C170.254,92.52 169.55,92.68 168.782,92.552C168.014,92.424 167.39,92.04 166.91,91.4L166.478,90.776C166.062,90.2 165.91,89.56 166.022,88.856C166.134,88.152 166.494,87.576 167.102,87.128C170.686,84.568 173.134,81.56 174.446,78.104C174.574,77.848 174.494,77.72 174.206,77.72L145.31,77.72ZM157.79,81.56L158.75,81.56C159.486,81.56 160.126,81.832 160.67,82.376C161.214,82.92 161.47,83.56 161.438,84.296C161.278,90.92 160.398,95.984 158.798,99.488C157.198,102.992 154.478,105.832 150.638,108.008C149.966,108.392 149.254,108.48 148.502,108.272C147.75,108.064 147.166,107.624 146.75,106.952L146.414,106.328C146.03,105.72 145.926,105.072 146.102,104.384C146.278,103.696 146.67,103.16 147.278,102.776C150.03,101.112 151.982,98.928 153.134,96.224C154.286,93.52 154.926,89.528 155.054,84.248C155.086,83.512 155.366,82.88 155.894,82.352C156.422,81.824 157.054,81.56 157.79,81.56Z" style="fill:rgb(0,131,255);fill-rule:nonzero;"/>
                    <path d="M184.454,74.84L184.454,74.844C184.454,74.893 184.453,74.94 184.451,74.988L184.454,74.984C184.454,77.573 184.043,79.724 183.298,81.451C181.031,86.726 177.479,91.086 172.628,94.52C172.624,94.524 172.619,94.527 172.615,94.53C171.304,95.447 169.862,95.773 168.289,95.511C166.741,95.253 165.478,94.49 164.51,93.2C164.488,93.17 164.465,93.139 164.444,93.108C164.444,93.108 164.031,92.512 164.046,92.532C163.968,92.424 163.894,92.314 163.824,92.204C163.329,95.643 162.554,98.485 161.527,100.734C159.677,104.785 156.563,108.097 152.125,110.614C150.733,111.408 149.26,111.594 147.703,111.163C146.2,110.748 145.031,109.873 144.2,108.531C144.168,108.48 144.138,108.427 144.109,108.374C144.109,108.374 143.815,107.828 143.822,107.84C143.021,106.525 142.816,105.124 143.196,103.641C143.568,102.187 144.392,101.051 145.676,100.24C145.693,100.229 145.709,100.219 145.726,100.209C147.901,98.894 149.464,97.185 150.374,95.048C151.419,92.595 151.939,88.965 152.055,84.175C152.056,84.156 152.056,84.137 152.057,84.118C152.113,82.831 152.535,81.697 153.331,80.72L145.31,80.72C143.764,80.72 142.412,80.168 141.269,79.025C140.126,77.883 139.574,76.53 139.574,74.984L139.574,74.844L142.574,77.84L139.574,74.84C139.574,73.294 140.126,71.941 141.269,70.799C142.412,69.656 143.764,69.104 145.31,69.104L178.766,69.104C180.336,69.104 181.689,69.671 182.815,70.831C183.916,71.965 184.454,73.305 184.454,74.84ZM157.79,81.56C157.054,81.56 156.422,81.824 155.894,82.352C155.366,82.88 155.086,83.512 155.054,84.248C154.926,89.528 154.286,93.52 153.134,96.224C151.982,98.928 150.03,101.112 147.278,102.776C146.67,103.16 146.278,103.696 146.102,104.384C145.926,105.072 146.03,105.72 146.414,106.328L146.75,106.952C147.166,107.624 147.75,108.064 148.502,108.272C149.254,108.48 149.966,108.392 150.638,108.008C154.478,105.832 157.198,102.992 158.798,99.488C160.398,95.984 161.278,90.92 161.438,84.296C161.47,83.56 161.214,82.92 160.67,82.376C160.126,81.832 159.486,81.56 158.75,81.56L157.79,81.56ZM163.214,80.72C164.091,81.788 164.49,83.016 164.437,84.394C164.427,84.781 164.415,85.163 164.401,85.541C164.669,85.244 164.976,84.968 165.323,84.713C165.335,84.704 165.347,84.695 165.359,84.687C167.053,83.477 168.46,82.158 169.567,80.72L163.214,80.72ZM181.265,77.651C181.391,76.835 181.454,75.946 181.454,74.984L181.454,74.84C181.454,74.104 181.19,73.464 180.662,72.92C180.134,72.376 179.502,72.104 178.766,72.104L145.31,72.104C144.574,72.104 143.934,72.376 143.39,72.92C142.846,73.464 142.574,74.104 142.574,74.84L142.574,74.984C142.574,75.72 142.846,76.36 143.39,76.904C143.934,77.448 144.574,77.72 145.31,77.72L174.206,77.72C174.494,77.72 174.574,77.848 174.446,78.104C173.134,81.56 170.686,84.568 167.102,87.128C166.494,87.576 166.134,88.152 166.022,88.856C165.91,89.56 166.062,90.2 166.478,90.776L166.91,91.4C167.39,92.04 168.014,92.424 168.782,92.552C169.55,92.68 170.254,92.52 170.894,92.072C175.278,88.968 178.494,85.032 180.542,80.264C180.873,79.497 181.114,78.626 181.265,77.651Z" style="fill:rgb(0,131,255);"/>
                    <path d="M192.014,92.936C191.278,92.936 190.646,92.664 190.118,92.12C189.59,91.576 189.326,90.936 189.326,90.2L189.326,89.24C189.326,88.504 189.59,87.864 190.118,87.32C190.646,86.776 191.278,86.504 192.014,86.504L226.286,86.504C227.022,86.504 227.654,86.776 228.182,87.32C228.71,87.864 228.974,88.504 228.974,89.24L228.974,90.2C228.974,90.936 228.71,91.576 228.182,92.12C227.654,92.664 227.022,92.936 226.286,92.936L192.014,92.936Z" style="fill:rgb(0,131,255);fill-rule:nonzero;"/>
                    <path d="M192.014,95.936C190.445,95.936 189.091,95.369 187.966,94.209C186.864,93.075 186.326,91.735 186.326,90.2L186.326,89.24C186.326,87.705 186.864,86.365 187.966,85.231C189.091,84.071 190.445,83.504 192.014,83.504L226.286,83.504C227.856,83.504 229.209,84.071 230.335,85.231C231.436,86.365 231.974,87.705 231.974,89.24L231.974,90.2C231.974,91.735 231.436,93.075 230.335,94.209C229.209,95.369 227.856,95.936 226.286,95.936L192.014,95.936ZM192.014,92.936L226.286,92.936C227.022,92.936 227.654,92.664 228.182,92.12C228.71,91.576 228.974,90.936 228.974,90.2L228.974,89.24C228.974,88.504 228.71,87.864 228.182,87.32C227.654,86.776 227.022,86.504 226.286,86.504L192.014,86.504C191.278,86.504 190.646,86.776 190.118,87.32C189.59,87.864 189.326,88.504 189.326,89.24L189.326,90.2C189.326,90.936 189.59,91.576 190.118,92.12C190.646,92.664 191.278,92.936 192.014,92.936Z" style="fill:rgb(0,131,255);"/>
                    <path d="M256.814,96.44C256.046,96.44 255.39,96.176 254.846,95.648C254.302,95.12 254.014,94.472 253.982,93.704L253.262,74.696C253.23,73.96 253.47,73.32 253.982,72.776C254.494,72.232 255.118,71.96 255.854,71.96L258.446,71.96C259.182,71.96 259.806,72.232 260.318,72.776C260.83,73.32 261.07,73.96 261.038,74.696L260.318,93.704C260.286,94.472 259.998,95.12 259.454,95.648C258.91,96.176 258.254,96.44 257.486,96.44L256.814,96.44ZM257.966,100.28C258.702,100.28 259.334,100.552 259.862,101.096C260.39,101.64 260.654,102.28 260.654,103.016L260.654,104.264C260.654,105 260.39,105.64 259.862,106.184C259.334,106.728 258.702,107 257.966,107L256.334,107C255.598,107 254.966,106.728 254.438,106.184C253.91,105.64 253.646,105 253.646,104.264L253.646,103.016C253.646,102.28 253.91,101.64 254.438,101.096C254.966,100.552 255.598,100.28 256.334,100.28L257.966,100.28Z" style="fill:rgb(0,131,255);fill-rule:nonzero;"/>
                    <path d="M261.077,98.212C261.405,98.436 261.718,98.701 262.015,99.007C263.116,100.141 263.654,101.481 263.654,103.016L263.654,104.264C263.654,105.799 263.116,107.139 262.015,108.273C260.889,109.433 259.536,110 257.966,110L256.334,110C254.765,110 253.411,109.433 252.286,108.273C251.184,107.139 250.646,105.799 250.646,104.264L250.646,103.016C250.646,101.481 251.184,100.141 252.286,99.007C252.583,98.701 252.895,98.436 253.224,98.212C253.064,98.085 252.908,97.948 252.757,97.801C251.645,96.721 251.05,95.399 250.985,93.829L250.984,93.818C250.984,93.818 250.264,74.81 250.265,74.826C250.197,73.253 250.703,71.883 251.798,70.72C252.906,69.542 254.261,68.96 255.854,68.96L258.446,68.96C260.04,68.96 261.394,69.542 262.503,70.72C263.597,71.883 264.104,73.253 264.036,74.81L263.316,93.818L263.316,93.829C263.25,95.399 262.656,96.721 261.544,97.801C261.392,97.948 261.237,98.085 261.077,98.212ZM256.814,96.44L257.486,96.44C258.254,96.44 258.91,96.176 259.454,95.648C259.998,95.12 260.286,94.472 260.318,93.704L261.038,74.696C261.07,73.96 260.83,73.32 260.318,72.776C259.806,72.232 259.182,71.96 258.446,71.96L255.854,71.96C255.118,71.96 254.494,72.232 253.982,72.776C253.47,73.32 253.23,73.96 253.262,74.696L253.982,93.704C254.014,94.472 254.302,95.12 254.846,95.648C255.39,96.176 256.046,96.44 256.814,96.44ZM257.966,100.28L256.334,100.28C255.598,100.28 254.966,100.552 254.438,101.096C253.91,101.64 253.646,102.28 253.646,103.016L253.646,104.264C253.646,105 253.91,105.64 254.438,106.184C254.966,106.728 255.598,107 256.334,107L257.966,107C258.702,107 259.334,106.728 259.862,106.184C260.39,105.64 260.654,105 260.654,104.264L260.654,103.016C260.654,102.28 260.39,101.64 259.862,101.096C259.334,100.552 258.702,100.28 257.966,100.28Z" style="fill:rgb(0,131,255);"/>
                </g>
                <g transform="matrix(1,0,0,1,157.88,106)">
                    <path d="M-68.626,68.024C-67.986,67.704 -67.338,67.656 -66.682,67.88C-66.026,68.104 -65.522,68.536 -65.17,69.176C-65.01,69.464 -64.786,69.888 -64.498,70.448C-64.21,71.008 -63.986,71.432 -63.826,71.72C-63.506,72.36 -63.458,73.008 -63.682,73.664C-63.906,74.32 -64.338,74.792 -64.978,75.08C-65.586,75.368 -66.218,75.4 -66.874,75.176C-67.53,74.952 -68.018,74.536 -68.338,73.928C-68.498,73.64 -68.722,73.216 -69.01,72.656C-69.298,72.096 -69.522,71.672 -69.682,71.384C-70.002,70.776 -70.058,70.144 -69.85,69.488C-69.642,68.832 -69.234,68.344 -68.626,68.024ZM-57.826,68.456C-57.666,68.776 -56.61,70.888 -56.482,71.144C-56.162,71.784 -56.114,72.424 -56.338,73.064C-56.562,73.704 -56.994,74.184 -57.634,74.504C-58.274,74.824 -58.922,74.872 -59.578,74.648C-60.234,74.424 -60.738,73.992 -61.09,73.352C-61.378,72.776 -61.842,71.912 -62.482,70.76C-62.802,70.12 -62.858,69.472 -62.65,68.816C-62.442,68.16 -62.018,67.672 -61.378,67.352C-60.738,67.032 -60.066,66.984 -59.362,67.208C-58.658,67.432 -58.146,67.848 -57.826,68.456ZM-98.626,91.256C-99.234,90.84 -99.602,90.28 -99.73,89.576C-99.858,88.872 -99.698,88.216 -99.25,87.608C-96.05,83.064 -93.922,77.88 -92.866,72.056C-92.706,71.288 -92.338,70.672 -91.762,70.208C-91.186,69.744 -90.514,69.528 -89.746,69.56L-88.93,69.56C-88.194,69.624 -87.586,69.944 -87.106,70.52C-86.626,71.096 -86.45,71.752 -86.578,72.488C-86.77,73.8 -87.01,75.048 -87.298,76.232C-87.362,76.488 -87.25,76.616 -86.962,76.616L-61.714,76.616C-60.978,76.616 -60.346,76.88 -59.818,77.408C-59.29,77.936 -59.026,78.568 -59.026,79.304L-59.026,79.64C-59.026,80.376 -59.29,81.016 -59.818,81.56C-60.346,82.104 -60.978,82.376 -61.714,82.376L-69.49,82.376C-69.746,82.376 -69.874,82.488 -69.874,82.712C-69.906,90.392 -71.314,96.288 -74.098,100.4C-76.882,104.512 -81.25,107.32 -87.202,108.824C-87.938,109.016 -88.634,108.904 -89.29,108.488C-89.946,108.072 -90.37,107.496 -90.562,106.76L-90.658,106.424C-90.85,105.72 -90.754,105.056 -90.37,104.432C-89.986,103.808 -89.426,103.4 -88.69,103.208C-84.37,102.024 -81.258,99.872 -79.354,96.752C-77.45,93.632 -76.482,88.968 -76.45,82.76C-76.45,82.504 -76.594,82.376 -76.882,82.376L-88.786,82.376C-89.074,82.376 -89.266,82.488 -89.362,82.712C-90.578,85.56 -92.162,88.28 -94.114,90.872C-94.594,91.512 -95.218,91.896 -95.986,92.024C-96.754,92.152 -97.474,91.992 -98.146,91.544L-98.626,91.256Z" style="fill:rgb(13,242,239);fill-rule:nonzero;"/>
                    <path d="M-47.986,92.936C-48.722,92.936 -49.354,92.664 -49.882,92.12C-50.41,91.576 -50.674,90.936 -50.674,90.2L-50.674,89.24C-50.674,88.504 -50.41,87.864 -49.882,87.32C-49.354,86.776 -48.722,86.504 -47.986,86.504L-13.714,86.504C-12.978,86.504 -12.346,86.776 -11.818,87.32C-11.29,87.864 -11.026,88.504 -11.026,89.24L-11.026,90.2C-11.026,90.936 -11.29,91.576 -11.818,92.12C-12.346,92.664 -12.978,92.936 -13.714,92.936L-47.986,92.936Z" style="fill:rgb(13,242,239);fill-rule:nonzero;"/>
                    <path d="M-0.706,107.384C-1.442,107.416 -2.098,107.168 -2.674,106.64C-3.25,106.112 -3.554,105.48 -3.586,104.744L-3.586,104.456C-3.618,103.72 -3.37,103.072 -2.842,102.512C-2.314,101.952 -1.682,101.64 -0.946,101.576C-0.754,101.544 -0.466,101.528 -0.082,101.528C0.302,101.528 0.59,101.512 0.782,101.48C1.038,101.48 1.214,101.352 1.31,101.096L1.31,101.048C4.574,92.312 7.454,82.888 9.95,72.776C10.142,72.04 10.558,71.464 11.198,71.048C11.838,70.632 12.526,70.504 13.262,70.664L14.462,70.856C15.198,71.016 15.766,71.408 16.166,72.032C16.566,72.656 16.686,73.32 16.526,74.024C14.318,83.208 11.662,92.056 8.558,100.568C8.494,100.824 8.59,100.952 8.846,100.952C14.958,100.44 21.262,99.72 27.758,98.792C28.046,98.728 28.126,98.568 27.998,98.312C26.27,94.6 24.99,91.88 24.158,90.152C23.806,89.48 23.75,88.792 23.99,88.088C24.23,87.384 24.702,86.872 25.406,86.552L26.318,86.168C27.022,85.848 27.726,85.816 28.43,86.072C29.134,86.328 29.662,86.792 30.014,87.464C32.382,92.392 34.926,97.88 37.646,103.928C37.966,104.6 37.982,105.272 37.694,105.944C37.406,106.616 36.91,107.096 36.206,107.384L35.198,107.816C34.494,108.104 33.798,108.104 33.11,107.816C32.422,107.528 31.918,107.032 31.598,106.328C31.566,106.296 31.454,106.064 31.262,105.632C31.07,105.2 30.926,104.872 30.83,104.648C30.734,104.36 30.558,104.248 30.302,104.312C19.486,105.912 9.15,106.936 -0.706,107.384Z" style="fill:rgb(13,242,239);fill-rule:nonzero;"/>
                    <path d="M48.014,91.736L47.582,91.4C47.038,90.92 46.75,90.304 46.718,89.552C46.686,88.8 46.91,88.152 47.39,87.608C51.39,83.032 54.014,77.8 55.262,71.912C55.422,71.144 55.798,70.52 56.39,70.04C56.982,69.56 57.662,69.336 58.43,69.368L59.246,69.416C59.982,69.48 60.59,69.8 61.07,70.376C61.55,70.952 61.726,71.592 61.598,72.296C61.566,72.616 61.486,73.016 61.358,73.496C61.294,73.752 61.406,73.88 61.694,73.88L79.694,73.88C80.462,73.88 81.118,74.144 81.662,74.672C82.206,75.2 82.462,75.832 82.43,76.568C82.206,86.744 79.758,94.368 75.086,99.44C70.414,104.512 63.07,107.64 53.054,108.824C52.286,108.92 51.59,108.728 50.966,108.248C50.342,107.768 49.966,107.144 49.838,106.376L49.742,105.992C49.614,105.288 49.774,104.64 50.222,104.048C50.67,103.456 51.262,103.112 51.998,103.016C59.902,101.96 65.654,99.696 69.254,96.224C72.854,92.752 74.942,87.352 75.518,80.024C75.518,79.768 75.39,79.64 75.134,79.64L59.966,79.64C59.678,79.64 59.486,79.768 59.39,80.024C57.694,84.216 55.214,88.072 51.95,91.592C51.438,92.168 50.798,92.464 50.03,92.48C49.262,92.496 48.59,92.248 48.014,91.736Z" style="fill:rgb(13,242,239);fill-rule:nonzero;"/>
                    <path d="M125.966,70.664C126.702,70.664 127.334,70.936 127.862,71.48C128.39,72.024 128.654,72.664 128.654,73.4L128.654,83.816C128.654,91.624 126.854,97.584 123.254,101.696C119.654,105.808 114.014,108.424 106.334,109.544C105.566,109.672 104.854,109.512 104.198,109.064C103.542,108.616 103.134,108.008 102.974,107.24L102.878,106.616C102.718,105.912 102.838,105.264 103.238,104.672C103.638,104.08 104.206,103.72 104.942,103.592C111.246,102.536 115.63,100.552 118.094,97.64C120.558,94.728 121.79,90.168 121.79,83.96L121.79,73.4C121.79,72.664 122.062,72.024 122.606,71.48C123.15,70.936 123.79,70.664 124.526,70.664L125.966,70.664ZM100.334,92.264C99.598,92.264 98.966,92 98.438,91.472C97.91,90.944 97.646,90.312 97.646,89.576L97.646,73.4C97.646,72.664 97.91,72.024 98.438,71.48C98.966,70.936 99.598,70.664 100.334,70.664L101.63,70.664C102.366,70.664 103.006,70.936 103.55,71.48C104.094,72.024 104.366,72.664 104.366,73.4L104.366,89.576C104.366,90.312 104.094,90.944 103.55,91.472C103.006,92 102.366,92.264 101.63,92.264L100.334,92.264Z" style="fill:rgb(13,242,239);fill-rule:nonzero;"/>
                    <path d="M145.31,77.72C144.574,77.72 143.934,77.448 143.39,76.904C142.846,76.36 142.574,75.72 142.574,74.984L142.574,74.84C142.574,74.104 142.846,73.464 143.39,72.92C143.934,72.376 144.574,72.104 145.31,72.104L178.766,72.104C179.502,72.104 180.134,72.376 180.662,72.92C181.19,73.464 181.454,74.104 181.454,74.84L181.454,74.984C181.454,77.096 181.15,78.856 180.542,80.264C178.494,85.032 175.278,88.968 170.894,92.072C170.254,92.52 169.55,92.68 168.782,92.552C168.014,92.424 167.39,92.04 166.91,91.4L166.478,90.776C166.062,90.2 165.91,89.56 166.022,88.856C166.134,88.152 166.494,87.576 167.102,87.128C170.686,84.568 173.134,81.56 174.446,78.104C174.574,77.848 174.494,77.72 174.206,77.72L145.31,77.72ZM157.79,81.56L158.75,81.56C159.486,81.56 160.126,81.832 160.67,82.376C161.214,82.92 161.47,83.56 161.438,84.296C161.278,90.92 160.398,95.984 158.798,99.488C157.198,102.992 154.478,105.832 150.638,108.008C149.966,108.392 149.254,108.48 148.502,108.272C147.75,108.064 147.166,107.624 146.75,106.952L146.414,106.328C146.03,105.72 145.926,105.072 146.102,104.384C146.278,103.696 146.67,103.16 147.278,102.776C150.03,101.112 151.982,98.928 153.134,96.224C154.286,93.52 154.926,89.528 155.054,84.248C155.086,83.512 155.366,82.88 155.894,82.352C156.422,81.824 157.054,81.56 157.79,81.56Z" style="fill:rgb(13,242,239);fill-rule:nonzero;"/>
                    <path d="M192.014,92.936C191.278,92.936 190.646,92.664 190.118,92.12C189.59,91.576 189.326,90.936 189.326,90.2L189.326,89.24C189.326,88.504 189.59,87.864 190.118,87.32C190.646,86.776 191.278,86.504 192.014,86.504L226.286,86.504C227.022,86.504 227.654,86.776 228.182,87.32C228.71,87.864 228.974,88.504 228.974,89.24L228.974,90.2C228.974,90.936 228.71,91.576 228.182,92.12C227.654,92.664 227.022,92.936 226.286,92.936L192.014,92.936Z" style="fill:rgb(13,242,239);fill-rule:nonzero;"/>
                    <path d="M256.814,96.44C256.046,96.44 255.39,96.176 254.846,95.648C254.302,95.12 254.014,94.472 253.982,93.704L253.262,74.696C253.23,73.96 253.47,73.32 253.982,72.776C254.494,72.232 255.118,71.96 255.854,71.96L258.446,71.96C259.182,71.96 259.806,72.232 260.318,72.776C260.83,73.32 261.07,73.96 261.038,74.696L260.318,93.704C260.286,94.472 259.998,95.12 259.454,95.648C258.91,96.176 258.254,96.44 257.486,96.44L256.814,96.44ZM257.966,100.28C258.702,100.28 259.334,100.552 259.862,101.096C260.39,101.64 260.654,102.28 260.654,103.016L260.654,104.264C260.654,105 260.39,105.64 259.862,106.184C259.334,106.728 258.702,107 257.966,107L256.334,107C255.598,107 254.966,106.728 254.438,106.184C253.91,105.64 253.646,105 253.646,104.264L253.646,103.016C253.646,102.28 253.91,101.64 254.438,101.096C254.966,100.552 255.598,100.28 256.334,100.28L257.966,100.28Z" style="fill:rgb(13,242,239);fill-rule:nonzero;"/>
                </g>
            </g>
        </g>
    </g>
</svg>
