<?xml version="1.0" encoding="UTF-8" standalone="no"?>
<!DOCTYPE svg PUBLIC "-//W3C//DTD SVG 1.1//EN" "http://www.w3.org/Graphics/SVG/1.1/DTD/svg11.dtd">
<svg viewBox="0 0 480 360" version="1.1" xmlns="http://www.w3.org/2000/svg" xmlns:xlink="http://www.w3.org/1999/xlink" xml:space="preserve" xmlns:serif="http://www.serif.com/" style="fill-rule:evenodd;clip-rule:evenodd;stroke-linecap:round;stroke-miterlimit:2;">
    <g transform="matrix(1,0,0,1,-480,0)">
        <g id="background2" transform="matrix(1.16981,0,0,1.00101,-686.637,-2.802)">
            <rect x="997.284" y="2.799" width="410.322" height="359.638" style="fill:none;"/>
            <clipPath id="_clip1">
                <rect x="997.284" y="2.799" width="410.322" height="359.638"/>
            </clipPath>
            <g clip-path="url(#_clip1)">
                <g id="wall2" transform="matrix(0.854837,0,0,0.998994,997.284,2.79918)">
                    <g transform="matrix(1.05899,0,0,0.685969,-795.745,66.6484)">
                        <g id="window">
                            <g>
                                <g transform="matrix(0.990359,0,0,1.06379,975.079,-7.40676)">
                                    <rect x="126" y="65" width="82" height="185" style="fill:rgb(0,238,255);fill-opacity:0.15;"/>
                                </g>
                                <g transform="matrix(0.854837,0,0,0.998994,990.446,2.79918)">
                                    <path d="M154.359,256L137.852,256L187.818,59L204.324,59L154.359,256Z" style="fill:white;fill-opacity:0.85;"/>
                                </g>
                                <g transform="matrix(0.854837,0,0,0.998994,990.446,2.79918)">
                                    <path d="M164.595,256L158.106,256L208.071,59L214.56,59L164.595,256Z" style="fill:white;fill-opacity:0.85;"/>
                                </g>
                                <g transform="matrix(0.854837,0,0,0.998994,997.284,2.79918)">
                                    <path d="M215,59L120,59L120,256L215,256L215,59ZM209,64L126,64L126,251L209,251L209,64Z" style="fill:rgb(238,238,238);stroke:rgb(87,87,87);stroke-width:1.25px;"/>
                                </g>
                            </g>
                        </g>
                    </g>
                    <g transform="matrix(1.05899,0,0,0.685969,-881.745,66.6484)">
                        <g id="window1" serif:id="window">
                            <g>
                                <g transform="matrix(0.990359,0,0,1.06379,975.079,-7.40676)">
                                    <rect x="126" y="65" width="82" height="185" style="fill:rgb(0,238,255);fill-opacity:0.15;"/>
                                </g>
                                <g transform="matrix(0.854837,0,0,0.998994,990.446,2.79918)">
                                    <path d="M154.359,256L137.852,256L187.818,59L204.324,59L154.359,256Z" style="fill:white;fill-opacity:0.85;"/>
                                </g>
                                <g transform="matrix(0.854837,0,0,0.998994,990.446,2.79918)">
                                    <path d="M164.595,256L158.106,256L208.071,59L214.56,59L164.595,256Z" style="fill:white;fill-opacity:0.85;"/>
                                </g>
                                <g transform="matrix(0.854837,0,0,0.998994,997.284,2.79918)">
                                    <path d="M215,59L120,59L120,256L215,256L215,59ZM209,64L126,64L126,251L209,251L209,64Z" style="fill:rgb(238,238,238);stroke:rgb(87,87,87);stroke-width:1.25px;"/>
                                </g>
                            </g>
                        </g>
                    </g>
                    <g transform="matrix(1.05899,0,0,0.685969,-967.745,66.6484)">
                        <g id="window2" serif:id="window">
                            <g>
                                <g transform="matrix(0.990359,0,0,1.06379,975.079,-7.40676)">
                                    <rect x="126" y="65" width="82" height="185" style="fill:rgb(0,238,255);fill-opacity:0.15;"/>
                                </g>
                                <g transform="matrix(0.854837,0,0,0.998994,990.446,2.79918)">
                                    <path d="M154.359,256L137.852,256L187.818,59L204.324,59L154.359,256Z" style="fill:white;fill-opacity:0.85;"/>
                                </g>
                                <g transform="matrix(0.854837,0,0,0.998994,990.446,2.79918)">
                                    <path d="M164.595,256L158.106,256L208.071,59L214.56,59L164.595,256Z" style="fill:white;fill-opacity:0.85;"/>
                                </g>
                                <g transform="matrix(0.854837,0,0,0.998994,997.284,2.79918)">
                                    <path d="M215,59L120,59L120,256L215,256L215,59ZM209,64L126,64L126,251L209,251L209,64Z" style="fill:rgb(238,238,238);stroke:rgb(87,87,87);stroke-width:1.25px;"/>
                                </g>
                            </g>
                        </g>
                    </g>
                    <g transform="matrix(1.05899,0,0,0.685969,-1053.75,66.6484)">
                        <g id="window3" serif:id="window">
                            <g>
                                <g transform="matrix(0.990359,0,0,1.06379,975.079,-7.40676)">
                                    <rect x="126" y="65" width="82" height="185" style="fill:rgb(0,238,255);fill-opacity:0.15;"/>
                                </g>
                                <g transform="matrix(0.854837,0,0,0.998994,990.446,2.79918)">
                                    <path d="M154.359,256L137.852,256L187.818,59L204.324,59L154.359,256Z" style="fill:white;fill-opacity:0.85;"/>
                                </g>
                                <g transform="matrix(0.854837,0,0,0.998994,990.446,2.79918)">
                                    <path d="M164.595,256L158.106,256L208.071,59L214.56,59L164.595,256Z" style="fill:white;fill-opacity:0.85;"/>
                                </g>
                                <g transform="matrix(0.854837,0,0,0.998994,997.284,2.79918)">
                                    <path d="M215,59L120,59L120,256L215,256L215,59ZM209,64L126,64L126,251L209,251L209,64Z" style="fill:rgb(238,238,238);stroke:rgb(87,87,87);stroke-width:1.25px;"/>
                                </g>
                            </g>
                        </g>
                    </g>
                    <g transform="matrix(1.05899,0,0,0.685969,-1139.75,66.6484)">
                        <g id="window4" serif:id="window">
                            <g>
                                <g transform="matrix(0.990359,0,0,1.06379,975.079,-7.40676)">
                                    <rect x="126" y="65" width="82" height="185" style="fill:rgb(0,238,255);fill-opacity:0.15;"/>
                                </g>
                                <g transform="matrix(0.854837,0,0,0.998994,990.446,2.79918)">
                                    <path d="M154.359,256L137.852,256L187.818,59L204.324,59L154.359,256Z" style="fill:white;fill-opacity:0.85;"/>
                                </g>
                                <g transform="matrix(0.854837,0,0,0.998994,990.446,2.79918)">
                                    <path d="M164.595,256L158.106,256L208.071,59L214.56,59L164.595,256Z" style="fill:white;fill-opacity:0.85;"/>
                                </g>
                                <g transform="matrix(0.854837,0,0,0.998994,997.284,2.79918)">
                                    <path d="M215,59L120,59L120,256L215,256L215,59ZM209,64L126,64L126,251L209,251L209,64Z" style="fill:rgb(238,238,238);stroke:rgb(87,87,87);stroke-width:1.25px;"/>
                                </g>
                            </g>
                        </g>
                    </g>
                    <g transform="matrix(9.60784,0,0,0.133136,-158.725,44.571)">
                        <rect x="16" y="22" width="51" height="338" style="fill:rgb(245,245,245);stroke:rgb(87,87,87);stroke-width:0.15px;"/>
                    </g>
                    <g transform="matrix(9.60784,0,0,0.133136,-158.725,61.071)">
                        <rect x="16" y="22" width="51" height="338" style="fill:rgb(238,238,238);stroke:rgb(87,87,87);stroke-width:0.15px;"/>
                    </g>
                    <g transform="matrix(8.43137,0,0,0.133136,-109.902,61.071)">
                        <rect x="16" y="22" width="51" height="338" style="fill:rgb(238,238,238);stroke:rgb(87,87,87);stroke-width:0.17px;"/>
                    </g>
                    <g transform="matrix(0.980392,0,0,1.07988,439.314,-26.2574)">
                        <rect x="16" y="22" width="51" height="338" style="fill:white;stroke:rgb(87,87,87);stroke-width:0.97px;"/>
                    </g>
                    <g transform="matrix(0.980392,0,0,1.07988,-40.6863,-26.2574)">
                        <rect x="16" y="22" width="51" height="338" style="fill:white;stroke:rgb(87,87,87);stroke-width:0.97px;"/>
                    </g>
                    <g transform="matrix(9.60784,0,0,0.350592,-158.725,236.287)">
                        <rect x="16" y="22" width="51" height="338" style="fill:white;stroke:rgb(87,87,87);stroke-width:0.15px;"/>
                    </g>
                    <g transform="matrix(9.60784,0,0,0.439349,-158.725,-110.666)">
                        <rect x="16" y="22" width="51" height="338" style="fill:white;stroke:rgb(87,87,87);stroke-width:0.15px;"/>
                    </g>
                    <g id="plant" transform="matrix(-1,0,0,1,489.856,-0.0145108)">
                        <g transform="matrix(0.807174,0,0,0.904339,-1124.3,25.1772)">
                            <path d="M1460.79,268.627C1460.45,261.122 1459.57,250.169 1458.04,242.932C1456.95,237.854 1456.37,232.163 1455.66,227.027C1454.79,220.681 1453.37,215.189 1450.84,209.313C1448.51,203.896 1448.39,201.712 1445.25,197.54C1444,195.879 1439.54,191.306 1438.34,189.615C1437.93,189.042 1434.52,185.546 1434.13,184.96C1433.96,184.699 1422.96,171.241 1423.23,171.414C1430.23,176.018 1447.29,193.627 1452.41,200.37C1455,203.774 1459.46,216.905 1460.65,221.179C1461.05,222.624 1462.36,234.253 1463.73,222.352C1464.39,216.688 1464.06,214.218 1462.75,206.055C1462.12,202.136 1462.25,195.659 1462.1,191.663C1461.82,184.59 1461.77,181.176 1462.59,174.162C1463.02,170.499 1463.54,169.075 1464.27,165.448C1464.51,164.213 1465.01,161.024 1465.27,159.791C1465.35,159.379 1466.93,156.408 1467.04,156.001C1467.09,155.787 1473.21,146.633 1473.38,146.774C1474.16,147.424 1468.21,155.619 1467.4,163.215C1466.92,167.687 1466.1,171.368 1466.11,175.865C1466.13,183.504 1466.06,189.991 1466.53,197.622C1467.04,205.812 1467.59,213.432 1468.53,221.566C1469.14,226.825 1464.99,233.963 1464.47,239.264C1464.29,241.055 1465.84,250.517 1466.1,250.366C1471.49,247.285 1473.79,235.424 1475.77,229.713C1477,226.153 1478.29,222.776 1480.58,219.565C1482.84,216.379 1485.63,213.502 1488.46,210.815C1489.5,209.83 1490.54,208.846 1491.63,207.927C1491.95,207.66 1492.28,207.409 1492.61,207.158C1492.83,206.991 1493.45,206.446 1493.28,206.661C1489.08,211.81 1484.33,216.404 1481.08,222.264C1478.36,227.179 1478.05,233.493 1476.84,239.007C1476.15,242.106 1474.22,244.536 1473.36,247.566C1472.44,250.812 1470.67,253.748 1469.74,256.999C1468.82,260.2 1468.8,263.574 1468.46,266.867" style="fill:rgb(135,108,100);stroke:black;stroke-width:1.17px;"/>
                        </g>
                        <g transform="matrix(0.498747,0.866748,-0.866748,0.498747,-499.076,-1144.4)">
                            <path d="M1465.62,153.123C1460.9,153.123 1457.08,157.791 1457.08,163.541C1457.08,169.292 1460.9,173.96 1465.62,173.96C1464.44,171.355 1463.48,167.584 1463.48,163.541C1463.48,159.499 1464.44,155.728 1465.62,153.123Z" style="fill:rgb(40,181,0);stroke:rgb(0,137,31);stroke-width:1px;"/>
                        </g>
                        <g transform="matrix(0.380863,0.661884,-0.658351,0.378831,-381.27,-872.114)">
                            <path d="M1465.62,153.123C1460.9,153.123 1457.08,157.791 1457.08,163.541C1457.08,169.292 1460.9,173.96 1465.62,173.96C1464.44,171.355 1463.48,167.584 1463.48,163.541C1463.48,159.499 1464.44,155.728 1465.62,153.123Z" style="fill:rgb(40,181,0);stroke:rgb(0,137,31);stroke-width:1.31px;"/>
                        </g>
                        <g transform="matrix(0.60831,0.75486,-0.778833,0.627629,-697.179,-1034.2)">
                            <path d="M1465.62,153.123C1460.9,153.123 1457.08,157.791 1457.08,163.541C1457.08,169.292 1460.9,173.96 1465.62,173.96C1464.44,171.355 1463.48,167.584 1463.48,163.541C1463.48,159.499 1464.44,155.728 1465.62,153.123Z" style="fill:rgb(40,181,0);stroke:rgb(0,137,31);stroke-width:1.02px;"/>
                        </g>
                        <g transform="matrix(0.0818392,0.966001,-0.996679,0.0844383,111.783,-1222.4)">
                            <path d="M1465.62,153.123C1460.9,153.123 1457.08,157.791 1457.08,163.541C1457.08,169.292 1460.9,173.96 1465.62,173.96C1464.44,171.355 1463.48,167.584 1463.48,163.541C1463.48,159.499 1464.44,155.728 1465.62,153.123Z" style="fill:rgb(40,181,0);stroke:rgb(0,137,31);stroke-width:1.02px;"/>
                        </g>
                        <g transform="matrix(0.382745,0.665154,-0.652722,0.375591,-388.218,-842.498)">
                            <path d="M1465.62,153.123C1460.9,153.123 1457.08,157.791 1457.08,163.541C1457.08,169.292 1460.9,173.96 1465.62,173.96C1464.44,171.355 1463.48,167.584 1463.48,163.541C1463.48,159.499 1464.44,155.728 1465.62,153.123Z" style="fill:rgb(40,181,0);stroke:rgb(0,137,31);stroke-width:1.32px;"/>
                        </g>
                        <g transform="matrix(0.767243,0.0161733,-0.015871,0.752903,-1052.48,76.4712)">
                            <path d="M1465.62,153.123C1460.9,153.123 1457.08,157.791 1457.08,163.541C1457.08,169.292 1460.9,173.96 1465.62,173.96C1464.44,171.355 1463.48,167.584 1463.48,163.541C1463.48,159.499 1464.44,155.728 1465.62,153.123Z" style="fill:rgb(40,181,0);stroke:rgb(0,137,31);stroke-width:1.32px;"/>
                        </g>
                        <g transform="matrix(0.325692,0.770117,-0.81196,0.343388,-264.038,-963.921)">
                            <path d="M1465.62,153.123C1460.9,153.123 1457.08,157.791 1457.08,163.541C1457.08,169.292 1460.9,173.96 1465.62,173.96C1464.44,171.355 1463.48,167.584 1463.48,163.541C1463.48,159.499 1464.44,155.728 1465.62,153.123Z" style="fill:rgb(40,181,0);stroke:rgb(0,137,31);stroke-width:1.16px;"/>
                        </g>
                        <g transform="matrix(-0.237335,0.66779,0.604908,0.214987,268.885,-833.812)">
                            <path d="M1465.62,153.123C1460.9,153.123 1457.08,157.791 1457.08,163.541C1457.08,169.292 1460.9,173.96 1465.62,173.96C1464.44,171.355 1463.48,167.584 1463.48,163.541C1463.48,159.499 1464.44,155.728 1465.62,153.123Z" style="fill:rgb(40,181,0);stroke:rgb(0,137,31);stroke-width:1.48px;"/>
                        </g>
                        <g transform="matrix(-0.180221,0.78869,0.790822,0.180708,164.83,-989.392)">
                            <path d="M1465.62,153.123C1460.9,153.123 1457.08,157.791 1457.08,163.541C1457.08,169.292 1460.9,173.96 1465.62,173.96C1464.44,171.355 1463.48,167.584 1463.48,163.541C1463.48,159.499 1464.44,155.728 1465.62,153.123Z" style="fill:rgb(40,181,0);stroke:rgb(0,137,31);stroke-width:1.23px;"/>
                        </g>
                        <g transform="matrix(-0.0110213,0.855668,0.839075,0.0108075,-83.0077,-1043.11)">
                            <path d="M1465.62,153.123C1460.9,153.123 1457.08,157.791 1457.08,163.541C1457.08,169.292 1460.9,173.96 1465.62,173.96C1464.44,171.355 1463.48,167.584 1463.48,163.541C1463.48,159.499 1464.44,155.728 1465.62,153.123Z" style="fill:rgb(40,181,0);stroke:rgb(0,137,31);stroke-width:1.18px;"/>
                        </g>
                        <g transform="matrix(-0.255113,0.816827,0.800987,0.250166,282.402,-1034.38)">
                            <path d="M1465.62,153.123C1460.9,153.123 1457.08,157.791 1457.08,163.541C1457.08,169.292 1460.9,173.96 1465.62,173.96C1464.44,171.355 1463.48,167.584 1463.48,163.541C1463.48,159.499 1464.44,155.728 1465.62,153.123Z" style="fill:rgb(40,181,0);stroke:rgb(0,137,31);stroke-width:1.18px;"/>
                        </g>
                        <g transform="matrix(-0.297591,0.570634,0.625793,0.326357,383.44,-707.528)">
                            <path d="M1465.62,153.123C1460.9,153.123 1457.08,157.791 1457.08,163.541C1457.08,169.292 1460.9,173.96 1465.62,173.96C1466.79,171.355 1467.75,167.584 1467.75,163.541C1467.75,159.499 1466.79,155.728 1465.62,153.123Z" style="fill:rgb(40,181,0);stroke:rgb(0,137,31);stroke-width:1.48px;"/>
                        </g>
                        <g transform="matrix(-0.259864,0.669046,0.764213,0.296828,303.684,-837.405)">
                            <path d="M1465.62,153.123C1460.9,153.123 1457.08,157.791 1457.08,163.541C1457.08,169.292 1460.9,173.96 1465.62,173.96L1465.62,153.123Z" style="fill:rgb(40,181,0);stroke:rgb(0,137,31);stroke-width:1.3px;"/>
                        </g>
                        <g transform="matrix(0.105523,0.908119,0.902477,-0.104867,-260.543,-1091.57)">
                            <path d="M1465.62,153.123C1460.9,153.123 1457.08,157.791 1457.08,163.541C1457.08,169.292 1460.9,173.96 1465.62,173.96C1464.44,171.355 1463.48,167.584 1463.48,163.541C1463.48,159.499 1464.44,155.728 1465.62,153.123Z" style="fill:rgb(40,181,0);stroke:rgb(0,137,31);stroke-width:1.1px;"/>
                        </g>
                        <g transform="matrix(0.105523,0.908119,0.902477,-0.104867,-253.785,-1086.24)">
                            <path d="M1465.62,153.123C1460.9,153.123 1457.08,157.791 1457.08,163.541C1457.08,169.292 1460.9,173.96 1465.62,173.96C1464.44,171.355 1463.48,167.584 1463.48,163.541C1463.48,159.499 1464.44,155.728 1465.62,153.123Z" style="fill:rgb(40,181,0);stroke:rgb(0,137,31);stroke-width:1.1px;"/>
                        </g>
                        <g transform="matrix(0.833333,-2.04108e-17,2.04108e-17,-1,-1166.09,563.25)">
                            <path d="M1493,303.25L1445,303.25L1452.27,260L1485.84,260L1493,303.25Z" style="fill:white;stroke:black;stroke-width:1.09px;"/>
                        </g>
                    </g>
                </g>
            </g>
        </g>
    </g>
</svg>
